G04 ================== begin FILE IDENTIFICATION RECORD ==================*
G04 Layout Name:  D018942_06_v03_ek_ra8d1.brd*
G04 Film Name:    ASSEMBLY_BOTTOM*
G04 File Format:  Gerber RS274X*
G04 File Origin:  Cadence Allegro 22.1-S002*
G04 Origin Date:  Thu Mar 16 08:59:48 2023*
G04 *
G04 Layer:  REF DES/ASSEMBLY_BOTTOM*
G04 Layer:  PACKAGE GEOMETRY/ASSEMBLY_BOTTOM*
G04 Layer:  BOARD GEOMETRY/OUTLINE*
G04 *
G04 Offset:    (0.000 0.000)*
G04 Mirror:    No*
G04 Mode:      Positive*
G04 Rotation:  0*
G04 FullContactRelief:  No*
G04 UndefLineWidth:     0.100*
G04 ================== end FILE IDENTIFICATION RECORD ====================*
%FSLAX35Y35*MOMM*%
%IR0*IPPOS*OFA0.00000B0.00000*MIA0B0*SFA1.00000B1.00000*%
%ADD10C,.01*%
%ADD11C,.05*%
%ADD12C,.1*%
%ADD13C,.4*%
%ADD14C,.15*%
G75*
%LPD*%
G75*
G36*
G01X3485000Y1420000D02*
G03X3485000Y1420000I-25000J0D01*
G37*
G36*
G01X5570000Y8819000D02*
G03X5570000Y8819000I-25000J0D01*
G37*
G54D10*
G01X2341000Y5049300D02*
X2340000Y5049300D01*
X2340000Y5074300D01*
X2390000Y5074300D01*
X2390000Y5049300D01*
X2389000Y5049300D01*
G01X2389000Y5049300D02*
X2341000Y5049300D01*
G01X2389000Y4999300D02*
X2390000Y4999300D01*
X2390000Y4974300D01*
X2340000Y4974300D01*
X2340000Y4999300D01*
X2341000Y4999300D01*
G01X2341000Y4999300D02*
X2389000Y4999300D01*
G01X2341000Y4999300D02*
X2341000Y5049300D01*
G01X2389000Y5049300D02*
X2389000Y4999300D01*
G01X2534000Y5256000D02*
X2534000Y5255000D01*
X2509000Y5255000D01*
X2509000Y5305000D01*
X2534000Y5305000D01*
X2534000Y5304000D01*
G01X2534000Y5304000D02*
X2534000Y5256000D01*
G01X2584000Y5304000D02*
X2584000Y5305000D01*
X2609000Y5305000D01*
X2609000Y5255000D01*
X2584000Y5255000D01*
X2584000Y5256000D01*
G01X2584000Y5256000D02*
X2584000Y5304000D01*
G01X2584000Y5256000D02*
X2534000Y5256000D01*
G01X2534000Y5304000D02*
X2584000Y5304000D01*
G01X2649000Y2141200D02*
X2649000Y2140200D01*
X2624000Y2140200D01*
X2624000Y2190200D01*
X2649000Y2190200D01*
X2649000Y2189200D01*
G01X2649000Y2189200D02*
X2649000Y2141200D01*
G01X2649000Y2189200D02*
X2699000Y2189200D01*
G01X2699000Y2189200D02*
X2699000Y2190200D01*
X2724000Y2190200D01*
X2724000Y2140200D01*
X2699000Y2140200D01*
X2699000Y2141200D01*
G01X2699000Y2141200D02*
X2699000Y2189200D01*
G01X2699000Y2141200D02*
X2649000Y2141200D01*
G01X2740000Y4850300D02*
X2690000Y4850300D01*
G01X2690000Y4850300D02*
X2690000Y4849300D01*
X2665000Y4849300D01*
X2665000Y4899300D01*
X2690000Y4899300D01*
X2690000Y4898300D01*
G01X2690000Y4898300D02*
X2690000Y4850300D01*
G01X2690000Y4898300D02*
X2740000Y4898300D01*
G01X2740000Y4898300D02*
X2740000Y4899300D01*
X2765000Y4899300D01*
X2765000Y4849300D01*
X2740000Y4849300D01*
X2740000Y4850300D01*
G01X2740000Y4850300D02*
X2740000Y4898300D01*
G01X3470000Y2383300D02*
X3420000Y2383300D01*
G01X3420000Y2383300D02*
X3420000Y2382300D01*
X3395000Y2382300D01*
X3395000Y2432300D01*
X3420000Y2432300D01*
X3420000Y2431300D01*
G01X3420000Y2431300D02*
X3420000Y2383300D01*
G01X3420000Y2431300D02*
X3470000Y2431300D01*
G01X3470000Y2673300D02*
X3420000Y2673300D01*
G01X3420000Y2673300D02*
X3420000Y2672300D01*
X3395000Y2672300D01*
X3395000Y2722300D01*
X3420000Y2722300D01*
X3420000Y2721300D01*
G01X3420000Y2721300D02*
X3420000Y2673300D01*
G01X3420000Y2721300D02*
X3470000Y2721300D01*
G01X3420000Y2928300D02*
X3420000Y2927300D01*
X3395000Y2927300D01*
X3395000Y2977300D01*
X3420000Y2977300D01*
X3420000Y2976300D01*
G01X3420000Y2976300D02*
X3420000Y2928300D01*
G01X3470000Y2928300D02*
X3420000Y2928300D01*
G01X3419000Y2828500D02*
X3419000Y2827500D01*
X3394000Y2827500D01*
X3394000Y2877500D01*
X3419000Y2877500D01*
X3419000Y2876500D01*
G01X3419000Y2876500D02*
X3419000Y2828500D01*
G01X3419000Y2876500D02*
X3469000Y2876500D01*
G01X3469000Y2828500D02*
X3419000Y2828500D01*
G01X3420000Y2976300D02*
X3470000Y2976300D01*
G01X3470000Y2431300D02*
X3470000Y2432300D01*
X3495000Y2432300D01*
X3495000Y2382300D01*
X3470000Y2382300D01*
X3470000Y2383300D01*
G01X3470000Y2383300D02*
X3470000Y2431300D01*
G01X3470000Y2721300D02*
X3470000Y2722300D01*
X3495000Y2722300D01*
X3495000Y2672300D01*
X3470000Y2672300D01*
X3470000Y2673300D01*
G01X3470000Y2673300D02*
X3470000Y2721300D01*
G01X3470000Y2976300D02*
X3470000Y2977300D01*
X3495000Y2977300D01*
X3495000Y2927300D01*
X3470000Y2927300D01*
X3470000Y2928300D01*
G01X3470000Y2928300D02*
X3470000Y2976300D01*
G01X3469000Y2876500D02*
X3469000Y2877500D01*
X3494000Y2877500D01*
X3494000Y2827500D01*
X3469000Y2827500D01*
X3469000Y2828500D01*
G01X3469000Y2828500D02*
X3469000Y2876500D01*
G01X3664000Y2527300D02*
X3665000Y2527300D01*
X3665000Y2502300D01*
X3615000Y2502300D01*
X3615000Y2527300D01*
X3616000Y2527300D01*
G01X3616000Y2527300D02*
X3664000Y2527300D01*
G01X3616000Y2527300D02*
X3616000Y2577300D01*
G01X3616000Y2577300D02*
X3615000Y2577300D01*
X3615000Y2602300D01*
X3665000Y2602300D01*
X3665000Y2577300D01*
X3664000Y2577300D01*
G01X3664000Y2577300D02*
X3616000Y2577300D01*
G01X3664000Y2577300D02*
X3664000Y2527300D01*
G01X3818000Y2079000D02*
X3819000Y2079000D01*
X3819000Y2054000D01*
X3769000Y2054000D01*
X3769000Y2079000D01*
X3770000Y2079000D01*
G01X3770000Y2079000D02*
X3818000Y2079000D01*
G01X3770000Y2079000D02*
X3770000Y2129000D01*
G01X3770000Y2129000D02*
X3769000Y2129000D01*
X3769000Y2154000D01*
X3819000Y2154000D01*
X3819000Y2129000D01*
X3818000Y2129000D01*
G01X3818000Y2129000D02*
X3770000Y2129000D01*
G01X3786000Y2577300D02*
X3785000Y2577300D01*
X3785000Y2602300D01*
X3835000Y2602300D01*
X3835000Y2577300D01*
X3834000Y2577300D01*
G01X3834000Y2577300D02*
X3786000Y2577300D01*
G01X3834000Y2527300D02*
X3835000Y2527300D01*
X3835000Y2502300D01*
X3785000Y2502300D01*
X3785000Y2527300D01*
X3786000Y2527300D01*
G01X3786000Y2527300D02*
X3834000Y2527300D01*
G01X3786000Y2527300D02*
X3786000Y2577300D01*
G01X3842500Y2720800D02*
X3843500Y2720800D01*
X3843500Y2695800D01*
X3793500Y2695800D01*
X3793500Y2720800D01*
X3794500Y2720800D01*
G01X3794500Y2720800D02*
X3842500Y2720800D01*
G01X3794500Y2720800D02*
X3794500Y2770800D01*
G01X3794500Y2770800D02*
X3793500Y2770800D01*
X3793500Y2795800D01*
X3843500Y2795800D01*
X3843500Y2770800D01*
X3842500Y2770800D01*
G01X3842500Y2770800D02*
X3794500Y2770800D01*
G01X3881500Y2101100D02*
X3880500Y2101100D01*
X3880500Y2126100D01*
X3930500Y2126100D01*
X3930500Y2101100D01*
X3929500Y2101100D01*
G01X3929500Y2101100D02*
X3881500Y2101100D01*
G01X3929500Y2051100D02*
X3930500Y2051100D01*
X3930500Y2026100D01*
X3880500Y2026100D01*
X3880500Y2051100D01*
X3881500Y2051100D01*
G01X3881500Y2051100D02*
X3929500Y2051100D01*
G01X3881500Y2051100D02*
X3881500Y2101100D01*
G01X3818000Y2129000D02*
X3818000Y2079000D01*
G01X3834000Y2577300D02*
X3834000Y2527300D01*
G01X3842500Y2770800D02*
X3842500Y2720800D01*
G01X4059000Y1832300D02*
X4060000Y1832300D01*
X4060000Y1807300D01*
X4010000Y1807300D01*
X4010000Y1832300D01*
X4011000Y1832300D01*
G01X4011000Y1832300D02*
X4059000Y1832300D01*
G01X4011000Y1832300D02*
X4011000Y1882300D01*
G01X4059000Y2012300D02*
X4060000Y2012300D01*
X4060000Y1987300D01*
X4010000Y1987300D01*
X4010000Y2012300D01*
X4011000Y2012300D01*
G01X4011000Y1882300D02*
X4010000Y1882300D01*
X4010000Y1907300D01*
X4060000Y1907300D01*
X4060000Y1882300D01*
X4059000Y1882300D01*
G01X4059000Y1882300D02*
X4011000Y1882300D01*
G01X3929500Y2101100D02*
X3929500Y2051100D01*
G01X4011000Y2012300D02*
X4059000Y2012300D01*
G01X4011000Y2012300D02*
X4011000Y2062300D01*
G01X4011000Y2062300D02*
X4010000Y2062300D01*
X4010000Y2087300D01*
X4060000Y2087300D01*
X4060000Y2062300D01*
X4059000Y2062300D01*
G01X4059000Y2062300D02*
X4011000Y2062300D01*
G01X3936000Y2577300D02*
X3935000Y2577300D01*
X3935000Y2602300D01*
X3985000Y2602300D01*
X3985000Y2577300D01*
X3984000Y2577300D01*
G01X3984000Y2577300D02*
X3936000Y2577300D01*
G01X3984000Y2577300D02*
X3984000Y2527300D01*
G01X3984000Y2527300D02*
X3985000Y2527300D01*
X3985000Y2502300D01*
X3935000Y2502300D01*
X3935000Y2527300D01*
X3936000Y2527300D01*
G01X3936000Y2527300D02*
X3984000Y2527300D01*
G01X3936000Y2527300D02*
X3936000Y2577300D01*
G01X3979000Y2952300D02*
X3980000Y2952300D01*
X3980000Y2927300D01*
X3930000Y2927300D01*
X3930000Y2952300D01*
X3931000Y2952300D01*
G01X3931000Y2952300D02*
X3979000Y2952300D01*
G01X3931000Y2952300D02*
X3931000Y3002300D01*
G01X3931000Y3002300D02*
X3930000Y3002300D01*
X3930000Y3027300D01*
X3980000Y3027300D01*
X3980000Y3002300D01*
X3979000Y3002300D01*
G01X3979000Y3002300D02*
X3931000Y3002300D01*
G01X3979000Y3002300D02*
X3979000Y2952300D01*
G01X4059000Y1882300D02*
X4059000Y1832300D01*
G01X4199000Y2017300D02*
X4200000Y2017300D01*
X4200000Y1992300D01*
X4150000Y1992300D01*
X4150000Y2017300D01*
X4151000Y2017300D01*
G01X4059000Y2062300D02*
X4059000Y2012300D01*
G01X4151000Y2017300D02*
X4199000Y2017300D01*
G01X4151000Y2017300D02*
X4151000Y2067300D01*
G01X4151000Y2067300D02*
X4150000Y2067300D01*
X4150000Y2092300D01*
X4200000Y2092300D01*
X4200000Y2067300D01*
X4199000Y2067300D01*
G01X4199000Y2067300D02*
X4151000Y2067300D01*
G01X4119000Y2377300D02*
X4119000Y2327300D01*
G01X4119000Y2327300D02*
X4120000Y2327300D01*
X4120000Y2302300D01*
X4070000Y2302300D01*
X4070000Y2327300D01*
X4071000Y2327300D01*
G01X4071000Y2327300D02*
X4119000Y2327300D01*
G01X4071000Y2327300D02*
X4071000Y2377300D01*
G01X4071000Y2377300D02*
X4070000Y2377300D01*
X4070000Y2402300D01*
X4120000Y2402300D01*
X4120000Y2377300D01*
X4119000Y2377300D01*
G01X4119000Y2377300D02*
X4071000Y2377300D01*
G01X4119000Y2945000D02*
X4119000Y2895000D01*
G01X4119000Y2895000D02*
X4120000Y2895000D01*
X4120000Y2870000D01*
X4070000Y2870000D01*
X4070000Y2895000D01*
X4071000Y2895000D01*
G01X4071000Y2895000D02*
X4119000Y2895000D01*
G01X4071000Y2895000D02*
X4071000Y2945000D01*
G01X4071000Y2945000D02*
X4070000Y2945000D01*
X4070000Y2970000D01*
X4120000Y2970000D01*
X4120000Y2945000D01*
X4119000Y2945000D01*
G01X4119000Y2945000D02*
X4071000Y2945000D01*
G01X4275000Y3205800D02*
X4135000Y3205800D01*
G01X4135000Y3205800D02*
X4135000Y3204800D01*
X4105000Y3204800D01*
X4105000Y3329800D01*
X4135000Y3329800D01*
X4135000Y3328800D01*
G01X4135000Y3328800D02*
X4135000Y3205800D01*
G01X4135000Y3328800D02*
X4275000Y3328800D01*
G01X4100000Y4958300D02*
X4100000Y4957300D01*
X4075000Y4957300D01*
X4075000Y5007300D01*
X4100000Y5007300D01*
X4100000Y5006300D01*
G01X4100000Y5006300D02*
X4100000Y4958300D01*
G01X4100000Y5006300D02*
X4150000Y5006300D01*
G01X4150000Y5006300D02*
X4150000Y5007300D01*
X4175000Y5007300D01*
X4175000Y4957300D01*
X4150000Y4957300D01*
X4150000Y4958300D01*
G01X4150000Y4958300D02*
X4150000Y5006300D01*
G01X4150000Y4958300D02*
X4100000Y4958300D01*
G01X4150000Y5126300D02*
X4150000Y5127300D01*
X4175000Y5127300D01*
X4175000Y5077300D01*
X4150000Y5077300D01*
X4150000Y5078300D01*
G01X4150000Y5078300D02*
X4150000Y5126300D01*
G01X4150000Y5078300D02*
X4100000Y5078300D01*
G01X4100000Y5078300D02*
X4100000Y5077300D01*
X4075000Y5077300D01*
X4075000Y5127300D01*
X4100000Y5127300D01*
X4100000Y5126300D01*
G01X4100000Y5126300D02*
X4100000Y5078300D01*
G01X4100000Y5126300D02*
X4150000Y5126300D01*
G01X4386500Y1902300D02*
X4387500Y1902300D01*
X4387500Y1872300D01*
X4262500Y1872300D01*
X4262500Y1902300D01*
X4263500Y1902300D01*
G01X4263500Y1902300D02*
X4386500Y1902300D01*
G01X4263500Y1902300D02*
X4263500Y2042300D01*
G01X4199000Y2067300D02*
X4199000Y2017300D01*
G01X4263500Y2042300D02*
X4262500Y2042300D01*
X4262500Y2072300D01*
X4387500Y2072300D01*
X4387500Y2042300D01*
X4386500Y2042300D01*
G01X4386500Y2042300D02*
X4263500Y2042300D01*
G01X4229000Y2377300D02*
X4229000Y2327300D01*
G01X4229000Y2327300D02*
X4230000Y2327300D01*
X4230000Y2302300D01*
X4180000Y2302300D01*
X4180000Y2327300D01*
X4181000Y2327300D01*
G01X4181000Y2327300D02*
X4229000Y2327300D01*
G01X4181000Y2327300D02*
X4181000Y2377300D01*
G01X4181000Y2377300D02*
X4180000Y2377300D01*
X4180000Y2402300D01*
X4230000Y2402300D01*
X4230000Y2377300D01*
X4229000Y2377300D01*
G01X4229000Y2377300D02*
X4181000Y2377300D01*
G01X4166000Y2577300D02*
X4165000Y2577300D01*
X4165000Y2602300D01*
X4215000Y2602300D01*
X4215000Y2577300D01*
X4214000Y2577300D01*
G01X4214000Y2577300D02*
X4166000Y2577300D01*
G01X4214000Y2577300D02*
X4214000Y2527300D01*
G01X4214000Y2527300D02*
X4215000Y2527300D01*
X4215000Y2502300D01*
X4165000Y2502300D01*
X4165000Y2527300D01*
X4166000Y2527300D01*
G01X4166000Y2527300D02*
X4214000Y2527300D01*
G01X4166000Y2527300D02*
X4166000Y2577300D01*
G01X4223000Y2945000D02*
X4223000Y2895000D01*
G01X4223000Y2895000D02*
X4224000Y2895000D01*
X4224000Y2870000D01*
X4174000Y2870000D01*
X4174000Y2895000D01*
X4175000Y2895000D01*
G01X4175000Y2895000D02*
X4223000Y2895000D01*
G01X4175000Y2895000D02*
X4175000Y2945000D01*
G01X4175000Y2945000D02*
X4174000Y2945000D01*
X4174000Y2970000D01*
X4224000Y2970000D01*
X4224000Y2945000D01*
X4223000Y2945000D01*
G01X4223000Y2945000D02*
X4175000Y2945000D01*
G01X4290000Y4958300D02*
X4290000Y4957300D01*
X4265000Y4957300D01*
X4265000Y5007300D01*
X4290000Y5007300D01*
X4290000Y5006300D01*
G01X4285000Y5078300D02*
X4285000Y5077300D01*
X4260000Y5077300D01*
X4260000Y5127300D01*
X4285000Y5127300D01*
X4285000Y5126300D01*
G01X4386500Y2042300D02*
X4386500Y1902300D01*
G01X4370000Y2458300D02*
X4370000Y2457300D01*
X4345000Y2457300D01*
X4345000Y2507300D01*
X4370000Y2507300D01*
X4370000Y2506300D01*
G01X4370000Y2506300D02*
X4370000Y2458300D01*
G01X4420000Y2458300D02*
X4370000Y2458300D01*
G01X4370000Y2506300D02*
X4420000Y2506300D01*
G01X4275000Y3328800D02*
X4275000Y3329800D01*
X4305000Y3329800D01*
X4305000Y3204800D01*
X4275000Y3204800D01*
X4275000Y3205800D01*
G01X4275000Y3205800D02*
X4275000Y3328800D01*
G01X4290000Y5006300D02*
X4290000Y4958300D01*
G01X4290000Y5006300D02*
X4340000Y5006300D01*
G01X4340000Y5006300D02*
X4340000Y5007300D01*
X4365000Y5007300D01*
X4365000Y4957300D01*
X4340000Y4957300D01*
X4340000Y4958300D01*
G01X4340000Y4958300D02*
X4340000Y5006300D01*
G01X4340000Y4958300D02*
X4290000Y4958300D01*
G01X4335000Y5126300D02*
X4335000Y5127300D01*
X4360000Y5127300D01*
X4360000Y5077300D01*
X4335000Y5077300D01*
X4335000Y5078300D01*
G01X4335000Y5078300D02*
X4335000Y5126300D01*
G01X4335000Y5078300D02*
X4285000Y5078300D01*
G01X4285000Y5126300D02*
X4285000Y5078300D01*
G01X4285000Y5126300D02*
X4335000Y5126300D01*
G01X4335000Y7830000D02*
X4335000Y7829000D01*
X4310000Y7829000D01*
X4310000Y7879000D01*
X4335000Y7879000D01*
X4335000Y7878000D01*
G01X4335000Y7878000D02*
X4335000Y7830000D01*
G01X4335000Y7878000D02*
X4385000Y7878000D01*
G01X4385000Y7878000D02*
X4385000Y7879000D01*
X4410000Y7879000D01*
X4410000Y7829000D01*
X4385000Y7829000D01*
X4385000Y7830000D01*
G01X4385000Y7830000D02*
X4385000Y7878000D01*
G01X4385000Y7830000D02*
X4335000Y7830000D01*
G01X4494100Y1443800D02*
X4495100Y1443800D01*
X4495100Y1418800D01*
X4445100Y1418800D01*
X4445100Y1443800D01*
X4446100Y1443800D01*
G01X4446100Y1443800D02*
X4494100Y1443800D01*
G01X4446100Y1443800D02*
X4446100Y1493800D01*
G01X4446100Y1493800D02*
X4445100Y1493800D01*
X4445100Y1518800D01*
X4495100Y1518800D01*
X4495100Y1493800D01*
X4494100Y1493800D01*
G01X4494100Y1493800D02*
X4446100Y1493800D01*
G01X4494100Y1493800D02*
X4494100Y1443800D01*
G01X4586500Y1902300D02*
X4587500Y1902300D01*
X4587500Y1872300D01*
X4462500Y1872300D01*
X4462500Y1902300D01*
X4463500Y1902300D01*
G01X4463500Y1902300D02*
X4586500Y1902300D01*
G01X4463500Y1902300D02*
X4463500Y2042300D01*
G01X4463500Y2042300D02*
X4462500Y2042300D01*
X4462500Y2072300D01*
X4587500Y2072300D01*
X4587500Y2042300D01*
X4586500Y2042300D01*
G01X4586500Y2042300D02*
X4463500Y2042300D01*
G01X4420000Y2506300D02*
X4420000Y2507300D01*
X4445000Y2507300D01*
X4445000Y2457300D01*
X4420000Y2457300D01*
X4420000Y2458300D01*
G01X4420000Y2458300D02*
X4420000Y2506300D01*
G01X4450000Y2603300D02*
X4450000Y2602300D01*
X4425000Y2602300D01*
X4425000Y2652300D01*
X4450000Y2652300D01*
X4450000Y2651300D01*
G01X4450000Y2651300D02*
X4450000Y2603300D01*
G01X4450000Y2651300D02*
X4500000Y2651300D01*
G01X4500000Y2651300D02*
X4500000Y2652300D01*
X4525000Y2652300D01*
X4525000Y2602300D01*
X4500000Y2602300D01*
X4500000Y2603300D01*
G01X4500000Y2603300D02*
X4500000Y2651300D01*
G01X4500000Y2603300D02*
X4450000Y2603300D01*
G01X4494000Y5027300D02*
X4495000Y5027300D01*
X4495000Y5002300D01*
X4445000Y5002300D01*
X4445000Y5027300D01*
X4446000Y5027300D01*
G01X4446000Y5027300D02*
X4494000Y5027300D01*
G01X4446000Y5027300D02*
X4446000Y5077300D01*
G01X4494000Y5077300D02*
X4494000Y5027300D01*
G01X4446000Y5077300D02*
X4445000Y5077300D01*
X4445000Y5102300D01*
X4495000Y5102300D01*
X4495000Y5077300D01*
X4494000Y5077300D01*
G01X4494000Y5077300D02*
X4446000Y5077300D01*
G01X4586500Y2042300D02*
X4586500Y1902300D01*
G01X4585000Y2341300D02*
X4585000Y2342300D01*
X4610000Y2342300D01*
X4610000Y2292300D01*
X4585000Y2292300D01*
X4585000Y2293300D01*
G01X4585000Y2293300D02*
X4585000Y2341300D01*
G01X4585000Y2293300D02*
X4535000Y2293300D01*
G01X4535000Y2293300D02*
X4535000Y2292300D01*
X4510000Y2292300D01*
X4510000Y2342300D01*
X4535000Y2342300D01*
X4535000Y2341300D01*
G01X4535000Y2341300D02*
X4535000Y2293300D01*
G01X4535000Y2341300D02*
X4585000Y2341300D01*
G01X4635000Y7590000D02*
X4585000Y7590000D01*
G01X4585000Y7590000D02*
X4585000Y7589000D01*
X4560000Y7589000D01*
X4560000Y7639000D01*
X4585000Y7639000D01*
X4585000Y7638000D01*
G01X4585000Y7638000D02*
X4585000Y7590000D01*
G01X4585000Y7638000D02*
X4635000Y7638000D01*
G01X4635000Y7710000D02*
X4585000Y7710000D01*
G01X4585000Y7710000D02*
X4585000Y7709000D01*
X4560000Y7709000D01*
X4560000Y7759000D01*
X4585000Y7759000D01*
X4585000Y7758000D01*
G01X4585000Y7758000D02*
X4585000Y7710000D01*
G01X4585000Y7758000D02*
X4635000Y7758000D01*
G01X4635000Y7830000D02*
X4585000Y7830000D01*
G01X4585000Y7830000D02*
X4585000Y7829000D01*
X4560000Y7829000D01*
X4560000Y7879000D01*
X4585000Y7879000D01*
X4585000Y7878000D01*
G01X4585000Y7878000D02*
X4585000Y7830000D01*
G01X4585000Y7878000D02*
X4635000Y7878000D01*
G01X4630000Y7960000D02*
X4580000Y7960000D01*
G01X4580000Y7960000D02*
X4580000Y7959000D01*
X4555000Y7959000D01*
X4555000Y8009000D01*
X4580000Y8009000D01*
X4580000Y8008000D01*
G01X4580000Y8008000D02*
X4580000Y7960000D01*
G01X4634000Y8117000D02*
X4584000Y8117000D01*
G01X4584000Y8117000D02*
X4584000Y8116000D01*
X4559000Y8116000D01*
X4559000Y8166000D01*
X4584000Y8166000D01*
X4584000Y8165000D01*
G01X4584000Y8165000D02*
X4584000Y8117000D01*
G01X4580000Y8008000D02*
X4630000Y8008000D01*
G01X4584000Y8165000D02*
X4634000Y8165000D01*
G01X4709000Y2017300D02*
X4710000Y2017300D01*
X4710000Y1992300D01*
X4660000Y1992300D01*
X4660000Y2017300D01*
X4661000Y2017300D01*
G01X4661000Y2017300D02*
X4709000Y2017300D01*
G01X4661000Y2017300D02*
X4661000Y2067300D01*
G01X4661000Y2067300D02*
X4660000Y2067300D01*
X4660000Y2092300D01*
X4710000Y2092300D01*
X4710000Y2067300D01*
X4709000Y2067300D01*
G01X4709000Y2067300D02*
X4661000Y2067300D01*
G01X4709000Y2067300D02*
X4709000Y2017300D01*
G01X4729000Y4596000D02*
X4729000Y4595000D01*
X4704000Y4595000D01*
X4704000Y4645000D01*
X4729000Y4645000D01*
X4729000Y4644000D01*
G01X4729000Y4644000D02*
X4729000Y4596000D01*
G01X4729000Y4644000D02*
X4779000Y4644000D01*
G01X4779000Y4596000D02*
X4729000Y4596000D01*
G01X4635000Y7638000D02*
X4635000Y7639000D01*
X4660000Y7639000D01*
X4660000Y7589000D01*
X4635000Y7589000D01*
X4635000Y7590000D01*
G01X4635000Y7590000D02*
X4635000Y7638000D01*
G01X4635000Y7758000D02*
X4635000Y7759000D01*
X4660000Y7759000D01*
X4660000Y7709000D01*
X4635000Y7709000D01*
X4635000Y7710000D01*
G01X4635000Y7710000D02*
X4635000Y7758000D01*
G01X4635000Y7878000D02*
X4635000Y7879000D01*
X4660000Y7879000D01*
X4660000Y7829000D01*
X4635000Y7829000D01*
X4635000Y7830000D01*
G01X4635000Y7830000D02*
X4635000Y7878000D01*
G01X4630000Y8008000D02*
X4630000Y8009000D01*
X4655000Y8009000D01*
X4655000Y7959000D01*
X4630000Y7959000D01*
X4630000Y7960000D01*
G01X4630000Y7960000D02*
X4630000Y8008000D01*
G01X4634000Y8165000D02*
X4634000Y8166000D01*
X4659000Y8166000D01*
X4659000Y8116000D01*
X4634000Y8116000D01*
X4634000Y8117000D01*
G01X4634000Y8117000D02*
X4634000Y8165000D01*
G01X4754600Y8273300D02*
X4755400Y8274000D01*
X4773000Y8256300D01*
X4737700Y8221000D01*
X4720000Y8238600D01*
X4720700Y8239400D01*
G01X4720700Y8239400D02*
X4754600Y8273300D01*
G01X4720700Y8239400D02*
X4685400Y8274700D01*
G01X4745400Y8334700D02*
X4744600Y8334000D01*
X4727000Y8351700D01*
X4762300Y8387000D01*
X4780000Y8369400D01*
X4779300Y8368600D01*
G01X4685400Y8274700D02*
X4684600Y8274000D01*
X4667000Y8291700D01*
X4702300Y8327000D01*
X4720000Y8309400D01*
X4719300Y8308600D01*
G01X4719300Y8308600D02*
X4685400Y8274700D01*
G01X4719300Y8308600D02*
X4754600Y8273300D01*
G01X4779000Y4644000D02*
X4779000Y4645000D01*
X4804000Y4645000D01*
X4804000Y4595000D01*
X4779000Y4595000D01*
X4779000Y4596000D01*
G01X4779000Y4596000D02*
X4779000Y4644000D01*
G01X4779300Y8368600D02*
X4745400Y8334700D01*
G01X4779300Y8368600D02*
X4814600Y8333300D01*
G01X4814600Y8333300D02*
X4815400Y8334000D01*
X4833000Y8316300D01*
X4797700Y8281000D01*
X4780000Y8298600D01*
X4780700Y8299400D01*
G01X4780700Y8299400D02*
X4814600Y8333300D01*
G01X4780700Y8299400D02*
X4745400Y8334700D01*
G01X4856000Y8469000D02*
X4855000Y8469000D01*
X4855000Y8494000D01*
X4905000Y8494000D01*
X4905000Y8469000D01*
X4904000Y8469000D01*
G01X4904000Y8469000D02*
X4856000Y8469000D01*
G01X4904000Y8419000D02*
X4905000Y8419000D01*
X4905000Y8394000D01*
X4855000Y8394000D01*
X4855000Y8419000D01*
X4856000Y8419000D01*
G01X4856000Y8419000D02*
X4904000Y8419000D01*
G01X4856000Y8419000D02*
X4856000Y8469000D01*
G01X5011000Y902100D02*
X5012000Y902100D01*
X5012000Y877100D01*
X4962000Y877100D01*
X4962000Y902100D01*
X4963000Y902100D01*
G01X4963000Y902100D02*
X5011000Y902100D01*
G01X4963000Y902100D02*
X4963000Y952100D01*
G01X4963000Y952100D02*
X4962000Y952100D01*
X4962000Y977100D01*
X5012000Y977100D01*
X5012000Y952100D01*
X5011000Y952100D01*
G01X5011000Y952100D02*
X4963000Y952100D01*
G01X4899000Y8076000D02*
X4899000Y8075000D01*
X4874000Y8075000D01*
X4874000Y8125000D01*
X4899000Y8125000D01*
X4899000Y8124000D01*
G01X4899000Y8124000D02*
X4899000Y8076000D01*
G01X4949000Y8124000D02*
X4949000Y8125000D01*
X4974000Y8125000D01*
X4974000Y8075000D01*
X4949000Y8075000D01*
X4949000Y8076000D01*
G01X4949000Y8076000D02*
X4949000Y8124000D01*
G01X4949000Y8076000D02*
X4899000Y8076000D01*
G01X4974000Y8179000D02*
X4974000Y8178000D01*
X4949000Y8178000D01*
X4949000Y8228000D01*
X4974000Y8228000D01*
X4974000Y8227000D01*
G01X4974000Y8227000D02*
X4974000Y8179000D01*
G01X4974000Y8227000D02*
X5024000Y8227000D01*
G01X5024000Y8179000D02*
X4974000Y8179000D01*
G01X4899000Y8124000D02*
X4949000Y8124000D01*
G01X4904000Y8469000D02*
X4904000Y8419000D01*
G01X5004000Y8419000D02*
X5005000Y8419000D01*
X5005000Y8394000D01*
X4955000Y8394000D01*
X4955000Y8419000D01*
X4956000Y8419000D01*
G01X4956000Y8419000D02*
X5004000Y8419000D01*
G01X4956000Y8419000D02*
X4956000Y8469000D01*
G01X4956000Y8469000D02*
X4955000Y8469000D01*
X4955000Y8494000D01*
X5005000Y8494000D01*
X5005000Y8469000D01*
X5004000Y8469000D01*
G01X5004000Y8469000D02*
X4956000Y8469000D01*
G01X5011000Y952100D02*
X5011000Y902100D01*
G01X5129000Y4536000D02*
X5079000Y4536000D01*
G01X5079000Y4536000D02*
X5079000Y4535000D01*
X5054000Y4535000D01*
X5054000Y4585000D01*
X5079000Y4585000D01*
X5079000Y4584000D01*
G01X5079000Y4584000D02*
X5079000Y4536000D01*
G01X5079000Y4584000D02*
X5129000Y4584000D01*
G01X5024000Y8227000D02*
X5024000Y8228000D01*
X5049000Y8228000D01*
X5049000Y8178000D01*
X5024000Y8178000D01*
X5024000Y8179000D01*
G01X5024000Y8179000D02*
X5024000Y8227000D01*
G01X5004000Y8469000D02*
X5004000Y8419000D01*
G01X5104000Y8419000D02*
X5105000Y8419000D01*
X5105000Y8394000D01*
X5055000Y8394000D01*
X5055000Y8419000D01*
X5056000Y8419000D01*
G01X5056000Y8419000D02*
X5104000Y8419000D01*
G01X5056000Y8419000D02*
X5056000Y8469000D01*
G01X5056000Y8469000D02*
X5055000Y8469000D01*
X5055000Y8494000D01*
X5105000Y8494000D01*
X5105000Y8469000D01*
X5104000Y8469000D01*
G01X5104000Y8469000D02*
X5056000Y8469000D01*
G01X5129000Y4584000D02*
X5129000Y4585000D01*
X5154000Y4585000D01*
X5154000Y4535000D01*
X5129000Y4535000D01*
X5129000Y4536000D01*
G01X5129000Y4536000D02*
X5129000Y4584000D01*
G01X5104000Y8469000D02*
X5104000Y8419000D01*
G01X5224000Y8419000D02*
X5225000Y8419000D01*
X5225000Y8394000D01*
X5175000Y8394000D01*
X5175000Y8419000D01*
X5176000Y8419000D01*
G01X5176000Y8419000D02*
X5224000Y8419000D01*
G01X5176000Y8419000D02*
X5176000Y8469000D01*
G01X5176000Y8469000D02*
X5175000Y8469000D01*
X5175000Y8494000D01*
X5225000Y8494000D01*
X5225000Y8469000D01*
X5224000Y8469000D01*
G01X5224000Y8469000D02*
X5176000Y8469000D01*
G01X5224000Y8679000D02*
X5225000Y8679000D01*
X5225000Y8654000D01*
X5175000Y8654000D01*
X5175000Y8679000D01*
X5176000Y8679000D01*
G01X5176000Y8679000D02*
X5224000Y8679000D01*
G01X5176000Y8679000D02*
X5176000Y8729000D01*
G01X5176000Y8729000D02*
X5175000Y8729000D01*
X5175000Y8754000D01*
X5225000Y8754000D01*
X5225000Y8729000D01*
X5224000Y8729000D01*
G01X5224000Y8729000D02*
X5176000Y8729000D01*
G01X5337000Y4737000D02*
X5337000Y4736000D01*
X5312000Y4736000D01*
X5312000Y4786000D01*
X5337000Y4786000D01*
X5337000Y4785000D01*
G01X5344000Y8419000D02*
X5345000Y8419000D01*
X5345000Y8394000D01*
X5295000Y8394000D01*
X5295000Y8419000D01*
X5296000Y8419000D01*
G01X5296000Y8419000D02*
X5344000Y8419000D01*
G01X5296000Y8419000D02*
X5296000Y8469000D01*
G01X5296000Y8469000D02*
X5295000Y8469000D01*
X5295000Y8494000D01*
X5345000Y8494000D01*
X5345000Y8469000D01*
X5344000Y8469000D01*
G01X5344000Y8469000D02*
X5296000Y8469000D01*
G01X5224000Y8469000D02*
X5224000Y8419000D01*
G01X5224000Y8729000D02*
X5224000Y8679000D01*
G01X5344000Y8679000D02*
X5345000Y8679000D01*
X5345000Y8654000D01*
X5295000Y8654000D01*
X5295000Y8679000D01*
X5296000Y8679000D01*
G01X5296000Y8679000D02*
X5344000Y8679000D01*
G01X5296000Y8679000D02*
X5296000Y8729000D01*
G01X5296000Y8729000D02*
X5295000Y8729000D01*
X5295000Y8754000D01*
X5345000Y8754000D01*
X5345000Y8729000D01*
X5344000Y8729000D01*
G01X5344000Y8729000D02*
X5296000Y8729000D01*
G01X5389000Y3886000D02*
X5389000Y3885000D01*
X5364000Y3885000D01*
X5364000Y3935000D01*
X5389000Y3935000D01*
X5389000Y3934000D01*
G01X5389000Y3934000D02*
X5389000Y3886000D01*
G01X5389000Y3934000D02*
X5439000Y3934000D01*
G01X5439000Y3934000D02*
X5439000Y3935000D01*
X5464000Y3935000D01*
X5464000Y3885000D01*
X5439000Y3885000D01*
X5439000Y3886000D01*
G01X5439000Y3886000D02*
X5439000Y3934000D01*
G01X5439000Y3886000D02*
X5389000Y3886000D01*
G01X5389500Y4544500D02*
X5389500Y4543500D01*
X5364500Y4543500D01*
X5364500Y4593500D01*
X5389500Y4593500D01*
X5389500Y4592500D01*
G01X5389500Y4592500D02*
X5389500Y4544500D01*
G01X5439500Y4592500D02*
X5439500Y4593500D01*
X5464500Y4593500D01*
X5464500Y4543500D01*
X5439500Y4543500D01*
X5439500Y4544500D01*
G01X5439500Y4544500D02*
X5439500Y4592500D01*
G01X5439500Y4544500D02*
X5389500Y4544500D01*
G01X5389500Y4592500D02*
X5439500Y4592500D01*
G01X5337000Y4785000D02*
X5337000Y4737000D01*
G01X5337000Y4785000D02*
X5387000Y4785000D01*
G01X5387000Y4785000D02*
X5387000Y4786000D01*
X5412000Y4786000D01*
X5412000Y4736000D01*
X5387000Y4736000D01*
X5387000Y4737000D01*
G01X5387000Y4737000D02*
X5387000Y4785000D01*
G01X5387000Y4737000D02*
X5337000Y4737000D01*
G01X5344000Y8469000D02*
X5344000Y8419000D01*
G01X5464000Y8419000D02*
X5465000Y8419000D01*
X5465000Y8394000D01*
X5415000Y8394000D01*
X5415000Y8419000D01*
X5416000Y8419000D01*
G01X5416000Y8419000D02*
X5464000Y8419000D01*
G01X5416000Y8419000D02*
X5416000Y8469000D01*
G01X5416000Y8469000D02*
X5415000Y8469000D01*
X5415000Y8494000D01*
X5465000Y8494000D01*
X5465000Y8469000D01*
X5464000Y8469000D01*
G01X5464000Y8469000D02*
X5416000Y8469000D01*
G01X5464000Y8679000D02*
X5465000Y8679000D01*
X5465000Y8654000D01*
X5415000Y8654000D01*
X5415000Y8679000D01*
X5416000Y8679000D01*
G01X5416000Y8679000D02*
X5464000Y8679000D01*
G01X5416000Y8679000D02*
X5416000Y8729000D01*
G01X5344000Y8729000D02*
X5344000Y8679000D01*
G01X5416000Y8729000D02*
X5415000Y8729000D01*
X5415000Y8754000D01*
X5465000Y8754000D01*
X5465000Y8729000D01*
X5464000Y8729000D01*
G01X5464000Y8729000D02*
X5416000Y8729000D01*
G01X5614000Y8219000D02*
X5615000Y8219000D01*
X5615000Y8194000D01*
X5565000Y8194000D01*
X5565000Y8219000D01*
X5566000Y8219000D01*
G01X5566000Y8219000D02*
X5614000Y8219000D01*
G01X5566000Y8219000D02*
X5566000Y8269000D01*
G01X5514000Y8219000D02*
X5515000Y8219000D01*
X5515000Y8194000D01*
X5465000Y8194000D01*
X5465000Y8219000D01*
X5466000Y8219000D01*
G01X5466000Y8219000D02*
X5514000Y8219000D01*
G01X5466000Y8219000D02*
X5466000Y8269000D01*
G01X5514000Y8269000D02*
X5514000Y8219000D01*
G01X5566000Y8269000D02*
X5565000Y8269000D01*
X5565000Y8294000D01*
X5615000Y8294000D01*
X5615000Y8269000D01*
X5614000Y8269000D01*
G01X5614000Y8269000D02*
X5566000Y8269000D01*
G01X5466000Y8269000D02*
X5465000Y8269000D01*
X5465000Y8294000D01*
X5515000Y8294000D01*
X5515000Y8269000D01*
X5514000Y8269000D01*
G01X5514000Y8269000D02*
X5466000Y8269000D01*
G01X5464000Y8469000D02*
X5464000Y8419000D01*
G01X5464000Y8729000D02*
X5464000Y8679000D01*
G01X5614000Y8269000D02*
X5614000Y8219000D01*
G01X5709000Y3956000D02*
X5709000Y3955000D01*
X5684000Y3955000D01*
X5684000Y4005000D01*
X5709000Y4005000D01*
X5709000Y4004000D01*
G01X5709000Y4004000D02*
X5709000Y3956000D01*
G01X5759000Y4004000D02*
X5759000Y4005000D01*
X5784000Y4005000D01*
X5784000Y3955000D01*
X5759000Y3955000D01*
X5759000Y3956000D01*
G01X5759000Y3956000D02*
X5759000Y4004000D01*
G01X5759000Y3956000D02*
X5709000Y3956000D01*
G01X5709000Y4004000D02*
X5759000Y4004000D01*
G01X5845000Y8100000D02*
X5795000Y8100000D01*
G01X5795000Y8100000D02*
X5795000Y8099000D01*
X5770000Y8099000D01*
X5770000Y8149000D01*
X5795000Y8149000D01*
X5795000Y8148000D01*
G01X5795000Y8148000D02*
X5795000Y8100000D01*
G01X5795000Y8148000D02*
X5845000Y8148000D01*
G01X5891500Y8474000D02*
X5892500Y8474000D01*
X5892500Y8444000D01*
X5767500Y8444000D01*
X5767500Y8474000D01*
X5768500Y8474000D01*
G01X5768500Y8474000D02*
X5891500Y8474000D01*
G01X5768500Y8474000D02*
X5768500Y8614000D01*
G01X5768500Y8614000D02*
X5767500Y8614000D01*
X5767500Y8644000D01*
X5892500Y8644000D01*
X5892500Y8614000D01*
X5891500Y8614000D01*
G01X5891500Y8614000D02*
X5768500Y8614000D01*
G01X5845000Y8148000D02*
X5845000Y8149000D01*
X5870000Y8149000D01*
X5870000Y8099000D01*
X5845000Y8099000D01*
X5845000Y8100000D01*
G01X5845000Y8100000D02*
X5845000Y8148000D01*
G01X5891500Y8614000D02*
X5891500Y8474000D01*
G01X5896000Y10215100D02*
X5896000Y10216100D01*
X5921000Y10216100D01*
X5921000Y10166100D01*
X5896000Y10166100D01*
X5896000Y10167100D01*
G01X5896000Y10167100D02*
X5896000Y10215100D01*
G01X5896000Y10167100D02*
X5846000Y10167100D01*
G01X5846000Y10167100D02*
X5846000Y10166100D01*
X5821000Y10166100D01*
X5821000Y10216100D01*
X5846000Y10216100D01*
X5846000Y10215100D01*
G01X5846000Y10215100D02*
X5846000Y10167100D01*
G01X5846000Y10215100D02*
X5896000Y10215100D01*
G01X5906000Y10385100D02*
X5906000Y10386100D01*
X5931000Y10386100D01*
X5931000Y10336100D01*
X5906000Y10336100D01*
X5906000Y10337100D01*
G01X5906000Y10337100D02*
X5906000Y10385100D01*
G01X5906000Y10337100D02*
X5856000Y10337100D01*
G01X5856000Y10337100D02*
X5856000Y10336100D01*
X5831000Y10336100D01*
X5831000Y10386100D01*
X5856000Y10386100D01*
X5856000Y10385100D01*
G01X5856000Y10385100D02*
X5856000Y10337100D01*
G01X5856000Y10385100D02*
X5906000Y10385100D01*
G01X5999000Y4004000D02*
X5999000Y4005000D01*
X6024000Y4005000D01*
X6024000Y3955000D01*
X5999000Y3955000D01*
X5999000Y3956000D01*
G01X5999000Y3956000D02*
X5999000Y4004000D01*
G01X5999000Y3956000D02*
X5949000Y3956000D01*
G01X5949000Y3956000D02*
X5949000Y3955000D01*
X5924000Y3955000D01*
X5924000Y4005000D01*
X5949000Y4005000D01*
X5949000Y4004000D01*
G01X5949000Y4004000D02*
X5949000Y3956000D01*
G01X5949000Y4004000D02*
X5999000Y4004000D01*
G01X6058000Y9892200D02*
X6059000Y9892200D01*
X6059000Y9867200D01*
X6009000Y9867200D01*
X6009000Y9892200D01*
X6010000Y9892200D01*
G01X6010000Y9942200D02*
X6009000Y9942200D01*
X6009000Y9967200D01*
X6059000Y9967200D01*
X6059000Y9942200D01*
X6058000Y9942200D01*
G01X6058000Y9942200D02*
X6010000Y9942200D01*
G01X6010000Y9892200D02*
X6058000Y9892200D01*
G01X6010000Y9892200D02*
X6010000Y9942200D01*
G01X6128500Y4525500D02*
X6128500Y4524500D01*
X6103500Y4524500D01*
X6103500Y4574500D01*
X6128500Y4574500D01*
X6128500Y4573500D01*
G01X6128500Y4573500D02*
X6128500Y4525500D01*
G01X6128500Y4573500D02*
X6178500Y4573500D01*
G01X6178500Y4525500D02*
X6128500Y4525500D01*
G01X6172500Y4735000D02*
X6122500Y4735000D01*
G01X6122500Y4735000D02*
X6122500Y4734000D01*
X6097500Y4734000D01*
X6097500Y4784000D01*
X6122500Y4784000D01*
X6122500Y4783000D01*
G01X6122500Y4783000D02*
X6122500Y4735000D01*
G01X6122500Y4783000D02*
X6172500Y4783000D01*
G01X6058000Y9942200D02*
X6058000Y9892200D01*
G01X6269000Y3934000D02*
X6269000Y3935000D01*
X6294000Y3935000D01*
X6294000Y3885000D01*
X6269000Y3885000D01*
X6269000Y3886000D01*
G01X6269000Y3886000D02*
X6269000Y3934000D01*
G01X6269000Y3886000D02*
X6219000Y3886000D01*
G01X6219000Y3886000D02*
X6219000Y3885000D01*
X6194000Y3885000D01*
X6194000Y3935000D01*
X6219000Y3935000D01*
X6219000Y3934000D01*
G01X6219000Y3934000D02*
X6219000Y3886000D01*
G01X6219000Y3934000D02*
X6269000Y3934000D01*
G01X6178500Y4573500D02*
X6178500Y4574500D01*
X6203500Y4574500D01*
X6203500Y4524500D01*
X6178500Y4524500D01*
X6178500Y4525500D01*
G01X6178500Y4525500D02*
X6178500Y4573500D01*
G01X6172500Y4783000D02*
X6172500Y4784000D01*
X6197500Y4784000D01*
X6197500Y4734000D01*
X6172500Y4734000D01*
X6172500Y4735000D01*
G01X6172500Y4735000D02*
X6172500Y4783000D01*
G01X6295000Y10676100D02*
X6296000Y10676100D01*
X6296000Y10651100D01*
X6246000Y10651100D01*
X6246000Y10676100D01*
X6247000Y10676100D01*
G01X6247000Y10676100D02*
X6295000Y10676100D01*
G01X6247000Y10676100D02*
X6247000Y10726100D01*
G01X6247000Y10726100D02*
X6246000Y10726100D01*
X6246000Y10751100D01*
X6296000Y10751100D01*
X6296000Y10726100D01*
X6295000Y10726100D01*
G01X6295000Y10726100D02*
X6247000Y10726100D01*
G01X6410600Y9891000D02*
X6411600Y9891000D01*
X6411600Y9866000D01*
X6361600Y9866000D01*
X6361600Y9891000D01*
X6362600Y9891000D01*
G01X6362600Y9941000D02*
X6361600Y9941000D01*
X6361600Y9966000D01*
X6411600Y9966000D01*
X6411600Y9941000D01*
X6410600Y9941000D01*
G01X6410600Y9941000D02*
X6362600Y9941000D01*
G01X6362600Y9891000D02*
X6410600Y9891000D01*
G01X6362600Y9891000D02*
X6362600Y9941000D01*
G01X6295000Y10726100D02*
X6295000Y10676100D01*
G01X6410600Y9941000D02*
X6410600Y9891000D01*
G01X6535000Y8220000D02*
X6535000Y8219000D01*
X6510000Y8219000D01*
X6510000Y8269000D01*
X6535000Y8269000D01*
X6535000Y8268000D01*
G01X6535000Y8268000D02*
X6535000Y8220000D01*
G01X6585000Y8268000D02*
X6585000Y8269000D01*
X6610000Y8269000D01*
X6610000Y8219000D01*
X6585000Y8219000D01*
X6585000Y8220000D01*
G01X6585000Y8220000D02*
X6585000Y8268000D01*
G01X6585000Y8220000D02*
X6535000Y8220000D01*
G01X6535000Y8268000D02*
X6585000Y8268000D01*
G01X6644000Y10166800D02*
X6644000Y10165800D01*
X6619000Y10165800D01*
X6619000Y10215800D01*
X6644000Y10215800D01*
X6644000Y10214800D01*
G01X6644000Y10214800D02*
X6644000Y10166800D01*
G01X6644000Y10214800D02*
X6694000Y10214800D01*
G01X6694000Y10214800D02*
X6694000Y10215800D01*
X6719000Y10215800D01*
X6719000Y10165800D01*
X6694000Y10165800D01*
X6694000Y10166800D01*
G01X6694000Y10166800D02*
X6694000Y10214800D01*
G01X6694000Y10166800D02*
X6644000Y10166800D01*
G54D11*
G01X4404500Y2499400D02*
X4406400Y2501100D01*
X4408600Y2502300D01*
X4411200Y2502300D01*
X4414000Y2500500D01*
X4416200Y2497600D01*
X4417800Y2494100D01*
X4419100Y2488300D01*
X4419400Y2483000D01*
X4418800Y2477800D01*
X4417800Y2474300D01*
X4415900Y2470800D01*
X4413700Y2468500D01*
X4411500Y2467300D01*
X4409300Y2467300D01*
X4407100Y2468500D01*
X4405200Y2470200D01*
X4403600Y2472500D01*
G01X4395400Y2471400D02*
X4393200Y2468500D01*
X4390600Y2467300D01*
X4388100Y2468500D01*
X4385900Y2472000D01*
X4384300Y2477200D01*
X4383700Y2482500D01*
X4383700Y2488900D01*
X4384300Y2494100D01*
X4385900Y2498800D01*
X4387800Y2501100D01*
X4390000Y2502300D01*
X4392500Y2501100D01*
X4394400Y2498800D01*
X4395700Y2495300D01*
X4396300Y2490600D01*
X4395700Y2486600D01*
X4394100Y2482500D01*
X4392200Y2480100D01*
X4390000Y2479500D01*
X4387500Y2480700D01*
X4385600Y2483600D01*
X4383700Y2488900D01*
G01X4374500Y2481900D02*
X4372300Y2486000D01*
X4370400Y2488300D01*
X4367900Y2489500D01*
X4365600Y2488300D01*
X4364100Y2486000D01*
X4362800Y2482500D01*
X4362500Y2478400D01*
X4362800Y2474900D01*
X4364100Y2471400D01*
X4366000Y2468500D01*
X4368200Y2467300D01*
X4370700Y2468500D01*
X4372900Y2472000D01*
X4374200Y2477200D01*
X4374500Y2483000D01*
X4373900Y2490600D01*
X4372900Y2494700D01*
X4371400Y2498800D01*
X4369100Y2501700D01*
X4366900Y2502300D01*
X4364700Y2501100D01*
X4363100Y2498200D01*
G01X5091900Y4575000D02*
X5091900Y4540000D01*
X5099800Y4540000D01*
X5102300Y4541800D01*
X5103900Y4544100D01*
X5104500Y4548800D01*
X5103900Y4553400D01*
X5102000Y4556300D01*
X5099800Y4558100D01*
X5091900Y4558100D01*
G01X5099800Y4558100D02*
X5104500Y4575000D01*
G01X5119100Y4575000D02*
X5119700Y4567400D01*
X5120700Y4561000D01*
X5121900Y4555200D01*
X5123500Y4548800D01*
X5126000Y4540000D01*
X5113400Y4540000D01*
G01X5384800Y4746000D02*
X5384800Y4781000D01*
X5376900Y4781000D01*
X5374400Y4779200D01*
X5372800Y4776900D01*
X5372200Y4772200D01*
X5372800Y4767600D01*
X5374700Y4764700D01*
X5376900Y4762900D01*
X5384800Y4762900D01*
G01X5376900Y4762900D02*
X5372200Y4746000D01*
G01X5363000Y4760600D02*
X5360800Y4764700D01*
X5358900Y4767000D01*
X5356400Y4768200D01*
X5354100Y4767000D01*
X5352600Y4764700D01*
X5351300Y4761200D01*
X5351000Y4757100D01*
X5351300Y4753600D01*
X5352600Y4750100D01*
X5354500Y4747200D01*
X5356700Y4746000D01*
X5359200Y4747200D01*
X5361400Y4750700D01*
X5362700Y4755900D01*
X5363000Y4761700D01*
X5362400Y4769300D01*
X5361400Y4773400D01*
X5359900Y4777500D01*
X5357600Y4780400D01*
X5355400Y4781000D01*
X5353200Y4779800D01*
X5351600Y4776900D01*
G01X5331700Y4746000D02*
X5331700Y4781000D01*
X5343400Y4755900D01*
X5327600Y4755900D01*
G01X5756800Y3965000D02*
X5756800Y4000000D01*
X5748900Y4000000D01*
X5746400Y3998200D01*
X5744800Y3995900D01*
X5744200Y3991200D01*
X5744800Y3986600D01*
X5746700Y3983700D01*
X5748900Y3981900D01*
X5756800Y3981900D01*
G01X5748900Y3981900D02*
X5744200Y3965000D01*
G01X5729000Y3965000D02*
X5729000Y4000000D01*
X5732800Y3993000D01*
G01X5732800Y3965000D02*
X5725200Y3965000D01*
G01X5712900Y3969100D02*
X5710700Y3966200D01*
X5708100Y3965000D01*
X5705600Y3966200D01*
X5703400Y3969700D01*
X5701800Y3974900D01*
X5701200Y3980200D01*
X5701200Y3986600D01*
X5701800Y3991800D01*
X5703400Y3996500D01*
X5705300Y3998800D01*
X5707500Y4000000D01*
X5710000Y3998800D01*
X5711900Y3996500D01*
X5713200Y3993000D01*
X5713800Y3988300D01*
X5713200Y3984300D01*
X5711600Y3980200D01*
X5709700Y3977800D01*
X5707500Y3977200D01*
X5705000Y3978400D01*
X5703100Y3981300D01*
X5701200Y3986600D01*
G01X5951200Y3995000D02*
X5951200Y3960000D01*
X5959100Y3960000D01*
X5961600Y3961800D01*
X5963200Y3964100D01*
X5963800Y3968800D01*
X5963200Y3973400D01*
X5961300Y3976300D01*
X5959100Y3978100D01*
X5951200Y3978100D01*
G01X5959100Y3978100D02*
X5963800Y3995000D01*
G01X5973000Y3980400D02*
X5975200Y3976300D01*
X5977100Y3974000D01*
X5979600Y3972800D01*
X5981900Y3974000D01*
X5983400Y3976300D01*
X5984700Y3979800D01*
X5985000Y3983900D01*
X5984700Y3987400D01*
X5983400Y3990900D01*
X5981500Y3993800D01*
X5979300Y3995000D01*
X5976800Y3993800D01*
X5974600Y3990300D01*
X5973300Y3985100D01*
X5973000Y3979300D01*
X5973600Y3971700D01*
X5974600Y3967600D01*
X5976100Y3963500D01*
X5978400Y3960600D01*
X5980600Y3960000D01*
X5982800Y3961200D01*
X5984400Y3964100D01*
G01X5993500Y3988000D02*
X5995400Y3992100D01*
X5998000Y3994400D01*
X6000800Y3995000D01*
X6003400Y3994400D01*
X6005900Y3991500D01*
X6007500Y3988000D01*
X6007800Y3984500D01*
X6007200Y3980400D01*
X6004900Y3977500D01*
X6002700Y3976300D01*
X5999900Y3976300D01*
G01X6002700Y3976300D02*
X6004600Y3974600D01*
X6006200Y3971700D01*
X6006800Y3968200D01*
X6006200Y3964700D01*
X6004600Y3961800D01*
X6001800Y3960000D01*
X5998900Y3960600D01*
X5996100Y3962900D01*
G01X6124700Y4774000D02*
X6124700Y4739000D01*
X6132600Y4739000D01*
X6135100Y4740800D01*
X6136700Y4743100D01*
X6137300Y4747800D01*
X6136700Y4752400D01*
X6134800Y4755300D01*
X6132600Y4757100D01*
X6124700Y4757100D01*
G01X6132600Y4757100D02*
X6137300Y4774000D01*
G01X6146500Y4759400D02*
X6148700Y4755300D01*
X6150600Y4753000D01*
X6153100Y4751800D01*
X6155400Y4753000D01*
X6156900Y4755300D01*
X6158200Y4758800D01*
X6158500Y4762900D01*
X6158200Y4766400D01*
X6156900Y4769900D01*
X6155000Y4772800D01*
X6152800Y4774000D01*
X6150300Y4772800D01*
X6148100Y4769300D01*
X6146800Y4764100D01*
X6146500Y4758300D01*
X6147100Y4750700D01*
X6148100Y4746600D01*
X6149600Y4742500D01*
X6151900Y4739600D01*
X6154100Y4739000D01*
X6156300Y4740200D01*
X6157900Y4743100D01*
G01X6168000Y4744800D02*
X6169900Y4741300D01*
X6172100Y4739600D01*
X6174600Y4739000D01*
X6177800Y4740200D01*
X6180000Y4743100D01*
X6180700Y4746600D01*
X6180300Y4750100D01*
X6179100Y4753000D01*
X6172700Y4758800D01*
X6169900Y4762900D01*
X6168000Y4768800D01*
X6167300Y4774000D01*
X6180700Y4774000D01*
G54D12*
G01X328000Y11418500D02*
X328000Y11443100D01*
X267000Y11443100D01*
X267000Y11418500D01*
G01X296500Y11428300D02*
X296500Y11443100D01*
G01X277200Y11403000D02*
X271100Y11399300D01*
X268000Y11395000D01*
X267000Y11390100D01*
X269000Y11383900D01*
X274100Y11379600D01*
X280200Y11378300D01*
X286300Y11379000D01*
X291400Y11381400D01*
X301600Y11393800D01*
X308700Y11399300D01*
X318900Y11403000D01*
X328000Y11404300D01*
X328000Y11378300D01*
G01X328000Y11353000D02*
X314800Y11351800D01*
X303600Y11349900D01*
X293400Y11347500D01*
X282300Y11344400D01*
X267000Y11339500D01*
X267000Y11364100D01*
G01X613000Y12076300D02*
X613000Y12100900D01*
X552000Y12100900D01*
X552000Y12076300D01*
G01X581500Y12086100D02*
X581500Y12100900D01*
G01X600800Y12062700D02*
X607900Y12059000D01*
X612000Y12054000D01*
X613000Y12048500D01*
X612000Y12043500D01*
X606900Y12038600D01*
X600800Y12035500D01*
X594700Y12034900D01*
X587600Y12036100D01*
X582500Y12040500D01*
X580500Y12044800D01*
X580500Y12050300D01*
G01X580500Y12044800D02*
X577400Y12041100D01*
X572300Y12038000D01*
X566200Y12036800D01*
X560100Y12038000D01*
X555100Y12041100D01*
X552000Y12046600D01*
X553000Y12052200D01*
X557100Y12057700D01*
G01X613000Y12009600D02*
X552000Y12009600D01*
X564200Y12017000D01*
G01X613000Y12017000D02*
X613000Y12002200D01*
G01X612000Y12839500D02*
X612000Y12864100D01*
X551000Y12864100D01*
X551000Y12839500D01*
G01X580500Y12849300D02*
X580500Y12864100D01*
G01X599800Y12825900D02*
X606900Y12822200D01*
X611000Y12817200D01*
X612000Y12811700D01*
X611000Y12806700D01*
X605900Y12801800D01*
X599800Y12798700D01*
X593700Y12798100D01*
X586600Y12799300D01*
X581500Y12803700D01*
X579500Y12808000D01*
X579500Y12813500D01*
G01X579500Y12808000D02*
X576400Y12804300D01*
X571300Y12801200D01*
X565200Y12800000D01*
X559100Y12801200D01*
X554100Y12804300D01*
X551000Y12809800D01*
X552000Y12815400D01*
X556100Y12820900D01*
G01X561200Y12784500D02*
X555100Y12780800D01*
X552000Y12776500D01*
X551000Y12771600D01*
X553000Y12765400D01*
X558100Y12761100D01*
X564200Y12759800D01*
X570300Y12760500D01*
X575400Y12762900D01*
X585600Y12775300D01*
X592700Y12780800D01*
X602900Y12784500D01*
X612000Y12785800D01*
X612000Y12759800D01*
G01X626800Y13355500D02*
X602200Y13355500D01*
X602200Y13294500D01*
X626800Y13294500D01*
G01X617000Y13324000D02*
X602200Y13324000D01*
G01X640400Y13343300D02*
X644100Y13350400D01*
X649100Y13354500D01*
X654600Y13355500D01*
X659600Y13354500D01*
X664500Y13349400D01*
X667600Y13343300D01*
X668200Y13337200D01*
X667000Y13330100D01*
X662600Y13325000D01*
X658300Y13323000D01*
X652800Y13323000D01*
G01X658300Y13323000D02*
X662000Y13319900D01*
X665100Y13314800D01*
X666300Y13308700D01*
X665100Y13302600D01*
X662000Y13297600D01*
X656500Y13294500D01*
X650900Y13295500D01*
X645400Y13299600D01*
G01X693500Y13355500D02*
X697800Y13354500D01*
X702700Y13351400D01*
X705800Y13346400D01*
X707100Y13339200D01*
X705800Y13332100D01*
X702100Y13326000D01*
X696600Y13323000D01*
X690400Y13323000D01*
X686700Y13320900D01*
X683600Y13315900D01*
X682400Y13308700D01*
X684300Y13301600D01*
X688600Y13296500D01*
X693500Y13294500D01*
X698400Y13296500D01*
X702700Y13301600D01*
X704600Y13308700D01*
X703400Y13315900D01*
X700300Y13320900D01*
X696600Y13323000D01*
X690400Y13323000D01*
X684900Y13326000D01*
X681200Y13332100D01*
X679900Y13339200D01*
X681200Y13346400D01*
X684300Y13351400D01*
X689200Y13354500D01*
X693500Y13355500D01*
G01X626800Y13525000D02*
X602200Y13525000D01*
X602200Y13464000D01*
X626800Y13464000D01*
G01X617000Y13493500D02*
X602200Y13493500D01*
G01X654000Y13525000D02*
X654000Y13464000D01*
X646600Y13476200D01*
G01X646600Y13525000D02*
X661400Y13525000D01*
G01X683000Y13517900D02*
X687300Y13523000D01*
X692300Y13525000D01*
X697200Y13523000D01*
X701500Y13516900D01*
X704600Y13507700D01*
X705800Y13498600D01*
X705800Y13487400D01*
X704600Y13478200D01*
X701500Y13470100D01*
X697800Y13466000D01*
X693500Y13464000D01*
X688600Y13466000D01*
X684900Y13470100D01*
X682400Y13476200D01*
X681200Y13484300D01*
X682400Y13491400D01*
X685500Y13498600D01*
X689200Y13502600D01*
X693500Y13503700D01*
X698400Y13501600D01*
X702100Y13496500D01*
X705800Y13487400D01*
G01X626800Y13725000D02*
X602200Y13725000D01*
X602200Y13664000D01*
X626800Y13664000D01*
G01X617000Y13693500D02*
X602200Y13693500D01*
G01X654000Y13725000D02*
X654000Y13664000D01*
X646600Y13676200D01*
G01X646600Y13725000D02*
X661400Y13725000D01*
G01X692300Y13725000D02*
X693500Y13711800D01*
X695400Y13700600D01*
X697800Y13690400D01*
X700900Y13679300D01*
X705800Y13664000D01*
X681200Y13664000D01*
G01X626800Y13955500D02*
X602200Y13955500D01*
X602200Y13894500D01*
X626800Y13894500D01*
G01X617000Y13924000D02*
X602200Y13924000D01*
G01X640400Y13943300D02*
X644100Y13950400D01*
X649100Y13954500D01*
X654600Y13955500D01*
X659600Y13954500D01*
X664500Y13949400D01*
X667600Y13943300D01*
X668200Y13937200D01*
X667000Y13930100D01*
X662600Y13925000D01*
X658300Y13923000D01*
X652800Y13923000D01*
G01X658300Y13923000D02*
X662000Y13919900D01*
X665100Y13914800D01*
X666300Y13908700D01*
X665100Y13902600D01*
X662000Y13897600D01*
X656500Y13894500D01*
X650900Y13895500D01*
X645400Y13899600D01*
G01X692300Y13955500D02*
X693500Y13942300D01*
X695400Y13931100D01*
X697800Y13920900D01*
X700900Y13909800D01*
X705800Y13894500D01*
X681200Y13894500D01*
G01X720000Y11417300D02*
X720000Y11441900D01*
X659000Y11441900D01*
X659000Y11417300D01*
G01X688500Y11427100D02*
X688500Y11441900D01*
G01X669200Y11401800D02*
X663100Y11398100D01*
X660000Y11393800D01*
X659000Y11388900D01*
X661000Y11382700D01*
X666100Y11378400D01*
X672200Y11377100D01*
X678300Y11377800D01*
X683400Y11380200D01*
X693600Y11392600D01*
X700700Y11398100D01*
X710900Y11401800D01*
X720000Y11403100D01*
X720000Y11377100D01*
G01X694600Y11362300D02*
X687500Y11358000D01*
X683400Y11354300D01*
X681400Y11349400D01*
X683400Y11345000D01*
X687500Y11342000D01*
X693600Y11339500D01*
X700700Y11338900D01*
X706800Y11339500D01*
X712900Y11342000D01*
X718000Y11345700D01*
X720000Y11350000D01*
X718000Y11354900D01*
X711900Y11359200D01*
X702700Y11361700D01*
X692600Y11362300D01*
X679300Y11361100D01*
X672200Y11359200D01*
X665100Y11356200D01*
X660000Y11351800D01*
X659000Y11347500D01*
X661000Y11343200D01*
X666100Y11340100D01*
G01X926800Y13325000D02*
X902200Y13325000D01*
X902200Y13264000D01*
X926800Y13264000D01*
G01X917000Y13293500D02*
X902200Y13293500D01*
G01X942300Y13274200D02*
X946000Y13268100D01*
X950300Y13265000D01*
X955200Y13264000D01*
X961400Y13266000D01*
X965700Y13271100D01*
X967000Y13277200D01*
X966300Y13283300D01*
X963900Y13288400D01*
X951500Y13298600D01*
X946000Y13305700D01*
X942300Y13315900D01*
X941000Y13325000D01*
X967000Y13325000D01*
G01X993500Y13264000D02*
X988600Y13266000D01*
X984900Y13271100D01*
X982400Y13277200D01*
X980500Y13285400D01*
X979900Y13294500D01*
X980500Y13303700D01*
X982400Y13311800D01*
X984900Y13317900D01*
X988600Y13323000D01*
X993500Y13325000D01*
X998400Y13323000D01*
X1002100Y13317900D01*
X1004600Y13311800D01*
X1006500Y13303700D01*
X1007100Y13294500D01*
X1006500Y13285400D01*
X1004600Y13277200D01*
X1002100Y13271100D01*
X998400Y13266000D01*
X993500Y13264000D01*
G01X981200Y13525000D02*
X1005800Y13525000D01*
X1005800Y13586000D01*
X981200Y13586000D01*
G01X991000Y13556500D02*
X1005800Y13556500D01*
G01X954000Y13525000D02*
X954000Y13586000D01*
X961400Y13573800D01*
G01X961400Y13525000D02*
X946600Y13525000D01*
G01X914500Y13525000D02*
X910200Y13526000D01*
X905300Y13529100D01*
X902200Y13534100D01*
X900900Y13541300D01*
X902200Y13548400D01*
X905900Y13554500D01*
X911400Y13557500D01*
X917600Y13557500D01*
X921300Y13559600D01*
X924400Y13564600D01*
X925600Y13571800D01*
X923700Y13578900D01*
X919400Y13584000D01*
X914500Y13586000D01*
X909600Y13584000D01*
X905300Y13578900D01*
X903400Y13571800D01*
X904600Y13564600D01*
X907700Y13559600D01*
X911400Y13557500D01*
X917600Y13557500D01*
X923100Y13554500D01*
X926800Y13548400D01*
X928100Y13541300D01*
X926800Y13534100D01*
X923700Y13529100D01*
X918800Y13526000D01*
X914500Y13525000D01*
G01X926800Y13755500D02*
X902200Y13755500D01*
X902200Y13694500D01*
X926800Y13694500D01*
G01X917000Y13724000D02*
X902200Y13724000D01*
G01X942300Y13704700D02*
X946000Y13698600D01*
X950300Y13695500D01*
X955200Y13694500D01*
X961400Y13696500D01*
X965700Y13701600D01*
X967000Y13707700D01*
X966300Y13713800D01*
X963900Y13718900D01*
X951500Y13729100D01*
X946000Y13736200D01*
X942300Y13746400D01*
X941000Y13755500D01*
X967000Y13755500D01*
G01X979900Y13746400D02*
X983600Y13751400D01*
X987900Y13754500D01*
X993500Y13755500D01*
X999100Y13753500D01*
X1003400Y13749400D01*
X1006500Y13742300D01*
X1007100Y13734200D01*
X1005800Y13726000D01*
X1002700Y13720900D01*
X998400Y13716900D01*
X994100Y13715900D01*
X989800Y13716900D01*
X984300Y13720900D01*
X986100Y13694500D01*
X1002700Y13694500D01*
G01X926800Y13955500D02*
X902200Y13955500D01*
X902200Y13894500D01*
X926800Y13894500D01*
G01X917000Y13924000D02*
X902200Y13924000D01*
G01X940400Y13943300D02*
X944100Y13950400D01*
X949100Y13954500D01*
X954600Y13955500D01*
X959600Y13954500D01*
X964500Y13949400D01*
X967600Y13943300D01*
X968200Y13937200D01*
X967000Y13930100D01*
X962600Y13925000D01*
X958300Y13923000D01*
X952800Y13923000D01*
G01X958300Y13923000D02*
X962000Y13919900D01*
X965100Y13914800D01*
X966300Y13908700D01*
X965100Y13902600D01*
X962000Y13897600D01*
X956500Y13894500D01*
X950900Y13895500D01*
X945400Y13899600D01*
G01X981800Y13930100D02*
X986100Y13923000D01*
X989800Y13918900D01*
X994700Y13916900D01*
X999100Y13918900D01*
X1002100Y13923000D01*
X1004600Y13929100D01*
X1005200Y13936200D01*
X1004600Y13942300D01*
X1002100Y13948400D01*
X998400Y13953500D01*
X994100Y13955500D01*
X989200Y13953500D01*
X984900Y13947400D01*
X982400Y13938200D01*
X981800Y13928100D01*
X983000Y13914800D01*
X984900Y13907700D01*
X987900Y13900600D01*
X992300Y13895500D01*
X996600Y13894500D01*
X1000900Y13896500D01*
X1004000Y13901600D01*
G01X1150000Y11420700D02*
X1150000Y11445300D01*
X1089000Y11445300D01*
X1089000Y11420700D01*
G01X1118500Y11430500D02*
X1118500Y11445300D01*
G01X1099200Y11405200D02*
X1093100Y11401500D01*
X1090000Y11397200D01*
X1089000Y11392300D01*
X1091000Y11386100D01*
X1096100Y11381800D01*
X1102200Y11380500D01*
X1108300Y11381200D01*
X1113400Y11383600D01*
X1123600Y11396000D01*
X1130700Y11401500D01*
X1140900Y11405200D01*
X1150000Y11406500D01*
X1150000Y11380500D01*
G01X1150000Y11354000D02*
X1149000Y11349700D01*
X1145900Y11344800D01*
X1140900Y11341700D01*
X1133700Y11340400D01*
X1126600Y11341700D01*
X1120500Y11345400D01*
X1117500Y11350900D01*
X1117500Y11357100D01*
X1115400Y11360800D01*
X1110400Y11363900D01*
X1103200Y11365100D01*
X1096100Y11363200D01*
X1091000Y11358900D01*
X1089000Y11354000D01*
X1091000Y11349100D01*
X1096100Y11344800D01*
X1103200Y11342900D01*
X1110400Y11344100D01*
X1115400Y11347200D01*
X1117500Y11350900D01*
X1117500Y11357100D01*
X1120500Y11362600D01*
X1126600Y11366300D01*
X1133700Y11367600D01*
X1140900Y11366300D01*
X1145900Y11363200D01*
X1149000Y11358300D01*
X1150000Y11354000D01*
G01X2298100Y4577000D02*
X2298100Y4638000D01*
X2282100Y4587200D01*
X2266100Y4638000D01*
X2266100Y4577000D01*
G01X2254900Y4577000D02*
X2254900Y4638000D01*
X2239500Y4638000D01*
X2234600Y4634900D01*
X2231500Y4630900D01*
X2230300Y4622700D01*
X2231500Y4614600D01*
X2235200Y4609500D01*
X2239500Y4606500D01*
X2254900Y4606500D01*
G01X2239500Y4606500D02*
X2230300Y4577000D01*
G01X2203100Y4577000D02*
X2203100Y4638000D01*
X2210500Y4625800D01*
G01X2210500Y4577000D02*
X2195700Y4577000D01*
G01X2163600Y4577000D02*
X2163600Y4638000D01*
X2171000Y4625800D01*
G01X2171000Y4577000D02*
X2156200Y4577000D01*
G01X2149000Y4542500D02*
X2349000Y4542500D01*
X2349000Y4637500D01*
X2174000Y4637500D01*
X2149000Y4612500D01*
X2149000Y4542500D01*
G01X2339600Y5050200D02*
X2336500Y5053900D01*
X2334500Y5058200D01*
X2334500Y5063200D01*
X2337600Y5068700D01*
X2342600Y5073000D01*
X2348700Y5076100D01*
X2358900Y5078600D01*
X2368100Y5079200D01*
X2377200Y5078000D01*
X2383300Y5076100D01*
X2389400Y5072400D01*
X2393500Y5068100D01*
X2395500Y5063800D01*
X2395500Y5059500D01*
X2393500Y5055200D01*
X2390400Y5051500D01*
X2386400Y5048400D01*
G01X2395500Y5016900D02*
X2334500Y5016900D01*
X2378200Y5039700D01*
X2378200Y5008900D01*
G01X2395500Y4984800D02*
X2334500Y4984800D01*
X2346700Y4992200D01*
G01X2395500Y4992200D02*
X2395500Y4977400D01*
G01X2543100Y4582000D02*
X2543100Y4643000D01*
X2527100Y4592200D01*
X2511100Y4643000D01*
X2511100Y4582000D01*
G01X2499900Y4582000D02*
X2499900Y4643000D01*
X2484500Y4643000D01*
X2479600Y4639900D01*
X2476500Y4635900D01*
X2475300Y4627700D01*
X2476500Y4619600D01*
X2480200Y4614500D01*
X2484500Y4611500D01*
X2499900Y4611500D01*
G01X2484500Y4611500D02*
X2475300Y4582000D01*
G01X2448100Y4582000D02*
X2448100Y4643000D01*
X2455500Y4630800D01*
G01X2455500Y4582000D02*
X2440700Y4582000D01*
G01X2420300Y4632800D02*
X2416600Y4638900D01*
X2412300Y4642000D01*
X2407400Y4643000D01*
X2401200Y4641000D01*
X2396900Y4635900D01*
X2395600Y4629800D01*
X2396300Y4623700D01*
X2398700Y4618600D01*
X2411100Y4608400D01*
X2416600Y4601300D01*
X2420300Y4591100D01*
X2421600Y4582000D01*
X2395600Y4582000D01*
G01X2394000Y4547500D02*
X2594000Y4547500D01*
X2594000Y4642500D01*
X2419000Y4642500D01*
X2394000Y4617500D01*
X2394000Y4547500D01*
G01X2584900Y5305400D02*
X2588600Y5308500D01*
X2592900Y5310500D01*
X2597900Y5310500D01*
X2603400Y5307400D01*
X2607700Y5302400D01*
X2610800Y5296300D01*
X2613300Y5286100D01*
X2613900Y5276900D01*
X2612700Y5267800D01*
X2610800Y5261700D01*
X2607100Y5255600D01*
X2602800Y5251500D01*
X2598500Y5249500D01*
X2594200Y5249500D01*
X2589900Y5251500D01*
X2586200Y5254600D01*
X2583100Y5258600D01*
G01X2572600Y5261700D02*
X2568900Y5254600D01*
X2563900Y5250500D01*
X2558400Y5249500D01*
X2553400Y5250500D01*
X2548500Y5255600D01*
X2545400Y5261700D01*
X2544800Y5267800D01*
X2546000Y5274900D01*
X2550400Y5280000D01*
X2554700Y5282000D01*
X2560200Y5282000D01*
G01X2554700Y5282000D02*
X2551000Y5285100D01*
X2547900Y5290200D01*
X2546700Y5296300D01*
X2547900Y5302400D01*
X2551000Y5307400D01*
X2556500Y5310500D01*
X2562100Y5309500D01*
X2567600Y5305400D01*
G01X2530000Y5256600D02*
X2525700Y5251500D01*
X2520700Y5249500D01*
X2515800Y5251500D01*
X2511500Y5257600D01*
X2508400Y5266800D01*
X2507200Y5275900D01*
X2507200Y5287100D01*
X2508400Y5296300D01*
X2511500Y5304400D01*
X2515200Y5308500D01*
X2519500Y5310500D01*
X2524400Y5308500D01*
X2528100Y5304400D01*
X2530600Y5298300D01*
X2531800Y5290200D01*
X2530600Y5283100D01*
X2527500Y5275900D01*
X2523800Y5271900D01*
X2519500Y5270800D01*
X2514600Y5272900D01*
X2510900Y5278000D01*
X2507200Y5287100D01*
G01X2719700Y2190600D02*
X2723400Y2193700D01*
X2727700Y2195700D01*
X2732700Y2195700D01*
X2738200Y2192600D01*
X2742500Y2187600D01*
X2745600Y2181500D01*
X2748100Y2171300D01*
X2748700Y2162100D01*
X2747500Y2153000D01*
X2745600Y2146900D01*
X2741900Y2140800D01*
X2737600Y2136700D01*
X2733300Y2134700D01*
X2729000Y2134700D01*
X2724700Y2136700D01*
X2721000Y2139800D01*
X2717900Y2143800D01*
G01X2693800Y2134700D02*
X2693800Y2195700D01*
X2701200Y2183500D01*
G01X2701200Y2134700D02*
X2686400Y2134700D01*
G01X2654300Y2195700D02*
X2659200Y2193700D01*
X2662900Y2188600D01*
X2665400Y2182500D01*
X2667300Y2174300D01*
X2667900Y2165200D01*
X2667300Y2156000D01*
X2665400Y2147900D01*
X2662900Y2141800D01*
X2659200Y2136700D01*
X2654300Y2134700D01*
X2649400Y2136700D01*
X2645700Y2141800D01*
X2643200Y2147900D01*
X2641300Y2156000D01*
X2640700Y2165200D01*
X2641300Y2174300D01*
X2643200Y2182500D01*
X2645700Y2188600D01*
X2649400Y2193700D01*
X2654300Y2195700D01*
G01X2607400Y2134700D02*
X2607400Y2195700D01*
X2630200Y2152000D01*
X2599400Y2152000D01*
G01X2788100Y4582000D02*
X2788100Y4643000D01*
X2772100Y4592200D01*
X2756100Y4643000D01*
X2756100Y4582000D01*
G01X2744900Y4582000D02*
X2744900Y4643000D01*
X2729500Y4643000D01*
X2724600Y4639900D01*
X2721500Y4635900D01*
X2720300Y4627700D01*
X2721500Y4619600D01*
X2725200Y4614500D01*
X2729500Y4611500D01*
X2744900Y4611500D01*
G01X2729500Y4611500D02*
X2720300Y4582000D01*
G01X2693100Y4582000D02*
X2693100Y4643000D01*
X2700500Y4630800D01*
G01X2700500Y4582000D02*
X2685700Y4582000D01*
G01X2667200Y4594200D02*
X2663500Y4587100D01*
X2658500Y4583000D01*
X2653000Y4582000D01*
X2648000Y4583000D01*
X2643100Y4588100D01*
X2640000Y4594200D01*
X2639400Y4600300D01*
X2640600Y4607400D01*
X2645000Y4612500D01*
X2649300Y4614500D01*
X2654800Y4614500D01*
G01X2649300Y4614500D02*
X2645600Y4617600D01*
X2642500Y4622700D01*
X2641300Y4628800D01*
X2642500Y4634900D01*
X2645600Y4639900D01*
X2651100Y4643000D01*
X2656700Y4642000D01*
X2662200Y4637900D01*
G01X2639000Y4547500D02*
X2839000Y4547500D01*
X2839000Y4642500D01*
X2664000Y4642500D01*
X2639000Y4617500D01*
X2639000Y4547500D01*
G01X2740900Y4899700D02*
X2744600Y4902800D01*
X2748900Y4904800D01*
X2753900Y4904800D01*
X2759400Y4901700D01*
X2763700Y4896700D01*
X2766800Y4890600D01*
X2769300Y4880400D01*
X2769900Y4871200D01*
X2768700Y4862100D01*
X2766800Y4856000D01*
X2763100Y4849900D01*
X2758800Y4845800D01*
X2754500Y4843800D01*
X2750200Y4843800D01*
X2745900Y4845800D01*
X2742200Y4848900D01*
X2739100Y4852900D01*
G01X2725500Y4850900D02*
X2721200Y4845800D01*
X2716200Y4843800D01*
X2711300Y4845800D01*
X2707000Y4851900D01*
X2703900Y4861100D01*
X2702700Y4870200D01*
X2702700Y4881400D01*
X2703900Y4890600D01*
X2707000Y4898700D01*
X2710700Y4902800D01*
X2715000Y4904800D01*
X2719900Y4902800D01*
X2723600Y4898700D01*
X2726100Y4892600D01*
X2727300Y4884500D01*
X2726100Y4877400D01*
X2723000Y4870200D01*
X2719300Y4866200D01*
X2715000Y4865100D01*
X2710100Y4867200D01*
X2706400Y4872300D01*
X2702700Y4881400D01*
G01X2668100Y4843800D02*
X2668100Y4904800D01*
X2690900Y4861100D01*
X2660100Y4861100D01*
G01X2986200Y2974700D02*
X3010800Y2974700D01*
X3010800Y3035700D01*
X2986200Y3035700D01*
G01X2996000Y3006200D02*
X3010800Y3006200D01*
G01X2951600Y2974700D02*
X2951600Y3035700D01*
X2974400Y2992000D01*
X2943600Y2992000D01*
G01X2933100Y2986900D02*
X2929400Y2979800D01*
X2924400Y2975700D01*
X2918900Y2974700D01*
X2913900Y2975700D01*
X2909000Y2980800D01*
X2905900Y2986900D01*
X2905300Y2993000D01*
X2906500Y3000100D01*
X2910900Y3005200D01*
X2915200Y3007200D01*
X2920700Y3007200D01*
G01X2915200Y3007200D02*
X2911500Y3010300D01*
X2908400Y3015400D01*
X2907200Y3021500D01*
X2908400Y3027600D01*
X2911500Y3032600D01*
X2917000Y3035700D01*
X2922600Y3034700D01*
X2928100Y3030600D01*
G01X3470900Y2432700D02*
X3474600Y2435800D01*
X3478900Y2437800D01*
X3483900Y2437800D01*
X3489400Y2434700D01*
X3493700Y2429700D01*
X3496800Y2423600D01*
X3499300Y2413400D01*
X3499900Y2404200D01*
X3498700Y2395100D01*
X3496800Y2389000D01*
X3493100Y2382900D01*
X3488800Y2378800D01*
X3484500Y2376800D01*
X3480200Y2376800D01*
X3475900Y2378800D01*
X3472200Y2381900D01*
X3469100Y2385900D01*
G01X3445000Y2376800D02*
X3445000Y2437800D01*
X3452400Y2425600D01*
G01X3452400Y2376800D02*
X3437600Y2376800D01*
G01X3405500Y2376800D02*
X3405500Y2437800D01*
X3412900Y2425600D01*
G01X3412900Y2376800D02*
X3398100Y2376800D01*
G01X3451200Y2722700D02*
X3454900Y2725800D01*
X3459200Y2727800D01*
X3464200Y2727800D01*
X3469700Y2724700D01*
X3474000Y2719700D01*
X3477100Y2713600D01*
X3479600Y2703400D01*
X3480200Y2694200D01*
X3479000Y2685100D01*
X3477100Y2679000D01*
X3473400Y2672900D01*
X3469100Y2668800D01*
X3464800Y2666800D01*
X3460500Y2666800D01*
X3456200Y2668800D01*
X3452500Y2671900D01*
X3449400Y2675900D01*
G01X3425300Y2666800D02*
X3421000Y2667800D01*
X3416100Y2670900D01*
X3413000Y2675900D01*
X3411700Y2683100D01*
X3413000Y2690200D01*
X3416700Y2696300D01*
X3422200Y2699300D01*
X3428400Y2699300D01*
X3432100Y2701400D01*
X3435200Y2706400D01*
X3436400Y2713600D01*
X3434500Y2720700D01*
X3430200Y2725800D01*
X3425300Y2727800D01*
X3420400Y2725800D01*
X3416100Y2720700D01*
X3414200Y2713600D01*
X3415400Y2706400D01*
X3418500Y2701400D01*
X3422200Y2699300D01*
X3428400Y2699300D01*
X3433900Y2696300D01*
X3437600Y2690200D01*
X3438900Y2683100D01*
X3437600Y2675900D01*
X3434500Y2670900D01*
X3429600Y2667800D01*
X3425300Y2666800D01*
G01X3489700Y2877900D02*
X3493400Y2881000D01*
X3497700Y2883000D01*
X3502700Y2883000D01*
X3508200Y2879900D01*
X3512500Y2874900D01*
X3515600Y2868800D01*
X3518100Y2858600D01*
X3518700Y2849400D01*
X3517500Y2840300D01*
X3515600Y2834200D01*
X3511900Y2828100D01*
X3507600Y2824000D01*
X3503300Y2822000D01*
X3499000Y2822000D01*
X3494700Y2824000D01*
X3491000Y2827100D01*
X3487900Y2831100D01*
G01X3463800Y2822000D02*
X3463800Y2883000D01*
X3471200Y2870800D01*
G01X3471200Y2822000D02*
X3456400Y2822000D01*
G01X3424300Y2883000D02*
X3429200Y2881000D01*
X3432900Y2875900D01*
X3435400Y2869800D01*
X3437300Y2861600D01*
X3437900Y2852500D01*
X3437300Y2843300D01*
X3435400Y2835200D01*
X3432900Y2829100D01*
X3429200Y2824000D01*
X3424300Y2822000D01*
X3419400Y2824000D01*
X3415700Y2829100D01*
X3413200Y2835200D01*
X3411300Y2843300D01*
X3410700Y2852500D01*
X3411300Y2861600D01*
X3413200Y2869800D01*
X3415700Y2875900D01*
X3419400Y2881000D01*
X3424300Y2883000D01*
G01X3384800Y2822000D02*
X3384800Y2883000D01*
X3392200Y2870800D01*
G01X3392200Y2822000D02*
X3377400Y2822000D01*
G01X3470900Y2977700D02*
X3474600Y2980800D01*
X3478900Y2982800D01*
X3483900Y2982800D01*
X3489400Y2979700D01*
X3493700Y2974700D01*
X3496800Y2968600D01*
X3499300Y2958400D01*
X3499900Y2949200D01*
X3498700Y2940100D01*
X3496800Y2934000D01*
X3493100Y2927900D01*
X3488800Y2923800D01*
X3484500Y2921800D01*
X3480200Y2921800D01*
X3475900Y2923800D01*
X3472200Y2926900D01*
X3469100Y2930900D01*
G01X3445000Y2921800D02*
X3445000Y2982800D01*
X3452400Y2970600D01*
G01X3452400Y2921800D02*
X3437600Y2921800D01*
G01X3398100Y2921800D02*
X3398100Y2982800D01*
X3420900Y2939100D01*
X3390100Y2939100D01*
G01X3614600Y2558500D02*
X3611500Y2562200D01*
X3609500Y2566500D01*
X3609500Y2571500D01*
X3612600Y2577000D01*
X3617600Y2581300D01*
X3623700Y2584400D01*
X3633900Y2586900D01*
X3643100Y2587500D01*
X3652200Y2586300D01*
X3658300Y2584400D01*
X3664400Y2580700D01*
X3668500Y2576400D01*
X3670500Y2572100D01*
X3670500Y2567800D01*
X3668500Y2563500D01*
X3665400Y2559800D01*
X3661400Y2556700D01*
G01X3663400Y2543100D02*
X3668500Y2538800D01*
X3670500Y2533800D01*
X3668500Y2528900D01*
X3662400Y2524600D01*
X3653200Y2521500D01*
X3644100Y2520300D01*
X3632900Y2520300D01*
X3623700Y2521500D01*
X3615600Y2524600D01*
X3611500Y2528300D01*
X3609500Y2532600D01*
X3611500Y2537500D01*
X3615600Y2541200D01*
X3621700Y2543700D01*
X3629800Y2544900D01*
X3636900Y2543700D01*
X3644100Y2540600D01*
X3648100Y2536900D01*
X3649200Y2532600D01*
X3647100Y2527700D01*
X3642000Y2524000D01*
X3632900Y2520300D01*
G01X3768600Y2129900D02*
X3765500Y2133600D01*
X3763500Y2137900D01*
X3763500Y2142900D01*
X3766600Y2148400D01*
X3771600Y2152700D01*
X3777700Y2155800D01*
X3787900Y2158300D01*
X3797100Y2158900D01*
X3806200Y2157700D01*
X3812300Y2155800D01*
X3818400Y2152100D01*
X3822500Y2147800D01*
X3824500Y2143500D01*
X3824500Y2139200D01*
X3822500Y2134900D01*
X3819400Y2131200D01*
X3815400Y2128100D01*
G01X3824500Y2104000D02*
X3763500Y2104000D01*
X3775700Y2111400D01*
G01X3824500Y2111400D02*
X3824500Y2096600D01*
G01X3817400Y2075000D02*
X3822500Y2070700D01*
X3824500Y2065700D01*
X3822500Y2060800D01*
X3816400Y2056500D01*
X3807200Y2053400D01*
X3798100Y2052200D01*
X3786900Y2052200D01*
X3777700Y2053400D01*
X3769600Y2056500D01*
X3765500Y2060200D01*
X3763500Y2064500D01*
X3765500Y2069400D01*
X3769600Y2073100D01*
X3775700Y2075600D01*
X3783800Y2076800D01*
X3790900Y2075600D01*
X3798100Y2072500D01*
X3802100Y2068800D01*
X3803200Y2064500D01*
X3801100Y2059600D01*
X3796000Y2055900D01*
X3786900Y2052200D01*
G01X3784600Y2558500D02*
X3781500Y2562200D01*
X3779500Y2566500D01*
X3779500Y2571500D01*
X3782600Y2577000D01*
X3787600Y2581300D01*
X3793700Y2584400D01*
X3803900Y2586900D01*
X3813100Y2587500D01*
X3822200Y2586300D01*
X3828300Y2584400D01*
X3834400Y2580700D01*
X3838500Y2576400D01*
X3840500Y2572100D01*
X3840500Y2567800D01*
X3838500Y2563500D01*
X3835400Y2559800D01*
X3831400Y2556700D01*
G01X3815100Y2544300D02*
X3808000Y2540000D01*
X3803900Y2536300D01*
X3801900Y2531400D01*
X3803900Y2527000D01*
X3808000Y2524000D01*
X3814100Y2521500D01*
X3821200Y2520900D01*
X3827300Y2521500D01*
X3833400Y2524000D01*
X3838500Y2527700D01*
X3840500Y2532000D01*
X3838500Y2536900D01*
X3832400Y2541200D01*
X3823200Y2543700D01*
X3813100Y2544300D01*
X3799800Y2543100D01*
X3792700Y2541200D01*
X3785600Y2538200D01*
X3780500Y2533800D01*
X3779500Y2529500D01*
X3781500Y2525200D01*
X3786600Y2522100D01*
G01X3793100Y2752000D02*
X3790000Y2755700D01*
X3788000Y2760000D01*
X3788000Y2765000D01*
X3791100Y2770500D01*
X3796100Y2774800D01*
X3802200Y2777900D01*
X3812400Y2780400D01*
X3821600Y2781000D01*
X3830700Y2779800D01*
X3836800Y2777900D01*
X3842900Y2774200D01*
X3847000Y2769900D01*
X3849000Y2765600D01*
X3849000Y2761300D01*
X3847000Y2757000D01*
X3843900Y2753300D01*
X3839900Y2750200D01*
G01X3849000Y2727300D02*
X3835800Y2726100D01*
X3824600Y2724200D01*
X3814400Y2721800D01*
X3803300Y2718700D01*
X3788000Y2713800D01*
X3788000Y2738400D01*
G01X3880100Y2082300D02*
X3877000Y2086000D01*
X3875000Y2090300D01*
X3875000Y2095300D01*
X3878100Y2100800D01*
X3883100Y2105100D01*
X3889200Y2108200D01*
X3899400Y2110700D01*
X3908600Y2111300D01*
X3917700Y2110100D01*
X3923800Y2108200D01*
X3929900Y2104500D01*
X3934000Y2100200D01*
X3936000Y2095900D01*
X3936000Y2091600D01*
X3934000Y2087300D01*
X3930900Y2083600D01*
X3926900Y2080500D01*
G01X3923800Y2070000D02*
X3930900Y2066300D01*
X3935000Y2061300D01*
X3936000Y2055800D01*
X3935000Y2050800D01*
X3929900Y2045900D01*
X3923800Y2042800D01*
X3917700Y2042200D01*
X3910600Y2043400D01*
X3905500Y2047800D01*
X3903500Y2052100D01*
X3903500Y2057600D01*
G01X3903500Y2052100D02*
X3900400Y2048400D01*
X3895300Y2045300D01*
X3889200Y2044100D01*
X3883100Y2045300D01*
X3878100Y2048400D01*
X3875000Y2053900D01*
X3876000Y2059500D01*
X3880100Y2065000D01*
G01X3815500Y4170200D02*
X3815500Y3970200D01*
X3910500Y3970200D01*
X3910500Y4145200D01*
X3885500Y4170200D01*
X3815500Y4170200D01*
G01X3911000Y4151900D02*
X3850000Y4151900D01*
X3900800Y4135900D01*
X3850000Y4119900D01*
X3911000Y4119900D01*
G01X3911000Y4108700D02*
X3850000Y4108700D01*
X3850000Y4093300D01*
X3853100Y4088400D01*
X3857100Y4085300D01*
X3865300Y4084100D01*
X3873400Y4085300D01*
X3878500Y4089000D01*
X3881500Y4093300D01*
X3881500Y4108700D01*
G01X3881500Y4093300D02*
X3911000Y4084100D01*
G01X3911000Y4056900D02*
X3910000Y4052600D01*
X3906900Y4047700D01*
X3901900Y4044600D01*
X3894700Y4043300D01*
X3887600Y4044600D01*
X3881500Y4048300D01*
X3878500Y4053800D01*
X3878500Y4060000D01*
X3876400Y4063700D01*
X3871400Y4066800D01*
X3864200Y4068000D01*
X3857100Y4066100D01*
X3852000Y4061800D01*
X3850000Y4056900D01*
X3852000Y4052000D01*
X3857100Y4047700D01*
X3864200Y4045800D01*
X3871400Y4047000D01*
X3876400Y4050100D01*
X3878500Y4053800D01*
X3878500Y4060000D01*
X3881500Y4065500D01*
X3887600Y4069200D01*
X3894700Y4070500D01*
X3901900Y4069200D01*
X3906900Y4066100D01*
X3910000Y4061200D01*
X3911000Y4056900D01*
G01X3815500Y4390200D02*
X3815500Y4190200D01*
X3910500Y4190200D01*
X3910500Y4365200D01*
X3885500Y4390200D01*
X3815500Y4390200D01*
G01X3911000Y4371900D02*
X3850000Y4371900D01*
X3900800Y4355900D01*
X3850000Y4339900D01*
X3911000Y4339900D01*
G01X3911000Y4328700D02*
X3850000Y4328700D01*
X3850000Y4313300D01*
X3853100Y4308400D01*
X3857100Y4305300D01*
X3865300Y4304100D01*
X3873400Y4305300D01*
X3878500Y4309000D01*
X3881500Y4313300D01*
X3881500Y4328700D01*
G01X3881500Y4313300D02*
X3911000Y4304100D01*
G01X3911000Y4278100D02*
X3897800Y4276900D01*
X3886600Y4275000D01*
X3876400Y4272600D01*
X3865300Y4269500D01*
X3850000Y4264600D01*
X3850000Y4289200D01*
G01X3805500Y4890200D02*
X3805500Y4690200D01*
X3900500Y4690200D01*
X3900500Y4865200D01*
X3875500Y4890200D01*
X3805500Y4890200D01*
G01X3901000Y4871900D02*
X3840000Y4871900D01*
X3890800Y4855900D01*
X3840000Y4839900D01*
X3901000Y4839900D01*
G01X3901000Y4828700D02*
X3840000Y4828700D01*
X3840000Y4813300D01*
X3843100Y4808400D01*
X3847100Y4805300D01*
X3855300Y4804100D01*
X3863400Y4805300D01*
X3868500Y4809000D01*
X3871500Y4813300D01*
X3871500Y4828700D01*
G01X3871500Y4813300D02*
X3901000Y4804100D01*
G01X3875600Y4788600D02*
X3868500Y4784300D01*
X3864400Y4780600D01*
X3862400Y4775700D01*
X3864400Y4771300D01*
X3868500Y4768300D01*
X3874600Y4765800D01*
X3881700Y4765200D01*
X3887800Y4765800D01*
X3893900Y4768300D01*
X3899000Y4772000D01*
X3901000Y4776300D01*
X3899000Y4781200D01*
X3892900Y4785500D01*
X3883700Y4788000D01*
X3873600Y4788600D01*
X3860300Y4787400D01*
X3853200Y4785500D01*
X3846100Y4782500D01*
X3841000Y4778100D01*
X3840000Y4773800D01*
X3842000Y4769500D01*
X3847100Y4766400D01*
G01X3805500Y5105200D02*
X3805500Y4905200D01*
X3900500Y4905200D01*
X3900500Y5080200D01*
X3875500Y5105200D01*
X3805500Y5105200D01*
G01X3901000Y5086900D02*
X3840000Y5086900D01*
X3890800Y5070900D01*
X3840000Y5054900D01*
X3901000Y5054900D01*
G01X3901000Y5043700D02*
X3840000Y5043700D01*
X3840000Y5028300D01*
X3843100Y5023400D01*
X3847100Y5020300D01*
X3855300Y5019100D01*
X3863400Y5020300D01*
X3868500Y5024000D01*
X3871500Y5028300D01*
X3871500Y5043700D01*
G01X3871500Y5028300D02*
X3901000Y5019100D01*
G01X3891900Y5005500D02*
X3896900Y5001800D01*
X3900000Y4997500D01*
X3901000Y4991900D01*
X3899000Y4986300D01*
X3894900Y4982000D01*
X3887800Y4978900D01*
X3879700Y4978300D01*
X3871500Y4979600D01*
X3866400Y4982700D01*
X3862400Y4987000D01*
X3861400Y4991300D01*
X3862400Y4995600D01*
X3866400Y5001100D01*
X3840000Y4999300D01*
X3840000Y4982700D01*
G01X4065500Y1909100D02*
X4004500Y1909100D01*
X4004500Y1893700D01*
X4007600Y1888800D01*
X4011600Y1885700D01*
X4019800Y1884500D01*
X4027900Y1885700D01*
X4033000Y1889400D01*
X4036000Y1893700D01*
X4036000Y1909100D01*
G01X4036000Y1893700D02*
X4065500Y1884500D01*
G01X4065500Y1857300D02*
X4064500Y1853000D01*
X4061400Y1848100D01*
X4056400Y1845000D01*
X4049200Y1843700D01*
X4042100Y1845000D01*
X4036000Y1848700D01*
X4033000Y1854200D01*
X4033000Y1860400D01*
X4030900Y1864100D01*
X4025900Y1867200D01*
X4018700Y1868400D01*
X4011600Y1866500D01*
X4006500Y1862200D01*
X4004500Y1857300D01*
X4006500Y1852400D01*
X4011600Y1848100D01*
X4018700Y1846200D01*
X4025900Y1847400D01*
X4030900Y1850500D01*
X4033000Y1854200D01*
X4033000Y1860400D01*
X4036000Y1865900D01*
X4042100Y1869600D01*
X4049200Y1870900D01*
X4056400Y1869600D01*
X4061400Y1866500D01*
X4064500Y1861600D01*
X4065500Y1857300D01*
G01X4004500Y1817800D02*
X4006500Y1822700D01*
X4011600Y1826400D01*
X4017700Y1828900D01*
X4025900Y1830800D01*
X4035000Y1831400D01*
X4044200Y1830800D01*
X4052300Y1828900D01*
X4058400Y1826400D01*
X4063500Y1822700D01*
X4065500Y1817800D01*
X4063500Y1812900D01*
X4058400Y1809200D01*
X4052300Y1806700D01*
X4044200Y1804800D01*
X4035000Y1804200D01*
X4025900Y1804800D01*
X4017700Y1806700D01*
X4011600Y1809200D01*
X4006500Y1812900D01*
X4004500Y1817800D01*
G01X4009600Y2063200D02*
X4006500Y2066900D01*
X4004500Y2071200D01*
X4004500Y2076200D01*
X4007600Y2081700D01*
X4012600Y2086000D01*
X4018700Y2089100D01*
X4028900Y2091600D01*
X4038100Y2092200D01*
X4047200Y2091000D01*
X4053300Y2089100D01*
X4059400Y2085400D01*
X4063500Y2081100D01*
X4065500Y2076800D01*
X4065500Y2072500D01*
X4063500Y2068200D01*
X4060400Y2064500D01*
X4056400Y2061400D01*
G01X4065500Y2037300D02*
X4004500Y2037300D01*
X4016700Y2044700D01*
G01X4065500Y2044700D02*
X4065500Y2029900D01*
G01X4056400Y2011400D02*
X4061400Y2007700D01*
X4064500Y2003400D01*
X4065500Y1997800D01*
X4063500Y1992200D01*
X4059400Y1987900D01*
X4052300Y1984800D01*
X4044200Y1984200D01*
X4036000Y1985500D01*
X4030900Y1988600D01*
X4026900Y1992900D01*
X4025900Y1997200D01*
X4026900Y2001500D01*
X4030900Y2007000D01*
X4004500Y2005200D01*
X4004500Y1988600D01*
G01X3934600Y2558500D02*
X3931500Y2562200D01*
X3929500Y2566500D01*
X3929500Y2571500D01*
X3932600Y2577000D01*
X3937600Y2581300D01*
X3943700Y2584400D01*
X3953900Y2586900D01*
X3963100Y2587500D01*
X3972200Y2586300D01*
X3978300Y2584400D01*
X3984400Y2580700D01*
X3988500Y2576400D01*
X3990500Y2572100D01*
X3990500Y2567800D01*
X3988500Y2563500D01*
X3985400Y2559800D01*
X3981400Y2556700D01*
G01X3990500Y2525200D02*
X3929500Y2525200D01*
X3973200Y2548000D01*
X3973200Y2517200D01*
G01X3929600Y3003200D02*
X3926500Y3006900D01*
X3924500Y3011200D01*
X3924500Y3016200D01*
X3927600Y3021700D01*
X3932600Y3026000D01*
X3938700Y3029100D01*
X3948900Y3031600D01*
X3958100Y3032200D01*
X3967200Y3031000D01*
X3973300Y3029100D01*
X3979400Y3025400D01*
X3983500Y3021100D01*
X3985500Y3016800D01*
X3985500Y3012500D01*
X3983500Y3008200D01*
X3980400Y3004500D01*
X3976400Y3001400D01*
G01X3985500Y2977300D02*
X3924500Y2977300D01*
X3936700Y2984700D01*
G01X3985500Y2984700D02*
X3985500Y2969900D01*
G01X3973300Y2951400D02*
X3980400Y2947700D01*
X3984500Y2942700D01*
X3985500Y2937200D01*
X3984500Y2932200D01*
X3979400Y2927300D01*
X3973300Y2924200D01*
X3967200Y2923600D01*
X3960100Y2924800D01*
X3955000Y2929200D01*
X3953000Y2933500D01*
X3953000Y2939000D01*
G01X3953000Y2933500D02*
X3949900Y2929800D01*
X3944800Y2926700D01*
X3938700Y2925500D01*
X3932600Y2926700D01*
X3927600Y2929800D01*
X3924500Y2935300D01*
X3925500Y2940900D01*
X3929600Y2946400D01*
G01X4149600Y2068200D02*
X4146500Y2071900D01*
X4144500Y2076200D01*
X4144500Y2081200D01*
X4147600Y2086700D01*
X4152600Y2091000D01*
X4158700Y2094100D01*
X4168900Y2096600D01*
X4178100Y2097200D01*
X4187200Y2096000D01*
X4193300Y2094100D01*
X4199400Y2090400D01*
X4203500Y2086100D01*
X4205500Y2081800D01*
X4205500Y2077500D01*
X4203500Y2073200D01*
X4200400Y2069500D01*
X4196400Y2066400D01*
G01X4205500Y2034900D02*
X4144500Y2034900D01*
X4188200Y2057700D01*
X4188200Y2026900D01*
G01X4144500Y2002800D02*
X4146500Y2007700D01*
X4151600Y2011400D01*
X4157700Y2013900D01*
X4165900Y2015800D01*
X4175000Y2016400D01*
X4184200Y2015800D01*
X4192300Y2013900D01*
X4198400Y2011400D01*
X4203500Y2007700D01*
X4205500Y2002800D01*
X4203500Y1997900D01*
X4198400Y1994200D01*
X4192300Y1991700D01*
X4184200Y1989800D01*
X4175000Y1989200D01*
X4165900Y1989800D01*
X4157700Y1991700D01*
X4151600Y1994200D01*
X4146500Y1997900D01*
X4144500Y2002800D01*
G01X4069600Y2378200D02*
X4066500Y2381900D01*
X4064500Y2386200D01*
X4064500Y2391200D01*
X4067600Y2396700D01*
X4072600Y2401000D01*
X4078700Y2404100D01*
X4088900Y2406600D01*
X4098100Y2407200D01*
X4107200Y2406000D01*
X4113300Y2404100D01*
X4119400Y2400400D01*
X4123500Y2396100D01*
X4125500Y2391800D01*
X4125500Y2387500D01*
X4123500Y2383200D01*
X4120400Y2379500D01*
X4116400Y2376400D01*
G01X4125500Y2352300D02*
X4064500Y2352300D01*
X4076700Y2359700D01*
G01X4125500Y2359700D02*
X4125500Y2344900D01*
G01X4074700Y2324500D02*
X4068600Y2320800D01*
X4065500Y2316500D01*
X4064500Y2311600D01*
X4066500Y2305400D01*
X4071600Y2301100D01*
X4077700Y2299800D01*
X4083800Y2300500D01*
X4088900Y2302900D01*
X4099100Y2315300D01*
X4106200Y2320800D01*
X4116400Y2324500D01*
X4125500Y2325800D01*
X4125500Y2299800D01*
G01X4069600Y2945900D02*
X4066500Y2949600D01*
X4064500Y2953900D01*
X4064500Y2958900D01*
X4067600Y2964400D01*
X4072600Y2968700D01*
X4078700Y2971800D01*
X4088900Y2974300D01*
X4098100Y2974900D01*
X4107200Y2973700D01*
X4113300Y2971800D01*
X4119400Y2968100D01*
X4123500Y2963800D01*
X4125500Y2959500D01*
X4125500Y2955200D01*
X4123500Y2950900D01*
X4120400Y2947200D01*
X4116400Y2944100D01*
G01X4074700Y2931700D02*
X4068600Y2928000D01*
X4065500Y2923700D01*
X4064500Y2918800D01*
X4066500Y2912600D01*
X4071600Y2908300D01*
X4077700Y2907000D01*
X4083800Y2907700D01*
X4088900Y2910100D01*
X4099100Y2922500D01*
X4106200Y2928000D01*
X4116400Y2931700D01*
X4125500Y2933000D01*
X4125500Y2907000D01*
G01X4118400Y2891000D02*
X4123500Y2886700D01*
X4125500Y2881700D01*
X4123500Y2876800D01*
X4117400Y2872500D01*
X4108200Y2869400D01*
X4099100Y2868200D01*
X4087900Y2868200D01*
X4078700Y2869400D01*
X4070600Y2872500D01*
X4066500Y2876200D01*
X4064500Y2880500D01*
X4066500Y2885400D01*
X4070600Y2889100D01*
X4076700Y2891600D01*
X4084800Y2892800D01*
X4091900Y2891600D01*
X4099100Y2888500D01*
X4103100Y2884800D01*
X4104200Y2880500D01*
X4102100Y2875600D01*
X4097000Y2871900D01*
X4087900Y2868200D01*
G01X4150900Y5007700D02*
X4154600Y5010800D01*
X4158900Y5012800D01*
X4163900Y5012800D01*
X4169400Y5009700D01*
X4173700Y5004700D01*
X4176800Y4998600D01*
X4179300Y4988400D01*
X4179900Y4979200D01*
X4178700Y4970100D01*
X4176800Y4964000D01*
X4173100Y4957900D01*
X4168800Y4953800D01*
X4164500Y4951800D01*
X4160200Y4951800D01*
X4155900Y4953800D01*
X4152200Y4956900D01*
X4149100Y4960900D01*
G01X4126200Y4951800D02*
X4125000Y4965000D01*
X4123100Y4976200D01*
X4120700Y4986400D01*
X4117600Y4997500D01*
X4112700Y5012800D01*
X4137300Y5012800D01*
G01X4085500Y4951800D02*
X4081200Y4952800D01*
X4076300Y4955900D01*
X4073200Y4960900D01*
X4071900Y4968100D01*
X4073200Y4975200D01*
X4076900Y4981300D01*
X4082400Y4984300D01*
X4088600Y4984300D01*
X4092300Y4986400D01*
X4095400Y4991400D01*
X4096600Y4998600D01*
X4094700Y5005700D01*
X4090400Y5010800D01*
X4085500Y5012800D01*
X4080600Y5010800D01*
X4076300Y5005700D01*
X4074400Y4998600D01*
X4075600Y4991400D01*
X4078700Y4986400D01*
X4082400Y4984300D01*
X4088600Y4984300D01*
X4094100Y4981300D01*
X4097800Y4975200D01*
X4099100Y4968100D01*
X4097800Y4960900D01*
X4094700Y4955900D01*
X4089800Y4952800D01*
X4085500Y4951800D01*
G01X4150900Y5127700D02*
X4154600Y5130800D01*
X4158900Y5132800D01*
X4163900Y5132800D01*
X4169400Y5129700D01*
X4173700Y5124700D01*
X4176800Y5118600D01*
X4179300Y5108400D01*
X4179900Y5099200D01*
X4178700Y5090100D01*
X4176800Y5084000D01*
X4173100Y5077900D01*
X4168800Y5073800D01*
X4164500Y5071800D01*
X4160200Y5071800D01*
X4155900Y5073800D01*
X4152200Y5076900D01*
X4149100Y5080900D01*
G01X4126200Y5071800D02*
X4125000Y5085000D01*
X4123100Y5096200D01*
X4120700Y5106400D01*
X4117600Y5117500D01*
X4112700Y5132800D01*
X4137300Y5132800D01*
G01X4096000Y5078900D02*
X4091700Y5073800D01*
X4086700Y5071800D01*
X4081800Y5073800D01*
X4077500Y5079900D01*
X4074400Y5089100D01*
X4073200Y5098200D01*
X4073200Y5109400D01*
X4074400Y5118600D01*
X4077500Y5126700D01*
X4081200Y5130800D01*
X4085500Y5132800D01*
X4090400Y5130800D01*
X4094100Y5126700D01*
X4096600Y5120600D01*
X4097800Y5112500D01*
X4096600Y5105400D01*
X4093500Y5098200D01*
X4089800Y5094200D01*
X4085500Y5093100D01*
X4080600Y5095200D01*
X4076900Y5100300D01*
X4073200Y5109400D01*
G01X4179600Y2378200D02*
X4176500Y2381900D01*
X4174500Y2386200D01*
X4174500Y2391200D01*
X4177600Y2396700D01*
X4182600Y2401000D01*
X4188700Y2404100D01*
X4198900Y2406600D01*
X4208100Y2407200D01*
X4217200Y2406000D01*
X4223300Y2404100D01*
X4229400Y2400400D01*
X4233500Y2396100D01*
X4235500Y2391800D01*
X4235500Y2387500D01*
X4233500Y2383200D01*
X4230400Y2379500D01*
X4226400Y2376400D01*
G01X4235500Y2352300D02*
X4174500Y2352300D01*
X4186700Y2359700D01*
G01X4235500Y2359700D02*
X4235500Y2344900D01*
G01X4235500Y2314000D02*
X4222300Y2312800D01*
X4211100Y2310900D01*
X4200900Y2308500D01*
X4189800Y2305400D01*
X4174500Y2300500D01*
X4174500Y2325100D01*
G01X4164600Y2558500D02*
X4161500Y2562200D01*
X4159500Y2566500D01*
X4159500Y2571500D01*
X4162600Y2577000D01*
X4167600Y2581300D01*
X4173700Y2584400D01*
X4183900Y2586900D01*
X4193100Y2587500D01*
X4202200Y2586300D01*
X4208300Y2584400D01*
X4214400Y2580700D01*
X4218500Y2576400D01*
X4220500Y2572100D01*
X4220500Y2567800D01*
X4218500Y2563500D01*
X4215400Y2559800D01*
X4211400Y2556700D01*
G01X4211400Y2546200D02*
X4216400Y2542500D01*
X4219500Y2538200D01*
X4220500Y2532600D01*
X4218500Y2527000D01*
X4214400Y2522700D01*
X4207300Y2519600D01*
X4199200Y2519000D01*
X4191000Y2520300D01*
X4185900Y2523400D01*
X4181900Y2527700D01*
X4180900Y2532000D01*
X4181900Y2536300D01*
X4185900Y2541800D01*
X4159500Y2540000D01*
X4159500Y2523400D01*
G01X4173600Y2945900D02*
X4170500Y2949600D01*
X4168500Y2953900D01*
X4168500Y2958900D01*
X4171600Y2964400D01*
X4176600Y2968700D01*
X4182700Y2971800D01*
X4192900Y2974300D01*
X4202100Y2974900D01*
X4211200Y2973700D01*
X4217300Y2971800D01*
X4223400Y2968100D01*
X4227500Y2963800D01*
X4229500Y2959500D01*
X4229500Y2955200D01*
X4227500Y2950900D01*
X4224400Y2947200D01*
X4220400Y2944100D01*
G01X4178700Y2931700D02*
X4172600Y2928000D01*
X4169500Y2923700D01*
X4168500Y2918800D01*
X4170500Y2912600D01*
X4175600Y2908300D01*
X4181700Y2907000D01*
X4187800Y2907700D01*
X4192900Y2910100D01*
X4203100Y2922500D01*
X4210200Y2928000D01*
X4220400Y2931700D01*
X4229500Y2933000D01*
X4229500Y2907000D01*
G01X4229500Y2881700D02*
X4216300Y2880500D01*
X4205100Y2878600D01*
X4194900Y2876200D01*
X4183800Y2873100D01*
X4168500Y2868200D01*
X4168500Y2892800D01*
G01X4340900Y5007700D02*
X4344600Y5010800D01*
X4348900Y5012800D01*
X4353900Y5012800D01*
X4359400Y5009700D01*
X4363700Y5004700D01*
X4366800Y4998600D01*
X4369300Y4988400D01*
X4369900Y4979200D01*
X4368700Y4970100D01*
X4366800Y4964000D01*
X4363100Y4957900D01*
X4358800Y4953800D01*
X4354500Y4951800D01*
X4350200Y4951800D01*
X4345900Y4953800D01*
X4342200Y4956900D01*
X4339100Y4960900D01*
G01X4315000Y4951800D02*
X4310700Y4952800D01*
X4305800Y4955900D01*
X4302700Y4960900D01*
X4301400Y4968100D01*
X4302700Y4975200D01*
X4306400Y4981300D01*
X4311900Y4984300D01*
X4318100Y4984300D01*
X4321800Y4986400D01*
X4324900Y4991400D01*
X4326100Y4998600D01*
X4324200Y5005700D01*
X4319900Y5010800D01*
X4315000Y5012800D01*
X4310100Y5010800D01*
X4305800Y5005700D01*
X4303900Y4998600D01*
X4305100Y4991400D01*
X4308200Y4986400D01*
X4311900Y4984300D01*
X4318100Y4984300D01*
X4323600Y4981300D01*
X4327300Y4975200D01*
X4328600Y4968100D01*
X4327300Y4960900D01*
X4324200Y4955900D01*
X4319300Y4952800D01*
X4315000Y4951800D01*
G01X4275500Y4951800D02*
X4275500Y5012800D01*
X4282900Y5000600D01*
G01X4282900Y4951800D02*
X4268100Y4951800D01*
G01X4335900Y5127700D02*
X4339600Y5130800D01*
X4343900Y5132800D01*
X4348900Y5132800D01*
X4354400Y5129700D01*
X4358700Y5124700D01*
X4361800Y5118600D01*
X4364300Y5108400D01*
X4364900Y5099200D01*
X4363700Y5090100D01*
X4361800Y5084000D01*
X4358100Y5077900D01*
X4353800Y5073800D01*
X4349500Y5071800D01*
X4345200Y5071800D01*
X4340900Y5073800D01*
X4337200Y5076900D01*
X4334100Y5080900D01*
G01X4310000Y5071800D02*
X4305700Y5072800D01*
X4300800Y5075900D01*
X4297700Y5080900D01*
X4296400Y5088100D01*
X4297700Y5095200D01*
X4301400Y5101300D01*
X4306900Y5104300D01*
X4313100Y5104300D01*
X4316800Y5106400D01*
X4319900Y5111400D01*
X4321100Y5118600D01*
X4319200Y5125700D01*
X4314900Y5130800D01*
X4310000Y5132800D01*
X4305100Y5130800D01*
X4300800Y5125700D01*
X4298900Y5118600D01*
X4300100Y5111400D01*
X4303200Y5106400D01*
X4306900Y5104300D01*
X4313100Y5104300D01*
X4318600Y5101300D01*
X4322300Y5095200D01*
X4323600Y5088100D01*
X4322300Y5080900D01*
X4319200Y5075900D01*
X4314300Y5072800D01*
X4310000Y5071800D01*
G01X4270500Y5132800D02*
X4275400Y5130800D01*
X4279100Y5125700D01*
X4281600Y5119600D01*
X4283500Y5111400D01*
X4284100Y5102300D01*
X4283500Y5093100D01*
X4281600Y5085000D01*
X4279100Y5078900D01*
X4275400Y5073800D01*
X4270500Y5071800D01*
X4265600Y5073800D01*
X4261900Y5078900D01*
X4259400Y5085000D01*
X4257500Y5093100D01*
X4256900Y5102300D01*
X4257500Y5111400D01*
X4259400Y5119600D01*
X4261900Y5125700D01*
X4265600Y5130800D01*
X4270500Y5132800D01*
G01X4431600Y7823500D02*
X4431600Y7884500D01*
X4416200Y7884500D01*
X4411300Y7881400D01*
X4408200Y7877400D01*
X4407000Y7869200D01*
X4408200Y7861100D01*
X4411900Y7856000D01*
X4416200Y7853000D01*
X4431600Y7853000D01*
G01X4416200Y7853000D02*
X4407000Y7823500D01*
G01X4379800Y7823500D02*
X4379800Y7884500D01*
X4387200Y7872300D01*
G01X4387200Y7823500D02*
X4372400Y7823500D01*
G01X4340300Y7884500D02*
X4345200Y7882500D01*
X4348900Y7877400D01*
X4351400Y7871300D01*
X4353300Y7863100D01*
X4353900Y7854000D01*
X4353300Y7844800D01*
X4351400Y7836700D01*
X4348900Y7830600D01*
X4345200Y7825500D01*
X4340300Y7823500D01*
X4335400Y7825500D01*
X4331700Y7830600D01*
X4329200Y7836700D01*
X4327300Y7844800D01*
X4326700Y7854000D01*
X4327300Y7863100D01*
X4329200Y7871300D01*
X4331700Y7877400D01*
X4335400Y7882500D01*
X4340300Y7884500D01*
G01X4312500Y7874300D02*
X4308800Y7880400D01*
X4304500Y7883500D01*
X4299600Y7884500D01*
X4293400Y7882500D01*
X4289100Y7877400D01*
X4287800Y7871300D01*
X4288500Y7865200D01*
X4290900Y7860100D01*
X4303300Y7849900D01*
X4308800Y7842800D01*
X4312500Y7832600D01*
X4313800Y7823500D01*
X4287800Y7823500D01*
G01X4500600Y1540400D02*
X4439600Y1540400D01*
X4439600Y1525000D01*
X4442700Y1520100D01*
X4446700Y1517000D01*
X4454900Y1515800D01*
X4463000Y1517000D01*
X4468100Y1520700D01*
X4471100Y1525000D01*
X4471100Y1540400D01*
G01X4471100Y1525000D02*
X4500600Y1515800D01*
G01X4500600Y1488600D02*
X4439600Y1488600D01*
X4451800Y1496000D01*
G01X4500600Y1496000D02*
X4500600Y1481200D01*
G01X4449800Y1460800D02*
X4443700Y1457100D01*
X4440600Y1452800D01*
X4439600Y1447900D01*
X4441600Y1441700D01*
X4446700Y1437400D01*
X4452800Y1436100D01*
X4458900Y1436800D01*
X4464000Y1439200D01*
X4474200Y1451600D01*
X4481300Y1457100D01*
X4491500Y1460800D01*
X4500600Y1462100D01*
X4500600Y1436100D01*
G01X4488400Y1423200D02*
X4495500Y1419500D01*
X4499600Y1414500D01*
X4500600Y1409000D01*
X4499600Y1404000D01*
X4494500Y1399100D01*
X4488400Y1396000D01*
X4482300Y1395400D01*
X4475200Y1396600D01*
X4470100Y1401000D01*
X4468100Y1405300D01*
X4468100Y1410800D01*
G01X4468100Y1405300D02*
X4465000Y1401600D01*
X4459900Y1398500D01*
X4453800Y1397300D01*
X4447700Y1398500D01*
X4442700Y1401600D01*
X4439600Y1407100D01*
X4440600Y1412700D01*
X4444700Y1418200D01*
G01X4605700Y2342700D02*
X4609400Y2345800D01*
X4613700Y2347800D01*
X4618700Y2347800D01*
X4624200Y2344700D01*
X4628500Y2339700D01*
X4631600Y2333600D01*
X4634100Y2323400D01*
X4634700Y2314200D01*
X4633500Y2305100D01*
X4631600Y2299000D01*
X4627900Y2292900D01*
X4623600Y2288800D01*
X4619300Y2286800D01*
X4615000Y2286800D01*
X4610700Y2288800D01*
X4607000Y2291900D01*
X4603900Y2295900D01*
G01X4579800Y2286800D02*
X4579800Y2347800D01*
X4587200Y2335600D01*
G01X4587200Y2286800D02*
X4572400Y2286800D01*
G01X4540300Y2286800D02*
X4540300Y2347800D01*
X4547700Y2335600D01*
G01X4547700Y2286800D02*
X4532900Y2286800D01*
G01X4514400Y2299000D02*
X4510700Y2291900D01*
X4505700Y2287800D01*
X4500200Y2286800D01*
X4495200Y2287800D01*
X4490300Y2292900D01*
X4487200Y2299000D01*
X4486600Y2305100D01*
X4487800Y2312200D01*
X4492200Y2317300D01*
X4496500Y2319300D01*
X4502000Y2319300D01*
G01X4496500Y2319300D02*
X4492800Y2322400D01*
X4489700Y2327500D01*
X4488500Y2333600D01*
X4489700Y2339700D01*
X4492800Y2344700D01*
X4498300Y2347800D01*
X4503900Y2346800D01*
X4509400Y2342700D01*
G01X4500900Y2652700D02*
X4504600Y2655800D01*
X4508900Y2657800D01*
X4513900Y2657800D01*
X4519400Y2654700D01*
X4523700Y2649700D01*
X4526800Y2643600D01*
X4529300Y2633400D01*
X4529900Y2624200D01*
X4528700Y2615100D01*
X4526800Y2609000D01*
X4523100Y2602900D01*
X4518800Y2598800D01*
X4514500Y2596800D01*
X4510200Y2596800D01*
X4505900Y2598800D01*
X4502200Y2601900D01*
X4499100Y2605900D01*
G01X4475000Y2596800D02*
X4475000Y2657800D01*
X4482400Y2645600D01*
G01X4482400Y2596800D02*
X4467600Y2596800D01*
G01X4435500Y2596800D02*
X4431200Y2597800D01*
X4426300Y2600900D01*
X4423200Y2605900D01*
X4421900Y2613100D01*
X4423200Y2620200D01*
X4426900Y2626300D01*
X4432400Y2629300D01*
X4438600Y2629300D01*
X4442300Y2631400D01*
X4445400Y2636400D01*
X4446600Y2643600D01*
X4444700Y2650700D01*
X4440400Y2655800D01*
X4435500Y2657800D01*
X4430600Y2655800D01*
X4426300Y2650700D01*
X4424400Y2643600D01*
X4425600Y2636400D01*
X4428700Y2631400D01*
X4432400Y2629300D01*
X4438600Y2629300D01*
X4444100Y2626300D01*
X4447800Y2620200D01*
X4449100Y2613100D01*
X4447800Y2605900D01*
X4444700Y2600900D01*
X4439800Y2597800D01*
X4435500Y2596800D01*
G01X4444600Y5078200D02*
X4441500Y5081900D01*
X4439500Y5086200D01*
X4439500Y5091200D01*
X4442600Y5096700D01*
X4447600Y5101000D01*
X4453700Y5104100D01*
X4463900Y5106600D01*
X4473100Y5107200D01*
X4482200Y5106000D01*
X4488300Y5104100D01*
X4494400Y5100400D01*
X4498500Y5096100D01*
X4500500Y5091800D01*
X4500500Y5087500D01*
X4498500Y5083200D01*
X4495400Y5079500D01*
X4491400Y5076400D01*
G01X4500500Y5052300D02*
X4499500Y5048000D01*
X4496400Y5043100D01*
X4491400Y5040000D01*
X4484200Y5038700D01*
X4477100Y5040000D01*
X4471000Y5043700D01*
X4468000Y5049200D01*
X4468000Y5055400D01*
X4465900Y5059100D01*
X4460900Y5062200D01*
X4453700Y5063400D01*
X4446600Y5061500D01*
X4441500Y5057200D01*
X4439500Y5052300D01*
X4441500Y5047400D01*
X4446600Y5043100D01*
X4453700Y5041200D01*
X4460900Y5042400D01*
X4465900Y5045500D01*
X4468000Y5049200D01*
X4468000Y5055400D01*
X4471000Y5060900D01*
X4477100Y5064600D01*
X4484200Y5065900D01*
X4491400Y5064600D01*
X4496400Y5061500D01*
X4499500Y5056600D01*
X4500500Y5052300D01*
G01X4449700Y5024500D02*
X4443600Y5020800D01*
X4440500Y5016500D01*
X4439500Y5011600D01*
X4441500Y5005400D01*
X4446600Y5001100D01*
X4452700Y4999800D01*
X4458800Y5000500D01*
X4463900Y5002900D01*
X4474100Y5015300D01*
X4481200Y5020800D01*
X4491400Y5024500D01*
X4500500Y5025800D01*
X4500500Y4999800D01*
G01X4537500Y4186200D02*
X4537500Y3986200D01*
X4632500Y3986200D01*
X4632500Y4161200D01*
X4607500Y4186200D01*
X4537500Y4186200D01*
G01X4633000Y4167900D02*
X4572000Y4167900D01*
X4622800Y4151900D01*
X4572000Y4135900D01*
X4633000Y4135900D01*
G01X4633000Y4124700D02*
X4572000Y4124700D01*
X4572000Y4109300D01*
X4575100Y4104400D01*
X4579100Y4101300D01*
X4587300Y4100100D01*
X4595400Y4101300D01*
X4600500Y4105000D01*
X4603500Y4109300D01*
X4603500Y4124700D01*
G01X4603500Y4109300D02*
X4633000Y4100100D01*
G01X4633000Y4065500D02*
X4572000Y4065500D01*
X4615700Y4088300D01*
X4615700Y4057500D01*
G01X4526500Y4401200D02*
X4526500Y4201200D01*
X4621500Y4201200D01*
X4621500Y4376200D01*
X4596500Y4401200D01*
X4526500Y4401200D01*
G01X4622000Y4382900D02*
X4561000Y4382900D01*
X4611800Y4366900D01*
X4561000Y4350900D01*
X4622000Y4350900D01*
G01X4622000Y4339700D02*
X4561000Y4339700D01*
X4561000Y4324300D01*
X4564100Y4319400D01*
X4568100Y4316300D01*
X4576300Y4315100D01*
X4584400Y4316300D01*
X4589500Y4320000D01*
X4592500Y4324300D01*
X4592500Y4339700D01*
G01X4592500Y4324300D02*
X4622000Y4315100D01*
G01X4609800Y4301500D02*
X4616900Y4297800D01*
X4621000Y4292800D01*
X4622000Y4287300D01*
X4621000Y4282300D01*
X4615900Y4277400D01*
X4609800Y4274300D01*
X4603700Y4273700D01*
X4596600Y4274900D01*
X4591500Y4279300D01*
X4589500Y4283600D01*
X4589500Y4289100D01*
G01X4589500Y4283600D02*
X4586400Y4279900D01*
X4581300Y4276800D01*
X4575200Y4275600D01*
X4569100Y4276800D01*
X4564100Y4279900D01*
X4561000Y4285400D01*
X4562000Y4291000D01*
X4566100Y4296500D01*
G01X4661800Y7583500D02*
X4661800Y7644500D01*
X4646400Y7644500D01*
X4641500Y7641400D01*
X4638400Y7637400D01*
X4637200Y7629200D01*
X4638400Y7621100D01*
X4642100Y7616000D01*
X4646400Y7613000D01*
X4661800Y7613000D01*
G01X4646400Y7613000D02*
X4637200Y7583500D01*
G01X4623600Y7592600D02*
X4619900Y7587600D01*
X4615600Y7584500D01*
X4610000Y7583500D01*
X4604400Y7585500D01*
X4600100Y7589600D01*
X4597000Y7596700D01*
X4596400Y7604800D01*
X4597700Y7613000D01*
X4600800Y7618100D01*
X4605100Y7622100D01*
X4609400Y7623100D01*
X4613700Y7622100D01*
X4619200Y7618100D01*
X4617400Y7644500D01*
X4600800Y7644500D01*
G01X4570500Y7644500D02*
X4575400Y7642500D01*
X4579100Y7637400D01*
X4581600Y7631300D01*
X4583500Y7623100D01*
X4584100Y7614000D01*
X4583500Y7604800D01*
X4581600Y7596700D01*
X4579100Y7590600D01*
X4575400Y7585500D01*
X4570500Y7583500D01*
X4565600Y7585500D01*
X4561900Y7590600D01*
X4559400Y7596700D01*
X4557500Y7604800D01*
X4556900Y7614000D01*
X4557500Y7623100D01*
X4559400Y7631300D01*
X4561900Y7637400D01*
X4565600Y7642500D01*
X4570500Y7644500D01*
G01X4661800Y7703500D02*
X4661800Y7764500D01*
X4646400Y7764500D01*
X4641500Y7761400D01*
X4638400Y7757400D01*
X4637200Y7749200D01*
X4638400Y7741100D01*
X4642100Y7736000D01*
X4646400Y7733000D01*
X4661800Y7733000D01*
G01X4646400Y7733000D02*
X4637200Y7703500D01*
G01X4620500Y7710600D02*
X4616200Y7705500D01*
X4611200Y7703500D01*
X4606300Y7705500D01*
X4602000Y7711600D01*
X4598900Y7720800D01*
X4597700Y7729900D01*
X4597700Y7741100D01*
X4598900Y7750300D01*
X4602000Y7758400D01*
X4605700Y7762500D01*
X4610000Y7764500D01*
X4614900Y7762500D01*
X4618600Y7758400D01*
X4621100Y7752300D01*
X4622300Y7744200D01*
X4621100Y7737100D01*
X4618000Y7729900D01*
X4614300Y7725900D01*
X4610000Y7724800D01*
X4605100Y7726900D01*
X4601400Y7732000D01*
X4597700Y7741100D01*
G01X4582200Y7728900D02*
X4577900Y7736000D01*
X4574200Y7740100D01*
X4569300Y7742100D01*
X4564900Y7740100D01*
X4561900Y7736000D01*
X4559400Y7729900D01*
X4558800Y7722800D01*
X4559400Y7716700D01*
X4561900Y7710600D01*
X4565600Y7705500D01*
X4569900Y7703500D01*
X4574800Y7705500D01*
X4579100Y7711600D01*
X4581600Y7720800D01*
X4582200Y7730900D01*
X4581000Y7744200D01*
X4579100Y7751300D01*
X4576100Y7758400D01*
X4571700Y7763500D01*
X4567400Y7764500D01*
X4563100Y7762500D01*
X4560000Y7757400D01*
G01X4661800Y7823500D02*
X4661800Y7884500D01*
X4646400Y7884500D01*
X4641500Y7881400D01*
X4638400Y7877400D01*
X4637200Y7869200D01*
X4638400Y7861100D01*
X4642100Y7856000D01*
X4646400Y7853000D01*
X4661800Y7853000D01*
G01X4646400Y7853000D02*
X4637200Y7823500D01*
G01X4623600Y7832600D02*
X4619900Y7827600D01*
X4615600Y7824500D01*
X4610000Y7823500D01*
X4604400Y7825500D01*
X4600100Y7829600D01*
X4597000Y7836700D01*
X4596400Y7844800D01*
X4597700Y7853000D01*
X4600800Y7858100D01*
X4605100Y7862100D01*
X4609400Y7863100D01*
X4613700Y7862100D01*
X4619200Y7858100D01*
X4617400Y7884500D01*
X4600800Y7884500D01*
G01X4563100Y7823500D02*
X4563100Y7884500D01*
X4585900Y7840800D01*
X4555100Y7840800D01*
G01X4656800Y7953500D02*
X4656800Y8014500D01*
X4641400Y8014500D01*
X4636500Y8011400D01*
X4633400Y8007400D01*
X4632200Y7999200D01*
X4633400Y7991100D01*
X4637100Y7986000D01*
X4641400Y7983000D01*
X4656800Y7983000D01*
G01X4641400Y7983000D02*
X4632200Y7953500D01*
G01X4615500Y7960600D02*
X4611200Y7955500D01*
X4606200Y7953500D01*
X4601300Y7955500D01*
X4597000Y7961600D01*
X4593900Y7970800D01*
X4592700Y7979900D01*
X4592700Y7991100D01*
X4593900Y8000300D01*
X4597000Y8008400D01*
X4600700Y8012500D01*
X4605000Y8014500D01*
X4609900Y8012500D01*
X4613600Y8008400D01*
X4616100Y8002300D01*
X4617300Y7994200D01*
X4616100Y7987100D01*
X4613000Y7979900D01*
X4609300Y7975900D01*
X4605000Y7974800D01*
X4600100Y7976900D01*
X4596400Y7982000D01*
X4592700Y7991100D01*
G01X4566700Y7953500D02*
X4565500Y7966700D01*
X4563600Y7977900D01*
X4561200Y7988100D01*
X4558100Y7999200D01*
X4553200Y8014500D01*
X4577800Y8014500D01*
G01X4660800Y8110500D02*
X4660800Y8171500D01*
X4645400Y8171500D01*
X4640500Y8168400D01*
X4637400Y8164400D01*
X4636200Y8156200D01*
X4637400Y8148100D01*
X4641100Y8143000D01*
X4645400Y8140000D01*
X4660800Y8140000D01*
G01X4645400Y8140000D02*
X4636200Y8110500D01*
G01X4619500Y8117600D02*
X4615200Y8112500D01*
X4610200Y8110500D01*
X4605300Y8112500D01*
X4601000Y8118600D01*
X4597900Y8127800D01*
X4596700Y8136900D01*
X4596700Y8148100D01*
X4597900Y8157300D01*
X4601000Y8165400D01*
X4604700Y8169500D01*
X4609000Y8171500D01*
X4613900Y8169500D01*
X4617600Y8165400D01*
X4620100Y8159300D01*
X4621300Y8151200D01*
X4620100Y8144100D01*
X4617000Y8136900D01*
X4613300Y8132900D01*
X4609000Y8131800D01*
X4604100Y8133900D01*
X4600400Y8139000D01*
X4596700Y8148100D01*
G01X4569500Y8110500D02*
X4565200Y8111500D01*
X4560300Y8114600D01*
X4557200Y8119600D01*
X4555900Y8126800D01*
X4557200Y8133900D01*
X4560900Y8140000D01*
X4566400Y8143000D01*
X4572600Y8143000D01*
X4576300Y8145100D01*
X4579400Y8150100D01*
X4580600Y8157300D01*
X4578700Y8164400D01*
X4574400Y8169500D01*
X4569500Y8171500D01*
X4564600Y8169500D01*
X4560300Y8164400D01*
X4558400Y8157300D01*
X4559600Y8150100D01*
X4562700Y8145100D01*
X4566400Y8143000D01*
X4572600Y8143000D01*
X4578100Y8140000D01*
X4581800Y8133900D01*
X4583100Y8126800D01*
X4581800Y8119600D01*
X4578700Y8114600D01*
X4573800Y8111500D01*
X4569500Y8110500D01*
G01X4678600Y11459300D02*
X4703200Y11459300D01*
X4703200Y11520300D01*
X4678600Y11520300D01*
G01X4688400Y11490800D02*
X4703200Y11490800D01*
G01X4663100Y11510100D02*
X4659400Y11516200D01*
X4655100Y11519300D01*
X4650200Y11520300D01*
X4644000Y11518300D01*
X4639700Y11513200D01*
X4638400Y11507100D01*
X4639100Y11501000D01*
X4641500Y11495900D01*
X4653900Y11485700D01*
X4659400Y11478600D01*
X4663100Y11468400D01*
X4664400Y11459300D01*
X4638400Y11459300D01*
G01X4622400Y11466400D02*
X4618100Y11461300D01*
X4613100Y11459300D01*
X4608200Y11461300D01*
X4603900Y11467400D01*
X4600800Y11476600D01*
X4599600Y11485700D01*
X4599600Y11496900D01*
X4600800Y11506100D01*
X4603900Y11514200D01*
X4607600Y11518300D01*
X4611900Y11520300D01*
X4616800Y11518300D01*
X4620500Y11514200D01*
X4623000Y11508100D01*
X4624200Y11500000D01*
X4623000Y11492900D01*
X4619900Y11485700D01*
X4616200Y11481700D01*
X4611900Y11480600D01*
X4607000Y11482700D01*
X4603300Y11487800D01*
X4599600Y11496900D01*
G01X4659600Y2048500D02*
X4656500Y2052200D01*
X4654500Y2056500D01*
X4654500Y2061500D01*
X4657600Y2067000D01*
X4662600Y2071300D01*
X4668700Y2074400D01*
X4678900Y2076900D01*
X4688100Y2077500D01*
X4697200Y2076300D01*
X4703300Y2074400D01*
X4709400Y2070700D01*
X4713500Y2066400D01*
X4715500Y2062100D01*
X4715500Y2057800D01*
X4713500Y2053500D01*
X4710400Y2049800D01*
X4706400Y2046700D01*
G01X4664700Y2034300D02*
X4658600Y2030600D01*
X4655500Y2026300D01*
X4654500Y2021400D01*
X4656500Y2015200D01*
X4661600Y2010900D01*
X4667700Y2009600D01*
X4673800Y2010300D01*
X4678900Y2012700D01*
X4689100Y2025100D01*
X4696200Y2030600D01*
X4706400Y2034300D01*
X4715500Y2035600D01*
X4715500Y2009600D01*
G01X4728100Y4594600D02*
X4724400Y4591500D01*
X4720100Y4589500D01*
X4715100Y4589500D01*
X4709600Y4592600D01*
X4705300Y4597600D01*
X4702200Y4603700D01*
X4699700Y4613900D01*
X4699100Y4623100D01*
X4700300Y4632200D01*
X4702200Y4638300D01*
X4705900Y4644400D01*
X4710200Y4648500D01*
X4714500Y4650500D01*
X4718800Y4650500D01*
X4723100Y4648500D01*
X4726800Y4645400D01*
X4729900Y4641400D01*
G01X4752800Y4650500D02*
X4754000Y4637300D01*
X4755900Y4626100D01*
X4758300Y4615900D01*
X4761400Y4604800D01*
X4766300Y4589500D01*
X4741700Y4589500D01*
G01X4779900Y4641400D02*
X4783600Y4646400D01*
X4787900Y4649500D01*
X4793500Y4650500D01*
X4799100Y4648500D01*
X4803400Y4644400D01*
X4806500Y4637300D01*
X4807100Y4629200D01*
X4805800Y4621000D01*
X4802700Y4615900D01*
X4798400Y4611900D01*
X4794100Y4610900D01*
X4789800Y4611900D01*
X4784300Y4615900D01*
X4786100Y4589500D01*
X4802700Y4589500D01*
G01X4771800Y8243500D02*
X4771800Y8304500D01*
X4756400Y8304500D01*
X4751500Y8301400D01*
X4748400Y8297400D01*
X4747200Y8289200D01*
X4748400Y8281100D01*
X4752100Y8276000D01*
X4756400Y8273000D01*
X4771800Y8273000D01*
G01X4756400Y8273000D02*
X4747200Y8243500D01*
G01X4730500Y8250600D02*
X4726200Y8245500D01*
X4721200Y8243500D01*
X4716300Y8245500D01*
X4712000Y8251600D01*
X4708900Y8260800D01*
X4707700Y8269900D01*
X4707700Y8281100D01*
X4708900Y8290300D01*
X4712000Y8298400D01*
X4715700Y8302500D01*
X4720000Y8304500D01*
X4724900Y8302500D01*
X4728600Y8298400D01*
X4731100Y8292300D01*
X4732300Y8284200D01*
X4731100Y8277100D01*
X4728000Y8269900D01*
X4724300Y8265900D01*
X4720000Y8264800D01*
X4715100Y8266900D01*
X4711400Y8272000D01*
X4707700Y8281100D01*
G01X4691000Y8250600D02*
X4686700Y8245500D01*
X4681700Y8243500D01*
X4676800Y8245500D01*
X4672500Y8251600D01*
X4669400Y8260800D01*
X4668200Y8269900D01*
X4668200Y8281100D01*
X4669400Y8290300D01*
X4672500Y8298400D01*
X4676200Y8302500D01*
X4680500Y8304500D01*
X4685400Y8302500D01*
X4689100Y8298400D01*
X4691600Y8292300D01*
X4692800Y8284200D01*
X4691600Y8277100D01*
X4688500Y8269900D01*
X4684800Y8265900D01*
X4680500Y8264800D01*
X4675600Y8266900D01*
X4671900Y8272000D01*
X4668200Y8281100D01*
G01X4851600Y8303500D02*
X4851600Y8364500D01*
X4836200Y8364500D01*
X4831300Y8361400D01*
X4828200Y8357400D01*
X4827000Y8349200D01*
X4828200Y8341100D01*
X4831900Y8336000D01*
X4836200Y8333000D01*
X4851600Y8333000D01*
G01X4836200Y8333000D02*
X4827000Y8303500D01*
G01X4799800Y8303500D02*
X4799800Y8364500D01*
X4807200Y8352300D01*
G01X4807200Y8303500D02*
X4792400Y8303500D01*
G01X4760300Y8364500D02*
X4765200Y8362500D01*
X4768900Y8357400D01*
X4771400Y8351300D01*
X4773300Y8343100D01*
X4773900Y8334000D01*
X4773300Y8324800D01*
X4771400Y8316700D01*
X4768900Y8310600D01*
X4765200Y8305500D01*
X4760300Y8303500D01*
X4755400Y8305500D01*
X4751700Y8310600D01*
X4749200Y8316700D01*
X4747300Y8324800D01*
X4746700Y8334000D01*
X4747300Y8343100D01*
X4749200Y8351300D01*
X4751700Y8357400D01*
X4755400Y8362500D01*
X4760300Y8364500D01*
G01X4720800Y8364500D02*
X4725700Y8362500D01*
X4729400Y8357400D01*
X4731900Y8351300D01*
X4733800Y8343100D01*
X4734400Y8334000D01*
X4733800Y8324800D01*
X4731900Y8316700D01*
X4729400Y8310600D01*
X4725700Y8305500D01*
X4720800Y8303500D01*
X4715900Y8305500D01*
X4712200Y8310600D01*
X4709700Y8316700D01*
X4707800Y8324800D01*
X4707200Y8334000D01*
X4707800Y8343100D01*
X4709700Y8351300D01*
X4712200Y8357400D01*
X4715900Y8362500D01*
X4720800Y8364500D01*
G01X4911000Y5027500D02*
X4850000Y5027500D01*
X4900800Y5011500D01*
X4850000Y4995500D01*
X4911000Y4995500D01*
G01X4911000Y4984300D02*
X4850000Y4984300D01*
X4850000Y4968900D01*
X4853100Y4964000D01*
X4857100Y4960900D01*
X4865300Y4959700D01*
X4873400Y4960900D01*
X4878500Y4964600D01*
X4881500Y4968900D01*
X4881500Y4984300D01*
G01X4881500Y4968900D02*
X4911000Y4959700D01*
G01X4903900Y4943000D02*
X4909000Y4938700D01*
X4911000Y4933700D01*
X4909000Y4928800D01*
X4902900Y4924500D01*
X4893700Y4921400D01*
X4884600Y4920200D01*
X4873400Y4920200D01*
X4864200Y4921400D01*
X4856100Y4924500D01*
X4852000Y4928200D01*
X4850000Y4932500D01*
X4852000Y4937400D01*
X4856100Y4941100D01*
X4862200Y4943600D01*
X4870300Y4944800D01*
X4877400Y4943600D01*
X4884600Y4940500D01*
X4888600Y4936800D01*
X4889700Y4932500D01*
X4887600Y4927600D01*
X4882500Y4923900D01*
X4873400Y4920200D01*
G01X4945500Y4898200D02*
X4945500Y5098200D01*
X4850500Y5098200D01*
X4850500Y4923200D01*
X4875500Y4898200D01*
X4945500Y4898200D01*
G01X4910500Y8515600D02*
X4849500Y8515600D01*
X4849500Y8500200D01*
X4852600Y8495300D01*
X4856600Y8492200D01*
X4864800Y8491000D01*
X4872900Y8492200D01*
X4878000Y8495900D01*
X4881000Y8500200D01*
X4881000Y8515600D01*
G01X4881000Y8500200D02*
X4910500Y8491000D01*
G01X4910500Y8463800D02*
X4849500Y8463800D01*
X4861700Y8471200D01*
G01X4910500Y8471200D02*
X4910500Y8456400D01*
G01X4849500Y8424300D02*
X4851500Y8429200D01*
X4856600Y8432900D01*
X4862700Y8435400D01*
X4870900Y8437300D01*
X4880000Y8437900D01*
X4889200Y8437300D01*
X4897300Y8435400D01*
X4903400Y8432900D01*
X4908500Y8429200D01*
X4910500Y8424300D01*
X4908500Y8419400D01*
X4903400Y8415700D01*
X4897300Y8413200D01*
X4889200Y8411300D01*
X4880000Y8410700D01*
X4870900Y8411300D01*
X4862700Y8413200D01*
X4856600Y8415700D01*
X4851500Y8419400D01*
X4849500Y8424300D01*
G01X4910500Y8384800D02*
X4849500Y8384800D01*
X4861700Y8392200D01*
G01X4910500Y8392200D02*
X4910500Y8377400D01*
G01X5017500Y998700D02*
X4956500Y998700D01*
X4956500Y983300D01*
X4959600Y978400D01*
X4963600Y975300D01*
X4971800Y974100D01*
X4979900Y975300D01*
X4985000Y979000D01*
X4988000Y983300D01*
X4988000Y998700D01*
G01X4988000Y983300D02*
X5017500Y974100D01*
G01X5017500Y946900D02*
X4956500Y946900D01*
X4968700Y954300D01*
G01X5017500Y954300D02*
X5017500Y939500D01*
G01X4966700Y919100D02*
X4960600Y915400D01*
X4957500Y911100D01*
X4956500Y906200D01*
X4958500Y900000D01*
X4963600Y895700D01*
X4969700Y894400D01*
X4975800Y895100D01*
X4980900Y897500D01*
X4991100Y909900D01*
X4998200Y915400D01*
X5008400Y919100D01*
X5017500Y920400D01*
X5017500Y894400D01*
G01X5017500Y860500D02*
X4956500Y860500D01*
X5000200Y883300D01*
X5000200Y852500D01*
G01X4975800Y8069500D02*
X4975800Y8130500D01*
X4960400Y8130500D01*
X4955500Y8127400D01*
X4952400Y8123400D01*
X4951200Y8115200D01*
X4952400Y8107100D01*
X4956100Y8102000D01*
X4960400Y8099000D01*
X4975800Y8099000D01*
G01X4960400Y8099000D02*
X4951200Y8069500D01*
G01X4937600Y8078600D02*
X4933900Y8073600D01*
X4929600Y8070500D01*
X4924000Y8069500D01*
X4918400Y8071500D01*
X4914100Y8075600D01*
X4911000Y8082700D01*
X4910400Y8090800D01*
X4911700Y8099000D01*
X4914800Y8104100D01*
X4919100Y8108100D01*
X4923400Y8109100D01*
X4927700Y8108100D01*
X4933200Y8104100D01*
X4931400Y8130500D01*
X4914800Y8130500D01*
G01X4898100Y8081700D02*
X4894400Y8074600D01*
X4889400Y8070500D01*
X4883900Y8069500D01*
X4878900Y8070500D01*
X4874000Y8075600D01*
X4870900Y8081700D01*
X4870300Y8087800D01*
X4871500Y8094900D01*
X4875900Y8100000D01*
X4880200Y8102000D01*
X4885700Y8102000D01*
G01X4880200Y8102000D02*
X4876500Y8105100D01*
X4873400Y8110200D01*
X4872200Y8116300D01*
X4873400Y8122400D01*
X4876500Y8127400D01*
X4882000Y8130500D01*
X4887600Y8129500D01*
X4893100Y8125400D01*
G01X5050800Y8172500D02*
X5050800Y8233500D01*
X5035400Y8233500D01*
X5030500Y8230400D01*
X5027400Y8226400D01*
X5026200Y8218200D01*
X5027400Y8210100D01*
X5031100Y8205000D01*
X5035400Y8202000D01*
X5050800Y8202000D01*
G01X5035400Y8202000D02*
X5026200Y8172500D01*
G01X5012600Y8181600D02*
X5008900Y8176600D01*
X5004600Y8173500D01*
X4999000Y8172500D01*
X4993400Y8174500D01*
X4989100Y8178600D01*
X4986000Y8185700D01*
X4985400Y8193800D01*
X4986700Y8202000D01*
X4989800Y8207100D01*
X4994100Y8211100D01*
X4998400Y8212100D01*
X5002700Y8211100D01*
X5008200Y8207100D01*
X5006400Y8233500D01*
X4989800Y8233500D01*
G01X4959500Y8172500D02*
X4959500Y8233500D01*
X4966900Y8221300D01*
G01X4966900Y8172500D02*
X4952100Y8172500D01*
G01X5010500Y8495800D02*
X4949500Y8495800D01*
X4949500Y8480400D01*
X4952600Y8475500D01*
X4956600Y8472400D01*
X4964800Y8471200D01*
X4972900Y8472400D01*
X4978000Y8476100D01*
X4981000Y8480400D01*
X4981000Y8495800D01*
G01X4981000Y8480400D02*
X5010500Y8471200D01*
G01X5001400Y8457600D02*
X5006400Y8453900D01*
X5009500Y8449600D01*
X5010500Y8444000D01*
X5008500Y8438400D01*
X5004400Y8434100D01*
X4997300Y8431000D01*
X4989200Y8430400D01*
X4981000Y8431700D01*
X4975900Y8434800D01*
X4971900Y8439100D01*
X4970900Y8443400D01*
X4971900Y8447700D01*
X4975900Y8453200D01*
X4949500Y8451400D01*
X4949500Y8434800D01*
G01X5003400Y8415000D02*
X5008500Y8410700D01*
X5010500Y8405700D01*
X5008500Y8400800D01*
X5002400Y8396500D01*
X4993200Y8393400D01*
X4984100Y8392200D01*
X4972900Y8392200D01*
X4963700Y8393400D01*
X4955600Y8396500D01*
X4951500Y8400200D01*
X4949500Y8404500D01*
X4951500Y8409400D01*
X4955600Y8413100D01*
X4961700Y8415600D01*
X4969800Y8416800D01*
X4976900Y8415600D01*
X4984100Y8412500D01*
X4988100Y8408800D01*
X4989200Y8404500D01*
X4987100Y8399600D01*
X4982000Y8395900D01*
X4972900Y8392200D01*
G01X5096600Y1022800D02*
X5093500Y1026500D01*
X5091500Y1030800D01*
X5091500Y1035800D01*
X5094600Y1041300D01*
X5099600Y1045600D01*
X5105700Y1048700D01*
X5115900Y1051200D01*
X5125100Y1051800D01*
X5134200Y1050600D01*
X5140300Y1048700D01*
X5146400Y1045000D01*
X5150500Y1040700D01*
X5152500Y1036400D01*
X5152500Y1032100D01*
X5150500Y1027800D01*
X5147400Y1024100D01*
X5143400Y1021000D01*
G01X5152500Y996900D02*
X5091500Y996900D01*
X5103700Y1004300D01*
G01X5152500Y1004300D02*
X5152500Y989500D01*
G01X5152500Y957400D02*
X5091500Y957400D01*
X5103700Y964800D01*
G01X5152500Y964800D02*
X5152500Y950000D01*
G01X5091500Y917900D02*
X5093500Y922800D01*
X5098600Y926500D01*
X5104700Y929000D01*
X5112900Y930900D01*
X5122000Y931500D01*
X5131200Y930900D01*
X5139300Y929000D01*
X5145400Y926500D01*
X5150500Y922800D01*
X5152500Y917900D01*
X5150500Y913000D01*
X5145400Y909300D01*
X5139300Y906800D01*
X5131200Y904900D01*
X5122000Y904300D01*
X5112900Y904900D01*
X5104700Y906800D01*
X5098600Y909300D01*
X5093500Y913000D01*
X5091500Y917900D01*
G01X5110500Y8495800D02*
X5049500Y8495800D01*
X5049500Y8480400D01*
X5052600Y8475500D01*
X5056600Y8472400D01*
X5064800Y8471200D01*
X5072900Y8472400D01*
X5078000Y8476100D01*
X5081000Y8480400D01*
X5081000Y8495800D01*
G01X5081000Y8480400D02*
X5110500Y8471200D01*
G01X5110500Y8436600D02*
X5049500Y8436600D01*
X5093200Y8459400D01*
X5093200Y8428600D01*
G01X5085100Y8416200D02*
X5078000Y8411900D01*
X5073900Y8408200D01*
X5071900Y8403300D01*
X5073900Y8398900D01*
X5078000Y8395900D01*
X5084100Y8393400D01*
X5091200Y8392800D01*
X5097300Y8393400D01*
X5103400Y8395900D01*
X5108500Y8399600D01*
X5110500Y8403900D01*
X5108500Y8408800D01*
X5102400Y8413100D01*
X5093200Y8415600D01*
X5083100Y8416200D01*
X5069800Y8415000D01*
X5062700Y8413100D01*
X5055600Y8410100D01*
X5050500Y8405700D01*
X5049500Y8401400D01*
X5051500Y8397100D01*
X5056600Y8394000D01*
G01X5230500Y8495800D02*
X5169500Y8495800D01*
X5169500Y8480400D01*
X5172600Y8475500D01*
X5176600Y8472400D01*
X5184800Y8471200D01*
X5192900Y8472400D01*
X5198000Y8476100D01*
X5201000Y8480400D01*
X5201000Y8495800D01*
G01X5201000Y8480400D02*
X5230500Y8471200D01*
G01X5230500Y8436600D02*
X5169500Y8436600D01*
X5213200Y8459400D01*
X5213200Y8428600D01*
G01X5230500Y8405700D02*
X5217300Y8404500D01*
X5206100Y8402600D01*
X5195900Y8400200D01*
X5184800Y8397100D01*
X5169500Y8392200D01*
X5169500Y8416800D01*
G01X5230500Y8755800D02*
X5169500Y8755800D01*
X5169500Y8740400D01*
X5172600Y8735500D01*
X5176600Y8732400D01*
X5184800Y8731200D01*
X5192900Y8732400D01*
X5198000Y8736100D01*
X5201000Y8740400D01*
X5201000Y8755800D01*
G01X5201000Y8740400D02*
X5230500Y8731200D01*
G01X5221400Y8717600D02*
X5226400Y8713900D01*
X5229500Y8709600D01*
X5230500Y8704000D01*
X5228500Y8698400D01*
X5224400Y8694100D01*
X5217300Y8691000D01*
X5209200Y8690400D01*
X5201000Y8691700D01*
X5195900Y8694800D01*
X5191900Y8699100D01*
X5190900Y8703400D01*
X5191900Y8707700D01*
X5195900Y8713200D01*
X5169500Y8711400D01*
X5169500Y8694800D01*
G01X5230500Y8664500D02*
X5229500Y8660200D01*
X5226400Y8655300D01*
X5221400Y8652200D01*
X5214200Y8650900D01*
X5207100Y8652200D01*
X5201000Y8655900D01*
X5198000Y8661400D01*
X5198000Y8667600D01*
X5195900Y8671300D01*
X5190900Y8674400D01*
X5183700Y8675600D01*
X5176600Y8673700D01*
X5171500Y8669400D01*
X5169500Y8664500D01*
X5171500Y8659600D01*
X5176600Y8655300D01*
X5183700Y8653400D01*
X5190900Y8654600D01*
X5195900Y8657700D01*
X5198000Y8661400D01*
X5198000Y8667600D01*
X5201000Y8673100D01*
X5207100Y8676800D01*
X5214200Y8678100D01*
X5221400Y8676800D01*
X5226400Y8673700D01*
X5229500Y8668800D01*
X5230500Y8664500D01*
G01X5350500Y8495800D02*
X5289500Y8495800D01*
X5289500Y8480400D01*
X5292600Y8475500D01*
X5296600Y8472400D01*
X5304800Y8471200D01*
X5312900Y8472400D01*
X5318000Y8476100D01*
X5321000Y8480400D01*
X5321000Y8495800D01*
G01X5321000Y8480400D02*
X5350500Y8471200D01*
G01X5350500Y8436600D02*
X5289500Y8436600D01*
X5333200Y8459400D01*
X5333200Y8428600D01*
G01X5350500Y8397100D02*
X5289500Y8397100D01*
X5333200Y8419900D01*
X5333200Y8389100D01*
G01X5350500Y8755800D02*
X5289500Y8755800D01*
X5289500Y8740400D01*
X5292600Y8735500D01*
X5296600Y8732400D01*
X5304800Y8731200D01*
X5312900Y8732400D01*
X5318000Y8736100D01*
X5321000Y8740400D01*
X5321000Y8755800D01*
G01X5321000Y8740400D02*
X5350500Y8731200D01*
G01X5341400Y8717600D02*
X5346400Y8713900D01*
X5349500Y8709600D01*
X5350500Y8704000D01*
X5348500Y8698400D01*
X5344400Y8694100D01*
X5337300Y8691000D01*
X5329200Y8690400D01*
X5321000Y8691700D01*
X5315900Y8694800D01*
X5311900Y8699100D01*
X5310900Y8703400D01*
X5311900Y8707700D01*
X5315900Y8713200D01*
X5289500Y8711400D01*
X5289500Y8694800D01*
G01X5350500Y8665700D02*
X5337300Y8664500D01*
X5326100Y8662600D01*
X5315900Y8660200D01*
X5304800Y8657100D01*
X5289500Y8652200D01*
X5289500Y8676800D01*
G01X5388100Y3884600D02*
X5384400Y3881500D01*
X5380100Y3879500D01*
X5375100Y3879500D01*
X5369600Y3882600D01*
X5365300Y3887600D01*
X5362200Y3893700D01*
X5359700Y3903900D01*
X5359100Y3913100D01*
X5360300Y3922200D01*
X5362200Y3928300D01*
X5365900Y3934400D01*
X5370200Y3938500D01*
X5374500Y3940500D01*
X5378800Y3940500D01*
X5383100Y3938500D01*
X5386800Y3935400D01*
X5389900Y3931400D01*
G01X5421400Y3940500D02*
X5421400Y3879500D01*
X5398600Y3923200D01*
X5429400Y3923200D01*
G01X5443000Y3933400D02*
X5447300Y3938500D01*
X5452300Y3940500D01*
X5457200Y3938500D01*
X5461500Y3932400D01*
X5464600Y3923200D01*
X5465800Y3914100D01*
X5465800Y3902900D01*
X5464600Y3893700D01*
X5461500Y3885600D01*
X5457800Y3881500D01*
X5453500Y3879500D01*
X5448600Y3881500D01*
X5444900Y3885600D01*
X5442400Y3891700D01*
X5441200Y3899800D01*
X5442400Y3906900D01*
X5445500Y3914100D01*
X5449200Y3918100D01*
X5453500Y3919200D01*
X5458400Y3917100D01*
X5462100Y3912000D01*
X5465800Y3902900D01*
G01X5368800Y4543100D02*
X5365100Y4540000D01*
X5360800Y4538000D01*
X5355800Y4538000D01*
X5350300Y4541100D01*
X5346000Y4546100D01*
X5342900Y4552200D01*
X5340400Y4562400D01*
X5339800Y4571600D01*
X5341000Y4580700D01*
X5342900Y4586800D01*
X5346600Y4592900D01*
X5350900Y4597000D01*
X5355200Y4599000D01*
X5359500Y4599000D01*
X5363800Y4597000D01*
X5367500Y4593900D01*
X5370600Y4589900D01*
G01X5394700Y4599000D02*
X5394700Y4538000D01*
X5387300Y4550200D01*
G01X5387300Y4599000D02*
X5402100Y4599000D01*
G01X5434200Y4538000D02*
X5429300Y4540000D01*
X5425600Y4545100D01*
X5423100Y4551200D01*
X5421200Y4559400D01*
X5420600Y4568500D01*
X5421200Y4577700D01*
X5423100Y4585800D01*
X5425600Y4591900D01*
X5429300Y4597000D01*
X5434200Y4599000D01*
X5439100Y4597000D01*
X5442800Y4591900D01*
X5445300Y4585800D01*
X5447200Y4577700D01*
X5447800Y4568500D01*
X5447200Y4559400D01*
X5445300Y4551200D01*
X5442800Y4545100D01*
X5439100Y4540000D01*
X5434200Y4538000D01*
G01X5460100Y4589900D02*
X5463800Y4594900D01*
X5468100Y4598000D01*
X5473700Y4599000D01*
X5479300Y4597000D01*
X5483600Y4592900D01*
X5486700Y4585800D01*
X5487300Y4577700D01*
X5486000Y4569500D01*
X5482900Y4564400D01*
X5478600Y4560400D01*
X5474300Y4559400D01*
X5470000Y4560400D01*
X5464500Y4564400D01*
X5466300Y4538000D01*
X5482900Y4538000D01*
G01X5470500Y8495800D02*
X5409500Y8495800D01*
X5409500Y8480400D01*
X5412600Y8475500D01*
X5416600Y8472400D01*
X5424800Y8471200D01*
X5432900Y8472400D01*
X5438000Y8476100D01*
X5441000Y8480400D01*
X5441000Y8495800D01*
G01X5441000Y8480400D02*
X5470500Y8471200D01*
G01X5461400Y8457600D02*
X5466400Y8453900D01*
X5469500Y8449600D01*
X5470500Y8444000D01*
X5468500Y8438400D01*
X5464400Y8434100D01*
X5457300Y8431000D01*
X5449200Y8430400D01*
X5441000Y8431700D01*
X5435900Y8434800D01*
X5431900Y8439100D01*
X5430900Y8443400D01*
X5431900Y8447700D01*
X5435900Y8453200D01*
X5409500Y8451400D01*
X5409500Y8434800D01*
G01X5445100Y8416200D02*
X5438000Y8411900D01*
X5433900Y8408200D01*
X5431900Y8403300D01*
X5433900Y8398900D01*
X5438000Y8395900D01*
X5444100Y8393400D01*
X5451200Y8392800D01*
X5457300Y8393400D01*
X5463400Y8395900D01*
X5468500Y8399600D01*
X5470500Y8403900D01*
X5468500Y8408800D01*
X5462400Y8413100D01*
X5453200Y8415600D01*
X5443100Y8416200D01*
X5429800Y8415000D01*
X5422700Y8413100D01*
X5415600Y8410100D01*
X5410500Y8405700D01*
X5409500Y8401400D01*
X5411500Y8397100D01*
X5416600Y8394000D01*
G01X5470500Y8755800D02*
X5409500Y8755800D01*
X5409500Y8740400D01*
X5412600Y8735500D01*
X5416600Y8732400D01*
X5424800Y8731200D01*
X5432900Y8732400D01*
X5438000Y8736100D01*
X5441000Y8740400D01*
X5441000Y8755800D01*
G01X5441000Y8740400D02*
X5470500Y8731200D01*
G01X5445100Y8715700D02*
X5438000Y8711400D01*
X5433900Y8707700D01*
X5431900Y8702800D01*
X5433900Y8698400D01*
X5438000Y8695400D01*
X5444100Y8692900D01*
X5451200Y8692300D01*
X5457300Y8692900D01*
X5463400Y8695400D01*
X5468500Y8699100D01*
X5470500Y8703400D01*
X5468500Y8708300D01*
X5462400Y8712600D01*
X5453200Y8715100D01*
X5443100Y8715700D01*
X5429800Y8714500D01*
X5422700Y8712600D01*
X5415600Y8709600D01*
X5410500Y8705200D01*
X5409500Y8700900D01*
X5411500Y8696600D01*
X5416600Y8693500D01*
G01X5409500Y8664500D02*
X5411500Y8669400D01*
X5416600Y8673100D01*
X5422700Y8675600D01*
X5430900Y8677500D01*
X5440000Y8678100D01*
X5449200Y8677500D01*
X5457300Y8675600D01*
X5463400Y8673100D01*
X5468500Y8669400D01*
X5470500Y8664500D01*
X5468500Y8659600D01*
X5463400Y8655900D01*
X5457300Y8653400D01*
X5449200Y8651500D01*
X5440000Y8650900D01*
X5430900Y8651500D01*
X5422700Y8653400D01*
X5416600Y8655900D01*
X5411500Y8659600D01*
X5409500Y8664500D01*
G01X5620500Y8315600D02*
X5559500Y8315600D01*
X5559500Y8300200D01*
X5562600Y8295300D01*
X5566600Y8292200D01*
X5574800Y8291000D01*
X5582900Y8292200D01*
X5588000Y8295900D01*
X5591000Y8300200D01*
X5591000Y8315600D01*
G01X5591000Y8300200D02*
X5620500Y8291000D01*
G01X5620500Y8263800D02*
X5559500Y8263800D01*
X5571700Y8271200D01*
G01X5620500Y8271200D02*
X5620500Y8256400D01*
G01X5559500Y8224300D02*
X5561500Y8229200D01*
X5566600Y8232900D01*
X5572700Y8235400D01*
X5580900Y8237300D01*
X5590000Y8237900D01*
X5599200Y8237300D01*
X5607300Y8235400D01*
X5613400Y8232900D01*
X5618500Y8229200D01*
X5620500Y8224300D01*
X5618500Y8219400D01*
X5613400Y8215700D01*
X5607300Y8213200D01*
X5599200Y8211300D01*
X5590000Y8210700D01*
X5580900Y8211300D01*
X5572700Y8213200D01*
X5566600Y8215700D01*
X5561500Y8219400D01*
X5559500Y8224300D01*
G01X5611400Y8198400D02*
X5616400Y8194700D01*
X5619500Y8190400D01*
X5620500Y8184800D01*
X5618500Y8179200D01*
X5614400Y8174900D01*
X5607300Y8171800D01*
X5599200Y8171200D01*
X5591000Y8172500D01*
X5585900Y8175600D01*
X5581900Y8179900D01*
X5580900Y8184200D01*
X5581900Y8188500D01*
X5585900Y8194000D01*
X5559500Y8192200D01*
X5559500Y8175600D01*
G01X5520500Y8315600D02*
X5459500Y8315600D01*
X5459500Y8300200D01*
X5462600Y8295300D01*
X5466600Y8292200D01*
X5474800Y8291000D01*
X5482900Y8292200D01*
X5488000Y8295900D01*
X5491000Y8300200D01*
X5491000Y8315600D01*
G01X5491000Y8300200D02*
X5520500Y8291000D01*
G01X5520500Y8263800D02*
X5459500Y8263800D01*
X5471700Y8271200D01*
G01X5520500Y8271200D02*
X5520500Y8256400D01*
G01X5459500Y8224300D02*
X5461500Y8229200D01*
X5466600Y8232900D01*
X5472700Y8235400D01*
X5480900Y8237300D01*
X5490000Y8237900D01*
X5499200Y8237300D01*
X5507300Y8235400D01*
X5513400Y8232900D01*
X5518500Y8229200D01*
X5520500Y8224300D01*
X5518500Y8219400D01*
X5513400Y8215700D01*
X5507300Y8213200D01*
X5499200Y8211300D01*
X5490000Y8210700D01*
X5480900Y8211300D01*
X5472700Y8213200D01*
X5466600Y8215700D01*
X5461500Y8219400D01*
X5459500Y8224300D01*
G01X5520500Y8177400D02*
X5459500Y8177400D01*
X5503200Y8200200D01*
X5503200Y8169400D01*
G01X5717700Y832500D02*
X5721400Y835600D01*
X5725700Y837600D01*
X5730700Y837600D01*
X5736200Y834500D01*
X5740500Y829500D01*
X5743600Y823400D01*
X5746100Y813200D01*
X5746700Y804000D01*
X5745500Y794900D01*
X5743600Y788800D01*
X5739900Y782700D01*
X5735600Y778600D01*
X5731300Y776600D01*
X5727000Y776600D01*
X5722700Y778600D01*
X5719000Y781700D01*
X5715900Y785700D01*
G01X5691800Y776600D02*
X5691800Y837600D01*
X5699200Y825400D01*
G01X5699200Y776600D02*
X5684400Y776600D01*
G01X5652300Y776600D02*
X5652300Y837600D01*
X5659700Y825400D01*
G01X5659700Y776600D02*
X5644900Y776600D01*
G01X5605400Y776600D02*
X5605400Y837600D01*
X5628200Y793900D01*
X5597400Y793900D01*
G01X5845900Y8149400D02*
X5849600Y8152500D01*
X5853900Y8154500D01*
X5858900Y8154500D01*
X5864400Y8151400D01*
X5868700Y8146400D01*
X5871800Y8140300D01*
X5874300Y8130100D01*
X5874900Y8120900D01*
X5873700Y8111800D01*
X5871800Y8105700D01*
X5868100Y8099600D01*
X5863800Y8095500D01*
X5859500Y8093500D01*
X5855200Y8093500D01*
X5850900Y8095500D01*
X5847200Y8098600D01*
X5844100Y8102600D01*
G01X5833600Y8105700D02*
X5829900Y8098600D01*
X5824900Y8094500D01*
X5819400Y8093500D01*
X5814400Y8094500D01*
X5809500Y8099600D01*
X5806400Y8105700D01*
X5805800Y8111800D01*
X5807000Y8118900D01*
X5811400Y8124000D01*
X5815700Y8126000D01*
X5821200Y8126000D01*
G01X5815700Y8126000D02*
X5812000Y8129100D01*
X5808900Y8134200D01*
X5807700Y8140300D01*
X5808900Y8146400D01*
X5812000Y8151400D01*
X5817500Y8154500D01*
X5823100Y8153500D01*
X5828600Y8149400D01*
G01X5792200Y8118900D02*
X5787900Y8126000D01*
X5784200Y8130100D01*
X5779300Y8132100D01*
X5774900Y8130100D01*
X5771900Y8126000D01*
X5769400Y8119900D01*
X5768800Y8112800D01*
X5769400Y8106700D01*
X5771900Y8100600D01*
X5775600Y8095500D01*
X5779900Y8093500D01*
X5784800Y8095500D01*
X5789100Y8101600D01*
X5791600Y8110800D01*
X5792200Y8120900D01*
X5791000Y8134200D01*
X5789100Y8141300D01*
X5786100Y8148400D01*
X5781700Y8153500D01*
X5777400Y8154500D01*
X5773100Y8152500D01*
X5770000Y8147400D01*
G01X5961500Y7020000D02*
X5986100Y7020000D01*
X5986100Y7081000D01*
X5961500Y7081000D01*
G01X5971300Y7051500D02*
X5986100Y7051500D01*
G01X5944800Y7027100D02*
X5940500Y7022000D01*
X5935500Y7020000D01*
X5930600Y7022000D01*
X5926300Y7028100D01*
X5923200Y7037300D01*
X5922000Y7046400D01*
X5922000Y7057600D01*
X5923200Y7066800D01*
X5926300Y7074900D01*
X5930000Y7079000D01*
X5934300Y7081000D01*
X5939200Y7079000D01*
X5942900Y7074900D01*
X5945400Y7068800D01*
X5946600Y7060700D01*
X5945400Y7053600D01*
X5942300Y7046400D01*
X5938600Y7042400D01*
X5934300Y7041300D01*
X5929400Y7043400D01*
X5925700Y7048500D01*
X5922000Y7057600D01*
G01X5896900Y10216500D02*
X5900600Y10219600D01*
X5904900Y10221600D01*
X5909900Y10221600D01*
X5915400Y10218500D01*
X5919700Y10213500D01*
X5922800Y10207400D01*
X5925300Y10197200D01*
X5925900Y10188000D01*
X5924700Y10178900D01*
X5922800Y10172800D01*
X5919100Y10166700D01*
X5914800Y10162600D01*
X5910500Y10160600D01*
X5906200Y10160600D01*
X5901900Y10162600D01*
X5898200Y10165700D01*
X5895100Y10169700D01*
G01X5884600Y10169700D02*
X5880900Y10164700D01*
X5876600Y10161600D01*
X5871000Y10160600D01*
X5865400Y10162600D01*
X5861100Y10166700D01*
X5858000Y10173800D01*
X5857400Y10181900D01*
X5858700Y10190100D01*
X5861800Y10195200D01*
X5866100Y10199200D01*
X5870400Y10200200D01*
X5874700Y10199200D01*
X5880200Y10195200D01*
X5878400Y10221600D01*
X5861800Y10221600D01*
G01X5831500Y10160600D02*
X5831500Y10221600D01*
X5838900Y10209400D01*
G01X5838900Y10160600D02*
X5824100Y10160600D01*
G01X5906900Y10386500D02*
X5910600Y10389600D01*
X5914900Y10391600D01*
X5919900Y10391600D01*
X5925400Y10388500D01*
X5929700Y10383500D01*
X5932800Y10377400D01*
X5935300Y10367200D01*
X5935900Y10358000D01*
X5934700Y10348900D01*
X5932800Y10342800D01*
X5929100Y10336700D01*
X5924800Y10332600D01*
X5920500Y10330600D01*
X5916200Y10330600D01*
X5911900Y10332600D01*
X5908200Y10335700D01*
X5905100Y10339700D01*
G01X5894600Y10339700D02*
X5890900Y10334700D01*
X5886600Y10331600D01*
X5881000Y10330600D01*
X5875400Y10332600D01*
X5871100Y10336700D01*
X5868000Y10343800D01*
X5867400Y10351900D01*
X5868700Y10360100D01*
X5871800Y10365200D01*
X5876100Y10369200D01*
X5880400Y10370200D01*
X5884700Y10369200D01*
X5890200Y10365200D01*
X5888400Y10391600D01*
X5871800Y10391600D01*
G01X5842700Y10330600D02*
X5841500Y10343800D01*
X5839600Y10355000D01*
X5837200Y10365200D01*
X5834100Y10376300D01*
X5829200Y10391600D01*
X5853800Y10391600D01*
G01X6008600Y9962900D02*
X6005500Y9966600D01*
X6003500Y9970900D01*
X6003500Y9975900D01*
X6006600Y9981400D01*
X6011600Y9985700D01*
X6017700Y9988800D01*
X6027900Y9991300D01*
X6037100Y9991900D01*
X6046200Y9990700D01*
X6052300Y9988800D01*
X6058400Y9985100D01*
X6062500Y9980800D01*
X6064500Y9976500D01*
X6064500Y9972200D01*
X6062500Y9967900D01*
X6059400Y9964200D01*
X6055400Y9961100D01*
G01X6064500Y9937000D02*
X6003500Y9937000D01*
X6015700Y9944400D01*
G01X6064500Y9944400D02*
X6064500Y9929600D01*
G01X6064500Y9897500D02*
X6003500Y9897500D01*
X6015700Y9904900D01*
G01X6064500Y9904900D02*
X6064500Y9890100D01*
G01X6064500Y9858000D02*
X6063500Y9853700D01*
X6060400Y9848800D01*
X6055400Y9845700D01*
X6048200Y9844400D01*
X6041100Y9845700D01*
X6035000Y9849400D01*
X6032000Y9854900D01*
X6032000Y9861100D01*
X6029900Y9864800D01*
X6024900Y9867900D01*
X6017700Y9869100D01*
X6010600Y9867200D01*
X6005500Y9862900D01*
X6003500Y9858000D01*
X6005500Y9853100D01*
X6010600Y9848800D01*
X6017700Y9846900D01*
X6024900Y9848100D01*
X6029900Y9851200D01*
X6032000Y9854900D01*
X6032000Y9861100D01*
X6035000Y9866600D01*
X6041100Y9870300D01*
X6048200Y9871600D01*
X6055400Y9870300D01*
X6060400Y9867200D01*
X6063500Y9862300D01*
X6064500Y9858000D01*
G01X6127600Y4524100D02*
X6123900Y4521000D01*
X6119600Y4519000D01*
X6114600Y4519000D01*
X6109100Y4522100D01*
X6104800Y4527100D01*
X6101700Y4533200D01*
X6099200Y4543400D01*
X6098600Y4552600D01*
X6099800Y4561700D01*
X6101700Y4567800D01*
X6105400Y4573900D01*
X6109700Y4578000D01*
X6114000Y4580000D01*
X6118300Y4580000D01*
X6122600Y4578000D01*
X6126300Y4574900D01*
X6129400Y4570900D01*
G01X6143000Y4572900D02*
X6147300Y4578000D01*
X6152300Y4580000D01*
X6157200Y4578000D01*
X6161500Y4571900D01*
X6164600Y4562700D01*
X6165800Y4553600D01*
X6165800Y4542400D01*
X6164600Y4533200D01*
X6161500Y4525100D01*
X6157800Y4521000D01*
X6153500Y4519000D01*
X6148600Y4521000D01*
X6144900Y4525100D01*
X6142400Y4531200D01*
X6141200Y4539300D01*
X6142400Y4546400D01*
X6145500Y4553600D01*
X6149200Y4557600D01*
X6153500Y4558700D01*
X6158400Y4556600D01*
X6162100Y4551500D01*
X6165800Y4542400D01*
G01X6193000Y4580000D02*
X6193000Y4519000D01*
X6185600Y4531200D01*
G01X6185600Y4580000D02*
X6200400Y4580000D01*
G01X6269900Y3935400D02*
X6273600Y3938500D01*
X6277900Y3940500D01*
X6282900Y3940500D01*
X6288400Y3937400D01*
X6292700Y3932400D01*
X6295800Y3926300D01*
X6298300Y3916100D01*
X6298900Y3906900D01*
X6297700Y3897800D01*
X6295800Y3891700D01*
X6292100Y3885600D01*
X6287800Y3881500D01*
X6283500Y3879500D01*
X6279200Y3879500D01*
X6274900Y3881500D01*
X6271200Y3884600D01*
X6268100Y3888600D01*
G01X6254500Y3886600D02*
X6250200Y3881500D01*
X6245200Y3879500D01*
X6240300Y3881500D01*
X6236000Y3887600D01*
X6232900Y3896800D01*
X6231700Y3905900D01*
X6231700Y3917100D01*
X6232900Y3926300D01*
X6236000Y3934400D01*
X6239700Y3938500D01*
X6244000Y3940500D01*
X6248900Y3938500D01*
X6252600Y3934400D01*
X6255100Y3928300D01*
X6256300Y3920200D01*
X6255100Y3913100D01*
X6252000Y3905900D01*
X6248300Y3901900D01*
X6244000Y3900800D01*
X6239100Y3902900D01*
X6235400Y3908000D01*
X6231700Y3917100D01*
G01X6204500Y3940500D02*
X6209400Y3938500D01*
X6213100Y3933400D01*
X6215600Y3927300D01*
X6217500Y3919100D01*
X6218100Y3910000D01*
X6217500Y3900800D01*
X6215600Y3892700D01*
X6213100Y3886600D01*
X6209400Y3881500D01*
X6204500Y3879500D01*
X6199600Y3881500D01*
X6195900Y3886600D01*
X6193400Y3892700D01*
X6191500Y3900800D01*
X6190900Y3910000D01*
X6191500Y3919100D01*
X6193400Y3927300D01*
X6195900Y3933400D01*
X6199600Y3938500D01*
X6204500Y3940500D01*
G01X6245600Y10727000D02*
X6242500Y10730700D01*
X6240500Y10735000D01*
X6240500Y10740000D01*
X6243600Y10745500D01*
X6248600Y10749800D01*
X6254700Y10752900D01*
X6264900Y10755400D01*
X6274100Y10756000D01*
X6283200Y10754800D01*
X6289300Y10752900D01*
X6295400Y10749200D01*
X6299500Y10744900D01*
X6301500Y10740600D01*
X6301500Y10736300D01*
X6299500Y10732000D01*
X6296400Y10728300D01*
X6292400Y10725200D01*
G01X6292400Y10714700D02*
X6297400Y10711000D01*
X6300500Y10706700D01*
X6301500Y10701100D01*
X6299500Y10695500D01*
X6295400Y10691200D01*
X6288300Y10688100D01*
X6280200Y10687500D01*
X6272000Y10688800D01*
X6266900Y10691900D01*
X6262900Y10696200D01*
X6261900Y10700500D01*
X6262900Y10704800D01*
X6266900Y10710300D01*
X6240500Y10708500D01*
X6240500Y10691900D01*
G01X6276100Y10673300D02*
X6269000Y10669000D01*
X6264900Y10665300D01*
X6262900Y10660400D01*
X6264900Y10656000D01*
X6269000Y10653000D01*
X6275100Y10650500D01*
X6282200Y10649900D01*
X6288300Y10650500D01*
X6294400Y10653000D01*
X6299500Y10656700D01*
X6301500Y10661000D01*
X6299500Y10665900D01*
X6293400Y10670200D01*
X6284200Y10672700D01*
X6274100Y10673300D01*
X6260800Y10672100D01*
X6253700Y10670200D01*
X6246600Y10667200D01*
X6241500Y10662800D01*
X6240500Y10658500D01*
X6242500Y10654200D01*
X6247600Y10651100D01*
G01X6361200Y9961700D02*
X6358100Y9965400D01*
X6356100Y9969700D01*
X6356100Y9974700D01*
X6359200Y9980200D01*
X6364200Y9984500D01*
X6370300Y9987600D01*
X6380500Y9990100D01*
X6389700Y9990700D01*
X6398800Y9989500D01*
X6404900Y9987600D01*
X6411000Y9983900D01*
X6415100Y9979600D01*
X6417100Y9975300D01*
X6417100Y9971000D01*
X6415100Y9966700D01*
X6412000Y9963000D01*
X6408000Y9959900D01*
G01X6417100Y9935800D02*
X6356100Y9935800D01*
X6368300Y9943200D01*
G01X6417100Y9943200D02*
X6417100Y9928400D01*
G01X6417100Y9896300D02*
X6356100Y9896300D01*
X6368300Y9903700D01*
G01X6417100Y9903700D02*
X6417100Y9888900D01*
G01X6417100Y9858000D02*
X6403900Y9856800D01*
X6392700Y9854900D01*
X6382500Y9852500D01*
X6371400Y9849400D01*
X6356100Y9844500D01*
X6356100Y9869100D01*
G01X6585900Y8269400D02*
X6589600Y8272500D01*
X6593900Y8274500D01*
X6598900Y8274500D01*
X6604400Y8271400D01*
X6608700Y8266400D01*
X6611800Y8260300D01*
X6614300Y8250100D01*
X6614900Y8240900D01*
X6613700Y8231800D01*
X6611800Y8225700D01*
X6608100Y8219600D01*
X6603800Y8215500D01*
X6599500Y8213500D01*
X6595200Y8213500D01*
X6590900Y8215500D01*
X6587200Y8218600D01*
X6584100Y8222600D01*
G01X6573600Y8225700D02*
X6569900Y8218600D01*
X6564900Y8214500D01*
X6559400Y8213500D01*
X6554400Y8214500D01*
X6549500Y8219600D01*
X6546400Y8225700D01*
X6545800Y8231800D01*
X6547000Y8238900D01*
X6551400Y8244000D01*
X6555700Y8246000D01*
X6561200Y8246000D01*
G01X6555700Y8246000D02*
X6552000Y8249100D01*
X6548900Y8254200D01*
X6547700Y8260300D01*
X6548900Y8266400D01*
X6552000Y8271400D01*
X6557500Y8274500D01*
X6563100Y8273500D01*
X6568600Y8269400D01*
G01X6521700Y8213500D02*
X6520500Y8226700D01*
X6518600Y8237900D01*
X6516200Y8248100D01*
X6513100Y8259200D01*
X6508200Y8274500D01*
X6532800Y8274500D01*
G01X6714700Y10216200D02*
X6718400Y10219300D01*
X6722700Y10221300D01*
X6727700Y10221300D01*
X6733200Y10218200D01*
X6737500Y10213200D01*
X6740600Y10207100D01*
X6743100Y10196900D01*
X6743700Y10187700D01*
X6742500Y10178600D01*
X6740600Y10172500D01*
X6736900Y10166400D01*
X6732600Y10162300D01*
X6728300Y10160300D01*
X6724000Y10160300D01*
X6719700Y10162300D01*
X6716000Y10165400D01*
X6712900Y10169400D01*
G01X6688800Y10160300D02*
X6688800Y10221300D01*
X6696200Y10209100D01*
G01X6696200Y10160300D02*
X6681400Y10160300D01*
G01X6649300Y10160300D02*
X6649300Y10221300D01*
X6656700Y10209100D01*
G01X6656700Y10160300D02*
X6641900Y10160300D01*
G01X6621500Y10185700D02*
X6617200Y10192800D01*
X6613500Y10196900D01*
X6608600Y10198900D01*
X6604200Y10196900D01*
X6601200Y10192800D01*
X6598700Y10186700D01*
X6598100Y10179600D01*
X6598700Y10173500D01*
X6601200Y10167400D01*
X6604900Y10162300D01*
X6609200Y10160300D01*
X6614100Y10162300D01*
X6618400Y10168400D01*
X6620900Y10177600D01*
X6621500Y10187700D01*
X6620300Y10201000D01*
X6618400Y10208100D01*
X6615400Y10215200D01*
X6611000Y10220300D01*
X6606700Y10221300D01*
X6602400Y10219300D01*
X6599300Y10214200D01*
G01X7076800Y13900000D02*
X7052200Y13900000D01*
X7052200Y13839000D01*
X7076800Y13839000D01*
G01X7067000Y13868500D02*
X7052200Y13868500D01*
G01X7104000Y13900000D02*
X7104000Y13839000D01*
X7096600Y13851200D01*
G01X7096600Y13900000D02*
X7111400Y13900000D01*
G01X7143500Y13839000D02*
X7138600Y13841000D01*
X7134900Y13846100D01*
X7132400Y13852200D01*
X7130500Y13860400D01*
X7129900Y13869500D01*
X7130500Y13878700D01*
X7132400Y13886800D01*
X7134900Y13892900D01*
X7138600Y13898000D01*
X7143500Y13900000D01*
X7148400Y13898000D01*
X7152100Y13892900D01*
X7154600Y13886800D01*
X7156500Y13878700D01*
X7157100Y13869500D01*
X7156500Y13860400D01*
X7154600Y13852200D01*
X7152100Y13846100D01*
X7148400Y13841000D01*
X7143500Y13839000D01*
G01X7076800Y14150000D02*
X7052200Y14150000D01*
X7052200Y14089000D01*
X7076800Y14089000D01*
G01X7067000Y14118500D02*
X7052200Y14118500D01*
G01X7104000Y14150000D02*
X7104000Y14089000D01*
X7096600Y14101200D01*
G01X7096600Y14150000D02*
X7111400Y14150000D01*
G01X7129900Y14140900D02*
X7133600Y14145900D01*
X7137900Y14149000D01*
X7143500Y14150000D01*
X7149100Y14148000D01*
X7153400Y14143900D01*
X7156500Y14136800D01*
X7157100Y14128700D01*
X7155800Y14120500D01*
X7152700Y14115400D01*
X7148400Y14111400D01*
X7144100Y14110400D01*
X7139800Y14111400D01*
X7134300Y14115400D01*
X7136100Y14089000D01*
X7152700Y14089000D01*
G01X7431200Y13900000D02*
X7455800Y13900000D01*
X7455800Y13961000D01*
X7431200Y13961000D01*
G01X7441000Y13931500D02*
X7455800Y13931500D01*
G01X7404000Y13900000D02*
X7404000Y13961000D01*
X7411400Y13948800D01*
G01X7411400Y13900000D02*
X7396600Y13900000D01*
G01X7376200Y13925400D02*
X7371900Y13932500D01*
X7368200Y13936600D01*
X7363300Y13938600D01*
X7358900Y13936600D01*
X7355900Y13932500D01*
X7353400Y13926400D01*
X7352800Y13919300D01*
X7353400Y13913200D01*
X7355900Y13907100D01*
X7359600Y13902000D01*
X7363900Y13900000D01*
X7368800Y13902000D01*
X7373100Y13908100D01*
X7375600Y13917300D01*
X7376200Y13927400D01*
X7375000Y13940700D01*
X7373100Y13947800D01*
X7370100Y13954900D01*
X7365700Y13960000D01*
X7361400Y13961000D01*
X7357100Y13959000D01*
X7354000Y13953900D01*
G01X7431200Y14150000D02*
X7455800Y14150000D01*
X7455800Y14211000D01*
X7431200Y14211000D01*
G01X7441000Y14181500D02*
X7455800Y14181500D01*
G01X7404000Y14150000D02*
X7404000Y14211000D01*
X7411400Y14198800D01*
G01X7411400Y14150000D02*
X7396600Y14150000D01*
G01X7357100Y14150000D02*
X7357100Y14211000D01*
X7379900Y14167300D01*
X7349100Y14167300D01*
G01X7581200Y11919500D02*
X7605800Y11919500D01*
X7605800Y11980500D01*
X7581200Y11980500D01*
G01X7591000Y11951000D02*
X7605800Y11951000D01*
G01X7567600Y11931700D02*
X7563900Y11924600D01*
X7558900Y11920500D01*
X7553400Y11919500D01*
X7548400Y11920500D01*
X7543500Y11925600D01*
X7540400Y11931700D01*
X7539800Y11937800D01*
X7541000Y11944900D01*
X7545400Y11950000D01*
X7549700Y11952000D01*
X7555200Y11952000D01*
G01X7549700Y11952000D02*
X7546000Y11955100D01*
X7542900Y11960200D01*
X7541700Y11966300D01*
X7542900Y11972400D01*
X7546000Y11977400D01*
X7551500Y11980500D01*
X7557100Y11979500D01*
X7562600Y11975400D01*
G01X7514500Y11980500D02*
X7519400Y11978500D01*
X7523100Y11973400D01*
X7525600Y11967300D01*
X7527500Y11959100D01*
X7528100Y11950000D01*
X7527500Y11940800D01*
X7525600Y11932700D01*
X7523100Y11926600D01*
X7519400Y11921500D01*
X7514500Y11919500D01*
X7509600Y11921500D01*
X7505900Y11926600D01*
X7503400Y11932700D01*
X7501500Y11940800D01*
X7500900Y11950000D01*
X7501500Y11959100D01*
X7503400Y11967300D01*
X7505900Y11973400D01*
X7509600Y11978500D01*
X7514500Y11980500D01*
G01X7546500Y12200000D02*
X7521900Y12200000D01*
X7521900Y12139000D01*
X7546500Y12139000D01*
G01X7536700Y12168500D02*
X7521900Y12168500D01*
G01X7573700Y12200000D02*
X7578000Y12199000D01*
X7582900Y12195900D01*
X7586000Y12190900D01*
X7587300Y12183700D01*
X7586000Y12176600D01*
X7582300Y12170500D01*
X7576800Y12167500D01*
X7570600Y12167500D01*
X7566900Y12165400D01*
X7563800Y12160400D01*
X7562600Y12153200D01*
X7564500Y12146100D01*
X7568800Y12141000D01*
X7573700Y12139000D01*
X7578600Y12141000D01*
X7582900Y12146100D01*
X7584800Y12153200D01*
X7583600Y12160400D01*
X7580500Y12165400D01*
X7576800Y12167500D01*
X7570600Y12167500D01*
X7565100Y12170500D01*
X7561400Y12176600D01*
X7560100Y12183700D01*
X7561400Y12190900D01*
X7564500Y12195900D01*
X7569400Y12199000D01*
X7573700Y12200000D01*
G01X0Y300000D02*
X0Y16662000D01*
G02X300000Y16962000I300000J0D01*
G01X7700000Y16962000D01*
G02X8000000Y16662000I37J-299963D01*
G01X8000000Y300000D01*
G02X7700000Y0I-300000J0D01*
G01X300000Y0D01*
G02X0Y300000I0J300000D01*
G01X4324800Y3347300D02*
X4324800Y3187300D01*
X4245200Y3187300D01*
G01X4162800Y3320600D02*
X4150900Y3336600D01*
X4136900Y3344600D01*
X4121000Y3347300D01*
X4101100Y3342000D01*
X4087200Y3328600D01*
X4083200Y3312600D01*
X4085200Y3296600D01*
X4093200Y3283300D01*
X4133000Y3256600D01*
X4150900Y3238000D01*
X4162800Y3211300D01*
X4166800Y3187300D01*
X4083200Y3187300D01*
G01X4258300Y2008500D02*
X4250300Y2020500D01*
X4245000Y2034400D01*
X4245000Y2050300D01*
X4253000Y2068200D01*
X4266300Y2082100D01*
X4282300Y2092100D01*
X4309000Y2100100D01*
X4333000Y2102100D01*
X4357000Y2098100D01*
X4373000Y2092100D01*
X4389000Y2080200D01*
X4399700Y2066200D01*
X4405000Y2052300D01*
X4405000Y2038400D01*
X4399700Y2024400D01*
X4391700Y2012500D01*
X4381000Y2002500D01*
G01X4405000Y1892300D02*
X4245000Y1892300D01*
X4277000Y1916200D01*
G01X4405000Y1916200D02*
X4405000Y1868400D01*
G54D13*
G01X653300Y254500D02*
X653300Y545500D01*
X577500Y303000D01*
X501700Y545500D01*
X501700Y254500D01*
G01X458300Y254500D02*
X458300Y545500D01*
X388300Y545500D01*
X365000Y530900D01*
X347500Y497000D01*
X341700Y458200D01*
X347500Y419400D01*
X362100Y390300D01*
X388300Y375700D01*
X458300Y375700D01*
G01X277900Y497000D02*
X260400Y526100D01*
X240000Y540700D01*
X216700Y545500D01*
X187500Y535800D01*
X167100Y511500D01*
X161200Y482500D01*
X164200Y453300D01*
X175800Y429100D01*
X234200Y380600D01*
X260400Y346600D01*
X277900Y298100D01*
X283800Y254500D01*
X161200Y254500D01*
G01X653300Y7129500D02*
X653300Y7420500D01*
X577500Y7178000D01*
X501700Y7420500D01*
X501700Y7129500D01*
G01X458300Y7129500D02*
X458300Y7420500D01*
X388300Y7420500D01*
X365000Y7405900D01*
X347500Y7372000D01*
X341700Y7333200D01*
X347500Y7294400D01*
X362100Y7265300D01*
X388300Y7250700D01*
X458300Y7250700D01*
G01X277900Y7250700D02*
X257500Y7284700D01*
X240000Y7304100D01*
X216700Y7313800D01*
X196200Y7304100D01*
X181700Y7284700D01*
X170000Y7255600D01*
X167100Y7221600D01*
X170000Y7192500D01*
X181700Y7163400D01*
X199200Y7139200D01*
X219600Y7129500D01*
X242900Y7139200D01*
X263300Y7168300D01*
X275000Y7212000D01*
X277900Y7260400D01*
X272100Y7323500D01*
X263300Y7357500D01*
X248800Y7391400D01*
X228300Y7415700D01*
X207900Y7420500D01*
X187500Y7410800D01*
X172900Y7386500D01*
G01X653300Y16429500D02*
X653300Y16720500D01*
X577500Y16478000D01*
X501700Y16720500D01*
X501700Y16429500D01*
G01X458300Y16429500D02*
X458300Y16720500D01*
X388300Y16720500D01*
X365000Y16705900D01*
X347500Y16672000D01*
X341700Y16633200D01*
X347500Y16594400D01*
X362100Y16565300D01*
X388300Y16550700D01*
X458300Y16550700D01*
G01X286700Y16487700D02*
X269200Y16453700D01*
X245800Y16434300D01*
X219600Y16429500D01*
X196200Y16434300D01*
X172900Y16458600D01*
X158300Y16487700D01*
X155400Y16516800D01*
X161200Y16550700D01*
X181700Y16575000D01*
X202100Y16584700D01*
X228300Y16584700D01*
G01X202100Y16584700D02*
X184600Y16599200D01*
X170000Y16623500D01*
X164200Y16652600D01*
X170000Y16681700D01*
X184600Y16705900D01*
X210800Y16720500D01*
X237100Y16715700D01*
X263300Y16696200D01*
G01X7853300Y254500D02*
X7853300Y545500D01*
X7777500Y303000D01*
X7701700Y545500D01*
X7701700Y254500D01*
G01X7658300Y254500D02*
X7658300Y545500D01*
X7588300Y545500D01*
X7565000Y530900D01*
X7547500Y497000D01*
X7541700Y458200D01*
X7547500Y419400D01*
X7562100Y390300D01*
X7588300Y375700D01*
X7658300Y375700D01*
G01X7422500Y254500D02*
X7422500Y545500D01*
X7457500Y487300D01*
G01X7457500Y254500D02*
X7387500Y254500D01*
G01X7853300Y7139500D02*
X7853300Y7430500D01*
X7777500Y7188000D01*
X7701700Y7430500D01*
X7701700Y7139500D01*
G01X7658300Y7139500D02*
X7658300Y7430500D01*
X7588300Y7430500D01*
X7565000Y7415900D01*
X7547500Y7382000D01*
X7541700Y7343200D01*
X7547500Y7304400D01*
X7562100Y7275300D01*
X7588300Y7260700D01*
X7658300Y7260700D01*
G01X7486700Y7183100D02*
X7469200Y7158900D01*
X7448800Y7144300D01*
X7422500Y7139500D01*
X7396200Y7149200D01*
X7375800Y7168600D01*
X7361200Y7202500D01*
X7358300Y7241300D01*
X7364200Y7280100D01*
X7378800Y7304400D01*
X7399200Y7323800D01*
X7419600Y7328600D01*
X7440000Y7323800D01*
X7466200Y7304400D01*
X7457500Y7430500D01*
X7378800Y7430500D01*
G01X7860300Y16438500D02*
X7860300Y16729500D01*
X7784500Y16487000D01*
X7708700Y16729500D01*
X7708700Y16438500D01*
G01X7665300Y16438500D02*
X7665300Y16729500D01*
X7595300Y16729500D01*
X7572000Y16714900D01*
X7554500Y16681000D01*
X7548700Y16642200D01*
X7554500Y16603400D01*
X7569100Y16574300D01*
X7595300Y16559700D01*
X7665300Y16559700D01*
G01X7394500Y16438500D02*
X7394500Y16729500D01*
X7502400Y16521000D01*
X7356600Y16521000D01*
G54D14*
G01X7700000Y16960000D02*
G02X8000000Y16660000I0J-300000D01*
G01X8000000Y300000D01*
G02X7700000Y0I-300000J0D01*
G01X300000Y0D01*
G02X0Y300000I0J300000D01*
G01X0Y16660000D01*
G02X300000Y16960000I300000J0D01*
G01X720000Y400000D02*
G03X720000Y400000I-320000J0D01*
G01X720000Y7275000D02*
G03X720000Y7275000I-320000J0D01*
G01X720000Y16575000D02*
G03X720000Y16575000I-320000J0D01*
G01X382500Y11513800D02*
X382500Y11268800D01*
X212500Y11268800D01*
X212500Y11513800D01*
X382500Y11513800D01*
G01X300000Y16960000D02*
X7700000Y16960000D01*
G01X667500Y12171600D02*
X667500Y11926600D01*
X497500Y11926600D01*
X497500Y12171600D01*
X667500Y12171600D01*
G01X666500Y12934800D02*
X666500Y12689800D01*
X496500Y12689800D01*
X496500Y12934800D01*
X666500Y12934800D01*
G01X774500Y11512600D02*
X774500Y11267600D01*
X604500Y11267600D01*
X604500Y11512600D01*
X774500Y11512600D01*
G01X776500Y13240000D02*
X776500Y13410000D01*
X531500Y13410000D01*
X531500Y13240000D01*
X776500Y13240000D01*
G01X531500Y13610000D02*
X776500Y13610000D01*
X776500Y13440000D01*
X531500Y13440000D01*
X531500Y13610000D01*
G01X531500Y13810000D02*
X531500Y13640000D01*
X776500Y13640000D01*
X776500Y13810000D01*
X531500Y13810000D01*
G01X776500Y13840000D02*
X776500Y14010000D01*
X531500Y14010000D01*
X531500Y13840000D01*
X776500Y13840000D01*
G01X831500Y13410000D02*
X1076500Y13410000D01*
X1076500Y13240000D01*
X831500Y13240000D01*
X831500Y13410000D01*
G01X1076500Y13440000D02*
X1076500Y13610000D01*
X831500Y13610000D01*
X831500Y13440000D01*
X1076500Y13440000D01*
G01X831500Y13810000D02*
X1076500Y13810000D01*
X1076500Y13640000D01*
X831500Y13640000D01*
X831500Y13810000D01*
G01X831500Y14010000D02*
X831500Y13840000D01*
X1076500Y13840000D01*
X1076500Y14010000D01*
X831500Y14010000D01*
G01X1204500Y11516000D02*
X1204500Y11271000D01*
X1034500Y11271000D01*
X1034500Y11516000D01*
X1204500Y11516000D01*
G01X2139000Y4650000D02*
G03X2139000Y4650000I-20000J0D01*
G01X2384000Y4655000D02*
G03X2384000Y4655000I-20000J0D01*
G01X2315000Y4934300D02*
X2315000Y4929300D01*
X2415000Y4929300D01*
X2415000Y5119300D01*
X2315000Y5119300D01*
X2315000Y4934300D01*
G01X2649000Y5230000D02*
X2654000Y5230000D01*
X2654000Y5330000D01*
X2464000Y5330000D01*
X2464000Y5230000D01*
X2649000Y5230000D01*
G01X2601000Y5408000D02*
X2601000Y5698000D01*
X2461000Y5698000D01*
X2461000Y5408000D01*
X2601000Y5408000D01*
G01X2491400Y5591600D02*
X2486700Y5597300D01*
X2483500Y5603900D01*
X2483500Y5611500D01*
X2488300Y5620100D01*
X2496200Y5626700D01*
X2505700Y5631500D01*
X2521500Y5635300D01*
X2535800Y5636300D01*
X2550000Y5634300D01*
X2559500Y5631500D01*
X2569000Y5625800D01*
X2575300Y5619100D01*
X2578500Y5612500D01*
X2578500Y5605900D01*
X2575300Y5599200D01*
X2570600Y5593500D01*
X2564300Y5588700D01*
G01X2559500Y5573900D02*
X2570600Y5568200D01*
X2576900Y5560600D01*
X2578500Y5552000D01*
X2576900Y5544400D01*
X2569000Y5536800D01*
X2559500Y5532100D01*
X2550000Y5531200D01*
X2538900Y5533000D01*
X2531000Y5539700D01*
X2527800Y5546400D01*
X2527800Y5554900D01*
G01X2527800Y5546400D02*
X2523100Y5540700D01*
X2515200Y5535900D01*
X2505700Y5534000D01*
X2496200Y5535900D01*
X2488300Y5540700D01*
X2483500Y5549200D01*
X2485100Y5557700D01*
X2491400Y5566300D01*
G01X2578500Y5493500D02*
X2576900Y5486900D01*
X2572200Y5479300D01*
X2564300Y5474500D01*
X2553200Y5472600D01*
X2542100Y5474500D01*
X2532600Y5480200D01*
X2527800Y5488800D01*
X2527800Y5498200D01*
X2524700Y5504000D01*
X2516800Y5508700D01*
X2505700Y5510600D01*
X2494600Y5507700D01*
X2486700Y5501100D01*
X2483500Y5493500D01*
X2486700Y5485900D01*
X2494600Y5479300D01*
X2505700Y5476400D01*
X2516800Y5478300D01*
X2524700Y5483000D01*
X2527800Y5488800D01*
X2527800Y5498200D01*
X2532600Y5506800D01*
X2542100Y5512500D01*
X2553200Y5514400D01*
X2564300Y5512500D01*
X2572200Y5507700D01*
X2576900Y5500100D01*
X2578500Y5493500D01*
G01X2764000Y2115200D02*
X2769000Y2115200D01*
X2769000Y2215200D01*
X2579000Y2215200D01*
X2579000Y2115200D01*
X2764000Y2115200D01*
G01X2629000Y4655000D02*
G03X2629000Y4655000I-20000J0D01*
G01X2625000Y4924300D02*
X2620000Y4924300D01*
X2620000Y4824300D01*
X2810000Y4824300D01*
X2810000Y4924300D01*
X2625000Y4924300D01*
G01X2961000Y2092300D02*
X2961000Y1732300D01*
X2701000Y1732300D01*
X2701000Y2092300D01*
X2961000Y2092300D01*
G01X2756500Y2089000D02*
X2863300Y2089000D01*
X2885600Y2082300D01*
X2900500Y2069000D01*
X2905500Y2052300D01*
X2900500Y2035600D01*
X2885600Y2022300D01*
X2863300Y2015600D01*
X2756500Y2015600D01*
G01X2905500Y1949800D02*
X2756500Y1949800D01*
X2786300Y1969800D01*
G01X2905500Y1969800D02*
X2905500Y1929800D01*
G01X2781300Y1879000D02*
X2766400Y1869000D01*
X2759000Y1857300D01*
X2756500Y1844000D01*
X2761500Y1827300D01*
X2773900Y1815600D01*
X2788800Y1812300D01*
X2803700Y1814000D01*
X2816100Y1820600D01*
X2840900Y1854000D01*
X2858300Y1869000D01*
X2883200Y1879000D01*
X2905500Y1882300D01*
X2905500Y1812300D01*
G01X2836500Y2405200D02*
X3081500Y2405200D01*
X3081500Y2235200D01*
X2836500Y2235200D01*
X2836500Y2405200D01*
G01X3081500Y2405200D02*
X2836500Y2405200D01*
X2836500Y2575200D01*
X3081500Y2575200D01*
X3081500Y2405200D01*
G01X2836500Y2750200D02*
X3081500Y2750200D01*
X3081500Y2580200D01*
X2836500Y2580200D01*
X2836500Y2750200D01*
G01X3081500Y2750200D02*
X2836500Y2750200D01*
X2836500Y2920200D01*
X3081500Y2920200D01*
X3081500Y2750200D01*
G01X3081500Y2920200D02*
X2836500Y2920200D01*
X2836500Y3090200D01*
X3081500Y3090200D01*
X3081500Y2920200D01*
G01X2831500Y3275200D02*
X3076500Y3275200D01*
X3076500Y3105200D01*
X2831500Y3105200D01*
X2831500Y3275200D01*
G01X3076500Y3275200D02*
X2831500Y3275200D01*
X2831500Y3445200D01*
X3076500Y3445200D01*
X3076500Y3275200D01*
G01X2931000Y2142300D02*
G03X2931000Y2142300I-25000J0D01*
G01X2979000Y2260200D02*
X3019000Y2260200D01*
X3019000Y2380200D01*
X2979000Y2380200D01*
G01X2995000Y2322200D02*
X3019000Y2322200D01*
G01X2919000Y2260200D02*
X2919000Y2380200D01*
X2931000Y2356200D01*
G01X2931000Y2260200D02*
X2907000Y2260200D01*
G01X2979000Y2430200D02*
X3019000Y2430200D01*
X3019000Y2550200D01*
X2979000Y2550200D01*
G01X2995000Y2492200D02*
X3019000Y2492200D01*
G01X2938000Y2480200D02*
X2931000Y2494200D01*
X2925000Y2502200D01*
X2917000Y2506200D01*
X2910000Y2502200D01*
X2905000Y2494200D01*
X2901000Y2482200D01*
X2900000Y2468200D01*
X2901000Y2456200D01*
X2905000Y2444200D01*
X2911000Y2434200D01*
X2918000Y2430200D01*
X2926000Y2434200D01*
X2933000Y2446200D01*
X2937000Y2464200D01*
X2938000Y2484200D01*
X2936000Y2510200D01*
X2933000Y2524200D01*
X2928000Y2538200D01*
X2921000Y2548200D01*
X2914000Y2550200D01*
X2907000Y2546200D01*
X2902000Y2536200D01*
G01X2979000Y2605200D02*
X3019000Y2605200D01*
X3019000Y2725200D01*
X2979000Y2725200D01*
G01X2995000Y2667200D02*
X3019000Y2667200D01*
G01X2941000Y2623200D02*
X2935000Y2613200D01*
X2928000Y2607200D01*
X2919000Y2605200D01*
X2910000Y2609200D01*
X2903000Y2617200D01*
X2898000Y2631200D01*
X2897000Y2647200D01*
X2899000Y2663200D01*
X2904000Y2673200D01*
X2911000Y2681200D01*
X2918000Y2683200D01*
X2925000Y2681200D01*
X2934000Y2673200D01*
X2931000Y2725200D01*
X2904000Y2725200D01*
G01X2979000Y2775200D02*
X3019000Y2775200D01*
X3019000Y2895200D01*
X2979000Y2895200D01*
G01X2995000Y2837200D02*
X3019000Y2837200D01*
G01X2938000Y2875200D02*
X2932000Y2887200D01*
X2925000Y2893200D01*
X2917000Y2895200D01*
X2907000Y2891200D01*
X2900000Y2881200D01*
X2898000Y2869200D01*
X2899000Y2857200D01*
X2903000Y2847200D01*
X2923000Y2827200D01*
X2932000Y2813200D01*
X2938000Y2793200D01*
X2940000Y2775200D01*
X2898000Y2775200D01*
G01X2974000Y3130200D02*
X3014000Y3130200D01*
X3014000Y3250200D01*
X2974000Y3250200D01*
G01X2990000Y3192200D02*
X3014000Y3192200D01*
G01X2902000Y3130200D02*
X2902000Y3250200D01*
X2939000Y3164200D01*
X2889000Y3164200D01*
G01X2974000Y3300200D02*
X3014000Y3300200D01*
X3014000Y3420200D01*
X2974000Y3420200D01*
G01X2990000Y3362200D02*
X3014000Y3362200D01*
G01X2936000Y3324200D02*
X2930000Y3310200D01*
X2922000Y3302200D01*
X2913000Y3300200D01*
X2905000Y3302200D01*
X2897000Y3312200D01*
X2892000Y3324200D01*
X2891000Y3336200D01*
X2893000Y3350200D01*
X2900000Y3360200D01*
X2907000Y3364200D01*
X2916000Y3364200D01*
G01X2907000Y3364200D02*
X2901000Y3370200D01*
X2896000Y3380200D01*
X2894000Y3392200D01*
X2896000Y3404200D01*
X2901000Y3414200D01*
X2910000Y3420200D01*
X2919000Y3418200D01*
X2928000Y3410200D01*
G01X4820000Y820000D02*
X3180000Y820000D01*
X3180000Y1270000D01*
X3290000Y1380000D01*
X4820000Y1380000D01*
X4820000Y820000D01*
G01X3205000Y2692300D02*
X3205000Y2402300D01*
X3345000Y2402300D01*
X3345000Y2692300D01*
X3205000Y2692300D01*
G01X3235400Y2585900D02*
X3230700Y2591600D01*
X3227500Y2598200D01*
X3227500Y2605800D01*
X3232300Y2614400D01*
X3240200Y2621000D01*
X3249700Y2625800D01*
X3265500Y2629600D01*
X3279800Y2630600D01*
X3294000Y2628600D01*
X3303500Y2625800D01*
X3313000Y2620100D01*
X3319300Y2613400D01*
X3322500Y2606800D01*
X3322500Y2600200D01*
X3319300Y2593500D01*
X3314600Y2587800D01*
X3308300Y2583000D01*
G01X3322500Y2547300D02*
X3227500Y2547300D01*
X3246500Y2558700D01*
G01X3322500Y2558700D02*
X3322500Y2535900D01*
G01X3227500Y2487800D02*
X3230700Y2495400D01*
X3238600Y2501100D01*
X3248100Y2504900D01*
X3260800Y2507800D01*
X3275000Y2508700D01*
X3289300Y2507800D01*
X3301900Y2504900D01*
X3311400Y2501100D01*
X3319300Y2495400D01*
X3322500Y2487800D01*
X3319300Y2480200D01*
X3311400Y2474500D01*
X3301900Y2470700D01*
X3289300Y2467800D01*
X3275000Y2466900D01*
X3260800Y2467800D01*
X3248100Y2470700D01*
X3238600Y2474500D01*
X3230700Y2480200D01*
X3227500Y2487800D01*
G01X3355000Y2457300D02*
X3350000Y2457300D01*
X3350000Y2357300D01*
X3540000Y2357300D01*
X3540000Y2457300D01*
X3355000Y2457300D01*
G01X3355000Y2747300D02*
X3350000Y2747300D01*
X3350000Y2647300D01*
X3540000Y2647300D01*
X3540000Y2747300D01*
X3355000Y2747300D01*
G01X3534000Y2802500D02*
X3539000Y2802500D01*
X3539000Y2902500D01*
X3349000Y2902500D01*
X3349000Y2802500D01*
X3534000Y2802500D01*
G01X3535000Y2902300D02*
X3540000Y2902300D01*
X3540000Y3002300D01*
X3350000Y3002300D01*
X3350000Y2902300D01*
X3535000Y2902300D01*
G01X4366500Y992200D02*
X4343700Y946700D01*
X4316500Y916400D01*
X4284600Y901200D01*
X4248200Y916400D01*
X4220900Y946700D01*
X4193600Y992200D01*
X4184500Y1052900D01*
X4184500Y1356200D01*
G01X4100100Y969400D02*
X4072800Y931500D01*
X4041000Y908800D01*
X4000000Y901200D01*
X3959000Y916400D01*
X3927200Y946700D01*
X3904400Y999800D01*
X3899900Y1060400D01*
X3909000Y1121100D01*
X3931800Y1159000D01*
X3963600Y1189400D01*
X3995400Y1196900D01*
X4027300Y1189400D01*
X4068200Y1159000D01*
X4054600Y1356200D01*
X3931800Y1356200D01*
G01X3724500Y901200D02*
X3692700Y908800D01*
X3656300Y931500D01*
X3633500Y969400D01*
X3624400Y1022500D01*
X3633500Y1075600D01*
X3660800Y1121100D01*
X3701800Y1143900D01*
X3747200Y1143900D01*
X3774600Y1159000D01*
X3797300Y1196900D01*
X3806400Y1250000D01*
X3792700Y1303100D01*
X3760900Y1341000D01*
X3724500Y1356200D01*
X3688100Y1341000D01*
X3656300Y1303100D01*
X3642600Y1250000D01*
X3651700Y1196900D01*
X3674400Y1159000D01*
X3701800Y1143900D01*
X3747200Y1143900D01*
X3788200Y1121100D01*
X3815500Y1075600D01*
X3824600Y1022500D01*
X3815500Y969400D01*
X3792700Y931500D01*
X3756300Y908800D01*
X3724500Y901200D01*
G01X3690000Y2642300D02*
X3690000Y2647300D01*
X3590000Y2647300D01*
X3590000Y2457300D01*
X3690000Y2457300D01*
X3690000Y2642300D01*
G01X3744000Y2014000D02*
X3744000Y2009000D01*
X3844000Y2009000D01*
X3844000Y2199000D01*
X3744000Y2199000D01*
X3744000Y2014000D01*
G01X3760000Y2462300D02*
X3760000Y2457300D01*
X3860000Y2457300D01*
X3860000Y2647300D01*
X3760000Y2647300D01*
X3760000Y2462300D01*
G01X3868500Y2835800D02*
X3868500Y2840800D01*
X3768500Y2840800D01*
X3768500Y2650800D01*
X3868500Y2650800D01*
X3868500Y2835800D01*
G01X4189000Y7615000D02*
X4189000Y7445000D01*
X3799000Y7445000D01*
X3799000Y7615000D01*
X4189000Y7615000D01*
G01X3805600Y7700000D02*
G03X3805600Y7700000I-31600J0D01*
G01X3855500Y1986100D02*
X3855500Y1981100D01*
X3955500Y1981100D01*
X3955500Y2171100D01*
X3855500Y2171100D01*
X3855500Y1986100D01*
G01X3910000Y2462300D02*
X3910000Y2457300D01*
X4010000Y2457300D01*
X4010000Y2647300D01*
X3910000Y2647300D01*
X3910000Y2462300D01*
G01X4005000Y3067300D02*
X4005000Y3072300D01*
X3905000Y3072300D01*
X3905000Y2882300D01*
X4005000Y2882300D01*
X4005000Y3067300D01*
G01X3943000Y4200200D02*
G03X3943000Y4200200I-20000J0D01*
G01X3943000Y4420200D02*
G03X3943000Y4420200I-20000J0D01*
G01X3933000Y4920200D02*
G03X3933000Y4920200I-20000J0D01*
G01X3933000Y5135200D02*
G03X3933000Y5135200I-20000J0D01*
G01X4079700Y7540800D02*
X4079700Y7635800D01*
X4055000Y7556600D01*
X4030300Y7635800D01*
X4030300Y7540800D01*
G01X4014500Y7540800D02*
X4014500Y7635800D01*
X3990800Y7635800D01*
X3983200Y7631000D01*
X3978400Y7624700D01*
X3976500Y7612000D01*
X3978400Y7599400D01*
X3984100Y7591500D01*
X3990800Y7586700D01*
X4014500Y7586700D01*
G01X3990800Y7586700D02*
X3976500Y7540800D01*
G01X3936000Y7540800D02*
X3936000Y7635800D01*
X3947400Y7616800D01*
G01X3947400Y7540800D02*
X3924600Y7540800D01*
G01X3876500Y7635800D02*
X3884100Y7632600D01*
X3889800Y7624700D01*
X3893600Y7615200D01*
X3896500Y7602500D01*
X3897400Y7588300D01*
X3896500Y7574000D01*
X3893600Y7561400D01*
X3889800Y7551900D01*
X3884100Y7544000D01*
X3876500Y7540800D01*
X3868900Y7544000D01*
X3863200Y7551900D01*
X3859400Y7561400D01*
X3856500Y7574000D01*
X3855600Y7588300D01*
X3856500Y7602500D01*
X3859400Y7615200D01*
X3863200Y7624700D01*
X3868900Y7632600D01*
X3876500Y7635800D01*
G01X4085000Y1947300D02*
X4085000Y1952300D01*
X3985000Y1952300D01*
X3985000Y1762300D01*
X4085000Y1762300D01*
X4085000Y1947300D01*
G01X4085000Y2127300D02*
X4085000Y2132300D01*
X3985000Y2132300D01*
X3985000Y1942300D01*
X4085000Y1942300D01*
X4085000Y2127300D01*
G01X4035000Y3172300D02*
X4375000Y3172300D01*
X4375000Y3362300D01*
X4035000Y3362300D01*
X4035000Y3172300D01*
G01X4215000Y4932300D02*
X4220000Y4932300D01*
X4220000Y5032300D01*
X4030000Y5032300D01*
X4030000Y4932300D01*
X4215000Y4932300D01*
G01X4035000Y5152300D02*
X4030000Y5152300D01*
X4030000Y5052300D01*
X4220000Y5052300D01*
X4220000Y5152300D01*
X4035000Y5152300D01*
G01X4225000Y2132300D02*
X4225000Y2137300D01*
X4125000Y2137300D01*
X4125000Y1947300D01*
X4225000Y1947300D01*
X4225000Y2132300D01*
G01X4045000Y2262300D02*
X4045000Y2257300D01*
X4145000Y2257300D01*
X4145000Y2447300D01*
X4045000Y2447300D01*
X4045000Y2262300D01*
G01X4155000Y2262300D02*
X4155000Y2257300D01*
X4255000Y2257300D01*
X4255000Y2447300D01*
X4155000Y2447300D01*
X4155000Y2262300D01*
G01X4140000Y2462300D02*
X4140000Y2457300D01*
X4240000Y2457300D01*
X4240000Y2647300D01*
X4140000Y2647300D01*
X4140000Y2462300D01*
G01X4149000Y2830000D02*
X4149000Y2825000D01*
X4249000Y2825000D01*
X4249000Y3015000D01*
X4149000Y3015000D01*
X4149000Y2830000D01*
G01X4045000Y2830000D02*
X4045000Y2825000D01*
X4145000Y2825000D01*
X4145000Y3015000D01*
X4045000Y3015000D01*
X4045000Y2830000D01*
G01X4230000Y2142300D02*
X4230000Y1802300D01*
X4420000Y1802300D01*
X4420000Y2142300D01*
X4230000Y2142300D01*
G01X4405000Y4932300D02*
X4410000Y4932300D01*
X4410000Y5032300D01*
X4220000Y5032300D01*
X4220000Y4932300D01*
X4405000Y4932300D01*
G01X4220000Y5152300D02*
X4215000Y5152300D01*
X4215000Y5052300D01*
X4405000Y5052300D01*
X4405000Y5152300D01*
X4220000Y5152300D01*
G01X4450000Y7804000D02*
X4455000Y7804000D01*
X4455000Y7904000D01*
X4265000Y7904000D01*
X4265000Y7804000D01*
X4450000Y7804000D01*
G01X4485000Y2432300D02*
X4490000Y2432300D01*
X4490000Y2532300D01*
X4300000Y2532300D01*
X4300000Y2432300D01*
X4485000Y2432300D01*
G01X4565000Y2577300D02*
X4570000Y2577300D01*
X4570000Y2677300D01*
X4380000Y2677300D01*
X4380000Y2577300D01*
X4565000Y2577300D01*
G01X4375000Y3192300D02*
X4665000Y3192300D01*
X4665000Y3332300D01*
X4375000Y3332300D01*
X4375000Y3192300D01*
G01X4520100Y1558800D02*
X4520100Y1563800D01*
X4420100Y1563800D01*
X4420100Y1373800D01*
X4520100Y1373800D01*
X4520100Y1558800D01*
G01X4485400Y2010900D02*
X4480700Y2016600D01*
X4477500Y2023200D01*
X4477500Y2030800D01*
X4482300Y2039400D01*
X4490200Y2046000D01*
X4499700Y2050800D01*
X4515500Y2054600D01*
X4529800Y2055600D01*
X4544000Y2053600D01*
X4553500Y2050800D01*
X4563000Y2045100D01*
X4569300Y2038400D01*
X4572500Y2031800D01*
X4572500Y2025200D01*
X4569300Y2018500D01*
X4564600Y2012800D01*
X4558300Y2008000D01*
G01X4493300Y1990400D02*
X4483800Y1984600D01*
X4479100Y1978000D01*
X4477500Y1970400D01*
X4480700Y1960900D01*
X4488600Y1954200D01*
X4498100Y1952300D01*
X4507600Y1953300D01*
X4515500Y1957100D01*
X4531300Y1976100D01*
X4542400Y1984600D01*
X4558300Y1990400D01*
X4572500Y1992300D01*
X4572500Y1952300D01*
G01X4477500Y1912800D02*
X4480700Y1920400D01*
X4488600Y1926100D01*
X4498100Y1929900D01*
X4510800Y1932800D01*
X4525000Y1933700D01*
X4539300Y1932800D01*
X4551900Y1929900D01*
X4561400Y1926100D01*
X4569300Y1920400D01*
X4572500Y1912800D01*
X4569300Y1905200D01*
X4561400Y1899500D01*
X4551900Y1895700D01*
X4539300Y1892800D01*
X4525000Y1891900D01*
X4510800Y1892800D01*
X4498100Y1895700D01*
X4488600Y1899500D01*
X4480700Y1905200D01*
X4477500Y1912800D01*
G01X4430000Y2142300D02*
X4430000Y1802300D01*
X4620000Y1802300D01*
X4620000Y2142300D01*
X4430000Y2142300D01*
G01X4470000Y2367300D02*
X4465000Y2367300D01*
X4465000Y2267300D01*
X4655000Y2267300D01*
X4655000Y2367300D01*
X4470000Y2367300D01*
G01X4558600Y3301900D02*
X4564300Y3306600D01*
X4570900Y3309800D01*
X4578500Y3309800D01*
X4587100Y3305000D01*
X4593700Y3297100D01*
X4598500Y3287600D01*
X4602300Y3271800D01*
X4603300Y3257500D01*
X4601300Y3243300D01*
X4598500Y3233800D01*
X4592800Y3224300D01*
X4586100Y3218000D01*
X4579500Y3214800D01*
X4572900Y3214800D01*
X4566200Y3218000D01*
X4560500Y3222700D01*
X4555700Y3229000D01*
G01X4536200Y3225900D02*
X4529500Y3218000D01*
X4521900Y3214800D01*
X4514300Y3218000D01*
X4507700Y3227500D01*
X4502900Y3241700D01*
X4501000Y3256000D01*
X4501000Y3273400D01*
X4502900Y3287600D01*
X4507700Y3300300D01*
X4513400Y3306600D01*
X4520000Y3309800D01*
X4527600Y3306600D01*
X4533300Y3300300D01*
X4537100Y3290800D01*
X4539000Y3278100D01*
X4537100Y3267100D01*
X4532300Y3256000D01*
X4526600Y3249600D01*
X4520000Y3248000D01*
X4512400Y3251200D01*
X4506700Y3259100D01*
X4501000Y3273400D01*
G01X4476700Y3225900D02*
X4470000Y3218000D01*
X4462400Y3214800D01*
X4454800Y3218000D01*
X4448200Y3227500D01*
X4443400Y3241700D01*
X4441500Y3256000D01*
X4441500Y3273400D01*
X4443400Y3287600D01*
X4448200Y3300300D01*
X4453900Y3306600D01*
X4460500Y3309800D01*
X4468100Y3306600D01*
X4473800Y3300300D01*
X4477600Y3290800D01*
X4479500Y3278100D01*
X4477600Y3267100D01*
X4472800Y3256000D01*
X4467100Y3249600D01*
X4460500Y3248000D01*
X4452900Y3251200D01*
X4447200Y3259100D01*
X4441500Y3273400D01*
G01X4520000Y5142300D02*
X4520000Y5147300D01*
X4420000Y5147300D01*
X4420000Y4957300D01*
X4520000Y4957300D01*
X4520000Y5142300D01*
G01X4515000Y8034000D02*
X4510000Y8034000D01*
X4510000Y7934000D01*
X4700000Y7934000D01*
X4700000Y8034000D01*
X4515000Y8034000D01*
G01X4665000Y4216200D02*
G03X4665000Y4216200I-20000J0D01*
G01X4654000Y4431200D02*
G03X4654000Y4431200I-20000J0D01*
G01X4520000Y7664000D02*
X4515000Y7664000D01*
X4515000Y7564000D01*
X4705000Y7564000D01*
X4705000Y7664000D01*
X4520000Y7664000D01*
G01X4520000Y7784000D02*
X4515000Y7784000D01*
X4515000Y7684000D01*
X4705000Y7684000D01*
X4705000Y7784000D01*
X4520000Y7784000D01*
G01X4520000Y7904000D02*
X4515000Y7904000D01*
X4515000Y7804000D01*
X4705000Y7804000D01*
X4705000Y7904000D01*
X4520000Y7904000D01*
G01X4519000Y8191000D02*
X4514000Y8191000D01*
X4514000Y8091000D01*
X4704000Y8091000D01*
X4704000Y8191000D01*
X4519000Y8191000D01*
G01X4691700Y8373000D02*
X4688200Y8376500D01*
X4617500Y8305800D01*
X4751800Y8171500D01*
X4822500Y8242200D01*
X4691700Y8373000D01*
G01X4528900Y11574800D02*
X4773900Y11574800D01*
X4773900Y11404800D01*
X4528900Y11404800D01*
X4528900Y11574800D01*
G01X4735000Y2132300D02*
X4735000Y2137300D01*
X4635000Y2137300D01*
X4635000Y1947300D01*
X4735000Y1947300D01*
X4735000Y2132300D01*
G01X4709500Y4472300D02*
X4876500Y4472300D01*
X4911400Y4463000D01*
X4934700Y4444300D01*
X4942500Y4421000D01*
X4934700Y4397700D01*
X4911400Y4379000D01*
X4876500Y4369700D01*
X4709500Y4369700D01*
G01X4748300Y4322800D02*
X4725000Y4308800D01*
X4713400Y4292500D01*
X4709500Y4273800D01*
X4717300Y4250500D01*
X4736700Y4234200D01*
X4760000Y4229500D01*
X4783300Y4231800D01*
X4802700Y4241200D01*
X4841500Y4287800D01*
X4868700Y4308800D01*
X4907600Y4322800D01*
X4942500Y4327500D01*
X4942500Y4229500D01*
G01X4942500Y4136000D02*
X4709500Y4136000D01*
X4756100Y4164000D01*
G01X4942500Y4164000D02*
X4942500Y4108000D01*
G01X4956000Y4007300D02*
X4696000Y4007300D01*
X4696000Y4467300D01*
X4956000Y4467300D01*
X4956000Y4007300D01*
G01X4844000Y4570000D02*
X4849000Y4570000D01*
X4849000Y4670000D01*
X4659000Y4670000D01*
X4659000Y4570000D01*
X4844000Y4570000D01*
G01X4808300Y8235000D02*
X4811800Y8231500D01*
X4882500Y8302200D01*
X4748200Y8436500D01*
X4677500Y8365800D01*
X4808300Y8235000D01*
G01X4858000Y4868200D02*
G03X4858000Y4868200I-20000J0D01*
G01X5014000Y8050000D02*
X5019000Y8050000D01*
X5019000Y8150000D01*
X4829000Y8150000D01*
X4829000Y8050000D01*
X5014000Y8050000D01*
G01X4830000Y8354000D02*
X4830000Y8349000D01*
X4930000Y8349000D01*
X4930000Y8539000D01*
X4830000Y8539000D01*
X4830000Y8354000D01*
G01X4937000Y837100D02*
X4937000Y832100D01*
X5037000Y832100D01*
X5037000Y1022100D01*
X4937000Y1022100D01*
X4937000Y837100D01*
G01X4938400Y4527300D02*
G03X4938400Y4527300I-22400J0D01*
G01X5089000Y8153000D02*
X5094000Y8153000D01*
X5094000Y8253000D01*
X4904000Y8253000D01*
X4904000Y8153000D01*
X5089000Y8153000D01*
G01X5030000Y8534000D02*
X5030000Y8539000D01*
X4930000Y8539000D01*
X4930000Y8349000D01*
X5030000Y8349000D01*
X5030000Y8534000D01*
G01X5192000Y832100D02*
X5192000Y1122100D01*
X5052000Y1122100D01*
X5052000Y832100D01*
X5192000Y832100D01*
G01X5014000Y4610000D02*
X5009000Y4610000D01*
X5009000Y4510000D01*
X5199000Y4510000D01*
X5199000Y4610000D01*
X5014000Y4610000D01*
G01X5130000Y8534000D02*
X5130000Y8539000D01*
X5030000Y8539000D01*
X5030000Y8349000D01*
X5130000Y8349000D01*
X5130000Y8534000D01*
G01X5250000Y8534000D02*
X5250000Y8539000D01*
X5150000Y8539000D01*
X5150000Y8349000D01*
X5250000Y8349000D01*
X5250000Y8534000D01*
G01X5250000Y8794000D02*
X5250000Y8799000D01*
X5150000Y8799000D01*
X5150000Y8609000D01*
X5250000Y8609000D01*
X5250000Y8794000D01*
G01X5424500Y704600D02*
X5289500Y704600D01*
X5289500Y919600D01*
X5424500Y919600D01*
X5424500Y704600D01*
G01X5318500Y3822300D02*
X5485500Y3822300D01*
X5520400Y3813000D01*
X5543700Y3794300D01*
X5551500Y3771000D01*
X5543700Y3747700D01*
X5520400Y3729000D01*
X5485500Y3719700D01*
X5318500Y3719700D01*
G01X5357300Y3672800D02*
X5334000Y3658800D01*
X5322400Y3642500D01*
X5318500Y3623800D01*
X5326300Y3600500D01*
X5345700Y3584200D01*
X5369000Y3579500D01*
X5392300Y3581800D01*
X5411700Y3591200D01*
X5450500Y3637800D01*
X5477700Y3658800D01*
X5516600Y3672800D01*
X5551500Y3677500D01*
X5551500Y3579500D01*
G01X5551500Y3458000D02*
X5318500Y3458000D01*
X5485500Y3544300D01*
X5485500Y3427700D01*
G01X5565000Y3357300D02*
X5305000Y3357300D01*
X5305000Y3817300D01*
X5565000Y3817300D01*
X5565000Y3357300D01*
G01X5504000Y3860000D02*
X5509000Y3860000D01*
X5509000Y3960000D01*
X5319000Y3960000D01*
X5319000Y3860000D01*
X5504000Y3860000D01*
G01X5319500Y4472300D02*
X5486500Y4472300D01*
X5521400Y4463000D01*
X5544700Y4444300D01*
X5552500Y4421000D01*
X5544700Y4397700D01*
X5521400Y4379000D01*
X5486500Y4369700D01*
X5319500Y4369700D01*
G01X5552500Y4278500D02*
X5319500Y4278500D01*
X5366100Y4306500D01*
G01X5552500Y4306500D02*
X5552500Y4250500D01*
G01X5552500Y4136000D02*
X5319500Y4136000D01*
X5366100Y4164000D01*
G01X5552500Y4164000D02*
X5552500Y4108000D01*
G01X5566000Y4007300D02*
X5306000Y4007300D01*
X5306000Y4467300D01*
X5566000Y4467300D01*
X5566000Y4007300D01*
G01X5504500Y4518500D02*
X5509500Y4518500D01*
X5509500Y4618500D01*
X5319500Y4618500D01*
X5319500Y4518500D01*
X5504500Y4518500D01*
G01X5452000Y4711000D02*
X5457000Y4711000D01*
X5457000Y4811000D01*
X5267000Y4811000D01*
X5267000Y4711000D01*
X5452000Y4711000D01*
G01X5370000Y8534000D02*
X5370000Y8539000D01*
X5270000Y8539000D01*
X5270000Y8349000D01*
X5370000Y8349000D01*
X5370000Y8534000D01*
G01X5370000Y8794000D02*
X5370000Y8799000D01*
X5270000Y8799000D01*
X5270000Y8609000D01*
X5370000Y8609000D01*
X5370000Y8794000D01*
G01X5517100Y874300D02*
X5517100Y806200D01*
X5513300Y792000D01*
X5505700Y782500D01*
X5496200Y779300D01*
X5486700Y782500D01*
X5479100Y792000D01*
X5475300Y806200D01*
X5475300Y874300D01*
G01X5457600Y793500D02*
X5451900Y785600D01*
X5445300Y780900D01*
X5436700Y779300D01*
X5428100Y782500D01*
X5421500Y788800D01*
X5416700Y799900D01*
X5415800Y812500D01*
X5417700Y825200D01*
X5422500Y833100D01*
X5429100Y839500D01*
X5435700Y841000D01*
X5442400Y839500D01*
X5450900Y833100D01*
X5448100Y874300D01*
X5422500Y874300D01*
G01X5395300Y858500D02*
X5389500Y868000D01*
X5382900Y872700D01*
X5375300Y874300D01*
X5365800Y871100D01*
X5359100Y863200D01*
X5357200Y853700D01*
X5358200Y844200D01*
X5362000Y836300D01*
X5381000Y820500D01*
X5389500Y809400D01*
X5395300Y793500D01*
X5397200Y779300D01*
X5357200Y779300D01*
G01X5540000Y8334000D02*
X5540000Y8339000D01*
X5440000Y8339000D01*
X5440000Y8149000D01*
X5540000Y8149000D01*
X5540000Y8334000D01*
G01X5490000Y8534000D02*
X5490000Y8539000D01*
X5390000Y8539000D01*
X5390000Y8349000D01*
X5490000Y8349000D01*
X5490000Y8534000D01*
G01X5490000Y8794000D02*
X5490000Y8799000D01*
X5390000Y8799000D01*
X5390000Y8609000D01*
X5490000Y8609000D01*
X5490000Y8794000D01*
G01X5527000Y737100D02*
X5817000Y737100D01*
X5817000Y877100D01*
X5527000Y877100D01*
X5527000Y737100D01*
G01X5583900Y922100D02*
G03X5583900Y922100I-26900J0D01*
G01X5547400Y3877300D02*
G03X5547400Y3877300I-22400J0D01*
G01X5548400Y4527300D02*
G03X5548400Y4527300I-22400J0D01*
G01X5540000Y8154000D02*
X5540000Y8149000D01*
X5640000Y8149000D01*
X5640000Y8339000D01*
X5540000Y8339000D01*
X5540000Y8154000D01*
G01X5690800Y8758200D02*
X5541800Y8758200D01*
X5541800Y8724800D01*
X5549300Y8711500D01*
X5559200Y8701500D01*
X5574100Y8693200D01*
X5591500Y8686500D01*
X5616300Y8684800D01*
X5641100Y8686500D01*
X5658500Y8693200D01*
X5673400Y8701500D01*
X5683400Y8711500D01*
X5690800Y8724800D01*
X5690800Y8758200D01*
G01X5690800Y8619000D02*
X5541800Y8619000D01*
X5571600Y8639000D01*
G01X5690800Y8639000D02*
X5690800Y8599000D01*
G01X5535000Y8784000D02*
X5535000Y8504000D01*
X5705000Y8504000D01*
X5705000Y8784000D01*
X5535000Y8784000D01*
G01X5540000Y8754000D02*
X5700000Y8754000D01*
X5700000Y8744000D01*
X5540000Y8744000D01*
X5540000Y8734000D01*
X5700000Y8734000D01*
X5700000Y8724000D01*
X5535000Y8724000D01*
G01X5824000Y3930000D02*
X5829000Y3930000D01*
X5829000Y4030000D01*
X5639000Y4030000D01*
X5639000Y3930000D01*
X5824000Y3930000D01*
G01X5730000Y8174000D02*
X5725000Y8174000D01*
X5725000Y8074000D01*
X5915000Y8074000D01*
X5915000Y8174000D01*
X5730000Y8174000D01*
G01X5790400Y8582600D02*
X5785700Y8588300D01*
X5782500Y8594900D01*
X5782500Y8602500D01*
X5787300Y8611100D01*
X5795200Y8617700D01*
X5804700Y8622500D01*
X5820500Y8626300D01*
X5834800Y8627300D01*
X5849000Y8625300D01*
X5858500Y8622500D01*
X5868000Y8616800D01*
X5874300Y8610100D01*
X5877500Y8603500D01*
X5877500Y8596900D01*
X5874300Y8590200D01*
X5869600Y8584500D01*
X5863300Y8579700D01*
G01X5877500Y8544000D02*
X5782500Y8544000D01*
X5801500Y8555400D01*
G01X5877500Y8555400D02*
X5877500Y8532600D01*
G01X5837900Y8502600D02*
X5826800Y8495900D01*
X5820500Y8490200D01*
X5817300Y8482600D01*
X5820500Y8475900D01*
X5826800Y8471200D01*
X5836300Y8467400D01*
X5847400Y8466400D01*
X5856900Y8467400D01*
X5866400Y8471200D01*
X5874300Y8476900D01*
X5877500Y8483500D01*
X5874300Y8491100D01*
X5864800Y8497800D01*
X5850600Y8501600D01*
X5834800Y8502600D01*
X5814200Y8500700D01*
X5803100Y8497800D01*
X5792000Y8493100D01*
X5784100Y8486400D01*
X5782500Y8479800D01*
X5785700Y8473100D01*
X5793600Y8468300D01*
G01X5925000Y8374000D02*
X5925000Y8714000D01*
X5735000Y8714000D01*
X5735000Y8374000D01*
X5925000Y8374000D01*
G01X5781000Y10241100D02*
X5776000Y10241100D01*
X5776000Y10141100D01*
X5966000Y10141100D01*
X5966000Y10241100D01*
X5781000Y10241100D01*
G01X5791000Y10411100D02*
X5786000Y10411100D01*
X5786000Y10311100D01*
X5976000Y10311100D01*
X5976000Y10411100D01*
X5791000Y10411100D01*
G01X5884000Y4030000D02*
X5879000Y4030000D01*
X5879000Y3930000D01*
X6069000Y3930000D01*
X6069000Y4030000D01*
X5884000Y4030000D01*
G01X6076500Y6935000D02*
X6076500Y7105000D01*
X5831500Y7105000D01*
X5831500Y6935000D01*
X6076500Y6935000D01*
G01X5984000Y9827200D02*
X5984000Y9822200D01*
X6084000Y9822200D01*
X6084000Y10012200D01*
X5984000Y10012200D01*
X5984000Y9827200D01*
G01X6126500Y3822300D02*
X6293500Y3822300D01*
X6328400Y3813000D01*
X6351700Y3794300D01*
X6359500Y3771000D01*
X6351700Y3747700D01*
X6328400Y3729000D01*
X6293500Y3719700D01*
X6126500Y3719700D01*
G01X6359500Y3628500D02*
X6126500Y3628500D01*
X6173100Y3656500D01*
G01X6359500Y3656500D02*
X6359500Y3600500D01*
G01X6332300Y3525700D02*
X6351700Y3509300D01*
X6359500Y3490700D01*
X6351700Y3472000D01*
X6328400Y3455700D01*
X6293500Y3444000D01*
X6258500Y3439300D01*
X6215800Y3439300D01*
X6180900Y3444000D01*
X6149800Y3455700D01*
X6134300Y3469700D01*
X6126500Y3486000D01*
X6134300Y3504700D01*
X6149800Y3518700D01*
X6173100Y3528000D01*
X6204200Y3532700D01*
X6231300Y3528000D01*
X6258500Y3516300D01*
X6274100Y3502300D01*
X6278000Y3486000D01*
X6270200Y3467300D01*
X6250800Y3453300D01*
X6215800Y3439300D01*
G01X6373000Y3357300D02*
X6113000Y3357300D01*
X6113000Y3817300D01*
X6373000Y3817300D01*
X6373000Y3357300D01*
G01X6154000Y3960000D02*
X6149000Y3960000D01*
X6149000Y3860000D01*
X6339000Y3860000D01*
X6339000Y3960000D01*
X6154000Y3960000D01*
G01X6127500Y4479300D02*
X6294500Y4479300D01*
X6329400Y4470000D01*
X6352700Y4451300D01*
X6360500Y4428000D01*
X6352700Y4404700D01*
X6329400Y4386000D01*
X6294500Y4376700D01*
X6127500Y4376700D01*
G01X6360500Y4285500D02*
X6127500Y4285500D01*
X6174100Y4313500D01*
G01X6360500Y4313500D02*
X6360500Y4257500D01*
G01X6360500Y4143000D02*
X6356600Y4126700D01*
X6345000Y4108000D01*
X6325600Y4096300D01*
X6298400Y4091700D01*
X6271200Y4096300D01*
X6247900Y4110300D01*
X6236200Y4131300D01*
X6236200Y4154700D01*
X6228500Y4168700D01*
X6209100Y4180300D01*
X6181900Y4185000D01*
X6154700Y4178000D01*
X6135300Y4161700D01*
X6127500Y4143000D01*
X6135300Y4124300D01*
X6154700Y4108000D01*
X6181900Y4101000D01*
X6209100Y4105700D01*
X6228500Y4117300D01*
X6236200Y4131300D01*
X6236200Y4154700D01*
X6247900Y4175700D01*
X6271200Y4189700D01*
X6298400Y4194300D01*
X6325600Y4189700D01*
X6345000Y4178000D01*
X6356600Y4159300D01*
X6360500Y4143000D01*
G01X6374000Y4014300D02*
X6114000Y4014300D01*
X6114000Y4474300D01*
X6374000Y4474300D01*
X6374000Y4014300D01*
G01X6243500Y4499500D02*
X6248500Y4499500D01*
X6248500Y4599500D01*
X6058500Y4599500D01*
X6058500Y4499500D01*
X6243500Y4499500D01*
G01X6057500Y4809000D02*
X6052500Y4809000D01*
X6052500Y4709000D01*
X6242500Y4709000D01*
X6242500Y4809000D01*
X6057500Y4809000D01*
G01X6321000Y10791100D02*
X6321000Y10796100D01*
X6221000Y10796100D01*
X6221000Y10606100D01*
X6321000Y10606100D01*
X6321000Y10791100D01*
G01X6355400Y3877300D02*
G03X6355400Y3877300I-22400J0D01*
G01X6356400Y4534300D02*
G03X6356400Y4534300I-22400J0D01*
G01X6336600Y9826000D02*
X6336600Y9821000D01*
X6436600Y9821000D01*
X6436600Y10011000D01*
X6336600Y10011000D01*
X6336600Y9826000D01*
G01X6650000Y8194000D02*
X6655000Y8194000D01*
X6655000Y8294000D01*
X6465000Y8294000D01*
X6465000Y8194000D01*
X6650000Y8194000D01*
G01X6759000Y10140800D02*
X6764000Y10140800D01*
X6764000Y10240800D01*
X6574000Y10240800D01*
X6574000Y10140800D01*
X6759000Y10140800D01*
G01X6981500Y13985000D02*
X6981500Y13815000D01*
X7226500Y13815000D01*
X7226500Y13985000D01*
X6981500Y13985000D01*
G01X6981500Y14235000D02*
X7226500Y14235000D01*
X7226500Y14065000D01*
X6981500Y14065000D01*
X6981500Y14235000D01*
G01X7920000Y400000D02*
G03X7920000Y400000I-320000J0D01*
G01X7920000Y7285000D02*
G03X7920000Y7285000I-320000J0D01*
G01X7526500Y13815000D02*
X7281500Y13815000D01*
X7281500Y13985000D01*
X7526500Y13985000D01*
X7526500Y13815000D01*
G01X7526500Y14065000D02*
X7526500Y14235000D01*
X7281500Y14235000D01*
X7281500Y14065000D01*
X7526500Y14065000D01*
G01X7927000Y16584000D02*
G03X7927000Y16584000I-320000J0D01*
G01X7676500Y11865000D02*
X7431500Y11865000D01*
X7431500Y12035000D01*
X7676500Y12035000D01*
X7676500Y11865000D01*
G01X7431500Y12285000D02*
X7676500Y12285000D01*
X7676500Y12115000D01*
X7431500Y12115000D01*
X7431500Y12285000D01*
M02*
