M48
METRIC
T01C.1
T02C.2
T03C.8
T04C.83
T05C.9
T06C1.
T07C1.65
T08C1.45
T09C3.3
;LEADER: 12 
;HEADER: 
;CODE  : ASCII 
;FILE  : D018942_06_v03_ek_ra8d1-1-2.drl for  ... layers TOP and 02_GND
;DESIGN: D018942_06_v03_ek_ra8d1.brd
;T01 Holesize 1. = 0.100000 Tolerance = +0.025000/-0.025000 PLATED MM Quantity = 408
%
G90
T01
X0548100Y0027510
X0538000Y0022400
X0425200Y0027900
X0400200Y0027900
X0361000Y0021300
X0256780Y0501730
X0169000Y0422000
X0171400Y0413100
X0187600Y0416000
X0342500Y0172800
X0615400Y0380430
X0412000Y0215230
X0452500Y0539230
X0452520Y0513440
X0501900Y0475150
X0448700Y0419720
X0513400Y0471500
X0443100Y0441020
X0509900Y0478000
X0447970Y0446020
X0475960Y0515560
X0475640Y0523500
X0460500Y0475230
X0468380Y0537980
X0459250Y0514810
X0464500Y0514200
X0445900Y0523210
X0437870Y0531190
X0428620Y0454500
X0438440Y0464600
X0437110Y0538560
X0428500Y0531230
X0428500Y0539230
X0420500Y0531230
X0420500Y0539230
X0412730Y0530130
X0406650Y0406000
X0416500Y0423000
X0412620Y0419500
X0422960Y0436790
X0421400Y0428500
X0432790Y0453960
X0412500Y0539230
X0403100Y0531000
X0184620Y0425480
X0205600Y0433600
X0194970Y0440430
X0388000Y0223230
X0388000Y0231230
X0404000Y0231230
X0404000Y0239230
X0367300Y0192900
X0388000Y0239230
X0420000Y0287230
X0443700Y0318200
X0525500Y0360500
X0427470Y0286860
X0328250Y0415430
X0444550Y0331150
X0412000Y0287230
X0372000Y0287230
X0404000Y0287230
X0372000Y0279230
X0412000Y0295230
X0380000Y0279230
X0443190Y0286420
X0420000Y0279230
X0428000Y0263230
X0420000Y0271230
X0428000Y0279230
X0428000Y0271230
X0436000Y0247230
X0444000Y0247230
X0436000Y0239230
X0388000Y0287230
X0119600Y0341200
X0216200Y0336600
X0364000Y0279230
X0113300Y0463500
X0118000Y0345400
X0218200Y0341100
X0191200Y0222430
X0311200Y0223900
X0420000Y0231230
X0412000Y0239230
X0412000Y0231230
X0426790Y0223020
X0347040Y0199640
X0420000Y0239230
X0211800Y0326200
X0373470Y0262960
X0174350Y0318400
X0147700Y0314600
X0211530Y0294270
X0452000Y0239230
X0460000Y0239230
X0452000Y0223230
X0460000Y0223230
X0452000Y0231230
X0460000Y0231230
X0495000Y0698700
X0480100Y0719300
X0518920Y0700250
X0486100Y0708700
X0613800Y0336200
X0603200Y0088100
X0582130Y0062430
X0564260Y0042410
X0550430Y0054530
X0557930Y0074890
X0558630Y0037540
X0552030Y0050080
X0569400Y0072900
X0601400Y0068600
X0606830Y0356080
X0388020Y0208040
X0347700Y0163600
X0376000Y0192500
X0423600Y0350400
X0434190Y0350000
X0334300Y0404730
X0412000Y0303230
X0226470Y0223930
X0404000Y0303230
X0331800Y0475230
X0404000Y0295230
X0444000Y0263230
X0210450Y0262250
X0364810Y0232040
X0240900Y0421700
X0239490Y0413090
X0253270Y0504050
X0380000Y0231230
X0380680Y0215910
X0641300Y0366230
X0380520Y0239240
X0380000Y0223230
X0372000Y0231230
X0371700Y0198000
X0372810Y0224040
X0363190Y0192030
X0426900Y0303000
X0334300Y0409730
X0420000Y0295230
X0334300Y0414730
X0436180Y0345180
X0334300Y0419730
X0344400Y0392500
X0420000Y0303230
X0334300Y0424730
X0333500Y0445430
X0334300Y0429730
X0442760Y0344010
X0388000Y0295230
X0331800Y0480230
X0364000Y0287230
X0331800Y0485230
X0331800Y0490230
X0380000Y0287230
X0331800Y0495230
X0356000Y0295230
X0222500Y0220100
X0226500Y0214700
X0143700Y0242400
X0380000Y0247230
X0155850Y0328700
X0364000Y0271230
X0371820Y0270850
X0226500Y0316100
X0436000Y0271230
X0436000Y0279230
X0444000Y0279230
X0435190Y0286420
X0428000Y0239230
X0436000Y0263230
X0420000Y0247230
X0162850Y0306600
X0212330Y0303620
X0156600Y0281500
X0208900Y0257600
X0279400Y0235550
X0372580Y0247440
X0427180Y0294420
X0334300Y0434730
X0334300Y0439730
X0447900Y0339100
X0364000Y0295230
X0331800Y0500230
X0372000Y0295230
X0331800Y0505230
X0331800Y0510230
X0380000Y0295230
X0381410Y0262920
X0314700Y0288300
X0380670Y0270560
X0360140Y0197080
X0356030Y0198910
X0150370Y0227930
X0372360Y0238840
X0438700Y0337400
X0435080Y0302520
X0457900Y0341030
X0453730Y0332700
X0210280Y0290250
X0172050Y0295000
X0365250Y0239660
X0195200Y0233650
X0188010Y0279420
X0212750Y0274020
X0213050Y0279180
X0180350Y0288700
X0156010Y0335070
X0213900Y0332700
X0165320Y0331950
X0221500Y0328100
X0110000Y0967200
X0436000Y0223230
X0420000Y0263230
X0233600Y0304900
X0427190Y0232040
X0351350Y0194150
X0437140Y0522590
X0443380Y0294260
X0403300Y0182430
X0444200Y0215600
X0428370Y0248240
X0472400Y0245400
X0448500Y0358900
X0443490Y0302080
X0283900Y0412500
X0256400Y0412500
X0283900Y0407500
X0271400Y0407500
X0121400Y0335900
X0212400Y0307900
X0147200Y0328100
X0208840Y0320500
X0194900Y0289500
X0212640Y0284700
X0195210Y0273060
X0211500Y0270000
X0195180Y0256900
X0203980Y0257110
X0556360Y1650800
X0444000Y0239230
X0444000Y0223230
X0412470Y0206760
X0408000Y0198730
X0404000Y0223230
X0388830Y0216030
X0632400Y0382000
X0496800Y0456430
X0628000Y0463500
X0637100Y0398510
X0678100Y0370510
X0377100Y0375510
X0399100Y0369510
X0359100Y0371510
X0289100Y0324510
X0278100Y0327510
X0269100Y0302510
X0303100Y0303510
X0258100Y0311510
X0101100Y0259510
X0138100Y0211510
X0753100Y0191510
X0762100Y0199510
X0671100Y0165510
X0693100Y0166510
X0652100Y0180510
X0700100Y0148510
X0650100Y0158510
X0543100Y0060510
X0584100Y0086510
X0502100Y0097510
X0439100Y0095510
X0353100Y0095510
X0350100Y0072510
X0376100Y0075510
X0393100Y0092510
X0163100Y0110510
X0073100Y0112510
X0131100Y0138510
X0124100Y0164510
X0094100Y0133510
X0275100Y0146510
X0287100Y0145510
X0270100Y0130510
X0267100Y0165510
X0226100Y0165510
X0586100Y0289510
X0587100Y0253510
X0607100Y0254510
X0588100Y0206510
X0596100Y0170510
X0700100Y0198510
X0679100Y0224510
X0662100Y0247510
X0608100Y0231510
X0402200Y0483010
X0429000Y0522660
X0413050Y0522610
X0421140Y0483870
X0549300Y0225200
X0550700Y0206100
X0529200Y0205300
X0514500Y0205700
X0467600Y0237800
X0571100Y0214800
X0569000Y0237400
X0552800Y0243200
X0534700Y0245400
X0541900Y0272600
X0555800Y0283200
X0567700Y0274100
X0554400Y0258900
X0536600Y0259300
X0530200Y0290300
X0531800Y0296900
X0550200Y0296700
X0568000Y0294500
X0552400Y0307400
X0532100Y0307900
X0524700Y0314400
X0539200Y0314100
X0525500Y0274100
X0562200Y0309300
X0555600Y0313900
X0520100Y0309300
X0471400Y0316700
X0484200Y0317900
X0506200Y0359500
X0505500Y0353700
X0489500Y0360000
X0477500Y0359700
X0487000Y0347400
X0468700Y0347300
X0741700Y0959300
X0741800Y1085200
X0684100Y1057100
X0667800Y1225500
X0740100Y1225500
X0740000Y1266400
X0739600Y1161000
X0542600Y0787900
X0522200Y0795700
X0510000Y0799200
X0497700Y0795100
X0510000Y0807900
X0521600Y0782700
X0510100Y0783300
X0522950Y0808350
X0498100Y0808000
X0498000Y0783000
X0392200Y0395700
X0391100Y0424100
X0440600Y0359500
X0423200Y0357700
X0383000Y0345500
X0447400Y0367300
X0377900Y0437500
X0521150Y0047450
X0552400Y0116200
X0524900Y0155800
X0445200Y0161900
X0386600Y0146300
X0357900Y0149100
X0340400Y0124300
X0234100Y0130510
X0187100Y0166510
X0314400Y0129600
X0072500Y0277700
X0065500Y0353100
X0444400Y0491400
X0530600Y0401800
X0530400Y0390000
X0563900Y0404200
X0543620Y0331030
X0561600Y0344200
X0351800Y0393300
X0333800Y0394000
X0301800Y0396900
X0477250Y0471230
X0404700Y0467300
X0395500Y0322500
X0390500Y0322900
X0389000Y0336100
X0390000Y0343100
X0420500Y0345100
X0538300Y0464200
X0343700Y0449000
X0306900Y0461200
X0343200Y0530900
X0447400Y0113600
X0387700Y0113500
X0423300Y0136500
X0366100Y0136900
X0384600Y0162400
X0348500Y0173300
X0331730Y0183730
X0288000Y0155700
X0340400Y0471000
X0409150Y0351600
X0460000Y0247230
X0769000Y1028900
X0776200Y1162500
X0773400Y1192700
X0774100Y1225100
M30
