M48
METRIC
T01C.1
T02C.2
T03C.8
T04C.83
T05C.9
T06C1.
T07C1.65
T08C1.45
T09C3.3
;LEADER: 12 
;HEADER: 
;CODE  : ASCII 
;FILE  : D018942_06_v03_ek_ra8d1-1-8.drl for  ... layers TOP and BOTTOM
;DESIGN: D018942_06_v03_ek_ra8d1.brd
;T02 Holesize 1. = 0.200000 Tolerance = +0.050000/-0.050000 PLATED MM Quantity = 923
;T03 Holesize 2. = 0.800000 Tolerance = +0.100000/-0.100000 PLATED MM Quantity = 40
;T04 Holesize 3. = 0.830000 Tolerance = +0.050000/-0.050000 PLATED MM Quantity = 2
;T05 Holesize 4. = 0.900000 Tolerance = +0.100000/-0.100000 PLATED MM Quantity = 24
;T06 Holesize 5. = 1.000000 Tolerance = +0.100000/-0.100000 PLATED MM Quantity = 242
;T07 Holesize 6. = 1.650000 Tolerance = +0.100000/-0.100000 PLATED MM Quantity = 2
;T08 Holesize 7. = 1.450000 Tolerance = +0.080000/-0.080000 NON_PLATED MM Quantity = 2
;T09 Holesize 8. = 3.300000 Tolerance = +0.100000/-0.100000 NON_PLATED MM Quantity = 6
%
G90
T02
X0554950Y0019700
X0731900Y0031100
X0699200Y0030700
X0727200Y0008000
X0701800Y0008000
X0676400Y0008000
X0651000Y0008000
X0625600Y0008000
X0600200Y0008000
X0574800Y0008000
X0549400Y0008000
X0524000Y0008000
X0498600Y0008000
X0432900Y0008200
X0382100Y0008200
X0356700Y0008200
X0331300Y0008200
X0305900Y0008200
X0280500Y0008200
X0255100Y0008200
X0229700Y0008200
X0204300Y0008200
X0178900Y0008200
X0153500Y0008200
X0128100Y0008200
X0102700Y0008200
X0077300Y0008200
X0049900Y0007900
X0740600Y0011300
X0107400Y1342000
X0654000Y1033800
X0456400Y1347500
X0393400Y1077500
X0642900Y1084460
X0273900Y0654000
X0293900Y0402000
X0079400Y1381000
X0151400Y1369000
X0699300Y1326400
X0625900Y1111000
X0412040Y0279270
X0404040Y0279270
X0382300Y0198200
X0460400Y0262500
X0419900Y0322800
X0335500Y0276170
X0221400Y0446000
X0232980Y0447530
X0259150Y0446750
X0283400Y0446500
X0276400Y0448000
X0272400Y0441100
X0228000Y0443040
X0246200Y0445000
X0256400Y0439000
X0213400Y0448500
X0293170Y0421180
X0292580Y0410390
X0288900Y0416000
X0014400Y0405100
X0151250Y0167650
X0166650Y0777550
X0016600Y0771300
X0129580Y0853000
X0062930Y0789500
X0478000Y1565300
X0379000Y1560110
X0468910Y1560210
X0396000Y1560210
X0653150Y1041250
X0451900Y1356000
X0397400Y0190530
X0400000Y0319830
X0478000Y0771400
X0516000Y0832900
X0540100Y0818110
X0472000Y0779400
X0487880Y0825160
X0475590Y0812380
X0491950Y0830490
X0524000Y0832400
X0474500Y0789400
X0504900Y0832400
X0479460Y0817860
X0473600Y0796600
X0498640Y0830000
X0368250Y0779050
X0493200Y0642500
X0505150Y0500790
X0526750Y0466500
X0455130Y0508530
X0457800Y0496450
X0427450Y0443500
X0493700Y0471450
X0445620Y0411240
X0485300Y0482500
X0443950Y0423520
X0446150Y0435250
X0506080Y0463990
X0434860Y0416400
X0429740Y0429270
X0440260Y0407200
X0500170Y0488910
X0452570Y0386800
X0431750Y0778200
X0362000Y0444200
X0359500Y0515800
X0470900Y0450300
X0522200Y0392490
X0529010Y0459650
X0373000Y0430220
X0369100Y0435720
X0359300Y0465520
X0367450Y0475230
X0371920Y0480230
X0367450Y0485230
X0371920Y0490230
X0367450Y0495230
X0374560Y0400680
X0369140Y0404940
X0373550Y0410000
X0368850Y0414780
X0373500Y0419720
X0368900Y0424720
X0371920Y0500230
X0367450Y0505230
X0501880Y0507320
X0518000Y0477400
X0504650Y0494100
X0288080Y0435430
X0322600Y0509200
X0355550Y0779050
X0288020Y0425480
X0135400Y1355000
X0292550Y0430430
X0111400Y1424000
X0080400Y1352500
X0292550Y0440430
X0117100Y0197200
X0081600Y0191400
X0092420Y0174450
X0274100Y0208780
X0709700Y1049110
X0655200Y1053800
X0748800Y0181800
X0561000Y0207500
X0732100Y0404900
X0669600Y0449400
X0654400Y0319500
X0569500Y0302300
X0753700Y0243590
X0680100Y1565650
X0734500Y1502900
X0521600Y0325300
X0527900Y0264000
X0459330Y1098500
X0726540Y0302620
X0128400Y0385200
X0241000Y0377800
X0090300Y0197500
X0128800Y0190550
X0110000Y0186600
X0704470Y0164680
X0557420Y0166640
X0695800Y0132100
X0549500Y0166450
X0089910Y0355860
X0314400Y0272030
X0406240Y0145200
X0314890Y0184670
X0311840Y0198170
X0491210Y0087910
X0512200Y0097360
X0498500Y0077500
X0432000Y0100800
X0443520Y0231680
X0383600Y0098100
X0517000Y0176900
X0362900Y0101000
X0367850Y0095850
X0346120Y0114510
X0353910Y0111590
X0384000Y0124150
X0392000Y0124150
X0076050Y0131950
X0673050Y1261950
X0678000Y1126300
X0662700Y1351100
X0686900Y1336200
X0699600Y1313400
X0737010Y1300590
X0701200Y1237000
X0698200Y1115710
X0676300Y1275000
X0682080Y1134770
X0566800Y1109300
X0608380Y1113260
X0697810Y1122400
X0689110Y1249790
X0672710Y1286710
X0672000Y1153000
X0672000Y1106400
X0539700Y1101100
X0306970Y0189990
X0385100Y1621110
X0308940Y0206950
X0395100Y1624900
X0444450Y0778500
X0319100Y0628000
X0265600Y0138900
X0419050Y0779050
X0604500Y0375900
X0603370Y0441930
X0406350Y0779050
X0559020Y0447370
X0393650Y0779050
X0454550Y0754350
X0566000Y0361330
X0574400Y0431120
X0571300Y0437120
X0451400Y0779820
X0569630Y0366970
X0567100Y0420520
X0459800Y0837600
X0569000Y0427020
X0566520Y0354640
X0544000Y0857400
X0568860Y0373830
X0506450Y0701100
X0558400Y0330300
X0520000Y0857400
X0569400Y0410100
X0510000Y0856400
X0563400Y0414920
X0564500Y0337220
X0739900Y0706000
X0532000Y0857400
X0566480Y0347940
X0611700Y0401200
X0380950Y0779850
X0570930Y0226020
X0420200Y0073000
X0606800Y0118510
X0591790Y0097310
X0310300Y0311200
X0348460Y0247580
X0315700Y0260600
X0348500Y0262720
X0336750Y0251480
X0340500Y0262720
X0176400Y0857000
X0344670Y0158230
X0421320Y0192380
X0171400Y0747200
X0415340Y0187300
X0178290Y0747200
X0502150Y0204520
X0125370Y0996950
X0493800Y0202600
X0125590Y1003650
X0539000Y0832400
X0734470Y0168270
X0692000Y0155800
X0343430Y0178230
X0498600Y0348300
X0513420Y0366120
X0416200Y0099900
X0189900Y0349800
X0088900Y0368900
X0480000Y0262800
X0564900Y0259290
X0501160Y0266360
X0498400Y0275490
X0208900Y0228000
X0247400Y0411000
X0239660Y0446930
X0700900Y0159000
X0320780Y0191080
X0676200Y0215100
X0660060Y0355460
X0706460Y0243210
X0654890Y0370740
X0703800Y0227600
X0615500Y0244200
X0649360Y0374530
X0647500Y0251400
X0663570Y0437210
X0648900Y0438920
X0652000Y0203300
X0644500Y0432200
X0654900Y0254000
X0642650Y0339500
X0652050Y0169570
X0658570Y0170820
X0650440Y0425420
X0038900Y1390500
X0408300Y0099700
X0265560Y1592880
X0051400Y1400000
X0400100Y0098700
X0044400Y1335000
X0279900Y1592050
X0628810Y0726400
X0399500Y0737100
X0447200Y1121900
X0508440Y0274700
X0516400Y0269500
X0511510Y0382180
X0514400Y0294340
X0523400Y0283500
X0520400Y0417500
X0503070Y0378330
X0764250Y0834320
X0058250Y1223250
X0585400Y0803400
X0590800Y0799300
X0111000Y0930400
X0122000Y1088400
X0539800Y0120900
X0477770Y0218350
X0478100Y0235510
X0478510Y0225150
X0419690Y0215580
X0403480Y0215750
X0711900Y0135200
X0563940Y0168220
X0380500Y0302800
X0724200Y0277600
X0048000Y1144400
X0682800Y0722700
X0680000Y0199300
X0571700Y0197590
X0570600Y0169600
X0728020Y0166450
X0087000Y1144400
X0565400Y0199900
X0572390Y0186360
X0662530Y0159870
X0654400Y0420000
X0660140Y0366240
X0679050Y0159350
X0655900Y0410500
X0406800Y0124150
X0510400Y0286000
X0522890Y0407010
X0523280Y0297830
X0518230Y0355960
X0524400Y0400000
X0499400Y0294290
X0507460Y0438260
X0537850Y0327920
X0506500Y0337600
X0152530Y1243380
X0396100Y1529910
X0152370Y0973630
X0044900Y1083600
X0575100Y0893600
X0572800Y0705500
X0731600Y0705500
X0573400Y0538300
X0044000Y1130030
X0082500Y1130050
X0124270Y1130050
X0409950Y1157440
X0414390Y1130200
X0058400Y1186150
X0087290Y1274790
X0742000Y1275450
X0447800Y0096000
X0249000Y0862400
X0245000Y1003400
X0261000Y0991400
X0255000Y0994400
X0349000Y1085400
X0340000Y1093400
X0340000Y1086400
X0377170Y1110370
X0337890Y1135790
X0377170Y1135640
X0316200Y1153730
X0336500Y1153900
X0337730Y1116740
X0336500Y1175400
X0316200Y1128910
X0548900Y0185600
X0741200Y0174300
X0564500Y0180460
X0567460Y0190900
X0729000Y0191900
X0654440Y0346980
X0640230Y0381660
X0671800Y0243400
X0318420Y0204930
X0645800Y0267600
X0647900Y0212300
X0672000Y0150500
X0305290Y0183500
X0645770Y0411730
X0304000Y0200560
X0672300Y0235300
X0633400Y1087000
X0116400Y1346000
X0483400Y0471000
X0562000Y0890600
X0310950Y0509560
X0293700Y0510510
X0311850Y0541510
X0292000Y0540860
X0272200Y0225130
X0707400Y1643000
X0710010Y1609690
X0736990Y1627490
X0281480Y0336020
X0462700Y1165800
X0413900Y1149500
X0429600Y1149200
X0441400Y1149400
X0144950Y1137900
X0550700Y0786600
X0549000Y0806400
X0395930Y0519230
X0291400Y0472300
X0558900Y0390000
X0150600Y0818200
X0124100Y0983600
X0485900Y0538200
X0389400Y0538000
X0545300Y0464000
X0620200Y0463300
X0226400Y0477400
X0230500Y0490600
X0268500Y0478800
X0611900Y0390000
X0350600Y0461600
X0352800Y0531600
X0544000Y0882000
X0532000Y0882000
X0520000Y0882000
X0390030Y1131030
X0760400Y0719900
X0623810Y0318510
X0687060Y1627490
X0546200Y0093720
X0561440Y0070710
X0545600Y0069300
X0440300Y0123100
X0454000Y0154200
X0190550Y0143500
X0579100Y0120010
X0297000Y0140400
X0416900Y0739050
X0381900Y0739050
X0316500Y0463500
X0407400Y1618500
X0682400Y1117800
X0120400Y1227690
X0121990Y1302010
X0285000Y1566800
X0265000Y1566800
X0532700Y0737400
X0479000Y0747600
X0448000Y0771300
X0565300Y0829200
X0451600Y0805100
X0450100Y0814700
X0498000Y0856400
X0475000Y0392730
X0253100Y0537700
X0262000Y0522050
X0218900Y0356500
X0234400Y0361000
X0226900Y0354000
X0232400Y0369000
X0225400Y0363000
X0521100Y0216410
X0522100Y0227510
X0522100Y0235510
X0463000Y0825400
X0452000Y1149500
X0488100Y0300300
X0504300Y0444180
X0493000Y0333000
X0508200Y0419500
X0500350Y0303290
X0514120Y0437490
X0518400Y0427000
X0510430Y0309220
X0169100Y0103800
X0166500Y0257200
X0176650Y0277670
X0152600Y0188400
X0588500Y0564800
X0587000Y0544200
X0519000Y0370920
X0510400Y0317300
X0526360Y0380540
X0380290Y0311440
X0762540Y0274070
X0747100Y0453310
X0128000Y1144740
X0266200Y0449200
X0294400Y0392000
X0294600Y0450400
X0282900Y0396000
X0379100Y1529910
X0203940Y0386100
X0396200Y0387200
X0514330Y0350510
X0651160Y0354320
X0057250Y0717150
X0667600Y0824400
X0570400Y0812400
X0492800Y0134800
X0456900Y0140500
X0518300Y0142400
X0500700Y0118700
X0526800Y0106200
X0629700Y0120700
X0624610Y0091920
X0743900Y0054900
X0712300Y0054900
X0673300Y0055300
X0631900Y0054500
X0274800Y0078900
X0302900Y0077300
X0285200Y0094500
X0322400Y0083300
X0166500Y0085300
X0159900Y0039600
X0122400Y0038300
X0086000Y0036100
X0209000Y0095100
X0183000Y0060500
X0150500Y0060700
X0115000Y0060900
X0083700Y0060700
X0151500Y0098900
X0085200Y0098700
X0186600Y0133000
X0158300Y0136900
X0172700Y0155400
X0075600Y0171600
X0237700Y0535200
X0278700Y0537300
X0291500Y0590000
X0293700Y0647700
X0253900Y0688400
X0208900Y0691200
X0182600Y0691400
X0185900Y0791600
X0209000Y0791000
X0257600Y0796400
X0308900Y0787100
X0308100Y1016000
X0308900Y0881900
X0308900Y0738100
X0286900Y0738500
X0285800Y0711500
X0314700Y0657200
X0343100Y0664800
X0339400Y0706000
X0340100Y0730700
X0431400Y0726500
X0453300Y0703900
X0431500Y0702000
X0456100Y0654100
X0430500Y0661700
X0683600Y0741500
X0633000Y0744200
X0688200Y0790400
X0662200Y0806500
X0655500Y0774300
X0611100Y0762600
X0588500Y0762700
X0592900Y0780800
X0623000Y0785900
X0622100Y0808600
X0621900Y0837200
X0632300Y0881000
X0605000Y0879100
X0706100Y0904000
X0685900Y0903800
X0700000Y0953500
X0683800Y0953500
X0703600Y1005000
X0701100Y0977600
X0683800Y0993200
X0665200Y1127000
X0649800Y1217000
X0632200Y1216900
X0649800Y1241100
X0632000Y1241200
X0649600Y1266600
X0652000Y1315900
X0630500Y1315200
X0652400Y1368000
X0629700Y1368400
X0748650Y1372000
X0709900Y1371500
X0744200Y1443400
X0758300Y1573500
X0760900Y1621900
X0665500Y1649600
X0665400Y1602300
X0670300Y1549900
X0596400Y1531900
X0547500Y1530500
X0504400Y1531400
X0476300Y1531200
X0420300Y1592200
X0418000Y1570000
X0415100Y1517000
X0469200Y1464000
X0470000Y1498800
X0379300Y0924800
X0371800Y0886400
X0353800Y0874200
X0387800Y0872000
X0440300Y0897800
X0413900Y0921300
X0461600Y0920600
X0462800Y0878300
X0410200Y0880100
X0259500Y0886400
X0242300Y0920800
X0183700Y0942900
X0219600Y0946000
X0236800Y0953500
X0261700Y1017700
X0304600Y1077300
X0314800Y1033000
X0270300Y1105700
X0255400Y1096600
X0291000Y1158800
X0301100Y1206300
X0236400Y1233300
X0237100Y1196900
X0233900Y1158800
X0247600Y1128800
X0107200Y1117300
X0108300Y1094600
X0183100Y1075600
X0230200Y1094200
X0178900Y1097600
X0720400Y1687400
X0695000Y1687400
X0669600Y1687400
X0644200Y1687400
X0618800Y1687400
X0593400Y1687400
X0568000Y1687400
X0542600Y1687400
X0517200Y1687400
X0491800Y1687400
X0466400Y1687400
X0445200Y1687500
X0412500Y1688100
X0387100Y1688100
X0357300Y1688100
X0336300Y1688100
X0310900Y1688100
X0285500Y1688100
X0260100Y1688100
X0234700Y1688100
X0209300Y1688100
X0183900Y1688100
X0158500Y1688100
X0133100Y1688100
X0107700Y1688100
X0082300Y1688100
X0008200Y0065400
X0008200Y0090800
X0008200Y0116200
X0008200Y0141600
X0008200Y0167000
X0008200Y0192400
X0008200Y0217800
X0008200Y0243200
X0008200Y0268600
X0008200Y0294000
X0008200Y0319400
X0008200Y0344800
X0008200Y0370200
X0008200Y0395600
X0007900Y0430300
X0007900Y0455700
X0007900Y0481100
X0007900Y0531900
X0007900Y0557300
X0007900Y0582700
X0007900Y0608100
X0007900Y0633500
X0007900Y0658900
X0007900Y0684300
X0007900Y0709700
X0007900Y0735100
X0007900Y0760500
X0007900Y0785900
X0283200Y0813100
X0009300Y0900400
X0009300Y0925800
X0008100Y0942100
X0285600Y0897700
X0009300Y1052800
X0009300Y1078200
X0009300Y1103600
X0009300Y1129000
X0009300Y1154400
X0009300Y1179800
X0009300Y1230600
X0008000Y1294500
X0008300Y1333600
X0007800Y1348700
X0008100Y1260900
X0008100Y1391300
X0008000Y1421500
X0008000Y1446900
X0008000Y1472300
X0008000Y1497700
X0008000Y1523100
X0008000Y1548500
X0008000Y1573900
X0008000Y1599300
X0008000Y1624700
X0746500Y1687800
X0054700Y1688400
X0008400Y1644600
X0008300Y0051100
X0393600Y1151400
X0384900Y1151700
X0393900Y1163700
X0389310Y1157440
X0410350Y1165450
X0219700Y0982600
X0345400Y1043620
X0429700Y1382700
X0350000Y1116550
X0365050Y1126310
X0404850Y1112630
X0348000Y1184600
X0384800Y1163800
X0385910Y1186800
X0401810Y1174390
X0424560Y1184260
X0443740Y1188540
X0725400Y0918400
X0647900Y0930200
X0470500Y0567830
X0408500Y0567330
X0390500Y0581430
X0462000Y0311400
X0469770Y0326230
X0482000Y0384600
X0278200Y0479700
X0228630Y0507230
X0317500Y1023400
X0575200Y0071200
X0214950Y1138370
X0139400Y1008400
X0178200Y0993400
X0219100Y0968400
X0243700Y0985900
X0249000Y1046400
X0114100Y1070900
X0058120Y1012350
X0108470Y1166530
X0065770Y1166570
X0026670Y1166490
X0058120Y0855020
X0109100Y0913900
X0246000Y0899400
X0173200Y0846900
X0228000Y0829700
X0209000Y0829800
X0209100Y0821900
X0130900Y0860900
X0260070Y0203730
X0633300Y0317400
X0281500Y0315400
X0687060Y1667500
X0444450Y0860950
X0355550Y0860950
X0314150Y1517150
X0307280Y1527040
X0422900Y1610400
X0113010Y1600320
X0112940Y1667500
X0103100Y0982510
X0087810Y0953400
X0072400Y0972350
X0059680Y0951230
X0056100Y0963510
X0731950Y0956280
X0735300Y0978800
X0109400Y1407500
X0032900Y1408990
X0109750Y1244430
X0030090Y1319790
X0030250Y1244430
X0108490Y1319300
X0130400Y1335000
X0055000Y1615900
X0050000Y1608400
X0623600Y1000560
X0603400Y1003320
X0638660Y1003200
X0656650Y1003610
X0655300Y1019080
X0627100Y1058510
X0598700Y1019110
X0599700Y1036110
X0237500Y1505900
X0257500Y1069400
X0237500Y1485900
X0235500Y1067400
X0532910Y0727610
X0533700Y0756900
X0488100Y0743900
X0463000Y0747100
X0435900Y0800700
X0471500Y0803600
X0488000Y0856700
X0469000Y0842300
X0721700Y0180200
X0080800Y0919480
X0260950Y0562800
X0252600Y0521200
X0561800Y0786350
X0583000Y0876400
X0538940Y0825370
X0411480Y0270710
X0411640Y0262760
X0403480Y0270710
X0403560Y0262200
X0388520Y0270710
X0388300Y0262900
X0339700Y0302500
X0311200Y0320600
X0355930Y0247230
X0356500Y0262830
X0726100Y1089110
X0711820Y0968520
X0290110Y1107280
X0297600Y1107090
X0451480Y0247750
X0264100Y0146510
X0261320Y0328310
X0262900Y0322000
X0254900Y0323000
X0266400Y0334000
X0388520Y0302710
X0388520Y0278710
X0348610Y0302420
X0419540Y0223810
X0412140Y0223290
X0411710Y0247520
X0403260Y0247970
X0388530Y0247640
X0485410Y1148980
X0709700Y1039110
X0709700Y1029110
X0709700Y1019110
X0679550Y1018610
X0643150Y0976750
X0627100Y1084110
X0603600Y0977800
X0573600Y1019110
X0573100Y1036110
X0138800Y1364300
X0597300Y0563800
X0773700Y0303090
X0784430Y0252380
X0781400Y0202300
X0778130Y0324800
X0784500Y0195000
X0776060Y0227680
X0767060Y0225760
X0778760Y1101230
X0778290Y1237090
X0791100Y0072100
X0791100Y0097500
X0791100Y0122900
X0791100Y0148300
X0791100Y0173700
X0791100Y0199100
X0791100Y0249900
X0774700Y0909200
X0791900Y1045100
X0791900Y1070500
X0791900Y1095900
X0791900Y1121300
X0791900Y1146700
X0791900Y1172100
X0791900Y1197500
X0791900Y1222900
X0791900Y1248300
X0792000Y1269500
X0792000Y1294900
X0792000Y1320300
X0792000Y1345700
X0792000Y1371100
X0792000Y1396500
X0792000Y1421900
X0792000Y1447300
X0792000Y1472700
X0792000Y1498100
X0792000Y1523500
X0792000Y1548900
X0792000Y1574300
X0792000Y1599700
X0792000Y1625100
X0791900Y1645600
X0790700Y0052900
X0778760Y1113930
X0778760Y1126630
X0778290Y1249790
X0777190Y1264440
X0778290Y1300590
X0778290Y1313290
X0778290Y1325990
X0778290Y1338690
X0778290Y1351390
X0775000Y0928400
T03
X0390000Y1377770
X0390000Y1357770
X0189990Y1155000
X0169990Y1155000
X0666700Y0923710
X0686700Y0923710
X0533400Y1120740
X0533400Y1140740
X0082500Y0870900
X0102500Y0870900
X0087500Y1028400
X0107500Y1028400
X0410000Y1377770
X0410000Y1357770
X0410000Y1337770
X0539700Y0923710
X0559700Y0923710
X0579700Y0923710
X0102500Y0896400
X0082500Y0896400
X0062500Y0896400
X0107500Y1053400
X0087500Y1053400
X0067500Y1053400
X0265410Y1612410
X0285410Y1612410
X0305410Y1612410
X0325410Y1612410
X0474400Y1612610
X0494400Y1612610
X0514400Y1612610
X0534400Y1612610
X0577060Y1120740
X0597060Y1120740
X0617060Y1120740
X0637060Y1120740
X0637060Y1140740
X0617060Y1140740
X0597060Y1140740
X0577060Y1140740
T04
X0481000Y0110000
X0319000Y0110000
T05
X0514300Y1446700
X0514300Y1421300
X0514300Y1395900
X0514300Y1370500
X0514300Y1345100
X0514300Y1319700
X0514300Y1294300
X0514300Y1268900
X0285700Y1446670
X0285700Y1421270
X0285700Y1395870
X0285700Y1370470
X0285700Y1345070
X0285700Y1319670
X0285700Y1294270
X0285700Y1268870
X0631500Y0773950
X0606100Y0786650
X0631500Y0799350
X0606100Y0812050
X0631500Y0824750
X0606100Y0837450
X0631500Y0850150
X0606100Y0862850
T06
X0285700Y0034710
X0311100Y0034710
X0336500Y0034710
X0361900Y0034710
X0387300Y0034710
X0412700Y0034710
X0438100Y0034710
X0463500Y0034710
X0488900Y0034710
X0514300Y0034710
X0158700Y1660310
X0158700Y1634910
X0158700Y1330110
X0158700Y1304710
X0158700Y1279310
X0158700Y1253910
X0158700Y1228510
X0158700Y1203110
X0158700Y1558710
X0158700Y1533310
X0158700Y1507910
X0158700Y1482510
X0158700Y1457110
X0158700Y1431710
X0158700Y1406310
X0158700Y1380910
X0641300Y1203110
X0641300Y1228510
X0641300Y1253910
X0641300Y1279310
X0641300Y1304710
X0641300Y1330110
X0641300Y1355510
X0641300Y1380910
X0641300Y1421550
X0641300Y1446950
X0641300Y1472350
X0641300Y1497750
X0641300Y1523150
X0641300Y1548550
X0641300Y1573950
X0641300Y1599350
X0641300Y1650150
X0641300Y1624750
X0692990Y1574610
X0718390Y1574610
X0692990Y1549210
X0718390Y1549210
X0692990Y1523810
X0718390Y1523810
X0692990Y1498410
X0718390Y1498410
X0692990Y1473010
X0718390Y1473010
X0692990Y1447610
X0718390Y1447610
X0107010Y1447610
X0081610Y1447610
X0107010Y1473010
X0081610Y1473010
X0107010Y1498410
X0081610Y1498410
X0107010Y1523810
X0081610Y1523810
X0107010Y1549210
X0081610Y1549210
X0107010Y1574610
X0081610Y1574610
X0728800Y0780550
X0744000Y0755150
X0728800Y0881650
X0744000Y0856250
X0285700Y0060110
X0311100Y0060110
X0336500Y0060110
X0361900Y0060110
X0387300Y0060110
X0412700Y0060110
X0438100Y0060110
X0463500Y0060110
X0488900Y0060110
X0514300Y0060110
X0031700Y0568110
X0057100Y0568110
X0031700Y0542710
X0057100Y0542710
X0031700Y0517310
X0057100Y0517310
X0031700Y0491910
X0057100Y0491910
X0031700Y0466510
X0057100Y0466510
X0031700Y0441110
X0057100Y0441110
X0031700Y0415710
X0057100Y0415710
X0031700Y0390310
X0057100Y0390310
X0031700Y0364910
X0057100Y0364910
X0031700Y0339510
X0057100Y0339510
X0057100Y0085510
X0031700Y0085510
X0057100Y0110910
X0031700Y0110910
X0057100Y0136310
X0031700Y0136310
X0057100Y0161710
X0031700Y0161710
X0057100Y0187110
X0031700Y0187110
X0057100Y0212510
X0031700Y0212510
X0057100Y0237910
X0031700Y0237910
X0057100Y0263310
X0031700Y0263310
X0057100Y0288710
X0031700Y0288710
X0057100Y0314110
X0031700Y0314110
X0692100Y0441110
X0717500Y0441110
X0692100Y0415710
X0717500Y0415710
X0692100Y0390310
X0717500Y0390310
X0692100Y0364910
X0717500Y0364910
X0692100Y0339510
X0717500Y0339510
X0692100Y0314110
X0717500Y0314110
X0692100Y0288710
X0717500Y0288710
X0692100Y0263310
X0717500Y0263310
X0692100Y0237910
X0717500Y0237910
X0692100Y0212510
X0717500Y0212510
X0742900Y0441110
X0742900Y0415710
X0742900Y0390310
X0742900Y0364910
X0742900Y0339510
X0742900Y0314110
X0742900Y0288710
X0742900Y0263310
X0742900Y0237910
X0742900Y0212510
X0260300Y0618910
X0260300Y0593510
X0234900Y0618910
X0234900Y0593510
X0209500Y0618910
X0209500Y0593510
X0184100Y0618910
X0184100Y0593510
X0158700Y0618910
X0158700Y0593510
X0133300Y0618910
X0133300Y0593510
X0107900Y0618910
X0107900Y0593510
X0082500Y0618910
X0082500Y0593510
X0057100Y0618910
X0057100Y0593510
X0031700Y0618910
X0031700Y0593510
X0742900Y0669710
X0742900Y0644310
X0717500Y0669710
X0717500Y0644310
X0692100Y0669710
X0692100Y0644310
X0666700Y0669710
X0666700Y0644310
X0641300Y0669710
X0641300Y0644310
X0615900Y0669710
X0615900Y0644310
X0590500Y0669710
X0590500Y0644310
X0565100Y0669710
X0565100Y0644310
X0539700Y0669710
X0539700Y0644310
X0260300Y0669710
X0260300Y0644310
X0234900Y0669710
X0234900Y0644310
X0209500Y0669710
X0209500Y0644310
X0184100Y0669710
X0184100Y0644310
X0158700Y0669710
X0158700Y0644310
X0133300Y0669710
X0133300Y0644310
X0107900Y0669710
X0107900Y0644310
X0082500Y0669710
X0082500Y0644310
X0057100Y0669710
X0057100Y0644310
X0031700Y0669710
X0031700Y0644310
X0742900Y0618910
X0742900Y0593510
X0717500Y0618910
X0717500Y0593510
X0692100Y0618910
X0692100Y0593510
X0666700Y0618910
X0666700Y0593510
X0641300Y0618910
X0641300Y0593510
X0615900Y0618910
X0615900Y0593510
X0590500Y0618910
X0590500Y0593510
X0565100Y0618910
X0565100Y0593510
X0539700Y0618910
X0539700Y0593510
X0768300Y0441110
X0768300Y0415710
X0768300Y0390310
X0768300Y0364910
X0768300Y0339510
X0768300Y0314110
X0768300Y0288710
X0768300Y0263310
X0768300Y0237910
X0768300Y0212510
X0768300Y0669710
X0768300Y0644310
X0768300Y0618910
X0768300Y0593510
T07
X0664500Y0897150
X0664500Y0739650
T08
X0334000Y0095000
X0466000Y0095000
T09
X0030000Y0030000
X0030000Y1666200
X0695000Y0875550
X0695000Y0761250
X0770000Y1667500
X0770000Y0030000
M30
