M48
METRIC
T01C.65
T02C.825
;EXTENTS: -211.750 -149.660 321.650 282.140 
;LEADER: 12 
;HEADER: 
;CODE  : ASCII 
;FILE  : C:/_work_proj_CAD_REE/ek_ra8d1_v0300_es/hw/cad_ek_ra8d1_v0300_es/worklib/ek_ra8d1/physical/manufacturing/D018942_06_v03_ek_ra8d1_1-8.rou for board C:/_work_proj_CAD_REE/ek_ra8d1_v0300_es/hw/cad_ek_ra8d1_v0300_es/worklib/ek_ra8d1/physical/#Taaaadb26212.tmp, layers TOP to BOTTOM
%
G90
F1
M16
T02
M16
G00X0782120Y0952770
G40
M15
G01X0788880Y0952770
M16
T01
M16
G00X0754500Y0964150
G40
M15
G01X0756500Y0964150
M16
T02
M16
G00X0782120Y1024030
G40
M15
G01X0788880Y1024030
M16
T01
M16
G00X0754500Y1012650
G40
M15
G01X0756500Y1012650
M16
G00X0042700Y0863150
G40
M15
G01X0044700Y0863150
M16
G00X0042700Y0818650
G40
M15
G01X0044700Y0818650
M16
T02
M16
G00X0009120Y0882640
G40
M15
G01X0015880Y0882640
M16
G00X0009120Y0799160
G40
M15
G01X0015880Y0799160
M16
T01
M16
G00X0042700Y1020650
G40
M15
G01X0044700Y1020650
M16
G00X0042700Y0976150
G40
M15
G01X0044700Y0976150
M16
T02
M16
G00X0009120Y1040140
G40
M15
G01X0015880Y1040140
M16
G00X0009120Y0956660
G40
M15
G01X0015880Y0956660
M16
G40
M30
