M48
METRIC
T01C.1
T02C.2
T03C.8
T04C.83
T05C.9
T06C1.
T07C1.65
T08C1.45
T09C3.3
;LEADER: 12 
;HEADER: 
;CODE  : ASCII 
;FILE  : D018942_06_v03_ek_ra8d1-2-3.drl for  ... layers 02_GND and 03_SIG_H
;DESIGN: D018942_06_v03_ek_ra8d1.brd
;T01 Holesize 1. = 0.100000 Tolerance = +0.025000/-0.025000 PLATED MM Quantity = 241
%
G90
T01
X0555800Y0034710
X0256400Y0497000
X0173000Y0422000
X0174710Y0410390
X0191600Y0416000
X0335600Y0172000
X0606400Y0382700
X0409590Y0212030
X0448380Y0536350
X0448770Y0512020
X0501650Y0470750
X0445160Y0417210
X0509950Y0467850
X0447100Y0441020
X0509400Y0473900
X0452770Y0446020
X0474770Y0519390
X0473520Y0526900
X0456500Y0479350
X0467800Y0531100
X0455560Y0516620
X0461670Y0511370
X0449890Y0522810
X0440400Y0527500
X0428620Y0450500
X0435300Y0462120
X0440500Y0535230
X0431280Y0527280
X0429680Y0535400
X0424500Y0527230
X0424500Y0535230
X0416500Y0527830
X0405500Y0402160
X0416500Y0417500
X0412620Y0415500
X0425260Y0432380
X0416350Y0428080
X0432790Y0449960
X0415330Y0536400
X0403100Y0527000
X0188600Y0425950
X0205600Y0429300
X0199900Y0440430
X0392000Y0227100
X0383790Y0227440
X0405370Y0227460
X0407060Y0236170
X0367280Y0183840
X0383990Y0235220
X0423400Y0290320
X0443400Y0322600
X0529100Y0357000
X0432000Y0291230
X0328250Y0411430
X0444250Y0335900
X0415920Y0292460
X0376000Y0283230
X0397830Y0281030
X0376000Y0275230
X0416000Y0299230
X0384000Y0275230
X0446150Y0289120
X0424000Y0282400
X0432000Y0267230
X0424000Y0275230
X0432000Y0283230
X0432000Y0275230
X0440000Y0243230
X0448000Y0243230
X0439800Y0235330
X0390390Y0284010
X0123300Y0339660
X0213370Y0339430
X0368000Y0275230
X0113300Y0459500
X0122000Y0345400
X0215370Y0343930
X0195600Y0222430
X0305550Y0224140
X0423490Y0229260
X0414830Y0236400
X0415300Y0228400
X0427880Y0218550
X0349070Y0205270
X0423700Y0236000
X0208900Y0329100
X0177370Y0315760
X0375900Y0259200
X0150530Y0311770
X0206700Y0295600
X0456000Y0235230
X0463900Y0235600
X0454680Y0220120
X0458300Y0217970
X0456000Y0227230
X0464000Y0226800
X0498990Y0698400
X0480300Y0715000
X0522900Y0700700
X0483270Y0705870
X0613800Y0340800
X0602750Y0084120
X0579300Y0059600
X0562700Y0038600
X0547600Y0051700
X0555100Y0072060
X0549200Y0047250
X0569400Y0068730
X0604400Y0072500
X0611500Y0356300
X0386610Y0211790
X0354500Y0165500
X0375700Y0183520
X0338500Y0404430
X0416250Y0307350
X0229300Y0221100
X0399100Y0298900
X0337000Y0475230
X0399860Y0291360
X0439890Y0259120
X0206450Y0262450
X0367950Y0236040
X0256400Y0507000
X0377170Y0228400
X0383780Y0220370
X0645300Y0366230
X0375910Y0234430
X0375160Y0219340
X0367840Y0227440
X0374800Y0200700
X0365710Y0220220
X0367090Y0197980
X0432000Y0307230
X0338500Y0409430
X0424000Y0299230
X0338500Y0414430
X0438030Y0351710
X0354600Y0389600
X0347800Y0389600
X0338500Y0419430
X0424000Y0307100
X0353790Y0378760
X0353470Y0385160
X0338500Y0424430
X0337500Y0445520
X0338500Y0429430
X0443010Y0348500
X0392000Y0291230
X0336970Y0480030
X0367900Y0283230
X0337470Y0484210
X0338550Y0488630
X0384000Y0283230
X0337000Y0495230
X0359900Y0291200
X0226500Y0210400
X0383500Y0249430
X0146680Y0239720
X0376910Y0242780
X0158680Y0325870
X0368000Y0267230
X0376000Y0267230
X0223900Y0319200
X0440000Y0275230
X0440000Y0283230
X0448000Y0282750
X0440000Y0291230
X0434010Y0235530
X0440000Y0267130
X0422990Y0250220
X0165580Y0303670
X0208330Y0303500
X0159790Y0279070
X0213350Y0259200
X0283300Y0234100
X0367110Y0243430
X0430900Y0298000
X0364010Y0393140
X0364100Y0384080
X0338500Y0434430
X0338500Y0439430
X0452350Y0349750
X0367900Y0291230
X0337000Y0500230
X0376100Y0291200
X0337000Y0505230
X0337000Y0510230
X0384200Y0291200
X0270700Y0281800
X0276500Y0273200
X0383860Y0259630
X0310000Y0288300
X0384000Y0267230
X0356940Y0194670
X0360500Y0201800
X0153200Y0225100
X0376360Y0238610
X0438700Y0332900
X0440000Y0307230
X0453900Y0341030
X0453730Y0337030
X0174920Y0292200
X0206330Y0290930
X0371790Y0243010
X0199200Y0233400
X0191200Y0277000
X0208600Y0275200
X0209300Y0280600
X0183900Y0285300
X0160010Y0335070
X0211070Y0335530
X0169300Y0332400
X0218100Y0331400
X0105200Y0967200
X0435770Y0219230
X0424000Y0267230
X0233600Y0309000
X0428620Y0226810
X0347350Y0194150
X0436300Y0516800
X0448060Y0302700
X0405600Y0188200
X0440200Y0215600
X0432000Y0243720
X0472400Y0252100
X0447960Y0354930
X0448000Y0307230
X0279900Y0412500
X0260900Y0412500
X0124600Y0332700
X0208200Y0308800
X0150030Y0325270
X0205590Y0322850
X0198050Y0286550
X0208950Y0286260
X0198300Y0270500
X0207500Y0270300
X0553650Y1647850
X0087900Y0309100
X0409150Y0343700
X0464000Y0243230
M30
