M48
METRIC
T01C.1
T02C.2
T03C.8
T04C.83
T05C.9
T06C1.
T07C1.65
T08C1.45
T09C3.3
;LEADER: 12 
;HEADER: 
;CODE  : ASCII 
;FILE  : D018942_06_v03_ek_ra8d1-7-8.drl for  ... layers 07_GND and BOTTOM
;DESIGN: D018942_06_v03_ek_ra8d1.brd
;T01 Holesize 1. = 0.100000 Tolerance = +0.025000/-0.025000 PLATED MM Quantity = 150
%
G90
T01
X0560700Y0356230
X0562490Y0371530
X0448550Y0400650
X0448070Y0416120
X0419800Y0429900
X0560700Y0346230
X0561310Y0365330
X0560550Y0361160
X0560700Y0341230
X0561700Y0377400
X0560700Y0351230
X0501100Y0536800
X0513300Y0820000
X0309580Y0232020
X0373200Y0206050
X0370900Y0177000
X0385300Y0238300
X0525630Y0421230
X0712150Y1304150
X0758650Y1180950
X0764450Y1207850
X0554400Y0631000
X0554400Y0658000
X0552400Y0679000
X0519400Y0665000
X0502400Y0643000
X0376400Y0519000
X0376400Y0539000
X0418400Y0554000
X0443400Y0554000
X0485400Y0555000
X0542400Y0555000
X0524400Y0525000
X0528400Y0545000
X0509400Y0562000
X0508400Y0607000
X0521400Y0630000
X0520400Y0579000
X0543400Y0578000
X0507400Y0530000
X0528400Y0507000
X0542400Y0512000
X0529400Y0487000
X0543400Y0486000
X0733400Y0683000
X0753400Y0683000
X0703400Y0681000
X0613400Y0721000
X0598400Y0714000
X0618400Y0686000
X0740400Y0552000
X0737400Y0575000
X0708400Y0521000
X0677400Y0506000
X0606400Y0500000
X0630400Y0537000
X0676400Y0548000
X0715400Y0552000
X0707400Y0467000
X0676400Y0432000
X0628400Y0487000
X0598400Y0486000
X0596400Y0449000
X0582400Y0444000
X0582400Y0534000
X0655400Y0578000
X0680400Y0579000
X0705400Y0579000
X0463400Y0462000
X0639400Y0401000
X0638400Y0392000
X0535400Y0385400
X0612850Y0468000
X0536100Y0464150
X0153300Y0360900
X0175900Y0335400
X0158600Y0316600
X0191800Y0315900
X0204900Y0288900
X0206900Y0251100
X0207600Y0327400
X0175900Y0301800
X0156600Y0331400
X0173700Y0363100
X0142700Y0386500
X0126300Y0357300
X0108000Y0403600
X0098200Y0429200
X0119000Y0437900
X0102900Y0456900
X0121500Y0489000
X0100700Y0512300
X0121500Y0523700
X0100400Y0548800
X0085800Y0417500
X0082900Y0443400
X0078500Y0470400
X0079900Y0493700
X0076300Y0522900
X0078500Y0548800
X0119700Y0575500
X0102600Y0572900
X0073000Y0574700
X0188300Y0406900
X0161700Y0408000
X0132100Y0411300
X0190100Y0440100
X0157700Y0441900
X0136100Y0444100
X0190500Y0471500
X0160200Y0471800
X0135800Y0474000
X0187900Y0513400
X0158800Y0510300
X0137200Y0509200
X0187400Y0543200
X0161500Y0542600
X0136500Y0543400
X0185600Y0572000
X0159200Y0572600
X0078300Y0573800
X0539310Y0081210
X0441300Y0505500
X0431200Y0503800
X0412200Y0504000
X0402300Y0236700
X0435800Y0256400
X0434800Y0261500
X0467570Y0231730
X0498700Y0103200
X0512200Y0114800
X0424000Y0123600
X0400000Y0124500
X0376000Y0124000
X0352000Y0123500
X0424000Y0096900
X0392000Y0099200
X0376000Y0099400
X0352000Y0100400
X0476330Y0199430
X0452500Y0175500
X0432500Y0175700
X0394730Y0180930
X0262600Y0224300
X0295600Y0220100
X0295800Y0257600
X0387750Y0220810
X0379400Y0220800
X0788400Y0576000
X0791400Y0259000
M30
