M48
METRIC
T01C.1
T02C.2
T03C.8
T04C.83
T05C.9
T06C1.
T07C1.65
T08C1.45
T09C3.3
;LEADER: 12 
;HEADER: 
;CODE  : ASCII 
;FILE  : D018942_06_v03_ek_ra8d1-3-6.drl for  ... layers 03_SIG_H and 06_SIG_V
;DESIGN: D018942_06_v03_ek_ra8d1.brd
;T02 Holesize 1. = 0.200000 Tolerance = +0.050000/-0.050000 PLATED MM Quantity = 199
%
G90
T02
X0454600Y1033800
X0065700Y0654700
X0098600Y0681800
X0073410Y0661000
X0437650Y1041250
X0373100Y0642500
X0439900Y0400200
X0479750Y0517700
X0490700Y0512200
X0469080Y0518630
X0428400Y0753100
X0359500Y0753100
X0445770Y0527490
X0122200Y0686400
X0117000Y0634700
X0533400Y1046100
X0547900Y0548900
X0418230Y0351110
X0531900Y1054800
X0444150Y0328300
X0334600Y0379570
X0385850Y0385900
X0751700Y1329100
X0491400Y0281700
X0758500Y1406300
X0762300Y1355700
X0364700Y0331400
X0489100Y1574800
X0470200Y0633300
X0562800Y0537800
X0399790Y0285910
X0493100Y1498000
X0476300Y0657600
X0540540Y0554140
X0355310Y0353550
X0492500Y1551800
X0474600Y0649000
X0626700Y0542700
X0419180Y0333620
X0478400Y1521100
X0463010Y0669710
X0573900Y0550800
X0366700Y0354700
X0409540Y0354350
X0398710Y0335150
X0413670Y0327100
X0403600Y0349840
X0459330Y1507770
X0386260Y0308970
X0339900Y0769100
X0354700Y1486800
X0057100Y0764600
X0116100Y0454500
X0315900Y0392240
X0332900Y0763200
X0343300Y1509400
X0047000Y0757300
X0340700Y0757900
X0359200Y1536700
X0082500Y0752000
X0131700Y1269400
X0134300Y1248100
X0662700Y1182400
X0553400Y1182400
X0685600Y1175400
X0557300Y1173600
X0697100Y1165700
X0607600Y1164000
X0710100Y1163600
X0549100Y1157300
X0680800Y1108200
X0450000Y0628000
X0291300Y0326100
X0290000Y0615950
X0419050Y0615950
X0606100Y0603400
X0406350Y0593400
X0515550Y0587650
X0393650Y0587650
X0522800Y0706500
X0477700Y0706500
X0499000Y0727000
X0451400Y0727000
X0513300Y0810000
X0515600Y0791500
X0490600Y0716200
X0544000Y0716200
X0731400Y0329200
X0485350Y0711500
X0532000Y0711500
X0613200Y0544100
X0380950Y0539400
X0241200Y1578900
X0386800Y0206050
X0381780Y0183550
X0235100Y0221500
X0394780Y0355230
X0546690Y1279310
X0763700Y1281300
X0370700Y0222480
X0389640Y0221600
X0639130Y0366230
X0295130Y0223960
X0324460Y0213160
X0291700Y0212900
X0370120Y0203970
X0309910Y0214710
X0372380Y0195570
X0371870Y0379670
X0340130Y0392480
X0356060Y0366710
X0324700Y0374100
X0226500Y0204900
X0055900Y1583600
X0368500Y0168000
X0061200Y1577900
X0395600Y0239900
X0327600Y0773500
X0338500Y1550700
X0087300Y0769800
X0150640Y0579170
X0447200Y1422300
X0137200Y0574600
X0499920Y0285390
X0479900Y0291830
X0735000Y1111700
X0609000Y0553100
X0617400Y1090700
X0707350Y1089150
X0580000Y0532000
X0682200Y0532000
X0717400Y1108700
X0651400Y1116500
X0583450Y0525250
X0707550Y0525250
X0145400Y1386000
X0164600Y1214600
X0342600Y0370720
X0318880Y0377780
X0349560Y0365070
X0308460Y0372630
X0361750Y0363160
X0304050Y0367580
X0214800Y1090800
X0270800Y0746400
X0680800Y1097300
X0677400Y1075300
X0142280Y0569610
X0164100Y0567800
X0150900Y0561700
X0223500Y1125400
X0316400Y0711400
X0298600Y1469800
X0256900Y1541700
X0762950Y1524600
X0362240Y0195480
X0352700Y0198100
X0245200Y0220900
X0071700Y0630900
X0185600Y1533800
X0114400Y0971700
X0440490Y0221540
X0044400Y0699300
X0145000Y0550400
X0223300Y1497750
X0760900Y1321200
X0300000Y1522000
X0739600Y1339200
X0554500Y1230600
X0434610Y0226370
X0556400Y1370500
X0597210Y1394490
X0597210Y1203110
X0754000Y1202000
X0341550Y0194150
X0442570Y0521600
X0404600Y0161300
X0597600Y1104100
X0317700Y1043600
X0321000Y0693600
X0054200Y1201000
X0095700Y1216800
X0178570Y1446670
X0198800Y1332100
X0208100Y1304300
X0212600Y1531200
X0257200Y0717360
X0455200Y0788600
X0500600Y0788300
X0523600Y0789000
X0500100Y0801400
X0517600Y0802500
X0411700Y0338750
X0136800Y1259300
X0575800Y1255400
X0629700Y0919600
X0767600Y1097300
X0773300Y1418300
X0781700Y1224400
M30
