M48
METRIC
T01C.1
T02C.2
T03C.8
T04C.83
T05C.9
T06C1.
T07C1.65
T08C1.45
T09C3.3
;LEADER: 12 
;HEADER: 
;CODE  : ASCII 
;FILE  : D018942_06_v03_ek_ra8d1-6-7.drl for  ... layers 06_SIG_V and 07_GND
;DESIGN: D018942_06_v03_ek_ra8d1.brd
;T01 Holesize 1. = 0.100000 Tolerance = +0.025000/-0.025000 PLATED MM Quantity = 141
%
G90
T01
X0502800Y0023700
X0476800Y0026000
X0452900Y0023200
X0426700Y0024700
X0400400Y0024500
X0374200Y0024500
X0349900Y0024700
X0323800Y0025000
X0299100Y0025800
X0554170Y0356230
X0554170Y0371230
X0444750Y0402220
X0452300Y0416120
X0419800Y0433900
X0554170Y0346230
X0554200Y0366000
X0554170Y0361230
X0554170Y0341230
X0554140Y0376240
X0554170Y0351230
X0505650Y0535270
X0513300Y0815800
X0314720Y0232020
X0380450Y0206050
X0643750Y0170970
X0370900Y0173000
X0390300Y0238300
X0529670Y0421230
X0141000Y0559200
X0120600Y0585000
X0094600Y0583100
X0069600Y0583500
X0531600Y0605800
X0552900Y0606700
X0525700Y0627600
X0525500Y0664400
X0525300Y0672500
X0162500Y0371400
X0162200Y0356900
X0208600Y0356300
X0223300Y0371400
X0260000Y0365400
X0284500Y0365700
X0271700Y0376300
X0272500Y0356000
X0306800Y0355800
X0242300Y0355600
X0240900Y0367700
X0299700Y0376700
X0250800Y0376200
X0330500Y0390900
X0304600Y0391900
X0273300Y0392100
X0261500Y0393300
X0239300Y0415400
X0279500Y0438200
X0236400Y0438300
X0215500Y0438600
X0156600Y0542100
X0372300Y0543600
X0420550Y0536400
X0454000Y0447900
X0464600Y0443000
X0452700Y0430100
X0434400Y0437500
X0481100Y0459100
X0451900Y0458400
X0468000Y0474100
X0451900Y0471900
X0435200Y0513300
X0448500Y0515000
X0459900Y0521200
X0447500Y0504300
X0441200Y0498100
X0424500Y0501300
X0424500Y0489100
X0418400Y0475200
X0426400Y0464900
X0452300Y0489700
X0478800Y0488800
X0473100Y0510800
X0576500Y0446000
X0576200Y0460500
X0560400Y0476000
X0535800Y0484100
X0520600Y0486800
X0570400Y0382900
X0570500Y0401200
X0635900Y0374100
X0644900Y0359900
X0573700Y0340000
X0547900Y0330900
X0529000Y0344200
X0532300Y0285700
X0634400Y0308700
X0618500Y0285800
X0629100Y0296100
X0677800Y0314100
X0665000Y0310500
X0662700Y0318200
X0661000Y0289100
X0653700Y0302400
X0633600Y0281200
X0679000Y0282000
X0678700Y0297800
X0757900Y0180100
X0755800Y0193300
X0740100Y0193600
X0260700Y0046700
X0276700Y0046200
X0324400Y0068300
X0349200Y0068600
X0374800Y0068700
X0398300Y0067300
X0426300Y0067300
X0450600Y0069100
X0476000Y0070800
X0502100Y0070600
X0525000Y0047800
X0349170Y0097570
X0454300Y0105700
X0278200Y0233900
X0276500Y0217500
X0326700Y0142500
X0278300Y0165600
X0321100Y0127200
X0241500Y0206600
X0219400Y0194500
X0179900Y0269000
X0303700Y0271000
X0327300Y0249100
X0295000Y0234200
X0244400Y0284800
X0172300Y0291300
X0232200Y0295000
X0246000Y0313700
X0792900Y0311300
X0791200Y0291600
X0777300Y0276000
X0792700Y0268100
X0775400Y0194400
M30
