G04 ================== begin FILE IDENTIFICATION RECORD ==================*
G04 Layout Name:  D018942_06_v03_ek_ra8d1.brd*
G04 Film Name:    PASTEMASK_BOTTOM*
G04 File Format:  Gerber RS274X*
G04 File Origin:  Cadence Allegro 22.1-S002*
G04 Origin Date:  Thu Mar 16 08:59:47 2023*
G04 *
G04 Layer:  VIA CLASS/PASTEMASK_BOTTOM*
G04 Layer:  PIN/PASTEMASK_BOTTOM*
G04 Layer:  PACKAGE GEOMETRY/PASTEMASK_BOTTOM*
G04 Layer:  BOARD GEOMETRY/OUTLINE*
G04 *
G04 Offset:    (0.000 0.000)*
G04 Mirror:    No*
G04 Mode:      Positive*
G04 Rotation:  0*
G04 FullContactRelief:  No*
G04 UndefLineWidth:     0.100*
G04 ================== end FILE IDENTIFICATION RECORD ====================*
%FSLAX35Y35*MOMM*%
%IR0*IPPOS*OFA0.00000B0.00000*MIA0B0*SFA1.00000B1.00000*%
%ADD19R,.5X1.1*%
%ADD14R,1.X.9*%
%ADD25R,.9X1.*%
%ADD18C,1.3*%
%AMMACRO26*
21,1,.57,.62,0.0,0.0,135.*%
%ADD26MACRO26*%
%ADD17R,.9X1.9*%
%ADD29R,.9X2.9*%
%ADD23R,.95X1.45*%
%ADD24R,1.45X.95*%
%ADD20R,.5X.3*%
%ADD11R,.3X.5*%
%ADD27R,.8X.3*%
%ADD28R,.3X.8*%
%ADD22R,.25X.5*%
%AMMACRO30*
4,1,40,.375,.15,
.375,-.15,
.37424,-.158682,
.371985,-.167101,
.368301,-.175,
.363302,-.182139,
.357139,-.188302,
.35,-.193301,
.342101,-.196985,
.333682,-.19924,
.325,-.2,
-.325,-.2,
-.333682,-.19924,
-.342101,-.196985,
-.35,-.193301,
-.357139,-.188302,
-.363302,-.182139,
-.368301,-.175,
-.371985,-.167101,
-.37424,-.158682,
-.375,-.15,
-.375,.15,
-.37424,.158682,
-.371985,.167101,
-.368301,.175,
-.363302,.182139,
-.357139,.188302,
-.35,.193301,
-.342101,.196985,
-.333682,.19924,
-.325,.2,
.325,.2,
.333682,.19924,
.342101,.196985,
.35,.193301,
.357139,.188302,
.363302,.182139,
.368301,.175,
.371985,.167101,
.37424,.158682,
.375,.15,
0.0*
%
%ADD30MACRO30*%
%ADD10C,.5*%
%ADD15R,.9X.24*%
%ADD16R,.24X.9*%
%ADD21R,.425X.5*%
%ADD12R,.62X.57*%
%ADD13R,.57X.62*%
%ADD31R,.85X.85*%
%ADD32C,.1*%
%ADD33C,.15*%
G75*
%LPD*%
G75*
G54D10*
X400000Y400000D03*
X400000Y7275000D03*
X400000Y16575000D03*
X7600000Y400000D03*
X7600000Y7285000D03*
X7607000Y16584000D03*
G54D11*
X2174000Y4542500D03*
X2174000Y4637500D03*
X2224000Y4542500D03*
X2274000Y4542500D03*
X2274000Y4637500D03*
X2224000Y4637500D03*
X2324000Y4542500D03*
X2324000Y4637500D03*
X2419000Y4547500D03*
X2469000Y4547500D03*
X2519000Y4547500D03*
X2519000Y4642500D03*
X2469000Y4642500D03*
X2419000Y4642500D03*
X2569000Y4547500D03*
X2569000Y4642500D03*
X2664000Y4547500D03*
X2714000Y4547500D03*
X2764000Y4547500D03*
X2764000Y4642500D03*
X2714000Y4642500D03*
X2664000Y4642500D03*
X2814000Y4547500D03*
X2814000Y4642500D03*
G54D20*
X3815500Y3995200D03*
X3815500Y4145200D03*
X3815500Y4095200D03*
X3815500Y4045200D03*
X3815500Y4265200D03*
X3815500Y4215200D03*
X3815500Y4365200D03*
X3815500Y4315200D03*
X3805500Y4715200D03*
X3805500Y4815200D03*
X3805500Y4765200D03*
X3805500Y4930200D03*
X3805500Y4865200D03*
X3805500Y5080200D03*
X3805500Y5030200D03*
X3805500Y4980200D03*
X3910500Y3995200D03*
X3910500Y4045200D03*
X3910500Y4095200D03*
X3910500Y4145200D03*
X3910500Y4215200D03*
X3910500Y4265200D03*
X3910500Y4315200D03*
X3910500Y4365200D03*
X3900500Y4715200D03*
X3900500Y4765200D03*
X3900500Y4815200D03*
X3900500Y4930200D03*
X3900500Y4865200D03*
X3900500Y4980200D03*
X3900500Y5030200D03*
X3900500Y5080200D03*
X4537500Y4011200D03*
X4537500Y4111200D03*
X4537500Y4061200D03*
X4526500Y4226200D03*
X4537500Y4161200D03*
X4526500Y4376200D03*
X4526500Y4326200D03*
X4526500Y4276200D03*
X4632500Y4011200D03*
X4632500Y4061200D03*
X4632500Y4111200D03*
X4621500Y4226200D03*
X4632500Y4161200D03*
X4621500Y4276200D03*
X4621500Y4326200D03*
X4621500Y4376200D03*
X4850500Y4923200D03*
X4850500Y5073200D03*
X4850500Y5023200D03*
X4850500Y4973200D03*
X4945500Y4923200D03*
X4945500Y4973200D03*
X4945500Y5023200D03*
X4945500Y5073200D03*
G54D12*
X2365000Y4976300D03*
X2365000Y5072300D03*
X3640000Y2504300D03*
X3640000Y2600300D03*
X3794000Y2056000D03*
X3794000Y2152000D03*
X3810000Y2504300D03*
X3810000Y2600300D03*
X3818500Y2697800D03*
X3818500Y2793800D03*
X3905500Y2028100D03*
X3905500Y2124100D03*
X3960000Y2504300D03*
X3960000Y2600300D03*
X3955000Y2929300D03*
X3955000Y3025300D03*
X4035000Y1905300D03*
X4035000Y1809300D03*
X4035000Y1989300D03*
X4035000Y2085300D03*
X4175000Y1994300D03*
X4175000Y2090300D03*
X4095000Y2304300D03*
X4190000Y2504300D03*
X4095000Y2400300D03*
X4190000Y2600300D03*
X4095000Y2872000D03*
X4095000Y2968000D03*
X4205000Y2304300D03*
X4205000Y2400300D03*
X4199000Y2872000D03*
X4199000Y2968000D03*
X4470100Y1420800D03*
X4470100Y1516800D03*
X4470000Y5100300D03*
X4470000Y5004300D03*
X4685000Y1994300D03*
X4685000Y2090300D03*
X4880000Y8396000D03*
X4880000Y8492000D03*
X4987000Y879100D03*
X4987000Y975100D03*
X4980000Y8396000D03*
X4980000Y8492000D03*
X5080000Y8396000D03*
X5080000Y8492000D03*
X5200000Y8396000D03*
X5200000Y8492000D03*
X5200000Y8752000D03*
X5200000Y8656000D03*
X5320000Y8396000D03*
X5320000Y8492000D03*
X5320000Y8752000D03*
X5320000Y8656000D03*
X5490000Y8196000D03*
X5490000Y8292000D03*
X5440000Y8396000D03*
X5440000Y8492000D03*
X5440000Y8752000D03*
X5440000Y8656000D03*
X5590000Y8196000D03*
X5590000Y8292000D03*
X6034000Y9869200D03*
X6034000Y9965200D03*
X6271000Y10749100D03*
X6271000Y10653100D03*
X6386600Y9868000D03*
X6386600Y9964000D03*
G54D21*
X3819000Y7455000D03*
X3819000Y7605000D03*
X4169000Y7455000D03*
X4169000Y7605000D03*
G54D30*
X5252000Y747100D03*
X5252000Y877100D03*
X5462000Y747100D03*
X5462000Y812100D03*
X5462000Y877100D03*
G54D31*
X5620000Y8476500D03*
X5620000Y8811500D03*
G54D13*
X2511000Y5280000D03*
X2626000Y2165200D03*
X2607000Y5280000D03*
X2722000Y2165200D03*
X2667000Y4874300D03*
X2763000Y4874300D03*
X3397000Y2407300D03*
X3397000Y2697300D03*
X3396000Y2852500D03*
X3397000Y2952300D03*
X3493000Y2407300D03*
X3493000Y2697300D03*
X3492000Y2852500D03*
X3493000Y2952300D03*
X4077000Y4982300D03*
X4077000Y5102300D03*
X4173000Y4982300D03*
X4173000Y5102300D03*
X4267000Y4982300D03*
X4262000Y5102300D03*
X4312000Y7854000D03*
X4347000Y2482300D03*
X4427000Y2627300D03*
X4363000Y4982300D03*
X4358000Y5102300D03*
X4408000Y7854000D03*
X4512000Y2317300D03*
X4443000Y2482300D03*
X4523000Y2627300D03*
X4608000Y2317300D03*
X4562000Y7614000D03*
X4658000Y7614000D03*
X4562000Y7734000D03*
X4658000Y7734000D03*
X4562000Y7854000D03*
X4658000Y7854000D03*
X4557000Y7984000D03*
X4653000Y7984000D03*
X4561000Y8141000D03*
X4657000Y8141000D03*
X4706000Y4620000D03*
X4802000Y4620000D03*
X4876000Y8100000D03*
X4972000Y8100000D03*
X4951000Y8203000D03*
X5056000Y4560000D03*
X5047000Y8203000D03*
X5152000Y4560000D03*
X5366000Y3910000D03*
X5366500Y4568500D03*
X5314000Y4761000D03*
X5462000Y3910000D03*
X5462500Y4568500D03*
X5410000Y4761000D03*
X5686000Y3980000D03*
X5782000Y3980000D03*
X5772000Y8124000D03*
X5823000Y10191100D03*
X5833000Y10361100D03*
X5926000Y3980000D03*
X5868000Y8124000D03*
X5919000Y10191100D03*
X5929000Y10361100D03*
X6022000Y3980000D03*
X6196000Y3910000D03*
X6105500Y4549500D03*
X6099500Y4759000D03*
X6195500Y4759000D03*
X6292000Y3910000D03*
X6201500Y4549500D03*
X6512000Y8244000D03*
X6608000Y8244000D03*
X6621000Y10190800D03*
X6717000Y10190800D03*
G54D22*
X3869000Y7455000D03*
X3919000Y7455000D03*
X3919000Y7605000D03*
X3869000Y7605000D03*
X3969000Y7455000D03*
X4019000Y7455000D03*
X4019000Y7605000D03*
X3969000Y7605000D03*
X4069000Y7455000D03*
X4119000Y7455000D03*
X4119000Y7605000D03*
X4069000Y7605000D03*
G54D32*
G01X0Y300000D02*
X0Y16662000D01*
G02X300000Y16962000I300000J0D01*
G01X7700000Y16962000D01*
G02X8000000Y16662000I37J-299963D01*
G01X8000000Y300000D01*
G02X7700000Y0I-300000J0D01*
G01X300000Y0D01*
G02X0Y300000I0J300000D01*
G54D23*
X4105000Y3267300D03*
X4305000Y3267300D03*
G54D14*
X2531000Y5473000D03*
X2531000Y5633000D03*
X3275000Y2467300D03*
X3275000Y2627300D03*
X5122000Y897100D03*
X5122000Y1057100D03*
G54D33*
G01X7700000Y16960000D02*
G02X8000000Y16660000I0J-300000D01*
G01X8000000Y300000D01*
G02X7700000Y0I-300000J0D01*
G01X300000Y0D01*
G02X0Y300000I0J300000D01*
G01X0Y16660000D01*
G02X300000Y16960000I300000J0D01*
G01X300000Y16960000D02*
X7700000Y16960000D01*
G54D15*
X2701000Y1787300D03*
X2701000Y1887300D03*
X2701000Y1837300D03*
X2701000Y1987300D03*
X2701000Y1937300D03*
X2701000Y2037300D03*
X2961000Y1787300D03*
X2961000Y1837300D03*
X2961000Y1887300D03*
X2961000Y1937300D03*
X2961000Y1987300D03*
X2961000Y2037300D03*
G54D24*
X4325000Y1872300D03*
X4325000Y2072300D03*
X4525000Y1872300D03*
X4525000Y2072300D03*
X5830000Y8444000D03*
X5830000Y8644000D03*
G54D16*
X2806000Y1732300D03*
X2856000Y1732300D03*
X2856000Y2092300D03*
X2806000Y2092300D03*
G54D25*
X4440000Y3262300D03*
X4600000Y3262300D03*
X5592000Y807100D03*
X5752000Y807100D03*
G54D17*
X2831000Y1912300D03*
G54D26*
X4686100Y8307900D03*
X4753900Y8240100D03*
X4746100Y8367900D03*
X4813900Y8300100D03*
G54D27*
X4721000Y4112300D03*
X4721000Y4062300D03*
X4721000Y4262300D03*
X4721000Y4212300D03*
X4721000Y4162300D03*
X4721000Y4362300D03*
X4721000Y4312300D03*
X4721000Y4412300D03*
X4931000Y4062300D03*
X4931000Y4112300D03*
X4931000Y4162300D03*
X4931000Y4212300D03*
X4931000Y4262300D03*
X4931000Y4312300D03*
X4931000Y4362300D03*
X4931000Y4412300D03*
X5330000Y3412300D03*
X5330000Y3512300D03*
X5330000Y3462300D03*
X5330000Y3662300D03*
X5330000Y3612300D03*
X5330000Y3562300D03*
X5330000Y3762300D03*
X5330000Y3712300D03*
X5331000Y4112300D03*
X5331000Y4062300D03*
X5331000Y4262300D03*
X5331000Y4212300D03*
X5331000Y4162300D03*
X5331000Y4362300D03*
X5331000Y4312300D03*
X5331000Y4412300D03*
X5540000Y3412300D03*
X5540000Y3462300D03*
X5540000Y3512300D03*
X5540000Y3562300D03*
X5540000Y3612300D03*
X5540000Y3662300D03*
X5540000Y3712300D03*
X5540000Y3762300D03*
X5541000Y4062300D03*
X5541000Y4112300D03*
X5541000Y4162300D03*
X5541000Y4212300D03*
X5541000Y4262300D03*
X5541000Y4312300D03*
X5541000Y4362300D03*
X5541000Y4412300D03*
X6138000Y3412300D03*
X6138000Y3512300D03*
X6138000Y3462300D03*
X6138000Y3662300D03*
X6138000Y3612300D03*
X6138000Y3562300D03*
X6138000Y3762300D03*
X6138000Y3712300D03*
X6139000Y4119300D03*
X6139000Y4069300D03*
X6139000Y4219300D03*
X6139000Y4169300D03*
X6139000Y4369300D03*
X6139000Y4319300D03*
X6139000Y4269300D03*
X6139000Y4419300D03*
X6348000Y3412300D03*
X6348000Y3462300D03*
X6348000Y3512300D03*
X6348000Y3562300D03*
X6348000Y3612300D03*
X6348000Y3662300D03*
X6348000Y3712300D03*
X6348000Y3762300D03*
X6349000Y4069300D03*
X6349000Y4119300D03*
X6349000Y4169300D03*
X6349000Y4219300D03*
X6349000Y4269300D03*
X6349000Y4319300D03*
X6349000Y4369300D03*
X6349000Y4419300D03*
G54D18*
X3190000Y1100000D03*
X4810000Y1100000D03*
G54D28*
X4801000Y4032300D03*
X4851000Y4032300D03*
X4801000Y4442300D03*
X4851000Y4442300D03*
X5410000Y3382300D03*
X5460000Y3382300D03*
X5410000Y3792300D03*
X5460000Y3792300D03*
X5411000Y4032300D03*
X5461000Y4032300D03*
X5411000Y4442300D03*
X5461000Y4442300D03*
X6218000Y3382300D03*
X6268000Y3382300D03*
X6218000Y3792300D03*
X6268000Y3792300D03*
X6219000Y4039300D03*
X6269000Y4039300D03*
X6219000Y4449300D03*
X6269000Y4449300D03*
G54D19*
X3600000Y875000D03*
X3520000Y875000D03*
X3600000Y1325000D03*
X3520000Y1325000D03*
X3680000Y875000D03*
X3680000Y1325000D03*
X3760000Y875000D03*
X3760000Y1325000D03*
X3920000Y875000D03*
X3840000Y875000D03*
X3920000Y1325000D03*
X3840000Y1325000D03*
X4000000Y875000D03*
X4000000Y1325000D03*
X4160000Y875000D03*
X4080000Y875000D03*
X4160000Y1325000D03*
X4080000Y1325000D03*
X4240000Y875000D03*
X4240000Y1325000D03*
X4400000Y875000D03*
X4320000Y875000D03*
X4400000Y1325000D03*
X4320000Y1325000D03*
X4480000Y875000D03*
X4480000Y1325000D03*
G54D29*
X4826000Y4237300D03*
X5435000Y3587300D03*
X5436000Y4237300D03*
X6243000Y3587300D03*
X6244000Y4244300D03*
M02*
