G04 ================== begin FILE IDENTIFICATION RECORD ==================*
G04 Layout Name:  D018942_06_v03_ek_ra8d1.brd*
G04 Film Name:    PASTEMASK_TOP*
G04 File Format:  Gerber RS274X*
G04 File Origin:  Cadence Allegro 22.1-S002*
G04 Origin Date:  Thu Mar 16 08:59:47 2023*
G04 *
G04 Layer:  VIA CLASS/PASTEMASK_TOP*
G04 Layer:  PIN/PASTEMASK_TOP*
G04 Layer:  PACKAGE GEOMETRY/PASTEMASK_TOP*
G04 Layer:  BOARD GEOMETRY/OUTLINE*
G04 *
G04 Offset:    (0.000 0.000)*
G04 Mirror:    No*
G04 Mode:      Positive*
G04 Rotation:  0*
G04 FullContactRelief:  No*
G04 UndefLineWidth:     0.100*
G04 ================== end FILE IDENTIFICATION RECORD ====================*
%FSLAX35Y35*MOMM*%
%IR0*IPPOS*OFA0.00000B0.00000*MIA0B0*SFA1.00000B1.00000*%
%AMMACRO44*
4,1,32,-.275,-.037,
.075,-.037,
.075,-.112,
.076519,-.129365,
.081031,-.146202,
.088397,-.162,
.098396,-.176279,
.110721,-.188604,
.125,-.198603,
.140798,-.205969,
.157635,-.210481,
.175,-.212,
.192365,-.210481,
.209202,-.205969,
.225,-.198603,
.239279,-.188604,
.251604,-.176279,
.261603,-.162,
.268969,-.146202,
.273481,-.129365,
.275,-.112,
.275,.088,
.273101,.109706,
.267462,.130753,
.258253,.1505,
.245756,.168348,
.230348,.183756,
.2125,.196253,
.192753,.205462,
.171706,.211101,
.15,.213,
-.275,.213,
-.275,-.037,
0.0*
%
%ADD44MACRO44*%
%AMMACRO67*
4,1,22,-.95,.55,
-.95,-1.05,
.95,-1.05,
.95,.55,
.942404,.636824,
.919846,.72101,
.883013,.8,
.833022,.871394,
.771394,.933022,
.7,.983013,
.62101,1.019846,
.536824,1.042404,
.45,1.05,
-.45,1.05,
-.536824,1.042404,
-.62101,1.019846,
-.7,.983013,
-.771394,.933022,
-.833022,.871394,
-.883013,.8,
-.919846,.72101,
-.942404,.636824,
-.95,.55,
0.0*
%
%ADD67MACRO67*%
%ADD61R,1.5X.3*%
%ADD62R,.3X1.5*%
%AMMACRO51*
4,1,32,-.075,-.112,
-.075,-.037,
.275,-.037,
.275,.213,
-.15,.213,
-.171706,.211101,
-.192753,.205462,
-.2125,.196253,
-.230348,.183756,
-.245756,.168348,
-.258253,.1505,
-.267462,.130753,
-.273101,.109706,
-.275,.088,
-.275,-.112,
-.273481,-.129365,
-.268969,-.146202,
-.261603,-.162,
-.251604,-.176279,
-.239279,-.188604,
-.225,-.198603,
-.209202,-.205969,
-.192365,-.210481,
-.175,-.212,
-.157635,-.210481,
-.140798,-.205969,
-.125,-.198603,
-.110721,-.188604,
-.098396,-.176279,
-.088397,-.162,
-.081031,-.146202,
-.076519,-.129365,
-.075,-.112,
0.0*
%
%ADD51MACRO51*%
%ADD18R,1.X.9*%
%ADD55R,.9X1.*%
%ADD26R,1.05X.6*%
%ADD17R,1.35X.4*%
%ADD65R,1.X.625*%
%AMMACRO45*
4,1,21,-.275,.115,
-.275,-.115,
.16,-.115,
.17997,-.113253,
.199332,-.108065,
.2175,-.099593,
.233921,-.088095,
.248095,-.073921,
.259593,-.0575,
.268065,-.039332,
.273253,-.01997,
.275,0.0,
.273253,.01997,
.268065,.039332,
.259593,.0575,
.248095,.073921,
.233921,.088095,
.2175,.099593,
.199332,.108065,
.17997,.113253,
.16,.115,
-.275,.115,
0.0*
%
%ADD45MACRO45*%
%ADD41R,.58X1.*%
%ADD19R,.625X1.*%
%ADD39R,.75X1.4*%
%ADD48R,.6X1.55*%
%AMMACRO56*
21,1,.57,.62,0.0,0.0,135.*%
%ADD56MACRO56*%
%ADD38R,.9X1.9*%
%ADD64R,2.8X.74*%
%ADD36R,.9X2.9*%
%AMMACRO12*
4,1,24,-.95,.592,
-.95,-1.092,
.95,-1.092,
.95,.592,
.94249,.678832,
.920017,.76304,
.883262,.842067,
.833343,.913511,
.771777,.975201,
.700433,1.025262,
.62148,1.062175,
.537316,1.084817,
.4505,1.0925,
.45,1.092,
-.45,1.092,
-.536824,1.084904,
-.62101,1.062346,
-.7,1.025513,
-.771394,.975522,
-.833022,.913894,
-.883013,.8425,
-.919846,.76351,
-.942404,.679324,
-.95,.5925,
-.95,.592,
0.0*
%
%ADD12MACRO12*%
%ADD59R,3.3X3.3*%
%ADD40R,.76X1.25*%
%AMMACRO29*
21,1,1.45,.95,0.0,0.0,45.*%
%ADD29MACRO29*%
%ADD22R,.95X1.45*%
%ADD28R,1.45X.95*%
%AMMACRO52*
4,1,32,.275,.037,
-.075,.037,
-.075,.112,
-.076519,.129365,
-.081031,.146202,
-.088397,.162,
-.098396,.176279,
-.110721,.188604,
-.125,.198603,
-.140798,.205969,
-.157635,.210481,
-.175,.212,
-.192365,.210481,
-.209202,.205969,
-.225,.198603,
-.239279,.188604,
-.251604,.176279,
-.261603,.162,
-.268969,.146202,
-.273481,.129365,
-.275,.112,
-.275,-.088,
-.273101,-.109706,
-.267462,-.130753,
-.258253,-.1505,
-.245756,-.168348,
-.230348,-.183756,
-.2125,-.196253,
-.192753,-.205462,
-.171706,-.211101,
-.15,-.213,
.275,-.213,
.275,.037,
0.0*
%
%ADD52MACRO52*%
%ADD63R,1.2X1.*%
%AMMACRO66*
4,1,22,.95,-.55,
.95,1.05,
-.95,1.05,
-.95,-.55,
-.942404,-.636824,
-.919846,-.72101,
-.883013,-.8,
-.833022,-.871394,
-.771394,-.933022,
-.7,-.983013,
-.62101,-1.019846,
-.536824,-1.042404,
-.45,-1.05,
.45,-1.05,
.536824,-1.042404,
.62101,-1.019846,
.7,-.983013,
.771394,-.933022,
.833022,-.871394,
.883013,-.8,
.919846,-.72101,
.942404,-.636824,
.95,-.55,
0.0*
%
%ADD66MACRO66*%
%AMMACRO46*
4,1,32,.075,.112,
.075,.037,
-.275,.037,
-.275,-.213,
.15,-.213,
.171706,-.211101,
.192753,-.205462,
.2125,-.196253,
.230348,-.183756,
.245756,-.168348,
.258253,-.1505,
.267462,-.130753,
.273101,-.109706,
.275,-.088,
.275,.112,
.273481,.129365,
.268969,.146202,
.261603,.162,
.251604,.176279,
.239279,.188604,
.225,.198603,
.209202,.205969,
.192365,.210481,
.175,.212,
.157635,.210481,
.140798,.205969,
.125,.198603,
.110721,.188604,
.098396,.176279,
.088397,.162,
.081031,.146202,
.076519,.129365,
.075,.112,
0.0*
%
%ADD46MACRO46*%
%ADD43R,1.6X2.*%
%ADD47R,1.05X1.3*%
%ADD16O,1.25X1.05*%
%ADD54R,.5X.3*%
%ADD42R,1.2X1.8*%
%ADD27R,2.X3.8*%
%AMMACRO50*
4,1,21,.275,-.115,
.275,.115,
-.16,.115,
-.17997,.113253,
-.199332,.108065,
-.2175,.099593,
-.233921,.088095,
-.248095,.073921,
-.259593,.0575,
-.268065,.039332,
-.273253,.01997,
-.275,0.0,
-.273253,-.01997,
-.268065,-.039332,
-.259593,-.0575,
-.248095,-.073921,
-.233921,-.088095,
-.2175,-.099593,
-.199332,-.108065,
-.17997,-.113253,
-.16,-.115,
.275,-.115,
0.0*
%
%ADD50MACRO50*%
%ADD33R,1.25X1.22*%
%ADD30R,.3X.5*%
%ADD21R,3.8X2.*%
%ADD23R,.7X.3*%
%ADD13R,1.55X1.3*%
%ADD32R,.8X.3*%
%ADD60R,.5X.6*%
%ADD57R,.9X.3*%
%ADD35R,.3X.8*%
%ADD58R,.3X.9*%
%ADD31C,.4*%
%ADD11R,1.9X1.8*%
%ADD49R,.55X.5*%
%ADD34R,.9X.24*%
%ADD37R,.24X.9*%
%AMMACRO10*
4,1,24,.95,-.592,
.95,1.092,
-.95,1.092,
-.95,-.592,
-.94249,-.678832,
-.920017,-.76304,
-.883262,-.842067,
-.833343,-.913511,
-.771777,-.975201,
-.700433,-1.025262,
-.62148,-1.062175,
-.537316,-1.084817,
-.4505,-1.0925,
-.45,-1.092,
.45,-1.092,
.536824,-1.084904,
.62101,-1.062346,
.7,-1.025513,
.771394,-.975522,
.833022,-.913894,
.883013,-.8425,
.919846,-.76351,
.942404,-.679324,
.95,-.5925,
.95,-.592,
0.0*
%
%ADD10MACRO10*%
%ADD53C,.45*%
%ADD24R,.62X.57*%
%ADD20R,.675X.2*%
%ADD14R,.57X.62*%
%ADD25R,2.77X2.55*%
%ADD15R,.8X.8*%
%ADD68C,.1*%
%ADD69C,.15*%
G75*
%LPD*%
G75*
G54D10*
X125000Y8039800D03*
X125000Y9614800D03*
G54D20*
X581200Y8419000D03*
X581200Y8459000D03*
X581200Y8499000D03*
X581200Y9994000D03*
X581200Y10034000D03*
X581200Y10074000D03*
X668800Y8499000D03*
X668800Y8459000D03*
X668800Y8419000D03*
X668800Y9994000D03*
X668800Y10074000D03*
X668800Y10034000D03*
X7190800Y9810100D03*
X7190800Y9850100D03*
X7190800Y9890100D03*
X7278400Y9890100D03*
X7278400Y9850100D03*
X7278400Y9810100D03*
G54D11*
X125000Y8294000D03*
X125000Y8524000D03*
X125000Y9869000D03*
X125000Y10099000D03*
X7855000Y9769000D03*
X7855000Y9999000D03*
G54D21*
X899900Y16274900D03*
X899900Y16675000D03*
X7100100Y16274900D03*
X7100100Y16675000D03*
G54D30*
X2404000Y4267500D03*
X2354000Y4267500D03*
X2304000Y4267500D03*
X2304000Y4362500D03*
X2354000Y4362500D03*
X2404000Y4362500D03*
X2454000Y4267500D03*
X2454000Y4362500D03*
X2724000Y4262500D03*
X2674000Y4262500D03*
X2674000Y4357500D03*
X2724000Y4357500D03*
X2824000Y4262500D03*
X2774000Y4262500D03*
X2774000Y4357500D03*
X2824000Y4357500D03*
G54D12*
X125000Y8778200D03*
X125000Y10353200D03*
G54D31*
X2365000Y4872300D03*
X2365000Y4972300D03*
X2365000Y5072300D03*
X2365000Y5172300D03*
X2465000Y4872300D03*
X2465000Y4972300D03*
X2465000Y5072300D03*
X2465000Y5172300D03*
X2465000Y5272300D03*
X2565000Y4872300D03*
X2565000Y4972300D03*
X2565000Y5072300D03*
X2565000Y5172300D03*
X2565000Y5272300D03*
X2765000Y4872300D03*
X2665000Y4872300D03*
X2765000Y4972300D03*
X2665000Y4972300D03*
X2765000Y5072300D03*
X2665000Y5072300D03*
X2765000Y5172300D03*
X2665000Y5172300D03*
X2765000Y5272300D03*
X2665000Y5272300D03*
X3440000Y2032300D03*
X3440000Y2112300D03*
X3440000Y2192300D03*
X3440000Y2272300D03*
X3440000Y2352300D03*
X3440000Y2432300D03*
X3440000Y2512300D03*
X3440000Y2592300D03*
X3440000Y2672300D03*
X3440000Y2752300D03*
X3440000Y2832300D03*
X3440000Y2912300D03*
X3440000Y2992300D03*
X3440000Y3072300D03*
X3440000Y3152300D03*
X3520000Y2032300D03*
X3520000Y2112300D03*
X3520000Y2192300D03*
X3520000Y2272300D03*
X3520000Y2352300D03*
X3520000Y2432300D03*
X3520000Y2512300D03*
X3520000Y2592300D03*
X3520000Y2672300D03*
X3520000Y2752300D03*
X3520000Y2832300D03*
X3520000Y2912300D03*
X3520000Y2992300D03*
X3520000Y3072300D03*
X3520000Y3152300D03*
X3600000Y2032300D03*
X3600000Y2112300D03*
X3680000Y2032300D03*
X3680000Y2112300D03*
X3600000Y2192300D03*
X3680000Y2192300D03*
X3600000Y2272300D03*
X3600000Y2352300D03*
X3680000Y2272300D03*
X3680000Y2352300D03*
X3600000Y2432300D03*
X3680000Y2432300D03*
X3600000Y2512300D03*
X3600000Y2592300D03*
X3680000Y2512300D03*
X3680000Y2592300D03*
X3600000Y2672300D03*
X3680000Y2672300D03*
X3600000Y2752300D03*
X3600000Y2832300D03*
X3680000Y2752300D03*
X3680000Y2832300D03*
X3600000Y2912300D03*
X3680000Y2912300D03*
X3600000Y2992300D03*
X3600000Y3072300D03*
X3680000Y2992300D03*
X3680000Y3072300D03*
X3600000Y3152300D03*
X3680000Y3152300D03*
X3760000Y2032300D03*
X3760000Y2112300D03*
X3760000Y2192300D03*
X3760000Y2272300D03*
X3760000Y2352300D03*
X3760000Y2432300D03*
X3760000Y2512300D03*
X3760000Y2592300D03*
X3760000Y2672300D03*
X3760000Y2752300D03*
X3760000Y2832300D03*
X3760000Y2912300D03*
X3760000Y2992300D03*
X3760000Y3072300D03*
X3760000Y3152300D03*
X3840000Y2032300D03*
X3840000Y2112300D03*
X3920000Y2032300D03*
X3920000Y2112300D03*
X3840000Y2192300D03*
X3920000Y2192300D03*
X3840000Y2272300D03*
X3840000Y2352300D03*
X3920000Y2272300D03*
X3920000Y2352300D03*
X3840000Y2432300D03*
X3920000Y2432300D03*
X3840000Y2512300D03*
X3840000Y2592300D03*
X3920000Y2512300D03*
X3920000Y2592300D03*
X3840000Y2672300D03*
X3920000Y2672300D03*
X3840000Y2752300D03*
X3840000Y2832300D03*
X3920000Y2752300D03*
X3920000Y2832300D03*
X3840000Y2912300D03*
X3920000Y2912300D03*
X3840000Y2992300D03*
X3840000Y3072300D03*
X3920000Y2992300D03*
X3920000Y3072300D03*
X3840000Y3152300D03*
X3920000Y3152300D03*
X4000000Y2032300D03*
X4000000Y2112300D03*
X4000000Y2192300D03*
X4000000Y2272300D03*
X4000000Y2352300D03*
X4000000Y2432300D03*
X4000000Y2512300D03*
X4000000Y2592300D03*
X4000000Y2672300D03*
X4000000Y2752300D03*
X4000000Y2832300D03*
X4000000Y2912300D03*
X4000000Y2992300D03*
X4000000Y3072300D03*
X4000000Y3152300D03*
X4080000Y2032300D03*
X4080000Y2112300D03*
X4160000Y2032300D03*
X4160000Y2112300D03*
X4080000Y2192300D03*
X4160000Y2192300D03*
X4080000Y2272300D03*
X4080000Y2352300D03*
X4160000Y2272300D03*
X4160000Y2352300D03*
X4080000Y2432300D03*
X4160000Y2432300D03*
X4080000Y2512300D03*
X4080000Y2592300D03*
X4160000Y2512300D03*
X4160000Y2592300D03*
X4080000Y2672300D03*
X4160000Y2672300D03*
X4080000Y2752300D03*
X4080000Y2832300D03*
X4160000Y2752300D03*
X4160000Y2832300D03*
X4080000Y2912300D03*
X4160000Y2912300D03*
X4080000Y2992300D03*
X4080000Y3072300D03*
X4160000Y2992300D03*
X4160000Y3072300D03*
X4080000Y3152300D03*
X4160000Y3152300D03*
X4240000Y2032300D03*
X4240000Y2112300D03*
X4240000Y2192300D03*
X4240000Y2272300D03*
X4240000Y2352300D03*
X4240000Y2432300D03*
X4240000Y2512300D03*
X4240000Y2592300D03*
X4240000Y2672300D03*
X4240000Y2752300D03*
X4240000Y2832300D03*
X4240000Y2912300D03*
X4240000Y2992300D03*
X4240000Y3072300D03*
X4240000Y3152300D03*
X4320000Y2032300D03*
X4320000Y2112300D03*
X4400000Y2032300D03*
X4400000Y2112300D03*
X4320000Y2192300D03*
X4400000Y2192300D03*
X4320000Y2272300D03*
X4320000Y2352300D03*
X4400000Y2272300D03*
X4400000Y2352300D03*
X4320000Y2432300D03*
X4400000Y2432300D03*
X4320000Y2512300D03*
X4320000Y2592300D03*
X4400000Y2512300D03*
X4400000Y2592300D03*
X4320000Y2672300D03*
X4400000Y2672300D03*
X4320000Y2752300D03*
X4320000Y2832300D03*
X4400000Y2752300D03*
X4400000Y2832300D03*
X4320000Y2912300D03*
X4400000Y2912300D03*
X4320000Y2992300D03*
X4320000Y3072300D03*
X4400000Y2992300D03*
X4400000Y3072300D03*
X4320000Y3152300D03*
X4400000Y3152300D03*
X4480000Y2032300D03*
X4480000Y2112300D03*
X4480000Y2192300D03*
X4480000Y2272300D03*
X4480000Y2352300D03*
X4480000Y2432300D03*
X4480000Y2512300D03*
X4480000Y2592300D03*
X4480000Y2672300D03*
X4480000Y2752300D03*
X4480000Y2832300D03*
X4480000Y2912300D03*
X4480000Y2992300D03*
X4480000Y3072300D03*
X4480000Y3152300D03*
X4560000Y2032300D03*
X4560000Y2112300D03*
X4560000Y2192300D03*
X4560000Y2272300D03*
X4560000Y2352300D03*
X4560000Y2432300D03*
X4560000Y2512300D03*
X4560000Y2592300D03*
X4560000Y2672300D03*
X4560000Y2752300D03*
X4560000Y2832300D03*
X4560000Y2912300D03*
X4560000Y2992300D03*
X4560000Y3072300D03*
G54D13*
X185500Y11994300D03*
X185500Y12444300D03*
X183900Y12747900D03*
X183900Y13197900D03*
X183900Y13639900D03*
X183900Y14089900D03*
X980500Y11994300D03*
X980500Y12444300D03*
X978900Y12747900D03*
X978900Y13197900D03*
X978900Y13639900D03*
X978900Y14089900D03*
G54D22*
X843100Y16003200D03*
X1043100Y16003200D03*
X4901000Y2265100D03*
X5101000Y2265100D03*
X6949100Y14212800D03*
X7149100Y14212800D03*
G54D40*
X3555500Y7892500D03*
X3555500Y8507500D03*
X3682500Y7892500D03*
X3682500Y8507500D03*
X3809500Y7892500D03*
X3809500Y8507500D03*
X3936500Y7892500D03*
X3936500Y8507500D03*
X4063500Y7892500D03*
X4063500Y8507500D03*
X4190500Y7892500D03*
X4190500Y8507500D03*
X4317500Y7892500D03*
X4317500Y8507500D03*
X4444500Y7892500D03*
X4444500Y8507500D03*
G54D14*
X269100Y11300300D03*
X365100Y11300300D03*
X627000Y9139000D03*
X659700Y11300500D03*
X723000Y9139000D03*
X773000Y10709000D03*
X677000Y10709000D03*
X755700Y11300500D03*
X802000Y8509000D03*
X802000Y8409000D03*
X802000Y9959000D03*
X802000Y10059000D03*
X898000Y8509000D03*
X898000Y8409000D03*
X927000Y9139000D03*
X898000Y9959000D03*
X898000Y10059000D03*
X977000Y10709000D03*
X1023000Y9139000D03*
X1073000Y10709000D03*
X1086500Y11300500D03*
X1182500Y11300500D03*
X1473000Y8609000D03*
X1377000Y8609000D03*
X1462000Y10084000D03*
X1558000Y10084000D03*
X1927000Y8219000D03*
X2023000Y8219000D03*
X2027000Y9684000D03*
X2123000Y9684000D03*
X2878000Y1889500D03*
X2877000Y2038500D03*
X2974000Y1889500D03*
X2973000Y2038500D03*
X3069000Y4544300D03*
X3056000Y4730000D03*
X3105700Y15816700D03*
X3165000Y4544300D03*
X3152000Y4730000D03*
X3201700Y15816700D03*
X3286000Y4630000D03*
X3437000Y4547300D03*
X3382000Y4630000D03*
X3432000Y5242300D03*
X3426000Y5430000D03*
X3547000Y1762300D03*
X3533000Y4547300D03*
X3528000Y5242300D03*
X3522000Y5430000D03*
X3643000Y1762300D03*
X3830000Y1369000D03*
X3734000Y1369000D03*
X3727000Y1762300D03*
X3823000Y1762300D03*
X3763100Y11797500D03*
X3859100Y11797500D03*
X4063000Y3337300D03*
X3967000Y3337300D03*
X4054000Y16104000D03*
X4150000Y16104000D03*
X4285000Y1136000D03*
X4381000Y1136000D03*
X4616000Y3810000D03*
X4724000Y2522000D03*
X4712000Y3810000D03*
X4820000Y2522000D03*
X4807000Y3927300D03*
X4903000Y3927300D03*
X4977000Y7379000D03*
X5073000Y7379000D03*
X5168000Y7276100D03*
X5177000Y7569000D03*
X5210100Y15820700D03*
X5264000Y7276100D03*
X5273000Y7569000D03*
X5306100Y15820700D03*
X5396000Y3910000D03*
X5406000Y4570000D03*
X5492000Y3910000D03*
X5502000Y4570000D03*
X5522000Y7934000D03*
X5618000Y7934000D03*
X6226000Y3080000D03*
X6227000Y3270000D03*
X6206000Y3930000D03*
X6302000Y3930000D03*
X6279000Y9660000D03*
X6322000Y3080000D03*
X6323000Y3270000D03*
X6375000Y9660000D03*
X6468000Y9660000D03*
X6564000Y9660000D03*
X6787000Y9710000D03*
X6691000Y9710000D03*
X6691000Y9810000D03*
X6787000Y9810000D03*
X6933000Y10191100D03*
X6933000Y10291100D03*
X6933000Y10391100D03*
X6933000Y10491100D03*
X7029000Y10191100D03*
X7029000Y10291100D03*
X7029000Y10391100D03*
X7029000Y10491100D03*
X7083000Y10891100D03*
X7179000Y10891100D03*
X7303000Y7171100D03*
X7303000Y7271100D03*
X7322000Y9084000D03*
X7322000Y9184000D03*
X7399000Y7171100D03*
X7399000Y7271100D03*
X7493000Y7271100D03*
X7418000Y9084000D03*
X7418000Y9184000D03*
X7589000Y7271100D03*
G54D32*
X3005000Y4054300D03*
X3005000Y4104300D03*
X3005000Y4154300D03*
X3005000Y4204300D03*
X3005000Y4254300D03*
X3005000Y4304300D03*
X3005000Y4354300D03*
X3005000Y4404300D03*
X3215000Y4104300D03*
X3215000Y4054300D03*
X3215000Y4254300D03*
X3215000Y4204300D03*
X3215000Y4154300D03*
X3215000Y4354300D03*
X3215000Y4304300D03*
X3215000Y4404300D03*
X3410000Y4047300D03*
X3410000Y4097300D03*
X3410000Y4147300D03*
X3410000Y4197300D03*
X3410000Y4247300D03*
X3410000Y4297300D03*
X3410000Y4347300D03*
X3410000Y4397300D03*
X3385000Y4752300D03*
X3385000Y4802300D03*
X3385000Y4852300D03*
X3385000Y4902300D03*
X3385000Y4952300D03*
X3385000Y5002300D03*
X3385000Y5052300D03*
X3385000Y5102300D03*
X3595000Y4852300D03*
X3595000Y4802300D03*
X3595000Y4752300D03*
X3595000Y4952300D03*
X3595000Y4902300D03*
X3595000Y5052300D03*
X3595000Y5002300D03*
X3595000Y5102300D03*
X3620000Y4147300D03*
X3620000Y4097300D03*
X3620000Y4047300D03*
X3620000Y4247300D03*
X3620000Y4197300D03*
X3620000Y4347300D03*
X3620000Y4297300D03*
X3620000Y4397300D03*
X4720000Y4062300D03*
X4720000Y4112300D03*
X4720000Y4162300D03*
X4720000Y4212300D03*
X4720000Y4262300D03*
X4720000Y4312300D03*
X4720000Y4362300D03*
X4720000Y4412300D03*
X4930000Y4112300D03*
X4930000Y4062300D03*
X4930000Y4262300D03*
X4930000Y4212300D03*
X4930000Y4162300D03*
X4930000Y4362300D03*
X4930000Y4312300D03*
X4930000Y4412300D03*
X5330000Y3412300D03*
X5330000Y3462300D03*
X5330000Y3512300D03*
X5330000Y3562300D03*
X5330000Y3612300D03*
X5330000Y3662300D03*
X5330000Y3712300D03*
X5330000Y3762300D03*
X5330000Y4062300D03*
X5330000Y4112300D03*
X5330000Y4162300D03*
X5330000Y4212300D03*
X5330000Y4262300D03*
X5330000Y4312300D03*
X5330000Y4362300D03*
X5330000Y4412300D03*
X5540000Y3412300D03*
X5540000Y3512300D03*
X5540000Y3462300D03*
X5540000Y3662300D03*
X5540000Y3612300D03*
X5540000Y3562300D03*
X5540000Y3762300D03*
X5540000Y3712300D03*
X5540000Y4112300D03*
X5540000Y4062300D03*
X5540000Y4262300D03*
X5540000Y4212300D03*
X5540000Y4162300D03*
X5540000Y4362300D03*
X5540000Y4312300D03*
X5540000Y4412300D03*
X6138000Y3412300D03*
X6138000Y3462300D03*
X6138000Y3512300D03*
X6138000Y3562300D03*
X6138000Y3612300D03*
X6138000Y3662300D03*
X6138000Y3712300D03*
X6138000Y3762300D03*
X6139000Y4069300D03*
X6139000Y4119300D03*
X6139000Y4169300D03*
X6139000Y4219300D03*
X6139000Y4269300D03*
X6139000Y4319300D03*
X6139000Y4369300D03*
X6139000Y4419300D03*
X6348000Y3412300D03*
X6348000Y3512300D03*
X6348000Y3462300D03*
X6348000Y3662300D03*
X6348000Y3612300D03*
X6348000Y3562300D03*
X6348000Y3762300D03*
X6348000Y3712300D03*
X6349000Y4119300D03*
X6349000Y4069300D03*
X6349000Y4219300D03*
X6349000Y4169300D03*
X6349000Y4369300D03*
X6349000Y4319300D03*
X6349000Y4269300D03*
X6349000Y4419300D03*
G54D23*
X1012500Y8486500D03*
X1012500Y8431500D03*
X1137500Y8486500D03*
X1137500Y8431500D03*
X1037500Y10036500D03*
X1037500Y9981500D03*
X1162500Y10036500D03*
X1162500Y9981500D03*
G54D50*
X4035600Y11524400D03*
X4035600Y11624400D03*
X4035600Y11574400D03*
G54D41*
X3678000Y15980000D03*
X3790000Y15980000D03*
X3959000Y15980000D03*
X4071000Y15980000D03*
G54D15*
X266700Y11425400D03*
X266700Y11585400D03*
X657700Y11426200D03*
X657700Y11586200D03*
X1084700Y11425800D03*
X1084700Y11585800D03*
X3454000Y10515700D03*
X3604000Y10515700D03*
X6801000Y10891100D03*
X6961000Y10891100D03*
G54D24*
X1133500Y12276900D03*
X1133500Y12180900D03*
X1132500Y12924100D03*
X1132500Y13020100D03*
X1132200Y13545600D03*
X1132200Y13641600D03*
X1325000Y8361000D03*
X1325000Y8457000D03*
X1325000Y9836000D03*
X1325000Y9932000D03*
X1449500Y11452500D03*
X1449500Y11548500D03*
X2169000Y4277000D03*
X2169000Y4373000D03*
X2090000Y8366000D03*
X2090000Y8462000D03*
X2130000Y9922000D03*
X2130000Y9826000D03*
X2149500Y11451700D03*
X2149500Y11547700D03*
X2564000Y4237000D03*
X2564000Y4333000D03*
X2650000Y15736000D03*
X2650000Y15832000D03*
X2850000Y15736000D03*
X2850000Y15832000D03*
X2970000Y1461000D03*
X2970000Y1557000D03*
X2914000Y4562000D03*
X2914000Y4658000D03*
X3650500Y11331100D03*
X3650500Y11427100D03*
X3649500Y11536300D03*
X3649500Y11632300D03*
X3900300Y11141700D03*
X3900300Y11237700D03*
X4048500Y11194300D03*
X4048500Y11290300D03*
X4085000Y5509300D03*
X4085000Y5605300D03*
X4205000Y3299300D03*
X4205000Y3395300D03*
X4225000Y11302500D03*
X4225000Y11398500D03*
X4350000Y11302500D03*
X4350000Y11398500D03*
X4472000Y11302500D03*
X4472000Y11398500D03*
X4650000Y8047000D03*
X4650000Y8143000D03*
X4593300Y11302500D03*
X4593300Y11398500D03*
X4705000Y5514300D03*
X4705000Y5610300D03*
X4701000Y7253100D03*
X4701000Y7349100D03*
X4801000Y7253100D03*
X4801000Y7349100D03*
X4910000Y7506000D03*
X4910000Y7602000D03*
X5075000Y7567000D03*
X5075000Y7471000D03*
X5490000Y8126000D03*
X5490000Y8222000D03*
X5664000Y3842000D03*
X5664000Y3938000D03*
X5824000Y4552000D03*
X5824000Y4648000D03*
X5884000Y10937000D03*
X5884000Y11033000D03*
X5984000Y3852000D03*
X5984000Y3948000D03*
X6064000Y9680000D03*
X6064000Y9584000D03*
X5989000Y10937000D03*
X5989000Y11033000D03*
X6164000Y9680000D03*
X6164000Y9584000D03*
X6094000Y10937000D03*
X6199000Y10937000D03*
X6094000Y11033000D03*
X6199000Y11033000D03*
X6304000Y10937000D03*
X6304000Y11033000D03*
X6409000Y10937000D03*
X6409000Y11033000D03*
X6514000Y10937000D03*
X6514000Y11033000D03*
X6910000Y11167000D03*
X6910000Y11263000D03*
G54D60*
X5235000Y7374000D03*
X5155000Y7374000D03*
X5155000Y7484000D03*
X5235000Y7484000D03*
G54D33*
X2936500Y10909000D03*
X2938500Y11175500D03*
X2936500Y11409000D03*
X3263500Y10909000D03*
X3265500Y11175500D03*
X3263500Y11409000D03*
G54D42*
X3721000Y16783500D03*
X4281000Y16783500D03*
G54D51*
X4035600Y11465600D03*
G54D25*
X1638000Y8994000D03*
X1668000Y10464000D03*
X2282000Y8994000D03*
X2312000Y10464000D03*
G54D34*
X3095000Y1532300D03*
X3095000Y1582300D03*
X3095000Y1632300D03*
X3095000Y1682300D03*
X3095000Y1732300D03*
X3095000Y1782300D03*
X3355000Y1532300D03*
X3355000Y1632300D03*
X3355000Y1582300D03*
X3355000Y1782300D03*
X3355000Y1732300D03*
X3355000Y1682300D03*
G54D16*
X437000Y8186500D03*
X437000Y8631500D03*
X437000Y9761500D03*
X437000Y10206500D03*
X7555000Y9641500D03*
X7555000Y10126500D03*
G54D43*
X3893100Y11574400D03*
G54D52*
X4035600Y11683200D03*
G54D61*
X5841000Y10036100D03*
X5841000Y10086100D03*
X5841000Y10136100D03*
X5841000Y10186100D03*
X5841000Y10236100D03*
X5841000Y10286100D03*
X5841000Y10336100D03*
X5841000Y10386100D03*
X5841000Y10436100D03*
X5841000Y10486100D03*
X5841000Y10536100D03*
X5841000Y10586100D03*
X6681000Y10036100D03*
X6681000Y10136100D03*
X6681000Y10086100D03*
X6681000Y10236100D03*
X6681000Y10186100D03*
X6681000Y10386100D03*
X6681000Y10336100D03*
X6681000Y10286100D03*
X6681000Y10486100D03*
X6681000Y10436100D03*
X6681000Y10586100D03*
X6681000Y10536100D03*
G54D53*
X4165000Y4712300D03*
X4085000Y4712300D03*
X4165000Y4792300D03*
X4085000Y4792300D03*
X4165000Y4872300D03*
X4085000Y4872300D03*
X4165000Y5192300D03*
X4085000Y5192300D03*
X4165000Y5272300D03*
X4085000Y5272300D03*
X4165000Y5352300D03*
X4085000Y5352300D03*
X4245000Y4712300D03*
X4245000Y4792300D03*
X4245000Y4872300D03*
X4245000Y5192300D03*
X4245000Y5272300D03*
X4245000Y5352300D03*
X4405000Y4712300D03*
X4325000Y4712300D03*
X4405000Y4792300D03*
X4325000Y4792300D03*
X4405000Y4872300D03*
X4325000Y4872300D03*
X4405000Y5192300D03*
X4325000Y5192300D03*
X4405000Y5272300D03*
X4325000Y5272300D03*
X4405000Y5352300D03*
X4325000Y5352300D03*
X4485000Y4712300D03*
X4485000Y4792300D03*
X4485000Y4872300D03*
X4485000Y5192300D03*
X4485000Y5272300D03*
X4485000Y5352300D03*
X4645000Y4712300D03*
X4565000Y4712300D03*
X4645000Y4792300D03*
X4565000Y4792300D03*
X4645000Y4872300D03*
X4565000Y4872300D03*
X4645000Y5192300D03*
X4565000Y5192300D03*
X4645000Y5272300D03*
X4565000Y5272300D03*
X4645000Y5352300D03*
X4565000Y5352300D03*
X4725000Y4712300D03*
X4725000Y4792300D03*
X4725000Y4872300D03*
X4725000Y5192300D03*
X4725000Y5272300D03*
X4725000Y5352300D03*
G54D35*
X3085000Y4024300D03*
X3085000Y4434300D03*
X3135000Y4024300D03*
X3135000Y4434300D03*
X3465000Y4722300D03*
X3465000Y5132300D03*
X3540000Y4017300D03*
X3490000Y4017300D03*
X3540000Y4427300D03*
X3490000Y4427300D03*
X3515000Y4722300D03*
X3515000Y5132300D03*
X4800000Y4032300D03*
X4850000Y4032300D03*
X4800000Y4442300D03*
X4850000Y4442300D03*
X5460000Y3382300D03*
X5410000Y3382300D03*
X5460000Y3792300D03*
X5410000Y3792300D03*
X5460000Y4032300D03*
X5410000Y4032300D03*
X5460000Y4442300D03*
X5410000Y4442300D03*
X6218000Y3382300D03*
X6268000Y3382300D03*
X6218000Y3792300D03*
X6268000Y3792300D03*
X6219000Y4039300D03*
X6269000Y4039300D03*
X6219000Y4449300D03*
X6269000Y4449300D03*
G54D17*
X405000Y8344000D03*
X405000Y8279000D03*
X405000Y8474000D03*
X405000Y8409000D03*
X405000Y8539000D03*
X405000Y9919000D03*
X405000Y9854000D03*
X405000Y9984000D03*
X405000Y10114000D03*
X405000Y10049000D03*
X7587500Y9754000D03*
X7587500Y9884000D03*
X7587500Y9819000D03*
X7587500Y9949000D03*
X7587500Y10014000D03*
G54D26*
X1640000Y8374000D03*
X1640000Y8469000D03*
X1640000Y8564000D03*
X1690000Y9839000D03*
X1690000Y9934000D03*
X1690000Y10029000D03*
X1910000Y8374000D03*
X1910000Y8564000D03*
X1960000Y9839000D03*
X1960000Y10029000D03*
G54D62*
X6036000Y9891100D03*
X5986000Y9891100D03*
X5986000Y10731100D03*
X6036000Y10731100D03*
X6136000Y9891100D03*
X6086000Y9891100D03*
X6086000Y10731100D03*
X6136000Y10731100D03*
X6286000Y9891100D03*
X6236000Y9891100D03*
X6186000Y9891100D03*
X6186000Y10731100D03*
X6236000Y10731100D03*
X6286000Y10731100D03*
X6386000Y9891100D03*
X6336000Y9891100D03*
X6336000Y10731100D03*
X6386000Y10731100D03*
X6536000Y9891100D03*
X6486000Y9891100D03*
X6436000Y9891100D03*
X6436000Y10731100D03*
X6486000Y10731100D03*
X6536000Y10731100D03*
G54D44*
X3750600Y11465600D03*
G54D27*
X2045000Y1435000D03*
X2497000Y1435100D03*
X5414500Y1436000D03*
X5861000Y1435100D03*
G54D54*
X4542500Y4097200D03*
X4542500Y4147200D03*
X4542500Y4197200D03*
X4542500Y4247200D03*
X4542500Y4310200D03*
X4542500Y4360200D03*
X4542500Y4410200D03*
X4542500Y4460200D03*
X4637500Y4147200D03*
X4637500Y4097200D03*
X4637500Y4247200D03*
X4637500Y4197200D03*
X4637500Y4360200D03*
X4637500Y4310200D03*
X4637500Y4460200D03*
X4637500Y4410200D03*
G54D63*
X6309000Y9400000D03*
X6309000Y9530000D03*
X6479000Y9400000D03*
X6479000Y9530000D03*
G54D36*
X3110000Y4229300D03*
X3490000Y4927300D03*
X3515000Y4222300D03*
X4825000Y4237300D03*
X5435000Y3587300D03*
X5435000Y4237300D03*
X6243000Y3587300D03*
X6244000Y4244300D03*
G54D45*
X3750600Y11524400D03*
X3750600Y11574400D03*
X3750600Y11624400D03*
G54D18*
X375000Y8929000D03*
X375000Y9089000D03*
X425000Y10504000D03*
X425000Y10664000D03*
X1269100Y13478500D03*
X1269100Y13638500D03*
X3500000Y11250000D03*
X3500000Y11410000D03*
X4245600Y11598100D03*
X4245600Y11758100D03*
G54D37*
X3200000Y1477300D03*
X3200000Y1837300D03*
X3250000Y1477300D03*
X3250000Y1837300D03*
G54D46*
X3750600Y11683200D03*
G54D28*
X2280000Y8384000D03*
X2280000Y8584000D03*
X2325000Y9859000D03*
X2325000Y10059000D03*
X3480000Y11570000D03*
X3480000Y11770000D03*
X3905000Y5527300D03*
X3905000Y5727300D03*
X4437400Y11598400D03*
X4437400Y11798400D03*
G54D64*
X7201700Y11012300D03*
X7201700Y11139300D03*
X7201700Y11266300D03*
X7201700Y11393300D03*
X7201700Y11520300D03*
X7197400Y12370900D03*
X7197400Y12497900D03*
X7197400Y12624900D03*
X7197400Y12751900D03*
X7197400Y12878900D03*
X7197400Y13005900D03*
X7197400Y13132900D03*
X7197400Y13259900D03*
X7197400Y13386900D03*
X7197400Y13513900D03*
X7603400Y12370900D03*
X7603400Y12497900D03*
X7603400Y12624900D03*
X7603400Y12751900D03*
X7603400Y12878900D03*
X7603400Y13005900D03*
X7603400Y13132900D03*
X7603400Y13259900D03*
X7603400Y13386900D03*
X7603400Y13513900D03*
X7608100Y11012300D03*
X7608100Y11139300D03*
X7608100Y11266300D03*
X7608100Y11393300D03*
X7608100Y11520300D03*
G54D19*
X508800Y8759000D03*
X631200Y8759000D03*
X563800Y10309000D03*
X686200Y10309000D03*
G54D55*
X4630000Y7574000D03*
X4790000Y7574000D03*
G54D47*
X3971500Y1135000D03*
X3971500Y1365000D03*
X4146500Y1135000D03*
X4146500Y1365000D03*
G54D29*
X2398300Y3495700D03*
X2539700Y3354300D03*
G54D38*
X3225000Y1657300D03*
G54D56*
X4686100Y8307900D03*
X4753900Y8240100D03*
G54D65*
X7230000Y9562800D03*
X7230000Y9685200D03*
G54D57*
X4852500Y7779000D03*
X4852500Y7829000D03*
X4852500Y7879000D03*
X4852500Y7929000D03*
X4852500Y7979000D03*
X4852500Y8029000D03*
X4852500Y8079000D03*
X4852500Y8129000D03*
X5347500Y7779000D03*
X5347500Y7879000D03*
X5347500Y7829000D03*
X5347500Y8029000D03*
X5347500Y7979000D03*
X5347500Y7929000D03*
X5347500Y8129000D03*
X5347500Y8079000D03*
G54D66*
X7855000Y9519000D03*
G54D48*
X3851000Y16396000D03*
X3951000Y16396000D03*
X4051000Y16396000D03*
X4151000Y16396000D03*
G54D39*
X3612300Y1622300D03*
X3757700Y1622300D03*
G54D49*
X4063000Y3437300D03*
X3967000Y3437300D03*
G54D58*
X4975000Y7706500D03*
X4925000Y7706500D03*
X4925000Y8201500D03*
X4975000Y8201500D03*
X5075000Y7706500D03*
X5025000Y7706500D03*
X5025000Y8201500D03*
X5075000Y8201500D03*
X5225000Y7706500D03*
X5175000Y7706500D03*
X5125000Y7706500D03*
X5125000Y8201500D03*
X5175000Y8201500D03*
X5225000Y8201500D03*
X5275000Y7706500D03*
X5275000Y8201500D03*
G54D67*
X7855000Y10249000D03*
G54D68*
G01X0Y300000D02*
X0Y16662000D01*
G02X300000Y16962000I300000J0D01*
G01X7700000Y16962000D01*
G02X8000000Y16662000I37J-299963D01*
G01X8000000Y300000D01*
G02X7700000Y0I-300000J0D01*
G01X300000Y0D01*
G02X0Y300000I0J300000D01*
G54D59*
X5100000Y7954000D03*
G54D69*
G01X7700000Y16960000D02*
G02X8000000Y16660000I0J-300000D01*
G01X8000000Y300000D01*
G02X7700000Y0I-300000J0D01*
G01X300000Y0D01*
G02X0Y300000I0J300000D01*
G01X0Y16660000D01*
G02X300000Y16960000I300000J0D01*
G01X300000Y16960000D02*
X7700000Y16960000D01*
M02*
