G04 ================== begin FILE IDENTIFICATION RECORD ==================*
G04 Layout Name:  D018942_06_v03_ek_ra8d1.brd*
G04 Film Name:    SOLDERMASK_BOTTOM*
G04 File Format:  Gerber RS274X*
G04 File Origin:  Cadence Allegro 22.1-S002*
G04 Origin Date:  Thu Mar 16 08:59:47 2023*
G04 *
G04 Layer:  VIA CLASS/SOLDERMASK_BOTTOM*
G04 Layer:  PIN/SOLDERMASK_BOTTOM*
G04 Layer:  PACKAGE GEOMETRY/SOLDERMASK_BOTTOM*
G04 Layer:  BOARD GEOMETRY/OUTLINE*
G04 Layer:  BOARD GEOMETRY/SOLDERMASK_BOTTOM*
G04 *
G04 Offset:    (0.000 0.000)*
G04 Mirror:    No*
G04 Mode:      Positive*
G04 Rotation:  0*
G04 FullContactRelief:  No*
G04 UndefLineWidth:     0.100*
G04 ================== end FILE IDENTIFICATION RECORD ====================*
%FSLAX35Y35*MOMM*%
%IR0*IPPOS*OFA0.00000B0.00000*MIA0B0*SFA1.00000B1.00000*%
%ADD33R,.5X1.1*%
%AMMACRO16*
4,1,40,-.65,-.25,
-.65,.25,
-.646962,.28473,
-.637939,.318404,
-.623205,.35,
-.603209,.378558,
-.578558,.403209,
-.55,.423205,
-.518404,.437939,
-.48473,.446962,
-.45,.45,
.45,.45,
.48473,.446962,
.518404,.437939,
.55,.423205,
.578558,.403209,
.603209,.378558,
.623205,.35,
.637939,.318404,
.646962,.28473,
.65,.25,
.65,-.25,
.646962,-.28473,
.637939,-.318404,
.623205,-.35,
.603209,-.378558,
.578558,-.403209,
.55,-.423205,
.518404,-.437939,
.48473,-.446962,
.45,-.45,
-.45,-.45,
-.48473,-.446962,
-.518404,-.437939,
-.55,-.423205,
-.578558,-.403209,
-.603209,-.378558,
-.623205,-.35,
-.637939,-.318404,
-.646962,-.28473,
-.65,-.25,
0.0*
%
%ADD16MACRO16*%
%AMMACRO20*
4,1,40,-.25,.65,
.25,.65,
.28473,.646962,
.318404,.637939,
.35,.623205,
.378558,.603209,
.403209,.578558,
.423205,.55,
.437939,.518404,
.446962,.48473,
.45,.45,
.45,-.45,
.446962,-.48473,
.437939,-.518404,
.423205,-.55,
.403209,-.578558,
.378558,-.603209,
.35,-.623205,
.318404,-.637939,
.28473,-.646962,
.25,-.65,
-.25,-.65,
-.28473,-.646962,
-.318404,-.637939,
-.35,-.623205,
-.378558,-.603209,
-.403209,-.578558,
-.423205,-.55,
-.437939,-.518404,
-.446962,-.48473,
-.45,-.45,
-.45,.45,
-.446962,.48473,
-.437939,.518404,
-.423205,.55,
-.403209,.578558,
-.378558,.603209,
-.35,.623205,
-.318404,.637939,
-.28473,.646962,
-.25,.65,
0.0*
%
%ADD20MACRO20*%
%ADD26R,1.X.9*%
%AMMACRO10*
4,1,44,.95,-.112,
.95,.112,
.94249,.198832,
.920017,.28304,
.883262,.362067,
.833343,.433511,
.771777,.495201,
.700433,.545262,
.62148,.582175,
.537316,.604817,
.4505,.6125,
.45,.612,
-.45,.612,
-.536824,.604904,
-.62101,.582346,
-.7,.545513,
-.771394,.495522,
-.833022,.433894,
-.883013,.3625,
-.919846,.28351,
-.942404,.199324,
-.95,.1125,
-.95,.112,
-.95,-.112,
-.94249,-.198832,
-.920017,-.28304,
-.883262,-.362067,
-.833343,-.433511,
-.771777,-.495201,
-.700433,-.545262,
-.62148,-.582175,
-.537316,-.604817,
-.4505,-.6125,
-.45,-.612,
.45,-.612,
.536824,-.604904,
.62101,-.582346,
.7,-.545513,
.771394,-.495522,
.833022,-.433894,
.883013,-.3625,
.919846,-.28351,
.942404,-.199324,
.95,-.1125,
.95,-.112,
0.0*
%
%ADD10MACRO10*%
%ADD39R,.9X1.*%
%ADD47C,2.1*%
%ADD19C,1.3*%
%ADD48C,1.5*%
%ADD12C,3.3*%
%ADD30C,1.25*%
%ADD46C,1.35*%
%ADD32C,1.45*%
%AMMACRO40*
21,1,.57,.62,0.0,0.0,135.*%
%ADD40MACRO40*%
%ADD29R,.9X1.9*%
%ADD22R,1.3X1.3*%
%ADD43R,.9X2.9*%
%ADD14C,1.65*%
%ADD37R,.95X1.45*%
%ADD38R,1.45X.95*%
%ADD31R,1.35X1.35*%
%ADD15R,1.65X1.65*%
%AMMACRO21*
4,1,40,.25,-.65,
-.25,-.65,
-.28473,-.646962,
-.318404,-.637939,
-.35,-.623205,
-.378558,-.603209,
-.403209,-.578558,
-.423205,-.55,
-.437939,-.518404,
-.446962,-.48473,
-.45,-.45,
-.45,.45,
-.446962,.48473,
-.437939,.518404,
-.423205,.55,
-.403209,.578558,
-.378558,.603209,
-.35,.623205,
-.318404,.637939,
-.28473,.646962,
-.25,.65,
.25,.65,
.28473,.646962,
.318404,.637939,
.35,.623205,
.378558,.603209,
.403209,.578558,
.423205,.55,
.437939,.518404,
.446962,.48473,
.45,.45,
.45,-.45,
.446962,-.48473,
.437939,-.518404,
.423205,-.55,
.403209,-.578558,
.378558,-.603209,
.35,-.623205,
.318404,-.637939,
.28473,-.646962,
.25,-.65,
0.0*
%
%ADD21MACRO21*%
%ADD18O,1.25X1.05*%
%ADD34R,.5X.3*%
%ADD23R,.3X.5*%
%AMMACRO11*
4,1,44,-.95,.112,
-.95,-.112,
-.94249,-.198832,
-.920017,-.28304,
-.883262,-.362067,
-.833343,-.433511,
-.771777,-.495201,
-.700433,-.545262,
-.62148,-.582175,
-.537316,-.604817,
-.4505,-.6125,
-.45,-.612,
.45,-.612,
.536824,-.604904,
.62101,-.582346,
.7,-.545513,
.771394,-.495522,
.833022,-.433894,
.883013,-.3625,
.919846,-.28351,
.942404,-.199324,
.95,-.1125,
.95,-.112,
.95,.112,
.94249,.198832,
.920017,.28304,
.883262,.362067,
.833343,.433511,
.771777,.495201,
.700433,.545262,
.62148,.582175,
.537316,.604817,
.4505,.6125,
.45,.612,
-.45,.612,
-.536824,.604904,
-.62101,.582346,
-.7,.545513,
-.771394,.495522,
-.833022,.433894,
-.883013,.3625,
-.919846,.28351,
-.942404,.199324,
-.95,.1125,
-.95,.112,
0.0*
%
%ADD11MACRO11*%
%ADD41R,.8X.3*%
%ADD13C,.2*%
%ADD42R,.3X.8*%
%ADD36R,.25X.5*%
%AMMACRO44*
4,1,40,.375,.15,
.375,-.15,
.37424,-.158682,
.371985,-.167101,
.368301,-.175,
.363302,-.182139,
.357139,-.188302,
.35,-.193301,
.342101,-.196985,
.333682,-.19924,
.325,-.2,
-.325,-.2,
-.333682,-.19924,
-.342101,-.196985,
-.35,-.193301,
-.357139,-.188302,
-.363302,-.182139,
-.368301,-.175,
-.371985,-.167101,
-.37424,-.158682,
-.375,-.15,
-.375,.15,
-.37424,.158682,
-.371985,.167101,
-.368301,.175,
-.363302,.182139,
-.357139,.188302,
-.35,.193301,
-.342101,.196985,
-.333682,.19924,
-.325,.2,
.325,.2,
.333682,.19924,
.342101,.196985,
.35,.193301,
.357139,.188302,
.363302,.182139,
.368301,.175,
.371985,.167101,
.37424,.158682,
.375,.15,
0.0*
%
%ADD44MACRO44*%
%ADD17C,.5*%
%ADD27R,.9X.24*%
%ADD28R,.24X.9*%
%ADD35R,.425X.5*%
%ADD24R,.62X.57*%
%ADD25R,.57X.62*%
%ADD45R,.85X.85*%
%ADD49C,.1*%
%ADD50C,.15*%
G75*
%LPD*%
G75*
G36*
G01X287500Y11416300D02*
X307500Y11416300D01*
X307500Y11366300D01*
X287500Y11366300D01*
X287500Y11416300D01*
G37*
G36*
G01X572500Y12074100D02*
X592500Y12074100D01*
X592500Y12024100D01*
X572500Y12024100D01*
X572500Y12074100D01*
G37*
G36*
G01X571500Y12837300D02*
X591500Y12837300D01*
X591500Y12787300D01*
X571500Y12787300D01*
X571500Y12837300D01*
G37*
G36*
G01X614000Y13335000D02*
X614000Y13315000D01*
X574000Y13315000D01*
X574000Y13335000D01*
X614000Y13335000D01*
G37*
G36*
G01X614000Y13935000D02*
X614000Y13915000D01*
X574000Y13915000D01*
X574000Y13935000D01*
X614000Y13935000D01*
G37*
G36*
G01X679500Y11415100D02*
X699500Y11415100D01*
X699500Y11365100D01*
X679500Y11365100D01*
X679500Y11415100D01*
G37*
G36*
G01X629000Y13515000D02*
X629000Y13535000D01*
X679000Y13535000D01*
X679000Y13515000D01*
X629000Y13515000D01*
G37*
G36*
G01X694000Y13715000D02*
X694000Y13735000D01*
X734000Y13735000D01*
X734000Y13715000D01*
X694000Y13715000D01*
G37*
G36*
G01X929000Y13315000D02*
X929000Y13335000D01*
X979000Y13335000D01*
X979000Y13315000D01*
X929000Y13315000D01*
G37*
G36*
G01X914000Y13535000D02*
X914000Y13515000D01*
X874000Y13515000D01*
X874000Y13535000D01*
X914000Y13535000D01*
G37*
G36*
G01X929000Y13715000D02*
X929000Y13735000D01*
X979000Y13735000D01*
X979000Y13715000D01*
X929000Y13715000D01*
G37*
G36*
G01X994000Y13915000D02*
X994000Y13935000D01*
X1034000Y13935000D01*
X1034000Y13915000D01*
X994000Y13915000D01*
G37*
G36*
G01X1109500Y11418500D02*
X1129500Y11418500D01*
X1129500Y11368500D01*
X1109500Y11368500D01*
X1109500Y11418500D01*
G37*
G36*
G01X2934000Y2310200D02*
X2934000Y2330200D01*
X2984000Y2330200D01*
X2984000Y2310200D01*
X2934000Y2310200D01*
G37*
G36*
G01X2984000Y2500200D02*
X2984000Y2480200D01*
X2934000Y2480200D01*
X2934000Y2500200D01*
X2984000Y2500200D01*
G37*
G36*
G01X2934000Y2655200D02*
X2934000Y2675200D01*
X2984000Y2675200D01*
X2984000Y2655200D01*
X2934000Y2655200D01*
G37*
G36*
G01X2984000Y2845200D02*
X2984000Y2825200D01*
X2934000Y2825200D01*
X2934000Y2845200D01*
X2984000Y2845200D01*
G37*
G36*
G01X2984000Y3015200D02*
X2984000Y2995200D01*
X2934000Y2995200D01*
X2934000Y3015200D01*
X2984000Y3015200D01*
G37*
G36*
G01X2929000Y3180200D02*
X2929000Y3200200D01*
X2979000Y3200200D01*
X2979000Y3180200D01*
X2929000Y3180200D01*
G37*
G36*
G01X2979000Y3370200D02*
X2979000Y3350200D01*
X2929000Y3350200D01*
X2929000Y3370200D01*
X2979000Y3370200D01*
G37*
G36*
G01X4626400Y11479800D02*
X4626400Y11499800D01*
X4676400Y11499800D01*
X4676400Y11479800D01*
X4626400Y11479800D01*
G37*
G36*
G01X5914000Y7030000D02*
X5914000Y7010000D01*
X5874000Y7010000D01*
X5874000Y7030000D01*
X5914000Y7030000D01*
G37*
G36*
G01X7079000Y14140000D02*
X7079000Y14160000D01*
X7129000Y14160000D01*
X7129000Y14140000D01*
X7079000Y14140000D01*
G37*
G36*
G01X7144000Y13890000D02*
X7144000Y13910000D01*
X7184000Y13910000D01*
X7184000Y13890000D01*
X7144000Y13890000D01*
G37*
G36*
G01X7364000Y14160000D02*
X7364000Y14140000D01*
X7324000Y14140000D01*
X7324000Y14160000D01*
X7364000Y14160000D01*
G37*
G36*
G01X7429000Y13910000D02*
X7429000Y13890000D01*
X7379000Y13890000D01*
X7379000Y13910000D01*
X7429000Y13910000D01*
G37*
G36*
G01X7579000Y11960000D02*
X7579000Y11940000D01*
X7529000Y11940000D01*
X7529000Y11960000D01*
X7579000Y11960000D01*
G37*
G36*
G01X7529000Y12190000D02*
X7529000Y12210000D01*
X7579000Y12210000D01*
X7579000Y12190000D01*
X7529000Y12190000D01*
G37*
G54D10*
X125000Y7991600D03*
X125000Y9566600D03*
X7855000Y9527700D03*
G54D11*
X125000Y8826400D03*
X125000Y10401400D03*
X7855000Y10240300D03*
G54D20*
X596500Y13325000D03*
X596500Y13925000D03*
X711500Y13325000D03*
X711500Y13925000D03*
X896500Y13525000D03*
X1011500Y13525000D03*
X2901500Y2490200D03*
X2901500Y2835200D03*
X2901500Y3005200D03*
X2896500Y3360200D03*
X3016500Y2490200D03*
X3016500Y2835200D03*
X3016500Y3005200D03*
X3011500Y3360200D03*
X5896500Y7020000D03*
X6011500Y7020000D03*
X7346500Y13900000D03*
X7346500Y14150000D03*
X7496500Y11950000D03*
X7461500Y13900000D03*
X7461500Y14150000D03*
X7611500Y11950000D03*
G54D21*
X596500Y13525000D03*
X596500Y13725000D03*
X711500Y13525000D03*
X711500Y13725000D03*
X896500Y13325000D03*
X896500Y13725000D03*
X896500Y13925000D03*
X1011500Y13325000D03*
X1011500Y13725000D03*
X1011500Y13925000D03*
X2901500Y2320200D03*
X2901500Y2665200D03*
X2896500Y3190200D03*
X3016500Y2320200D03*
X3016500Y2665200D03*
X3011500Y3190200D03*
X4593900Y11489800D03*
X4708900Y11489800D03*
X7046500Y13900000D03*
X7046500Y14150000D03*
X7161500Y13900000D03*
X7161500Y14150000D03*
X7496500Y12200000D03*
X7611500Y12200000D03*
G54D30*
X2857000Y12688700D03*
X2857000Y12942700D03*
X2857000Y13196700D03*
X2857000Y13450700D03*
X2857000Y13704700D03*
X2857000Y13958700D03*
X2857000Y14212700D03*
X5143000Y12689000D03*
X5143000Y12943000D03*
X5143000Y13197000D03*
X5143000Y13451000D03*
X5143000Y13705000D03*
X5143000Y13959000D03*
X5143000Y14213000D03*
G54D12*
X300000Y300000D03*
X300000Y16662000D03*
X6950000Y7612500D03*
X6950000Y8755500D03*
X7700000Y300000D03*
X7700000Y16675000D03*
G54D13*
X83000Y511000D03*
X82000Y654000D03*
X82000Y908000D03*
X82000Y1162000D03*
X82000Y1416000D03*
X82000Y1670000D03*
X82000Y1924000D03*
X82000Y2178000D03*
X82000Y2432000D03*
X82000Y2686000D03*
X82000Y2940000D03*
X82000Y3194000D03*
X82000Y3448000D03*
X82000Y3702000D03*
X82000Y3956000D03*
X144000Y4051000D03*
X79000Y4303000D03*
X79000Y4557000D03*
X79000Y4811000D03*
X79000Y5319000D03*
X79000Y5573000D03*
X79000Y5827000D03*
X79000Y6081000D03*
X79000Y6335000D03*
X79000Y6589000D03*
X79000Y6843000D03*
X79000Y7097000D03*
X79000Y7351000D03*
X79000Y7605000D03*
X166000Y7713000D03*
X79000Y7859000D03*
X93000Y9004000D03*
X93000Y9258000D03*
X81000Y9421000D03*
X93000Y10528000D03*
X93000Y10782000D03*
X93000Y11036000D03*
X93000Y11290000D03*
X93000Y11544000D03*
X93000Y11798000D03*
X93000Y12306000D03*
X81000Y12609000D03*
X80000Y12945000D03*
X83000Y13336000D03*
X78000Y13487000D03*
X81000Y13913000D03*
X80000Y14215000D03*
X80000Y14469000D03*
X80000Y14723000D03*
X80000Y14977000D03*
X80000Y15231000D03*
X80000Y15485000D03*
X80000Y15739000D03*
X80000Y15993000D03*
X80000Y16247000D03*
X84000Y16446000D03*
X266700Y11664900D03*
X300900Y13197900D03*
X302500Y12444300D03*
X389000Y13905000D03*
X329000Y14089900D03*
X499000Y79000D03*
X449000Y10836000D03*
X440000Y11300300D03*
X480000Y11444000D03*
X444000Y13350000D03*
X514000Y14000000D03*
X500000Y16084000D03*
X572500Y7171500D03*
X629300Y7895000D03*
X581200Y8550200D03*
X596800Y9512300D03*
X561000Y9635100D03*
X581200Y10123500D03*
X584000Y11861500D03*
X582500Y12232500D03*
X550000Y16159000D03*
X547000Y16884000D03*
X773000Y82000D03*
X760500Y1319500D03*
X756000Y1716000D03*
X724000Y9723500D03*
X657700Y11665700D03*
X860000Y361000D03*
X837000Y607000D03*
X852000Y987000D03*
X816000Y1914000D03*
X889000Y3689000D03*
X808000Y9194800D03*
X878100Y9534000D03*
X825000Y11300500D03*
X870000Y11444000D03*
X872900Y12747900D03*
X804000Y13525000D03*
X794000Y13810000D03*
X823000Y16881000D03*
X924200Y1744500D03*
X903000Y1975000D03*
X899100Y3558600D03*
X1027000Y82000D03*
X1100000Y1866000D03*
X1091000Y9139000D03*
X1110000Y9304000D03*
X1031000Y9825100D03*
X1083000Y10946000D03*
X1072000Y11173000D03*
X1084700Y11665300D03*
X1097500Y12444300D03*
X1084900Y13193000D03*
X1074000Y13420000D03*
X1094000Y14075000D03*
X1114000Y14240000D03*
X1077000Y16881000D03*
X1224000Y383000D03*
X1150000Y609000D03*
X1171000Y1972000D03*
X1241000Y9836000D03*
X1141000Y10709000D03*
X1220000Y10884000D03*
X1242700Y11300500D03*
X1204000Y12276900D03*
X1219900Y13020100D03*
X1164000Y13460000D03*
X1130100Y16003200D03*
X1129400Y16675000D03*
X1281000Y82000D03*
X1288000Y1905500D03*
X1284000Y3852000D03*
X1309000Y8609000D03*
X1295800Y8530000D03*
X1255900Y10036500D03*
X1253700Y9969500D03*
X1280000Y11447400D03*
X1304000Y13350000D03*
X1354000Y13550000D03*
X1331000Y16881000D03*
X1394000Y10084000D03*
X1449500Y11379000D03*
X1388000Y13643000D03*
X1535000Y82000D03*
X1505000Y607000D03*
X1515000Y989000D03*
X1583000Y1369000D03*
X1512500Y1676500D03*
X1526000Y1884000D03*
X1506000Y8182000D03*
X1523700Y9736300D03*
X1525300Y12433800D03*
X1514000Y13690000D03*
X1585000Y16881000D03*
X1599000Y396000D03*
X1665000Y853000D03*
X1691000Y1038000D03*
X1665000Y2572000D03*
X1714000Y7472000D03*
X1666500Y7775500D03*
X1789000Y82000D03*
X1830000Y605000D03*
X1727000Y1554000D03*
X1766500Y2776700D03*
X1826000Y6914000D03*
X1782900Y7472000D03*
X1732000Y8469000D03*
X1764000Y8570000D03*
X1782000Y9934000D03*
X1831000Y10756000D03*
X1789000Y10976000D03*
X1866000Y1330000D03*
X1905500Y1435000D03*
X1899000Y3498000D03*
X1859000Y7916000D03*
X1837000Y9429000D03*
X1839000Y16881000D03*
X2043000Y82000D03*
X2039400Y3861000D03*
X2090000Y951000D03*
X2089000Y2280000D03*
X2134000Y4485000D03*
X2089000Y6912000D03*
X2090000Y7910000D03*
X2091000Y8219000D03*
X2090000Y8298000D03*
X2149500Y11383700D03*
X2093000Y16881000D03*
X2297000Y82000D03*
X2269000Y3540000D03*
X2189000Y3565000D03*
X2254000Y3630000D03*
X2280000Y4430400D03*
X2214000Y4460000D03*
X2264000Y4774000D03*
X2286300Y5072300D03*
X2280000Y8297000D03*
X2196000Y9460000D03*
X2191000Y9684000D03*
X2197000Y9826000D03*
X2302000Y10942000D03*
X2344000Y3610000D03*
X2324000Y3690000D03*
X2410000Y3778000D03*
X2396600Y4469300D03*
X2329800Y4475300D03*
X2305000Y4906000D03*
X2377000Y5352000D03*
X2368000Y9535000D03*
X2355000Y10674000D03*
X2339000Y11588000D03*
X2371000Y11969000D03*
X2364000Y12333000D03*
X2375000Y14859000D03*
X2375000Y15059000D03*
X2347000Y16881000D03*
X2474000Y4110000D03*
X2462000Y4450000D03*
X2526000Y5212000D03*
X2531000Y5377000D03*
X2539000Y6884000D03*
X2490000Y8624000D03*
X2460000Y8994000D03*
X2423000Y9208000D03*
X2437000Y9859000D03*
X2450000Y10034000D03*
X2490000Y10464000D03*
X2476000Y11288000D03*
X2551000Y82000D03*
X2656000Y1389000D03*
X2641000Y1465100D03*
X2600700Y2037300D03*
X2549000Y3230000D03*
X2629000Y3220000D03*
X2613200Y3283100D03*
X2564000Y4390000D03*
X2591500Y4467500D03*
X2620000Y5220500D03*
X2609500Y5628000D03*
X2576000Y7964000D03*
X2595000Y8864000D03*
X2610000Y9914000D03*
X2550000Y9944000D03*
X2617000Y10177000D03*
X2575000Y10694000D03*
X2554000Y10966000D03*
X2650000Y15668000D03*
X2655600Y15928800D03*
X2601000Y16881000D03*
X2748000Y789000D03*
X2741000Y2087800D03*
X2722000Y2251300D03*
X2664000Y3340000D03*
X2662000Y4492000D03*
X2724000Y4411000D03*
X2764000Y4480000D03*
X2685000Y4788000D03*
X2739000Y6540000D03*
X2703000Y11057000D03*
X2805000Y82000D03*
X2852000Y945000D03*
X2815000Y3154000D03*
X2814800Y3360200D03*
X2829000Y3960000D03*
X2880200Y4254800D03*
X2889000Y4160000D03*
X2880800Y4354300D03*
X2834000Y4465000D03*
X2782000Y4797000D03*
X2787000Y5373000D03*
X2858000Y7115000D03*
X2869000Y7385000D03*
X2832000Y8131000D03*
X2856000Y8977000D03*
X2850000Y15668000D03*
X2799000Y15920500D03*
X2855000Y16881000D03*
X2970000Y1404000D03*
X2944000Y3920000D03*
X2939000Y4020000D03*
X2925800Y4103900D03*
X2931700Y4211800D03*
X2925500Y4304300D03*
X2946000Y4504000D03*
X2925500Y4404300D03*
X2914000Y4723000D03*
X2937000Y5105100D03*
X2920000Y5408600D03*
X2915000Y5900000D03*
X2937000Y6477000D03*
X2976000Y11070900D03*
X2901100Y11072800D03*
X2910000Y11588000D03*
X3011000Y12063000D03*
X3059000Y82000D03*
X3029000Y773000D03*
X3052900Y1835000D03*
X3069700Y1899900D03*
X3040000Y2005600D03*
X3118400Y1981700D03*
X3089400Y2069500D03*
X3112000Y3206000D03*
X3103000Y3112000D03*
X3109500Y5095600D03*
X3118500Y5415100D03*
X3089000Y7381000D03*
X3089000Y7871000D03*
X3089000Y8819000D03*
X3081000Y10160000D03*
X3046000Y10773000D03*
X3072800Y15270400D03*
X3109000Y16881000D03*
X3224000Y833000D03*
X3207800Y1910800D03*
X3148900Y1846700D03*
X3184200Y2049300D03*
X3157000Y2606000D03*
X3144000Y2720300D03*
X3165000Y4635000D03*
X3226000Y5092000D03*
X3191000Y6280000D03*
X3147000Y6572000D03*
X3175000Y10234000D03*
X3148000Y10330000D03*
X3162000Y11289100D03*
X3162000Y11537300D03*
X3141500Y15171500D03*
X3313000Y82000D03*
X3355000Y2761700D03*
X3363000Y16881000D03*
X3461200Y1145100D03*
X3446700Y1582300D03*
X3434300Y1782300D03*
X3367500Y2514800D03*
X3405000Y2627200D03*
X3397000Y3025000D03*
X3431000Y6648000D03*
X3394000Y7060000D03*
X3401000Y7307000D03*
X3454000Y10436200D03*
X3400000Y10864000D03*
X3400000Y10934000D03*
X3377300Y11167400D03*
X3378900Y11357900D03*
X3365000Y11539000D03*
X3365000Y11754000D03*
X3480000Y11846000D03*
X3567000Y82000D03*
X3539100Y1115900D03*
X3559300Y2472300D03*
X3484600Y2475800D03*
X3565000Y2628300D03*
X3485000Y2627200D03*
X3486100Y3024200D03*
X3506000Y4616000D03*
X3593000Y4655200D03*
X3595000Y5158000D03*
X3528000Y5316000D03*
X3555500Y7790500D03*
X3555500Y8609500D03*
X3538000Y8742000D03*
X3490000Y10854000D03*
X3500000Y11165500D03*
X3573000Y16881000D03*
X3678500Y958500D03*
X3629000Y1010000D03*
X3688500Y4147800D03*
X3691400Y4049400D03*
X3689000Y4247200D03*
X3691000Y4357200D03*
X3620000Y4442000D03*
X3674500Y4852300D03*
X3674500Y4752300D03*
X3674500Y4952300D03*
X3674500Y5052300D03*
X3682500Y7790500D03*
X3718000Y8864000D03*
X3650500Y11263100D03*
X3821000Y82000D03*
X3836000Y981000D03*
X3823000Y1982000D03*
X3805000Y3028000D03*
X3802900Y3114400D03*
X3745600Y4006800D03*
X3735500Y4100000D03*
X3735000Y4197200D03*
X3730000Y4302200D03*
X3719200Y4802300D03*
X3719200Y4902300D03*
X3719200Y5002300D03*
X3819000Y7390500D03*
X3809500Y7798500D03*
X3793000Y9248000D03*
X3771700Y11103700D03*
X3771700Y11356400D03*
X3791000Y15299100D03*
X3790000Y15601100D03*
X3920000Y1241500D03*
X3840000Y1241500D03*
X3885300Y2476400D03*
X3883000Y2629000D03*
X3885200Y2707100D03*
X3885200Y2787100D03*
X3885200Y3027100D03*
X3894000Y5380000D03*
X3905000Y5814300D03*
X3936500Y7790500D03*
X3878000Y8720000D03*
X3934000Y10775000D03*
X3900300Y11310300D03*
X3893100Y11574400D03*
X3849000Y11517000D03*
X3936000Y11514000D03*
X3848000Y11638000D03*
X3939000Y11637000D03*
X3859100Y11868000D03*
X3951000Y16249000D03*
X3851000Y16211100D03*
X3871000Y16881000D03*
X4001000Y987000D03*
X4068000Y1241500D03*
X4062400Y1452000D03*
X3974000Y1905300D03*
X4034800Y2157500D03*
X4032600Y2479700D03*
X4035600Y2622000D03*
X4034800Y2707100D03*
X4040400Y2792700D03*
X4000000Y3198300D03*
X3962000Y3872000D03*
X3959300Y5192300D03*
X3995000Y7371000D03*
X4063500Y7790500D03*
X4048500Y11126300D03*
X4018100Y11743900D03*
X3961000Y15299100D03*
X3960000Y15602100D03*
X4083000Y997000D03*
X4162000Y999000D03*
X4153400Y1873000D03*
X4121400Y2232900D03*
X4117100Y2475200D03*
X4116400Y2627600D03*
X4114800Y2707100D03*
X4120400Y2792700D03*
X4085000Y5673300D03*
X4169000Y7390500D03*
X4102000Y8801000D03*
X4139000Y9213000D03*
X4143900Y11302000D03*
X4139000Y11495000D03*
X4099500Y11574400D03*
X4103500Y11654500D03*
X4151000Y15170000D03*
X4180000Y15700000D03*
X4074000Y16185000D03*
X4125000Y16881000D03*
X4202000Y730000D03*
X4213200Y1923800D03*
X4195400Y2238100D03*
X4196900Y2155800D03*
X4199000Y3228000D03*
X4297400Y4292700D03*
X4274500Y4435000D03*
X4305000Y6617000D03*
X4190500Y7790500D03*
X4296000Y11492000D03*
X4245600Y11842600D03*
X4297000Y13827000D03*
X4203000Y15922000D03*
X4229000Y16104000D03*
X4329000Y82000D03*
X4320000Y1008000D03*
X4403000Y1231000D03*
X4402600Y4072000D03*
X4348600Y4164000D03*
X4315000Y7020000D03*
X4314000Y7265000D03*
X4317500Y7782000D03*
X4359000Y8007000D03*
X4403000Y8978000D03*
X4414000Y11494000D03*
X4478000Y960000D03*
X4540000Y1542000D03*
X4435200Y2316800D03*
X4514800Y2477500D03*
X4525700Y3868000D03*
X4456200Y4112400D03*
X4439500Y4235200D03*
X4461500Y4352500D03*
X4533000Y7039000D03*
X4480000Y7713000D03*
X4514000Y7798200D03*
X4444500Y7785000D03*
X4501000Y8147000D03*
X4516000Y8051000D03*
X4444500Y8609500D03*
X4472000Y11219000D03*
X4520000Y11495000D03*
X4437400Y11885400D03*
X4519000Y13560000D03*
X4452000Y16875000D03*
X4569000Y1405000D03*
X4604000Y2625000D03*
X4620000Y3114000D03*
X4578000Y4964500D03*
X4551300Y5085300D03*
X4561000Y6541000D03*
X4630000Y7471000D03*
X4545500Y7543500D03*
X4630000Y8254000D03*
X4598000Y8376000D03*
X4628000Y8783000D03*
X4616000Y9206000D03*
X4593300Y10985000D03*
X4627000Y11658000D03*
X4564000Y13475000D03*
X4777700Y2183500D03*
X4697700Y3262300D03*
X4750000Y3927300D03*
X4709000Y4503000D03*
X4705000Y5678300D03*
X4720000Y7794000D03*
X4745000Y7894000D03*
X4715000Y8036000D03*
X4736000Y7966000D03*
X4755900Y8123800D03*
X4690000Y8423000D03*
X4692000Y14640000D03*
X4700000Y14988000D03*
X4763000Y15312000D03*
X4689100Y15602100D03*
X4664000Y16874000D03*
X4785100Y2251500D03*
X4781000Y2355100D03*
X4800000Y2628000D03*
X4881000Y3003000D03*
X4820000Y3846000D03*
X4834000Y4710000D03*
X4853000Y4825000D03*
X4859000Y5382000D03*
X4881000Y7439000D03*
X4790000Y7476000D03*
X4780000Y7714000D03*
X4794600Y8178600D03*
X4878800Y8251600D03*
X4880000Y8567000D03*
X4854100Y11489800D03*
X4780000Y15653000D03*
X4986000Y80000D03*
X4985000Y775000D03*
X4912100Y879100D03*
X5007000Y1187000D03*
X4928000Y1348000D03*
X4938000Y2026000D03*
X5011600Y2663600D03*
X4984000Y2754900D03*
X4994000Y2942900D03*
X5003500Y3032900D03*
X4930000Y3330000D03*
X4986000Y3483000D03*
X4937000Y4714500D03*
X5001700Y4889100D03*
X4932000Y6425000D03*
X4986400Y8300000D03*
X4919500Y8304900D03*
X4980000Y8564000D03*
X4918000Y16874000D03*
X5122000Y973600D03*
X5021500Y2045200D03*
X5084400Y2747000D03*
X5104000Y2860000D03*
X5104300Y3092200D03*
X5104000Y3173000D03*
X5065000Y3376000D03*
X5030700Y3783300D03*
X5115100Y3821800D03*
X5082000Y4195000D03*
X5074600Y4382600D03*
X5043000Y4441800D03*
X5060800Y4639900D03*
X5046500Y4941000D03*
X5018800Y5073200D03*
X5051500Y5007900D03*
X5064500Y7011000D03*
X5049000Y8324000D03*
X5100000Y8564000D03*
X5044000Y15314000D03*
X5240000Y80000D03*
X5183000Y1424000D03*
X5170000Y1769000D03*
X5211000Y2164100D03*
X5221000Y2355100D03*
X5221000Y2275100D03*
X5164000Y2695000D03*
X5234000Y2835000D03*
X5144000Y2943400D03*
X5232800Y2978300D03*
X5216000Y3253000D03*
X5143300Y3505100D03*
X5182300Y3559600D03*
X5134200Y3661200D03*
X5190000Y3709200D03*
X5244000Y4000000D03*
X5222000Y3924900D03*
X5228900Y4070100D03*
X5184000Y4270000D03*
X5204000Y4175000D03*
X5141200Y4374900D03*
X5180000Y4774000D03*
X5240000Y8324000D03*
X5160000Y8329000D03*
X5200000Y8574000D03*
X5200000Y8820000D03*
X5172000Y16874000D03*
X5268000Y1062000D03*
X5279000Y2640000D03*
X5263600Y3805400D03*
X5290100Y4596500D03*
X5267500Y4665000D03*
X5329100Y7276100D03*
X5327000Y7374000D03*
X5337000Y7569000D03*
X5320000Y8574000D03*
X5320000Y8820000D03*
X5456000Y693000D03*
X5462000Y937200D03*
X5398000Y1209000D03*
X5378500Y3279200D03*
X5453000Y4640000D03*
X5389400Y8253700D03*
X5401000Y8181100D03*
X5390000Y8324000D03*
X5440000Y8574000D03*
X5440000Y8820000D03*
X5397000Y11011000D03*
X5475000Y15305000D03*
X5426000Y16874000D03*
X5494000Y80000D03*
X5549500Y197000D03*
X5495000Y1664500D03*
X5574200Y1666400D03*
X5489000Y1856000D03*
X5584000Y3303000D03*
X5589000Y3900000D03*
X5590200Y4473700D03*
X5507000Y7866000D03*
X5490000Y8064000D03*
X5614400Y707100D03*
X5706000Y1696000D03*
X5639400Y1682200D03*
X5674600Y1909000D03*
X5645000Y1804600D03*
X5654000Y1999000D03*
X5717000Y1975900D03*
X5610000Y2075000D03*
X5709300Y2260200D03*
X5649000Y2592900D03*
X5695000Y3023000D03*
X5645000Y3372200D03*
X5664800Y3479400D03*
X5665200Y3546400D03*
X5696300Y3669700D03*
X5660000Y3613300D03*
X5688600Y3738300D03*
X5634000Y4149200D03*
X5694000Y4101000D03*
X5690000Y4270200D03*
X5671000Y4205200D03*
X5713000Y4371200D03*
X5618000Y7863500D03*
X5704000Y8124000D03*
X5653000Y8292000D03*
X5620000Y8906000D03*
X5668000Y11093000D03*
X5680000Y16874000D03*
X5748000Y80000D03*
X5752000Y712000D03*
X5791000Y1200100D03*
X5723900Y1863600D03*
X5744000Y4311200D03*
X5734000Y5383000D03*
X5728000Y7055000D03*
X5830000Y8764000D03*
X5751000Y8936000D03*
X5736000Y10191100D03*
X5731000Y10361100D03*
X5917900Y973100D03*
X5870000Y5442000D03*
X5885000Y5648000D03*
X5885000Y7627000D03*
X5929000Y7808000D03*
X5908000Y7993000D03*
X5854000Y8034000D03*
X5934000Y16874000D03*
X6002000Y80000D03*
X6068000Y1185100D03*
X6045000Y3759000D03*
X6033700Y4419300D03*
X5973000Y5638000D03*
X6050000Y8791000D03*
X6036000Y9778000D03*
X6034000Y10033200D03*
X5987000Y10191100D03*
X5997000Y10361100D03*
X5964000Y15319000D03*
X6155000Y2442000D03*
X6119000Y3900000D03*
X6117000Y4012000D03*
X6111000Y7626000D03*
X6083800Y11132600D03*
X6188000Y16874000D03*
X6256000Y80000D03*
X6246100Y919200D03*
X6297000Y1207000D03*
X6238100Y3185100D03*
X6202000Y4633000D03*
X6288100Y7264000D03*
X6230000Y7859000D03*
X6221000Y8086000D03*
X6219000Y8372000D03*
X6236000Y10005600D03*
X6271000Y10585100D03*
X6271000Y10841100D03*
X6259000Y11110000D03*
X6305000Y13152000D03*
X6297000Y13684000D03*
X6319000Y545000D03*
X6333000Y3174000D03*
X6426500Y3395000D03*
X6402300Y3816600D03*
X6330000Y7442000D03*
X6323000Y8810000D03*
X6386600Y10032000D03*
X6334000Y10870000D03*
X6322000Y12169000D03*
X6320000Y12412000D03*
X6510000Y80000D03*
X6520500Y1695700D03*
X6520000Y2033000D03*
X6479000Y2123000D03*
X6475000Y2514000D03*
X6458000Y2676000D03*
X6544000Y3195000D03*
X6511600Y3543200D03*
X6544400Y3469800D03*
X6493600Y3745300D03*
X6457700Y4117300D03*
X6544000Y4200000D03*
X6504400Y4254200D03*
X6445000Y4322000D03*
X6489000Y4389200D03*
X6479000Y9302000D03*
X6431500Y9767500D03*
X6540000Y10338000D03*
X6531500Y10412500D03*
X6429000Y10844600D03*
X6498000Y12170000D03*
X6498000Y12411000D03*
X6496000Y12666000D03*
X6520000Y13159000D03*
X6524000Y13680000D03*
X6442000Y16874000D03*
X6625300Y1598700D03*
X6585700Y1708200D03*
X6549000Y2540000D03*
X6600600Y3554600D03*
X6601400Y3662400D03*
X6548900Y3707400D03*
X6559000Y4105000D03*
X6635700Y4372100D03*
X6555000Y7743000D03*
X6622000Y8065000D03*
X6566500Y10036100D03*
X6553000Y10190800D03*
X6552000Y10538000D03*
X6652000Y11270000D03*
X6627000Y13511000D03*
X6654000Y16023000D03*
X6655000Y16496000D03*
X6764000Y80000D03*
X6733000Y553000D03*
X6720000Y1505000D03*
X6762000Y2151000D03*
X6723000Y2353000D03*
X6718000Y2434000D03*
X6696000Y4494000D03*
X6676000Y8244000D03*
X6720000Y11064000D03*
X6780000Y11263000D03*
X6720000Y11530000D03*
X6730500Y12619500D03*
X6763000Y12750000D03*
X6727100Y12867100D03*
X6703000Y15499000D03*
X6696000Y16874000D03*
X6790500Y1593500D03*
X6800000Y1993000D03*
X6828000Y7227000D03*
X6836000Y7415000D03*
X6882000Y7904000D03*
X6859000Y9038000D03*
X6838000Y9535000D03*
X6838000Y9932000D03*
X6795500Y10186100D03*
X6824000Y11178000D03*
X6820800Y11347700D03*
X6891100Y12497900D03*
X6869000Y13362000D03*
X6801000Y15656500D03*
X6870600Y16274900D03*
X6870600Y16675000D03*
X6992000Y307000D03*
X6958000Y1321000D03*
X6920000Y1558000D03*
X7009000Y1590000D03*
X7000000Y9535000D03*
X7011000Y9776000D03*
X6982000Y11157100D03*
X6978100Y11224000D03*
X7012000Y12370000D03*
X6996000Y13134000D03*
X6993000Y13264000D03*
X6950000Y16874000D03*
X7018000Y80000D03*
X7123000Y549000D03*
X7119000Y1352000D03*
X7044700Y1646800D03*
X7038000Y2276000D03*
X7064600Y2432100D03*
X7061000Y9040000D03*
X7118200Y9685200D03*
X7036000Y10050000D03*
X7097000Y10191100D03*
X7097000Y10291100D03*
X7097000Y10391100D03*
X7097000Y10491100D03*
X7099000Y13715000D03*
X7100100Y16096900D03*
X7074000Y16430000D03*
X7217000Y1802000D03*
X7242000Y2776000D03*
X7204000Y16874000D03*
X7272000Y80000D03*
X7319000Y311000D03*
X7280200Y1664500D03*
X7344700Y1682700D03*
X7290000Y1919000D03*
X7265400Y3026200D03*
X7321000Y4049000D03*
X7316000Y7055000D03*
X7254000Y9184000D03*
X7319500Y9562800D03*
X7353000Y9788000D03*
X7261000Y10891100D03*
X7345000Y15029000D03*
X7369900Y16274900D03*
X7406000Y113000D03*
X7439000Y549000D03*
X7412000Y1743000D03*
X7471000Y4533100D03*
X7399000Y7060000D03*
X7420000Y12754500D03*
X7370100Y13005900D03*
X7486500Y13720000D03*
X7442000Y14434000D03*
X7465000Y16878000D03*
X7488000Y1818000D03*
X7537000Y2435900D03*
X7604000Y7199000D03*
X7583000Y15735000D03*
X7670600Y2257600D03*
X7625400Y2740700D03*
X7642500Y8343200D03*
X7609000Y16219000D03*
X7814000Y2023000D03*
X7760600Y2276800D03*
X7737000Y3030900D03*
X7781300Y3248000D03*
X7747000Y9092000D03*
X7750000Y9284000D03*
X7787600Y11012300D03*
X7787600Y11139300D03*
X7787600Y11266300D03*
X7782900Y12370900D03*
X7782900Y12497900D03*
X7771900Y12644400D03*
X7782900Y13005900D03*
X7782900Y13132900D03*
X7782900Y13259900D03*
X7782900Y13386900D03*
X7782900Y13513900D03*
X7907000Y529000D03*
X7911000Y721000D03*
X7911000Y975000D03*
X7911000Y1229000D03*
X7911000Y1483000D03*
X7911000Y1737000D03*
X7911000Y1991000D03*
X7845000Y1950000D03*
X7911000Y2499000D03*
X7844300Y2523800D03*
X7919000Y10451000D03*
X7919000Y10705000D03*
X7919000Y10959000D03*
X7919000Y11213000D03*
X7919000Y11467000D03*
X7919000Y11721000D03*
X7919000Y11975000D03*
X7919000Y12229000D03*
X7919000Y12483000D03*
X7920000Y12695000D03*
X7920000Y12949000D03*
X7920000Y13203000D03*
X7920000Y13457000D03*
X7920000Y13711000D03*
X7920000Y13965000D03*
X7920000Y14219000D03*
X7920000Y14473000D03*
X7920000Y14727000D03*
X7920000Y14981000D03*
X7920000Y15235000D03*
X7920000Y15489000D03*
X7920000Y15743000D03*
X7920000Y15997000D03*
X7920000Y16251000D03*
X7919000Y16456000D03*
G54D31*
X2857000Y14466700D03*
X5143000Y14467000D03*
G54D22*
X825000Y8709000D03*
X875000Y10284000D03*
X1025000Y8964000D03*
X1075000Y10534000D03*
X1899900Y11550000D03*
X2654100Y16124100D03*
X3900000Y13777700D03*
X4100000Y13777700D03*
X4744000Y16126100D03*
X5397000Y9237100D03*
X5334000Y11207400D03*
X5770600Y11207400D03*
X6667000Y9237100D03*
G54D40*
X4686100Y8307900D03*
X4753900Y8240100D03*
X4746100Y8367900D03*
X4813900Y8300100D03*
G54D50*
G01X7700000Y16960000D02*
G02X8000000Y16660000I0J-300000D01*
G01X8000000Y300000D01*
G02X7700000Y0I-300000J0D01*
G01X300000Y0D01*
G02X0Y300000I0J300000D01*
G01X0Y16660000D01*
G02X300000Y16960000I300000J0D01*
G01X300000Y16960000D02*
X7700000Y16960000D01*
G54D41*
X4721000Y4112300D03*
X4721000Y4062300D03*
X4721000Y4262300D03*
X4721000Y4212300D03*
X4721000Y4162300D03*
X4721000Y4362300D03*
X4721000Y4312300D03*
X4721000Y4412300D03*
X4931000Y4062300D03*
X4931000Y4112300D03*
X4931000Y4162300D03*
X4931000Y4212300D03*
X4931000Y4262300D03*
X4931000Y4312300D03*
X4931000Y4362300D03*
X4931000Y4412300D03*
X5330000Y3412300D03*
X5330000Y3512300D03*
X5330000Y3462300D03*
X5330000Y3662300D03*
X5330000Y3612300D03*
X5330000Y3562300D03*
X5330000Y3762300D03*
X5330000Y3712300D03*
X5331000Y4112300D03*
X5331000Y4062300D03*
X5331000Y4262300D03*
X5331000Y4212300D03*
X5331000Y4162300D03*
X5331000Y4362300D03*
X5331000Y4312300D03*
X5331000Y4412300D03*
X5540000Y3412300D03*
X5540000Y3462300D03*
X5540000Y3512300D03*
X5540000Y3562300D03*
X5540000Y3612300D03*
X5540000Y3662300D03*
X5540000Y3712300D03*
X5540000Y3762300D03*
X5541000Y4062300D03*
X5541000Y4112300D03*
X5541000Y4162300D03*
X5541000Y4212300D03*
X5541000Y4262300D03*
X5541000Y4312300D03*
X5541000Y4362300D03*
X5541000Y4412300D03*
X6138000Y3412300D03*
X6138000Y3512300D03*
X6138000Y3462300D03*
X6138000Y3662300D03*
X6138000Y3612300D03*
X6138000Y3562300D03*
X6138000Y3762300D03*
X6138000Y3712300D03*
X6139000Y4119300D03*
X6139000Y4069300D03*
X6139000Y4219300D03*
X6139000Y4169300D03*
X6139000Y4369300D03*
X6139000Y4319300D03*
X6139000Y4269300D03*
X6139000Y4419300D03*
X6348000Y3412300D03*
X6348000Y3462300D03*
X6348000Y3512300D03*
X6348000Y3562300D03*
X6348000Y3612300D03*
X6348000Y3662300D03*
X6348000Y3712300D03*
X6348000Y3762300D03*
X6349000Y4069300D03*
X6349000Y4119300D03*
X6349000Y4169300D03*
X6349000Y4219300D03*
X6349000Y4269300D03*
X6349000Y4319300D03*
X6349000Y4369300D03*
X6349000Y4419300D03*
G54D23*
X2174000Y4542500D03*
X2174000Y4637500D03*
X2224000Y4542500D03*
X2274000Y4542500D03*
X2274000Y4637500D03*
X2224000Y4637500D03*
X2324000Y4542500D03*
X2324000Y4637500D03*
X2419000Y4547500D03*
X2469000Y4547500D03*
X2519000Y4547500D03*
X2519000Y4642500D03*
X2469000Y4642500D03*
X2419000Y4642500D03*
X2569000Y4547500D03*
X2569000Y4642500D03*
X2664000Y4547500D03*
X2714000Y4547500D03*
X2764000Y4547500D03*
X2764000Y4642500D03*
X2714000Y4642500D03*
X2664000Y4642500D03*
X2814000Y4547500D03*
X2814000Y4642500D03*
G54D14*
X317000Y855100D03*
X317000Y1109100D03*
X317000Y1363100D03*
X317000Y1617100D03*
X317000Y1871100D03*
X317000Y2125100D03*
X317000Y2379100D03*
X317000Y2633100D03*
X317000Y2887100D03*
X317000Y3141100D03*
X317000Y3395100D03*
X317000Y3649100D03*
X317000Y3903100D03*
X317000Y4157100D03*
X317000Y4411100D03*
X317000Y4665100D03*
X317000Y4919100D03*
X317000Y5173100D03*
X317000Y5427100D03*
X317000Y5935100D03*
X317000Y6189100D03*
X317000Y6443100D03*
X317000Y6697100D03*
X571000Y855100D03*
X571000Y1109100D03*
X571000Y1363100D03*
X571000Y1617100D03*
X571000Y1871100D03*
X571000Y2125100D03*
X571000Y2379100D03*
X571000Y2633100D03*
X571000Y2887100D03*
X571000Y3141100D03*
X571000Y3395100D03*
X571000Y3649100D03*
X571000Y3903100D03*
X571000Y4157100D03*
X571000Y4411100D03*
X571000Y4665100D03*
X571000Y4919100D03*
X571000Y5173100D03*
X571000Y5427100D03*
X571000Y5681100D03*
X571000Y5935100D03*
X571000Y6189100D03*
X571000Y6443100D03*
X571000Y6697100D03*
X825000Y5935100D03*
X825000Y6189100D03*
X825000Y6443100D03*
X825000Y6697100D03*
X816100Y14476100D03*
X816100Y14730100D03*
X816100Y14984100D03*
X816100Y15238100D03*
X816100Y15492100D03*
X816100Y15746100D03*
X1079000Y5935100D03*
X1079000Y6189100D03*
X1079000Y6443100D03*
X1079000Y6697100D03*
X1070100Y14730100D03*
X1070100Y14984100D03*
X1070100Y15238100D03*
X1070100Y15492100D03*
X1070100Y15746100D03*
X1333000Y5935100D03*
X1333000Y6189100D03*
X1333000Y6443100D03*
X1333000Y6697100D03*
X1587000Y5935100D03*
X1587000Y6189100D03*
X1587000Y6443100D03*
X1587000Y6697100D03*
X1587000Y12031100D03*
X1587000Y12285100D03*
X1587000Y12539100D03*
X1587000Y12793100D03*
X1587000Y13047100D03*
X1587000Y13809100D03*
X1587000Y14063100D03*
X1587000Y14317100D03*
X1587000Y14571100D03*
X1587000Y14825100D03*
X1587000Y15079100D03*
X1587000Y15333100D03*
X1587000Y16349100D03*
X1841000Y5935100D03*
X1841000Y6189100D03*
X1841000Y6443100D03*
X1841000Y6697100D03*
X2095000Y5935100D03*
X2095000Y6189100D03*
X2095000Y6443100D03*
X2095000Y6697100D03*
X2349000Y5935100D03*
X2349000Y6189100D03*
X2349000Y6443100D03*
X2349000Y6697100D03*
X2603000Y5935100D03*
X2603000Y6443100D03*
X2857000Y347100D03*
X3111000Y347100D03*
X3111000Y601100D03*
X3365000Y347100D03*
X3365000Y601100D03*
X3619000Y347100D03*
X3619000Y601100D03*
X3873000Y347100D03*
X3873000Y601100D03*
X4127000Y347100D03*
X4127000Y601100D03*
X4381000Y347100D03*
X4381000Y601100D03*
X4635000Y347100D03*
X4635000Y601100D03*
X4889000Y347100D03*
X4889000Y601100D03*
X5143000Y347100D03*
X5143000Y601100D03*
X5397000Y5935100D03*
X5397000Y6189100D03*
X5397000Y6443100D03*
X5397000Y6697100D03*
X5651000Y5935100D03*
X5651000Y6189100D03*
X5651000Y6443100D03*
X5651000Y6697100D03*
X5905000Y5935100D03*
X5905000Y6189100D03*
X5905000Y6443100D03*
X5905000Y6697100D03*
X6159000Y5935100D03*
X6159000Y6189100D03*
X6159000Y6443100D03*
X6159000Y6697100D03*
X6413000Y5935100D03*
X6413000Y6189100D03*
X6413000Y6443100D03*
X6413000Y6697100D03*
X6413000Y12285100D03*
X6413000Y12539100D03*
X6413000Y12793100D03*
X6413000Y13047100D03*
X6413000Y13301100D03*
X6413000Y13555100D03*
X6413000Y13809100D03*
X6413000Y14469500D03*
X6413000Y14723500D03*
X6413000Y14977500D03*
X6413000Y15231500D03*
X6413000Y15485500D03*
X6413000Y15739500D03*
X6413000Y15993500D03*
X6413000Y16247500D03*
X6413000Y16501500D03*
X6667000Y5935100D03*
X6667000Y6189100D03*
X6667000Y6443100D03*
X6667000Y6697100D03*
X6921000Y2125100D03*
X6921000Y2379100D03*
X6921000Y2633100D03*
X6921000Y2887100D03*
X6921000Y3141100D03*
X6921000Y3395100D03*
X6921000Y3649100D03*
X6921000Y3903100D03*
X6921000Y4157100D03*
X6921000Y5935100D03*
X6921000Y6189100D03*
X6921000Y6443100D03*
X6921000Y6697100D03*
X6929900Y14476100D03*
X6929900Y14730100D03*
X6929900Y14984100D03*
X6929900Y15238100D03*
X6929900Y15492100D03*
X7175000Y2125100D03*
X7175000Y2379100D03*
X7175000Y2633100D03*
X7175000Y2887100D03*
X7175000Y3141100D03*
X7175000Y3395100D03*
X7175000Y3649100D03*
X7175000Y3903100D03*
X7175000Y4157100D03*
X7175000Y4411100D03*
X7175000Y5935100D03*
X7175000Y6189100D03*
X7175000Y6443100D03*
X7175000Y6697100D03*
X7183900Y14476100D03*
X7183900Y14730100D03*
X7183900Y14984100D03*
X7183900Y15238100D03*
X7183900Y15492100D03*
X7183900Y15746100D03*
X7429000Y2125100D03*
X7429000Y2379100D03*
X7429000Y2633100D03*
X7429000Y2887100D03*
X7429000Y3141100D03*
X7429000Y3395100D03*
X7429000Y3649100D03*
X7429000Y3903100D03*
X7429000Y4157100D03*
X7429000Y5935100D03*
X7429000Y6189100D03*
X7429000Y6443100D03*
X7429000Y6697100D03*
X7683000Y2125100D03*
X7683000Y2379100D03*
X7683000Y2633100D03*
X7683000Y2887100D03*
X7683000Y3141100D03*
X7683000Y3395100D03*
X7683000Y3649100D03*
X7683000Y3903100D03*
X7683000Y4157100D03*
X7683000Y4411100D03*
X7683000Y5935100D03*
X7683000Y6443100D03*
G54D32*
X3340000Y950000D03*
X4660000Y950000D03*
G54D24*
X2365000Y4976300D03*
X2365000Y5072300D03*
X3640000Y2504300D03*
X3640000Y2600300D03*
X3794000Y2056000D03*
X3794000Y2152000D03*
X3810000Y2504300D03*
X3810000Y2600300D03*
X3818500Y2697800D03*
X3818500Y2793800D03*
X3905500Y2028100D03*
X3905500Y2124100D03*
X3960000Y2504300D03*
X3960000Y2600300D03*
X3955000Y2929300D03*
X3955000Y3025300D03*
X4035000Y1905300D03*
X4035000Y1809300D03*
X4035000Y1989300D03*
X4035000Y2085300D03*
X4175000Y1994300D03*
X4175000Y2090300D03*
X4095000Y2304300D03*
X4190000Y2504300D03*
X4095000Y2400300D03*
X4190000Y2600300D03*
X4095000Y2872000D03*
X4095000Y2968000D03*
X4205000Y2304300D03*
X4205000Y2400300D03*
X4199000Y2872000D03*
X4199000Y2968000D03*
X4470100Y1420800D03*
X4470100Y1516800D03*
X4470000Y5100300D03*
X4470000Y5004300D03*
X4685000Y1994300D03*
X4685000Y2090300D03*
X4880000Y8396000D03*
X4880000Y8492000D03*
X4987000Y879100D03*
X4987000Y975100D03*
X4980000Y8396000D03*
X4980000Y8492000D03*
X5080000Y8396000D03*
X5080000Y8492000D03*
X5200000Y8396000D03*
X5200000Y8492000D03*
X5200000Y8752000D03*
X5200000Y8656000D03*
X5320000Y8396000D03*
X5320000Y8492000D03*
X5320000Y8752000D03*
X5320000Y8656000D03*
X5490000Y8196000D03*
X5490000Y8292000D03*
X5440000Y8396000D03*
X5440000Y8492000D03*
X5440000Y8752000D03*
X5440000Y8656000D03*
X5590000Y8196000D03*
X5590000Y8292000D03*
X6034000Y9869200D03*
X6034000Y9965200D03*
X6271000Y10749100D03*
X6271000Y10653100D03*
X6386600Y9868000D03*
X6386600Y9964000D03*
G54D42*
X4801000Y4032300D03*
X4851000Y4032300D03*
X4801000Y4442300D03*
X4851000Y4442300D03*
X5410000Y3382300D03*
X5460000Y3382300D03*
X5410000Y3792300D03*
X5460000Y3792300D03*
X5411000Y4032300D03*
X5461000Y4032300D03*
X5411000Y4442300D03*
X5461000Y4442300D03*
X6218000Y3382300D03*
X6268000Y3382300D03*
X6218000Y3792300D03*
X6268000Y3792300D03*
X6219000Y4039300D03*
X6269000Y4039300D03*
X6219000Y4449300D03*
X6269000Y4449300D03*
G54D15*
X317000Y5681100D03*
X1070100Y14476100D03*
X1587000Y13301100D03*
X1587000Y15587100D03*
X1587000Y16603100D03*
X2603000Y6189100D03*
X2603000Y6697100D03*
X2857000Y601100D03*
X6413000Y12031100D03*
X6413000Y14215500D03*
X6921000Y4411100D03*
X6929900Y15746100D03*
X7429000Y4411100D03*
X7683000Y6189100D03*
X7683000Y6697100D03*
G54D33*
X3600000Y875000D03*
X3520000Y875000D03*
X3600000Y1325000D03*
X3520000Y1325000D03*
X3680000Y875000D03*
X3680000Y1325000D03*
X3760000Y875000D03*
X3760000Y1325000D03*
X3920000Y875000D03*
X3840000Y875000D03*
X3920000Y1325000D03*
X3840000Y1325000D03*
X4000000Y875000D03*
X4000000Y1325000D03*
X4160000Y875000D03*
X4080000Y875000D03*
X4160000Y1325000D03*
X4080000Y1325000D03*
X4240000Y875000D03*
X4240000Y1325000D03*
X4400000Y875000D03*
X4320000Y875000D03*
X4400000Y1325000D03*
X4320000Y1325000D03*
X4480000Y875000D03*
X4480000Y1325000D03*
G54D25*
X2511000Y5280000D03*
X2626000Y2165200D03*
X2607000Y5280000D03*
X2722000Y2165200D03*
X2667000Y4874300D03*
X2763000Y4874300D03*
X3397000Y2407300D03*
X3397000Y2697300D03*
X3396000Y2852500D03*
X3397000Y2952300D03*
X3493000Y2407300D03*
X3493000Y2697300D03*
X3492000Y2852500D03*
X3493000Y2952300D03*
X4077000Y4982300D03*
X4077000Y5102300D03*
X4173000Y4982300D03*
X4173000Y5102300D03*
X4267000Y4982300D03*
X4262000Y5102300D03*
X4312000Y7854000D03*
X4347000Y2482300D03*
X4427000Y2627300D03*
X4363000Y4982300D03*
X4358000Y5102300D03*
X4408000Y7854000D03*
X4512000Y2317300D03*
X4443000Y2482300D03*
X4523000Y2627300D03*
X4608000Y2317300D03*
X4562000Y7614000D03*
X4658000Y7614000D03*
X4562000Y7734000D03*
X4658000Y7734000D03*
X4562000Y7854000D03*
X4658000Y7854000D03*
X4557000Y7984000D03*
X4653000Y7984000D03*
X4561000Y8141000D03*
X4657000Y8141000D03*
X4706000Y4620000D03*
X4802000Y4620000D03*
X4876000Y8100000D03*
X4972000Y8100000D03*
X4951000Y8203000D03*
X5056000Y4560000D03*
X5047000Y8203000D03*
X5152000Y4560000D03*
X5366000Y3910000D03*
X5366500Y4568500D03*
X5314000Y4761000D03*
X5462000Y3910000D03*
X5462500Y4568500D03*
X5410000Y4761000D03*
X5686000Y3980000D03*
X5782000Y3980000D03*
X5772000Y8124000D03*
X5823000Y10191100D03*
X5833000Y10361100D03*
X5926000Y3980000D03*
X5868000Y8124000D03*
X5919000Y10191100D03*
X5929000Y10361100D03*
X6022000Y3980000D03*
X6196000Y3910000D03*
X6105500Y4549500D03*
X6099500Y4759000D03*
X6195500Y4759000D03*
X6292000Y3910000D03*
X6201500Y4549500D03*
X6512000Y8244000D03*
X6608000Y8244000D03*
X6621000Y10190800D03*
X6717000Y10190800D03*
G54D34*
X3815500Y3995200D03*
X3815500Y4145200D03*
X3815500Y4095200D03*
X3815500Y4045200D03*
X3815500Y4265200D03*
X3815500Y4215200D03*
X3815500Y4365200D03*
X3815500Y4315200D03*
X3805500Y4715200D03*
X3805500Y4815200D03*
X3805500Y4765200D03*
X3805500Y4930200D03*
X3805500Y4865200D03*
X3805500Y5080200D03*
X3805500Y5030200D03*
X3805500Y4980200D03*
X3910500Y3995200D03*
X3910500Y4045200D03*
X3910500Y4095200D03*
X3910500Y4145200D03*
X3910500Y4215200D03*
X3910500Y4265200D03*
X3910500Y4315200D03*
X3910500Y4365200D03*
X3900500Y4715200D03*
X3900500Y4765200D03*
X3900500Y4815200D03*
X3900500Y4930200D03*
X3900500Y4865200D03*
X3900500Y4980200D03*
X3900500Y5030200D03*
X3900500Y5080200D03*
X4537500Y4011200D03*
X4537500Y4111200D03*
X4537500Y4061200D03*
X4526500Y4226200D03*
X4537500Y4161200D03*
X4526500Y4376200D03*
X4526500Y4326200D03*
X4526500Y4276200D03*
X4632500Y4011200D03*
X4632500Y4061200D03*
X4632500Y4111200D03*
X4621500Y4226200D03*
X4632500Y4161200D03*
X4621500Y4276200D03*
X4621500Y4326200D03*
X4621500Y4376200D03*
X4850500Y4923200D03*
X4850500Y5073200D03*
X4850500Y5023200D03*
X4850500Y4973200D03*
X4945500Y4923200D03*
X4945500Y4973200D03*
X4945500Y5023200D03*
X4945500Y5073200D03*
G54D43*
X4826000Y4237300D03*
X5435000Y3587300D03*
X5436000Y4237300D03*
X6243000Y3587300D03*
X6244000Y4244300D03*
G54D16*
X297500Y11333800D03*
X297500Y11448800D03*
X689500Y11332600D03*
X689500Y11447600D03*
X582500Y11991600D03*
X582500Y12106600D03*
X581500Y12754800D03*
X581500Y12869800D03*
X1119500Y11336000D03*
X1119500Y11451000D03*
G54D35*
X3819000Y7455000D03*
X3819000Y7605000D03*
X4169000Y7455000D03*
X4169000Y7605000D03*
G54D17*
X400000Y400000D03*
X400000Y7275000D03*
X400000Y16575000D03*
X7600000Y400000D03*
X7600000Y7285000D03*
X7607000Y16584000D03*
G54D44*
X5252000Y747100D03*
X5252000Y877100D03*
X5462000Y747100D03*
X5462000Y812100D03*
X5462000Y877100D03*
G54D26*
X2531000Y5473000D03*
X2531000Y5633000D03*
X3275000Y2467300D03*
X3275000Y2627300D03*
X5122000Y897100D03*
X5122000Y1057100D03*
G54D45*
X5620000Y8476500D03*
X5620000Y8811500D03*
G54D27*
X2701000Y1787300D03*
X2701000Y1887300D03*
X2701000Y1837300D03*
X2701000Y1987300D03*
X2701000Y1937300D03*
X2701000Y2037300D03*
X2961000Y1787300D03*
X2961000Y1837300D03*
X2961000Y1887300D03*
X2961000Y1937300D03*
X2961000Y1987300D03*
X2961000Y2037300D03*
G54D36*
X3869000Y7455000D03*
X3919000Y7455000D03*
X3919000Y7605000D03*
X3869000Y7605000D03*
X3969000Y7455000D03*
X4019000Y7455000D03*
X4019000Y7605000D03*
X3969000Y7605000D03*
X4069000Y7455000D03*
X4119000Y7455000D03*
X4119000Y7605000D03*
X4069000Y7605000D03*
G54D18*
X437000Y8186500D03*
X437000Y8631500D03*
X437000Y9761500D03*
X437000Y10206500D03*
X7555000Y9641500D03*
X7555000Y10126500D03*
G54D28*
X2806000Y1732300D03*
X2856000Y1732300D03*
X2856000Y2092300D03*
X2806000Y2092300D03*
G54D37*
X4105000Y3267300D03*
X4305000Y3267300D03*
G54D46*
X6061000Y7866500D03*
X6061000Y8120500D03*
X6061000Y8374500D03*
X6061000Y8628500D03*
X6315000Y7739500D03*
X6315000Y7993500D03*
X6315000Y8247500D03*
X6315000Y8501500D03*
G54D19*
X625000Y8964000D03*
X675000Y10534000D03*
X825000Y8964000D03*
X875000Y10534000D03*
X1025000Y8709000D03*
X1075000Y10284000D03*
X1699900Y11550000D03*
X2854100Y16124100D03*
X3054100Y16124100D03*
X3190000Y1100000D03*
X3254100Y16124100D03*
X3900000Y13577700D03*
X4100000Y13377700D03*
X4100000Y13577700D03*
X4810000Y1100000D03*
X4944000Y16126100D03*
X5144000Y16126100D03*
X5334000Y11407400D03*
X5344000Y16126100D03*
X5597000Y9237100D03*
X5770600Y11407400D03*
X5797000Y9237100D03*
X5970600Y11207400D03*
X5970600Y11407400D03*
X6170600Y11207400D03*
X6170600Y11407400D03*
X6370600Y11207400D03*
X6370600Y11407400D03*
X6867000Y9237100D03*
G54D38*
X4325000Y1872300D03*
X4325000Y2072300D03*
X4525000Y1872300D03*
X4525000Y2072300D03*
X5830000Y8444000D03*
X5830000Y8644000D03*
G54D29*
X2831000Y1912300D03*
G54D47*
X6645000Y7396500D03*
X6645000Y8971500D03*
G54D48*
X7288000Y7805500D03*
X7288000Y8816500D03*
X7440000Y7551500D03*
X7440000Y8562500D03*
G54D39*
X4440000Y3262300D03*
X4600000Y3262300D03*
X5592000Y807100D03*
X5752000Y807100D03*
G54D49*
G01X0Y300000D02*
X0Y16662000D01*
G02X300000Y16962000I300000J0D01*
G01X7700000Y16962000D01*
G02X8000000Y16662000I37J-299963D01*
G01X8000000Y300000D01*
G02X7700000Y0I-300000J0D01*
G01X300000Y0D01*
G02X0Y300000I0J300000D01*
M02*
